<?xml version="1.0" standalone="no"?>
<!DOCTYPE svg PUBLIC "-//W3C//DTD SVG 20010904//EN"
 "http://www.w3.org/TR/2001/REC-SVG-20010904/DTD/svg10.dtd">
<svg version="1.0" xmlns="http://www.w3.org/2000/svg"
 width="1299.000000pt" height="472.000000pt" viewBox="0 0 1299.000000 472.000000"
 preserveAspectRatio="xMidYMid meet">

<g transform="translate(0.000000,472.000000) scale(0.100000,-0.100000)"
fill="#fff" stroke="none">
<path d="M510 2810 l0 -1620 2105 0 2105 0 0 1620 0 1620 -2105 0 -2105 0 0
-1620z m403 1593 l127 -6 0 -35 c0 -23 8 -42 23 -56 12 -11 31 -32 42 -46 11
-14 42 -44 67 -67 47 -42 47 -43 20 -43 -43 0 -179 -38 -241 -67 -79 -38 -137
-79 -206 -148 -75 -74 -123 -146 -159 -245 -16 -41 -32 -84 -36 -95 -5 -11 -9
165 -9 392 l-1 412 38 4 c67 7 204 7 335 0z m3774 -418 c3 -414 2 -419 -16
-380 -10 22 -23 57 -30 78 -21 64 -84 168 -134 223 -86 95 -230 188 -323 209
-16 4 -48 13 -72 21 -23 8 -55 14 -71 14 -27 0 -26 2 33 63 87 90 103 112 110
151 l7 35 97 4 c53 2 165 3 247 3 l150 -1 2 -420z m-529 383 l-3 -33 -705 -3
c-507 -2 -716 0 -744 9 -53 15 -141 14 -191 -3 -32 -10 -176 -12 -740 -8
l-700 5 -3 33 -3 32 1546 0 1546 0 -3 -32z m-2998 -88 c0 -36 -12 -38 -34 -5
-21 32 -20 35 9 35 21 0 25 -5 25 -30z m160 11 c10 -19 14 -101 5 -101 -2 0
-15 5 -28 11 -23 10 -36 47 -37 97 0 20 48 14 60 -7z m133 12 c-7 -2 -13 -20
-13 -38 0 -31 -21 -65 -40 -65 -5 0 -15 -3 -24 -6 -20 -8 -22 34 -4 83 11 30
15 33 53 32 22 0 34 -3 28 -6z m97 -12 c5 -11 10 -38 10 -61 0 -34 -3 -41 -16
-36 -9 3 -22 6 -29 6 -8 0 -17 15 -20 38 -4 20 -9 45 -12 55 -7 25 53 24 67
-2z m133 11 c-6 -4 -13 -25 -15 -47 -2 -30 -9 -42 -25 -50 -28 -12 -30 -25 -3
-25 24 0 27 -18 5 -26 -9 -4 -25 4 -39 19 -25 27 -25 54 -3 110 10 23 18 27
52 27 22 0 35 -4 28 -8z m97 -11 c5 -11 10 -37 10 -59 0 -37 -1 -38 -30 -34
-30 4 -34 11 -46 75 -6 36 -6 37 25 37 20 0 34 -7 41 -19z m138 12 c-13 -3
-18 -14 -18 -37 0 -42 -17 -62 -58 -71 l-33 -7 7 44 c4 23 11 45 16 46 4 2 8
10 8 18 0 10 13 14 48 13 26 -1 39 -3 30 -6z m92 -13 c6 -12 10 -38 8 -58 -3
-33 -6 -37 -28 -34 -35 5 -39 11 -44 65 -5 46 -5 47 24 47 19 0 33 -7 40 -20z
m139 13 c-17 -4 -29 -32 -29 -70 0 -13 -8 -24 -20 -28 -11 -3 -20 -11 -20 -16
0 -5 9 -9 20 -9 11 0 20 -7 20 -15 0 -9 -9 -15 -25 -15 -15 0 -25 6 -25 14 0
8 -6 16 -13 19 -10 4 -12 16 -7 44 14 79 18 83 69 82 25 -1 39 -3 30 -6z m87
-10 c7 -10 14 -37 14 -61 0 -40 -2 -43 -22 -37 -34 11 -40 20 -48 70 -7 43 -6
45 18 45 14 0 31 -8 38 -17z m120 -5 c-3 -13 -6 -35 -6 -50 0 -20 -7 -28 -31
-37 -46 -16 -49 -14 -42 22 11 57 31 87 59 87 22 0 25 -3 20 -22z m79 2 c-14
-16 -20 -17 -27 -8 -13 22 -9 28 19 28 26 0 26 0 8 -20z m287 -11 c26 -17 48
-35 48 -39 0 -4 -20 -20 -45 -35 -40 -23 -49 -25 -78 -14 -23 8 -43 8 -70 1
-31 -9 -43 -7 -77 11 -44 24 -49 36 -22 59 37 33 79 47 136 48 50 0 67 -5 108
-31z m98 18 c0 -22 -11 -27 -26 -12 -19 19 -18 25 6 25 11 0 20 -6 20 -13z
m104 -9 c23 -32 20 -90 -5 -116 -11 -12 -24 -20 -30 -17 -17 11 -9 25 14 25
22 0 22 0 -5 23 -25 21 -46 86 -31 100 13 14 42 6 57 -15z m122 -9 c-3 -17 -6
-40 -6 -50 0 -12 -7 -19 -20 -19 -11 0 -20 -7 -20 -15 0 -8 9 -15 20 -15 11 0
20 -4 20 -10 0 -15 -39 -12 -56 4 -19 19 -18 86 2 114 9 13 26 22 41 22 23 0
25 -3 19 -31z m108 9 c21 -29 20 -87 -1 -110 -17 -19 -59 -26 -48 -8 3 6 15
10 27 10 18 0 17 3 -11 29 -30 28 -42 77 -24 94 13 14 42 6 57 -15z m125 -24
c-10 -54 -16 -64 -35 -64 -8 0 -14 -4 -14 -10 0 -5 9 -10 20 -10 11 0 20 -4
20 -10 0 -15 -39 -12 -56 4 -17 18 -18 75 -2 111 9 19 19 25 43 25 l32 0 -8
-46z m103 29 c22 -19 24 -89 4 -115 -14 -19 -72 -26 -61 -8 3 6 15 10 26 10
24 0 25 16 1 22 -13 4 -22 21 -29 57 -10 51 -10 51 15 51 14 0 34 -7 44 -17z
m128 -10 c0 -45 -11 -72 -31 -78 -25 -8 -24 -25 1 -25 11 0 20 -4 20 -10 0
-14 -43 -13 -58 2 -16 16 -15 93 0 118 8 12 24 20 40 20 24 0 28 -4 28 -27z
m102 10 c42 -37 10 -143 -39 -130 -16 4 -15 6 5 12 27 9 28 22 2 30 -20 6 -37
62 -26 90 7 20 35 19 58 -2z m124 1 c-3 -9 -6 -30 -6 -48 0 -26 -6 -36 -27
-46 l-28 -14 28 -4 c30 -4 36 -17 11 -26 -29 -11 -54 22 -54 71 0 57 17 83 53
83 23 0 28 -4 23 -16z m108 -9 c18 -27 22 -95 5 -95 -15 0 -53 21 -61 34 -4 6
-8 28 -8 49 0 32 3 37 24 37 14 0 30 -10 40 -25z m118 -22 c-4 -55 -7 -58 -44
-67 -27 -6 -28 -5 -28 34 0 51 18 80 50 80 24 0 25 -2 22 -47z m148 37 c0 -6
-12 -23 -27 -38 l-26 -26 -10 22 c-7 15 -6 26 3 37 14 17 60 21 60 5z m-2890
-16 c0 -8 -4 -12 -10 -9 -5 3 -10 10 -10 16 0 5 5 9 10 9 6 0 10 -7 10 -16z
m2781 -57 c-8 -8 -11 -4 -11 14 0 33 14 47 18 19 2 -12 -1 -27 -7 -33z m-2801
0 c0 -10 -4 -15 -10 -12 -5 3 -10 18 -10 33 0 21 2 24 10 12 5 -8 10 -23 10
-33z m47 -64 c-3 -10 -5 -2 -5 17 0 19 2 27 5 18 2 -10 2 -26 0 -35z m218 29
c-11 -2 -25 -10 -32 -19 -6 -8 -22 -13 -35 -11 -20 3 -17 7 22 24 25 12 50 19
55 15 6 -3 1 -7 -10 -9z m460 8 c3 -5 1 -10 -4 -10 -6 0 -11 5 -11 10 0 6 2
10 4 10 3 0 8 -4 11 -10z m1160 0 c3 -5 -3 -10 -15 -10 -12 0 -18 5 -15 10 3
6 10 10 15 10 5 0 12 -4 15 -10z m224 -11 c-15 -9 -32 -2 -24 11 3 5 13 6 21
3 12 -4 13 -8 3 -14z m237 -7 c-9 -9 -37 8 -31 18 5 8 11 7 21 -1 8 -6 12 -14
10 -17z m226 6 c-12 -12 -35 -1 -27 12 3 5 13 6 21 3 10 -4 12 -9 6 -15z
m-2075 6 c-3 -3 -12 -4 -19 -1 -8 3 -5 6 6 6 11 1 17 -2 13 -5z m460 0 c-3 -3
-12 -4 -19 -1 -8 3 -5 6 6 6 11 1 17 -2 13 -5z m223 2 c0 -3 -4 -8 -10 -11 -5
-3 -10 -1 -10 4 0 6 5 11 10 11 6 0 10 -2 10 -4z m-1061 -32 c2 -2 -8 -4 -22
-4 -18 0 -27 5 -27 15 0 13 4 14 23 4 12 -6 24 -13 26 -15z m2682 3 c-10 -9
-11 -8 -5 6 3 10 9 15 12 12 3 -3 0 -11 -7 -18z m-2461 3 c0 -5 -9 -10 -20
-10 -11 0 -20 5 -20 10 0 6 9 10 20 10 11 0 20 -4 20 -10z m230 1 c0 -5 -7
-12 -16 -15 -22 -9 -24 -8 -24 9 0 8 9 15 20 15 11 0 20 -4 20 -9z m120 -1 c0
-5 -11 -10 -25 -10 -14 0 -25 5 -25 10 0 6 11 10 25 10 14 0 25 -4 25 -10z
m110 1 c0 -11 -26 -22 -34 -14 -12 12 -5 23 14 23 11 0 20 -4 20 -9z m228 -3
c-7 -19 -38 -22 -38 -4 0 10 9 16 21 16 12 0 19 -5 17 -12z m122 2 c0 -5 -11
-10 -25 -10 -14 0 -25 5 -25 10 0 6 11 10 25 10 14 0 25 -4 25 -10z m105 0 c3
-5 -3 -10 -14 -10 -12 0 -21 5 -21 10 0 6 6 10 14 10 8 0 18 -4 21 -10z m355
0 c0 -5 -12 -10 -26 -10 -14 0 -23 4 -19 10 3 6 15 10 26 10 10 0 19 -4 19
-10z m1024 1 c7 -11 -22 -23 -35 -15 -5 3 -7 10 -4 15 8 12 32 12 39 0z m116
-1 c0 -5 -12 -10 -27 -10 -22 0 -25 2 -13 10 20 13 40 13 40 0z m-1278 -30
c25 -26 29 -36 24 -63 -8 -41 -48 -77 -87 -77 -72 0 -106 96 -53 145 37 35 78
33 116 -5z m-338 -32 c-3 -13 -9 -25 -11 -28 -3 -3 -248 -6 -546 -7 -298 -1
-573 -5 -610 -8 -38 -4 -98 -18 -135 -31 -196 -74 -336 -223 -398 -424 -23
-77 -25 -97 -21 -215 5 -145 22 -205 90 -307 169 -253 532 -326 771 -154 66
48 154 153 170 204 7 22 26 31 26 12 0 -18 -36 -82 -69 -125 -73 -94 -118
-131 -218 -177 -59 -28 -80 -32 -175 -36 -64 -3 -134 0 -171 8 -119 23 -252
110 -346 228 -96 120 -135 240 -128 399 9 221 114 416 297 549 90 66 155 92
325 127 11 3 276 5 588 6 l568 1 -7 -22z m166 6 c0 -8 -4 -12 -10 -9 -5 3 -10
10 -10 16 0 5 5 9 10 9 6 0 10 -7 10 -16z m1603 -4 c166 -37 296 -117 402
-248 121 -150 174 -329 154 -518 -21 -199 -177 -406 -369 -492 -73 -32 -160
-45 -279 -40 -102 4 -115 7 -184 42 -97 48 -181 126 -234 215 -44 72 -50 91
-34 91 6 0 25 -28 43 -62 65 -123 199 -219 343 -248 72 -15 204 -7 272 16 161
54 282 161 351 309 46 98 57 274 26 420 -15 73 -89 200 -158 273 -69 73 -174
144 -232 158 -16 4 -33 10 -39 14 -36 28 -148 33 -700 34 l-570 1 -3 28 -3 27
560 0 c527 0 567 -1 654 -20z m-1672 -10 c6 0 7 -4 4 -10 -3 -5 -15 -10 -26
-10 -15 0 -19 -7 -19 -34 0 -18 7 -39 15 -46 8 -7 13 -16 10 -20 -3 -5 -1 -20
5 -34 8 -22 16 -26 47 -26 29 -1 48 -9 76 -34 36 -32 38 -37 35 -88 l-3 -53
-32 49 c-18 28 -33 63 -33 79 0 26 -3 28 -22 22 -13 -4 -47 -9 -77 -12 l-54
-6 23 31 c18 24 21 38 16 64 -22 105 -19 145 10 134 9 -3 20 -6 25 -6z m405
-11 c6 -10 -17 -12 -40 -3 -9 3 -14 10 -11 14 6 10 43 1 51 -11z m0 -92 c-16
-39 -12 -72 13 -101 16 -18 14 -19 -61 -12 l-78 7 0 -28 c0 -16 -12 -46 -27
-68 l-28 -40 -3 50 c-3 42 0 52 20 67 13 10 30 24 38 30 8 7 32 15 54 18 33 4
41 10 47 33 4 16 3 27 -3 27 -5 0 -2 7 6 16 9 8 19 27 23 42 5 18 8 22 11 10
2 -9 -4 -32 -12 -51z m-513 26 c7 -36 -8 -45 -60 -40 -49 5 -62 -6 -112 -95
-27 -48 -38 -58 -67 -64 -47 -9 -422 1 -633 17 -207 15 -280 7 -369 -43 -75
-42 -164 -134 -204 -211 -32 -59 -33 -67 -33 -172 1 -131 19 -181 96 -256 77
-75 125 -94 244 -94 119 0 157 16 227 93 52 58 68 105 68 193 0 79 -23 131
-78 181 -147 133 -372 45 -372 -145 0 -44 6 -62 29 -94 51 -70 148 -93 212
-50 96 64 85 198 -19 227 -76 20 -137 -20 -137 -92 0 -32 6 -45 30 -65 25 -22
35 -25 79 -20 46 6 49 5 32 -8 -27 -21 -75 -19 -113 5 -44 27 -56 54 -51 117
5 62 38 105 96 124 142 47 278 -118 217 -265 -29 -68 -80 -114 -154 -135 -65
-20 -67 -20 -135 -1 -56 15 -77 27 -117 66 -70 69 -92 128 -87 229 4 67 10 89
37 137 36 63 106 133 154 153 76 31 145 38 221 21 91 -21 138 -45 199 -104 61
-59 89 -108 117 -200 l22 -74 -48 -43 -49 -43 34 -35 c40 -43 38 -64 -16 -145
-112 -170 -298 -253 -492 -222 -41 7 -82 16 -90 20 -9 5 -41 20 -72 34 -71 33
-138 91 -193 170 -61 86 -86 149 -96 241 -22 211 38 384 185 530 104 104 209
158 340 175 33 4 306 8 606 9 l547 1 5 -27z m1842 -7 c160 -58 280 -164 359
-317 31 -60 49 -125 70 -254 8 -53 -23 -196 -59 -274 -49 -103 -152 -204 -258
-255 -254 -120 -538 -26 -659 218 l-30 61 36 40 c20 21 36 42 36 45 0 4 -21
21 -46 40 -46 32 -46 33 -39 79 16 115 111 246 219 300 55 28 79 34 153 38 49
3 106 1 128 -6 100 -27 186 -114 225 -225 24 -71 25 -128 5 -187 -35 -99 -104
-163 -204 -190 -59 -16 -71 -16 -121 -3 -68 17 -96 37 -136 96 -77 114 -38
258 81 304 71 27 125 14 175 -43 33 -38 40 -53 40 -87 0 -46 -26 -93 -62 -112
-31 -17 -90 -17 -113 0 -16 12 -13 13 33 8 47 -4 54 -2 83 27 27 28 31 37 26
68 -10 57 -41 83 -102 83 -58 0 -88 -17 -111 -62 -32 -62 11 -155 82 -178 72
-24 164 13 199 80 8 16 15 55 15 88 0 49 -5 66 -31 106 -42 62 -95 89 -174 89
-97 -1 -165 -44 -222 -141 -36 -60 -35 -153 2 -225 35 -69 107 -134 169 -152
196 -59 388 52 446 255 l22 77 -22 79 c-43 158 -132 265 -273 330 -70 32 -204
41 -367 25 -63 -6 -229 -14 -368 -18 -288 -7 -254 -17 -317 95 -20 34 -41 62
-48 63 -7 0 -36 0 -64 -1 -56 -2 -59 2 -47 48 l7 23 591 -3 591 -3 80 -29z
m-1647 2 c19 -19 14 -28 -18 -28 -28 0 -29 2 -18 20 15 23 20 24 36 8z m222
-8 c10 -18 8 -20 -20 -20 -32 0 -38 8 -18 28 17 17 26 15 38 -8z m-390 -65 c0
-8 -4 -15 -8 -15 -5 0 -27 -16 -50 -36 -36 -30 -42 -41 -42 -74 0 -27 6 -41
21 -51 22 -15 23 -13 -98 -217 -12 -20 -30 -50 -39 -67 -48 -86 -147 -245
-152 -245 -4 0 -33 23 -64 51 -42 37 -55 54 -50 67 10 23 63 114 78 132 6 8
25 40 41 70 34 63 82 145 123 210 16 25 43 70 60 100 50 86 55 90 122 90 45 0
58 -3 58 -15z m706 -82 c32 -54 61 -100 64 -103 3 -3 11 -16 18 -30 6 -14 36
-65 66 -115 30 -49 71 -119 92 -155 20 -36 46 -76 56 -90 l19 -24 -58 -53
c-32 -29 -62 -53 -68 -53 -5 0 -19 17 -31 38 -47 84 -159 273 -219 372 l-64
104 25 23 c13 12 24 33 24 46 0 24 -34 66 -77 94 -42 28 -29 43 36 43 l58 0
59 -97z m-742 -37 c-3 -9 -10 -13 -16 -10 -5 3 -4 12 3 20 15 18 22 13 13 -10z
m616 4 c0 -5 -2 -10 -4 -10 -3 0 -8 5 -11 10 -3 6 -1 10 4 10 6 0 11 -4 11
-10z m-1543 -6 c53 -6 60 -9 56 -25 -4 -13 -11 -17 -27 -14 -173 44 -173 43
-130 44 23 1 68 -2 101 -5z m2583 -13 l-65 -6 45 -6 c172 -23 258 -66 337
-169 41 -54 83 -171 83 -231 -1 -74 -91 -228 -153 -260 -12 -6 0 10 26 35 63
61 107 155 107 229 0 88 -58 217 -125 276 -52 45 -155 91 -207 91 -24 0 -49 5
-55 11 -7 7 -43 10 -97 8 -74 -4 -86 -2 -90 14 -4 16 7 17 127 15 103 -1 118
-3 67 -7z m-2793 -7 c-3 -3 -12 -4 -19 -1 -8 3 -5 6 6 6 11 1 17 -2 13 -5z
m462 -11 c3 -4 41 -25 85 -47 66 -32 83 -37 109 -29 35 10 53 40 18 30 -16 -4
-21 -1 -21 13 0 19 32 32 56 23 8 -3 17 -16 20 -30 5 -20 0 -32 -27 -58 l-34
-34 -52 18 c-29 10 -77 34 -107 54 -31 21 -60 37 -66 37 -17 0 -11 -19 10 -30
12 -6 55 -42 97 -81 72 -65 117 -89 168 -89 18 1 19 1 3 11 -24 14 -23 39 2
39 28 0 27 -44 -2 -64 -50 -35 -103 -12 -195 87 -32 35 -75 76 -95 92 -26 21
-36 35 -32 47 3 10 1 18 -5 18 -6 0 -11 -4 -11 -9 0 -6 -12 -9 -27 -8 -43 3
-34 -22 17 -46 42 -21 83 -66 203 -227 41 -55 56 -61 75 -29 11 16 16 18 28 9
19 -17 18 -26 -8 -50 -18 -17 -30 -20 -58 -15 -38 7 -47 17 -87 95 -30 60
-104 169 -115 170 -5 0 -79 43 -117 67 -2 1 0 14 3 29 l7 27 76 -6 c42 -3 79
-9 82 -14z m2110 -5 c7 -18 4 -27 -12 -40 -24 -19 -47 -23 -47 -8 0 5 8 14 18
19 15 9 15 12 2 21 -8 5 -21 8 -27 5 -7 -2 -13 0 -13 5 0 6 -7 10 -15 10 -12
0 -14 -4 -5 -20 8 -16 6 -21 -12 -31 -13 -6 -66 -53 -118 -104 -104 -101 -137
-117 -188 -91 -39 20 -57 63 -27 63 8 0 15 -9 15 -19 0 -20 32 -38 37 -21 2 6
12 9 21 7 21 -5 56 17 119 77 27 26 63 54 81 63 36 18 39 28 17 46 -33 28 -13
37 83 39 56 1 64 -1 71 -21z m-2424 -8 c97 -23 140 -42 204 -93 55 -44 125
-144 147 -211 9 -28 21 -57 27 -64 7 -9 7 -16 0 -23 -7 -7 -17 9 -31 46 -12
31 -22 62 -22 69 0 16 -63 107 -101 145 -51 51 -107 83 -193 108 -101 29 -117
29 -218 -3 -75 -24 -88 -32 -148 -93 -87 -88 -103 -133 -98 -275 2 -86 1 -101
-9 -83 -7 13 -12 61 -13 113 0 72 4 99 21 135 62 128 157 206 278 229 30 6 57
12 59 15 7 7 0 8 97 -15z m1129 -1 c35 -27 33 -61 -7 -130 -253 -443 -268
-462 -321 -438 -15 7 -34 25 -41 40 -15 28 -6 54 50 139 12 19 62 104 111 189
89 155 139 221 167 221 8 0 26 -9 41 -21z m388 7 c14 -10 208 -320 208 -331 0
-2 20 -36 45 -76 59 -96 60 -136 3 -165 -44 -23 -61 -6 -152 147 -44 74 -106
178 -138 232 -73 121 -79 147 -45 181 29 29 53 32 79 12z m628 -10 c0 -34 -30
-42 -52 -14 -17 23 -17 23 15 29 18 4 33 7 35 8 1 0 2 -10 2 -23z m-1660 -16
c0 -30 0 -30 -28 -16 -16 8 -34 22 -41 30 -12 14 -9 16 28 16 39 0 41 -1 41
-30z m170 21 c0 -5 -6 -21 -14 -35 l-14 -27 -4 23 c-2 13 -3 29 0 36 4 14 32
17 32 3z m21 -124 l-21 -42 0 45 c0 24 8 65 18 90 l17 45 3 -48 c2 -34 -3 -61
-17 -90z m72 116 c-4 -10 -14 -26 -23 -35 -15 -16 -16 -15 -17 17 -1 30 2 35
23 35 18 0 22 -4 17 -17z m1097 -16 c-1 -21 -1 -21 -15 -3 -8 10 -12 23 -9 28
9 14 24 -2 24 -25z m88 21 c13 -13 16 -59 6 -96 -6 -20 -9 -18 -30 25 -13 26
-24 56 -24 66 0 20 30 23 48 5z m127 -8 c17 -19 17 -20 -1 -21 -10 -1 -22 -1
-26 0 -5 0 -8 -6 -8 -14 0 -14 4 -17 33 -19 6 -1 14 -4 17 -8 3 -4 36 8 74 27
69 36 91 42 100 27 6 -10 -131 -80 -172 -88 -21 -4 -36 1 -60 21 -18 15 -32
33 -32 41 0 15 35 54 48 54 5 0 17 -9 27 -20z m-175 -65 c10 -22 21 -51 25
-65 l7 -25 -17 22 c-23 33 -45 89 -44 115 0 15 3 18 6 8 3 -8 13 -33 23 -55z
m658 49 c-78 -18 -160 -67 -209 -122 -47 -54 -94 -142 -104 -195 -10 -52 -30
-62 -22 -11 26 159 214 346 346 343 l46 -1 -57 -14z m-188 -21 c0 -4 -22 -30
-50 -58 -50 -51 -140 -196 -140 -226 0 -12 -6 -16 -19 -12 -10 3 -22 0 -25 -6
-11 -18 -51 -13 -71 9 -12 13 -15 27 -11 45 9 36 30 26 36 -16 l5 -34 33 35
c18 19 53 64 77 100 71 104 165 197 165 163z m-1740 -67 c0 -34 0 -35 -30 -25
-35 13 -38 25 -10 34 11 3 20 11 20 16 0 5 5 9 10 9 6 0 10 -16 10 -34z m1402
-7 c-4 -4 -17 -10 -29 -14 -19 -5 -23 -3 -23 18 0 34 9 39 35 19 13 -9 20 -20
17 -23z m-762 -49 c0 -67 -1 -70 -30 -85 -23 -12 -30 -22 -30 -45 0 -25 4 -30
25 -30 18 0 25 -5 25 -19 0 -19 -71 -149 -156 -286 -57 -91 -60 -92 -163 -55
l-59 22 42 72 c24 39 96 160 160 269 114 192 126 208 184 226 1 1 2 -30 2 -69z
m112 49 c13 -6 37 -34 54 -62 17 -29 88 -147 157 -264 70 -116 127 -214 127
-217 0 -2 -17 -10 -37 -17 -21 -6 -42 -15 -48 -19 -5 -4 -26 -10 -45 -13 l-35
-6 -60 102 c-32 56 -78 131 -101 167 -23 36 -44 76 -46 90 -2 21 2 26 25 28
22 3 27 8 27 32 0 22 -7 32 -27 42 -26 12 -28 18 -31 81 -3 70 0 75 40 56z
m-858 -15 c38 -7 41 -11 27 -33 -11 -18 -42 -7 -72 26 -17 19 -19 24 -7 20 9
-3 33 -9 52 -13z m1606 7 c0 -14 -52 -52 -64 -48 -25 8 -16 34 16 44 44 14 48
15 48 4z m-1492 -104 c-11 -23 -28 -53 -36 -65 l-15 -24 -13 24 c-18 32 -18
35 14 46 17 6 34 22 41 41 8 17 17 28 22 25 5 -3 -1 -24 -13 -47z m1402 -57
c0 -5 -4 -11 -9 -15 -9 -5 -91 99 -91 116 0 4 23 -14 50 -42 28 -27 50 -54 50
-59z m-2081 -84 c12 -26 12 -33 0 -55 -34 -59 -119 -45 -119 20 0 54 16 70 63
67 35 -3 44 -8 56 -32z m2793 17 c27 -24 23 -68 -8 -92 -32 -25 -52 -26 -82
-5 -25 17 -31 81 -10 102 17 17 78 15 100 -5z m-2202 -23 c0 -5 -4 -10 -9 -10
-6 0 -13 5 -16 10 -3 6 1 10 9 10 9 0 16 -4 16 -10z m1535 0 c3 -5 -3 -10 -14
-10 -12 0 -21 5 -21 10 0 6 6 10 14 10 8 0 18 -4 21 -10z m-1611 -78 c15 -18
14 -21 -16 -63 l-33 -44 -3 48 c-3 44 9 77 28 77 4 0 14 -8 24 -18z m914 -31
c18 -27 32 -52 32 -55 0 -3 -22 -6 -50 -6 -42 0 -50 3 -50 19 0 10 7 24 15 31
8 7 15 23 15 36 0 13 1 24 3 24 2 0 18 -22 35 -49z m790 37 c7 -7 12 -37 12
-67 l0 -54 -21 19 c-12 10 -28 32 -36 47 -13 26 -13 31 3 48 20 22 26 23 42 7z
m1201 -758 c-4 -421 -7 -890 -8 -1042 -1 -174 -5 -278 -11 -278 -5 0 -19 17
-30 38 -11 20 -30 54 -42 74 -13 21 -85 140 -160 265 -76 125 -160 264 -187
308 -27 44 -98 161 -158 260 -59 99 -175 290 -257 425 -82 135 -160 265 -174
290 l-25 44 49 -43 c99 -87 277 -149 392 -136 197 23 329 87 446 217 74 81
107 142 142 255 16 50 29 91 29 90 0 -1 -3 -346 -6 -767z m-2110 716 c31 -49
27 -56 -29 -56 l-51 0 17 33 c16 32 34 57 39 57 2 0 13 -15 24 -34z m-1980
-156 c13 -25 43 -70 67 -101 100 -130 216 -203 384 -240 105 -23 157 -21 276
11 82 22 128 46 197 103 27 21 50 37 52 35 2 -2 -14 -31 -35 -65 -65 -101
-450 -737 -630 -1038 -25 -41 -97 -160 -160 -265 -124 -204 -148 -244 -180
-303 -11 -20 -23 -37 -25 -37 -3 0 -5 467 -4 1038 1 1000 1 1035 18 972 9 -36
28 -85 40 -110z m1111 133 c0 -26 -1 -26 -17 -10 -16 16 -16 19 -3 27 20 13
20 13 20 -17z m1840 2 c0 -8 -4 -17 -10 -20 -6 -4 -10 5 -10 20 0 15 4 24 10
20 6 -3 10 -12 10 -20z m-1702 -8 l21 -22 -37 -48 c-35 -46 -37 -47 -55 -28
-18 18 -18 19 9 70 15 28 31 51 34 51 4 0 16 -10 28 -23z m1616 -65 c10 -16
-11 -42 -33 -42 -17 0 -71 61 -71 80 0 7 10 20 22 30 22 17 22 17 48 -19 14
-20 30 -42 34 -49z m-2487 -9 c35 -36 65 -55 95 -63 23 -7 52 -16 63 -20 19
-8 19 -9 1 -9 -51 -2 -103 26 -168 90 -38 37 -68 73 -67 80 0 9 5 7 12 -6 7
-11 35 -43 64 -72z m954 1 c11 -13 9 -23 -12 -61 -13 -24 -27 -47 -31 -49 -4
-2 -18 6 -33 18 l-26 23 33 43 c35 45 48 51 69 26z m837 -9 c7 -14 12 -28 12
-30 0 -3 -74 -5 -165 -5 -91 0 -165 3 -165 8 0 4 7 18 16 30 14 21 22 22 153
22 l138 0 11 -25z m594 -17 l35 -43 -30 -24 c-32 -27 -31 -27 -68 42 -16 30
-18 42 -8 53 19 23 34 17 71 -28z m584 -49 c3 -5 17 -10 32 -10 17 -1 21 -3 9
-6 -20 -5 -87 15 -87 27 0 10 38 1 46 -11z m244 13 c0 -11 -69 -32 -101 -31
-14 0 -5 6 24 13 26 7 50 16 54 19 9 10 23 9 23 -1z m-2871 -12 c-9 -5 -36
-12 -60 -15 l-44 -5 45 14 c56 17 82 20 59 6z m470 -57 c2 -1 -3 -11 -12 -21
-23 -25 -21 -39 4 -53 25 -13 21 -49 -16 -132 -28 -65 -73 -106 -188 -170 -92
-51 -127 -88 -127 -134 0 -30 28 -64 63 -76 24 -9 21 -28 -10 -70 -20 -25 -34
-34 -48 -31 -18 4 -20 0 -20 -45 0 -37 -5 -55 -22 -73 -20 -21 -91 -155 -113
-213 -6 -15 -17 -25 -30 -25 -11 0 -20 -3 -20 -8 0 -13 -39 -32 -54 -26 -26
10 -28 36 -4 61 18 19 28 22 53 17 l30 -6 -19 21 c-25 27 -58 27 -92 -2 -51
-44 -30 -114 42 -137 19 -7 34 -13 34 -15 0 -2 -27 -60 -60 -129 -33 -69 -60
-128 -60 -130 0 -3 -34 -76 -76 -163 -42 -87 -88 -184 -102 -215 l-27 -57
-173 0 -174 -1 19 29 c36 59 209 342 253 416 81 136 289 478 354 585 36 58 85
139 109 180 24 41 88 147 142 235 54 88 136 224 183 302 l85 143 36 -27 c20
-14 38 -28 40 -30z m231 52 c0 -12 -35 -75 -42 -75 -13 0 -9 34 8 58 13 19 34
30 34 17z m801 -24 l17 -29 -67 -13 c-83 -17 -282 -15 -339 3 l-43 14 21 27
21 27 187 0 187 0 16 -29z m420 7 c23 -29 24 -50 2 -46 -19 3 -50 68 -32 68 6
0 19 -10 30 -22z m427 -241 c75 -125 169 -280 209 -345 40 -64 90 -148 113
-187 22 -38 114 -191 205 -340 90 -148 181 -299 201 -335 21 -36 45 -76 55
-90 26 -39 199 -321 199 -326 0 -2 -78 -4 -172 -4 l-173 0 -39 93 c-36 82 -79
174 -233 495 -45 95 -49 122 -15 122 11 0 31 11 46 25 37 34 35 76 -5 109 -35
30 -61 33 -83 10 -21 -20 -20 -21 10 -21 14 -1 36 -10 47 -22 l21 -21 -22 -22
-23 -23 -19 25 c-15 19 -22 22 -28 12 -11 -17 -27 6 -72 108 -19 41 -50 97
-69 124 -25 35 -35 61 -36 90 -1 34 -5 41 -21 39 -18 -1 -74 64 -74 86 0 5 14
14 30 21 56 23 70 92 29 136 -13 14 -65 49 -116 80 -151 90 -172 114 -195 229
-10 49 -9 57 6 68 15 11 16 17 5 41 -12 27 -11 30 21 57 32 26 36 27 48 11 7
-9 75 -119 150 -245z m-1609 190 c-7 -15 -18 -27 -26 -27 -17 0 -16 4 3 42 20
38 41 24 23 -15z m1133 3 c16 -29 16 -30 -1 -30 -16 0 -41 37 -41 60 0 18 25
0 42 -30z m-1005 -3 l22 -12 -19 -40 c-11 -22 -19 -46 -20 -52 0 -16 -10 -16
-45 -3 -30 11 -28 30 9 87 24 37 23 37 53 20z m914 -37 c29 -54 26 -63 -23
-75 -25 -6 -28 -4 -42 46 -9 29 -16 54 -16 56 0 4 40 21 50 22 3 1 17 -22 31
-49z m-96 -68 c5 -24 3 -33 -9 -38 -21 -8 -43 11 -67 58 l-20 39 33 14 c32 13
33 13 44 -13 7 -15 15 -42 19 -60z m-711 68 l25 -9 -26 -48 c-15 -26 -28 -50
-29 -52 -7 -8 -54 10 -54 22 0 24 35 97 47 97 6 0 23 -4 37 -10z m96 -35 c0
-16 -9 -19 -34 -9 -25 9 -19 24 9 24 16 0 25 -6 25 -15z m500 5 c0 -5 -6 -10
-14 -10 -8 0 -21 -3 -30 -6 -11 -4 -16 -1 -16 10 0 11 9 16 30 16 17 0 30 -4
30 -10z m-342 -14 c3 -4 -5 -17 -17 -30 -12 -13 -25 -36 -30 -52 -6 -24 -13
-29 -37 -29 -29 0 -29 1 -32 64 l-3 64 57 -6 c31 -3 59 -8 62 -11z m237 -51
c0 -53 -2 -60 -21 -63 -16 -2 -25 7 -39 38 -10 22 -24 45 -32 51 -29 24 -6 38
57 36 l35 -2 0 -60z m-407 -13 l3 -33 -38 7 c-52 9 -54 11 -41 40 9 20 18 24
42 22 27 -3 31 -7 34 -36z m212 -6 c0 -45 -15 -61 -45 -50 -21 8 -19 37 6 68
29 37 39 33 39 -18z m88 11 c28 -43 28 -53 -3 -61 -37 -9 -45 0 -45 50 0 54
16 57 48 11z m246 11 c18 -26 12 -32 -46 -43 -37 -7 -38 -6 -38 22 0 37 6 43
41 43 17 0 34 -8 43 -22z m-967 -82 c3 -2 -24 -33 -60 -68 -35 -35 -90 -102
-121 -150 -31 -49 -63 -88 -71 -88 -8 0 -15 1 -15 3 0 1 29 60 64 130 35 69
69 153 76 185 l12 59 55 -33 c31 -18 58 -35 60 -38z m1447 -7 c9 -39 38 -116
66 -171 49 -98 59 -128 41 -128 -5 0 -36 43 -70 96 -34 52 -88 121 -120 152
l-59 56 52 33 c28 18 56 33 62 33 7 0 19 -32 28 -71z m-248 -12 c29 5 40 1 65
-23 17 -16 45 -49 62 -74 31 -44 31 -47 37 -197 5 -151 5 -152 35 -183 37 -38
78 -40 115 -5 l27 25 28 -52 c19 -34 24 -53 17 -56 -23 -7 -12 -32 21 -45 24
-11 40 -30 64 -78 18 -35 57 -97 88 -136 55 -73 65 -98 43 -106 -10 -3 -10 -7
-1 -19 17 -20 -6 -52 -33 -46 -16 3 -19 12 -17 51 1 26 -1 47 -5 47 -3 0 -16
-10 -29 -22 -37 -35 -26 -86 25 -112 31 -16 64 -7 99 26 26 24 40 17 77 -39
11 -17 100 -141 197 -275 96 -134 179 -249 183 -255 6 -10 -26 -13 -146 -13
l-153 0 -58 98 c-32 53 -91 151 -132 217 -40 66 -100 165 -133 220 l-61 100
-953 -2 c-524 -1 -958 -2 -963 -3 -6 0 -19 -17 -30 -37 -11 -21 -33 -58 -50
-83 -17 -25 -55 -85 -84 -135 -30 -49 -64 -106 -76 -125 -12 -19 -51 -83 -86
-142 l-63 -108 -154 0 c-120 0 -152 3 -146 13 5 6 24 33 43 59 20 26 50 66 67
90 178 246 295 406 307 422 14 19 15 19 47 -7 57 -49 130 -27 130 39 0 43 -15
74 -36 74 -11 0 -14 -5 -9 -17 16 -39 17 -54 5 -68 -29 -35 -76 -3 -52 35 9
14 8 19 -4 24 -19 7 -11 24 71 136 34 47 66 96 70 110 10 34 45 70 67 70 14 0
19 6 18 23 -4 49 1 76 19 98 l18 23 28 -22 c38 -30 75 -28 108 6 26 27 28 37
38 173 6 81 17 160 26 180 8 20 39 60 68 89 48 47 56 52 71 39 14 -12 19 -10
40 14 22 26 26 27 63 17 50 -13 55 -22 33 -51 -15 -20 -66 -105 -116 -194 -41
-72 -102 -173 -115 -188 -9 -11 -11 -21 -5 -27 7 -7 243 -9 657 -8 l647 3 -61
105 c-34 58 -83 141 -110 185 -26 44 -58 97 -69 118 l-21 38 33 13 c60 24 63
24 71 -5 7 -25 10 -27 43 -22z m-811 -14 c25 -3 50 -12 56 -19 7 -9 8 -69 3
-198 l-7 -186 -73 0 -74 0 0 211 0 211 25 -6 c14 -4 45 -9 70 -13z m625 -71
c0 -42 -3 -135 -7 -205 l-6 -128 -71 3 -71 3 -3 184 c-1 107 2 189 7 194 11
11 132 36 144 30 4 -2 7 -39 7 -81z m81 -22 c10 -19 13 -60 11 -160 -1 -74 -6
-138 -10 -142 -4 -4 -17 -5 -30 -2 -22 6 -22 10 -22 158 0 83 -3 169 -7 191
l-6 40 25 -30 c14 -16 31 -41 39 -55z m-551 -119 l0 -190 -27 3 c-33 4 -31 -8
-35 209 l-4 167 33 0 33 0 0 -189z m198 2 l2 -182 -32 -6 c-18 -4 -56 -5 -83
-3 l-50 3 -3 179 c-1 104 1 182 7 185 5 3 42 6 83 6 l73 0 3 -182z m84 177 c2
-5 2 -91 0 -191 -3 -179 -3 -180 -25 -177 -22 3 -22 6 -25 178 -1 96 0 180 2
187 6 15 43 18 48 3z m-562 -186 l0 -185 -27 3 -28 3 -3 132 c-2 125 -1 135
23 183 14 27 28 50 30 50 3 0 5 -84 5 -186z m-536 71 l-27 -47 -20 21 c-12 11
-19 22 -16 24 20 18 84 56 87 53 2 -3 -9 -25 -24 -51z m1915 -1 c5 -4 -26 -34
-36 -34 -8 0 -43 62 -43 75 0 3 63 -29 79 -41z m-2039 -83 c-20 -40 -42 -52
-55 -31 -11 18 4 44 38 68 39 27 45 16 17 -37z m575 -159 c-11 -11 -135 -15
-135 -5 0 6 10 25 23 44 13 19 38 61 57 94 55 99 55 100 58 -20 1 -59 0 -110
-3 -113z m1028 107 c32 -56 56 -103 55 -105 -2 -1 -30 -4 -63 -6 l-60 -3 -1
108 c-1 59 2 107 5 107 3 0 32 -46 64 -101z m540 73 c18 -19 25 -35 21 -45
-12 -31 -39 -18 -62 28 -20 42 -21 45 -4 45 10 0 30 -13 45 -28z m-1855 -67
c-2 -2 -15 -1 -30 2 l-27 5 27 41 27 41 3 -43 c2 -24 2 -44 0 -46z m1560 42
c15 -24 15 -29 2 -37 -24 -16 -35 -6 -38 34 -4 44 11 45 36 3z m-1784 4 c3 -5
-3 -20 -15 -32 -16 -19 -19 -20 -15 -6 3 10 6 25 6 33 0 16 16 19 24 5z m2006
-33 c0 -15 -19 -8 -29 11 -14 25 0 37 16 15 7 -10 13 -21 13 -26z m-1947 -61
c9 -3 17 -11 17 -16 0 -19 -20 -22 -45 -5 -20 13 -23 19 -14 31 7 8 15 10 18
5 3 -5 14 -11 24 -15z m1907 4 c0 -8 -43 -41 -55 -41 -11 0 -4 39 8 43 20 9
47 8 47 -2z m-1812 -23 c-22 -33 -41 -36 -27 -4 7 14 19 26 27 26 13 0 13 -3
0 -22z m1690 -3 c14 -29 -2 -34 -18 -6 -12 24 -13 31 -2 31 5 0 14 -11 20 -25z
m-1623 -52 c-7 -38 -28 -52 -50 -33 -12 10 -12 15 2 38 9 15 24 35 32 46 15
17 16 17 19 1 2 -9 1 -33 -3 -52z m1583 10 c18 -28 20 -38 10 -44 -30 -19 -50
-5 -62 44 -14 57 15 57 52 0z m192 29 c0 -4 -13 -16 -30 -25 -24 -15 -30 -15
-30 -4 0 8 10 19 23 25 27 13 37 14 37 4z m-1966 -17 c11 -8 17 -17 14 -21 -6
-6 -68 23 -68 31 0 11 36 4 54 -10z m-32 -40 c24 -16 35 -30 32 -40 -8 -20
-12 -19 -56 11 -38 27 -44 35 -31 47 10 11 16 9 55 -18z m2038 6 c0 -4 -17
-20 -37 -34 -27 -20 -39 -23 -45 -14 -13 20 -9 26 30 46 35 18 52 19 52 2z
m-2084 -72 c30 -17 54 -33 54 -35 0 -5 -105 51 -119 63 -18 14 21 -3 65 -28z
m2124 21 c-8 -5 -19 -10 -25 -10 -5 0 -3 5 5 10 8 5 20 10 25 10 6 0 3 -5 -5
-10z m-2151 -62 c70 -39 65 -34 58 -52 -5 -13 -16 -11 -66 17 -39 20 -61 38
-61 50 0 23 4 22 69 -15z m2086 22 c-3 -5 -12 -10 -18 -10 -7 0 -6 4 3 10 19
12 23 12 15 0z m108 -4 c4 -10 -10 -24 -41 -42 -26 -15 -50 -32 -54 -38 -5 -7
-13 -5 -25 6 -20 21 -23 18 51 57 69 36 62 35 69 17z m-2263 -83 c0 -10 -84
-103 -93 -103 -8 0 28 75 45 98 11 13 48 17 48 5z m2325 -36 c34 -60 31 -67
-11 -26 -50 47 -60 69 -35 69 13 0 29 -15 46 -43z m-84 -60 c5 -21 13 -46 15
-55 4 -11 -2 -7 -15 8 -36 42 -52 80 -45 102 6 21 7 21 20 3 8 -11 19 -37 25
-58z m-2189 0 c-37 -65 -57 -74 -35 -15 19 50 42 80 55 72 5 -3 -4 -29 -20
-57z m-98 -84 c-8 -61 -12 -67 -32 -50 -10 8 -26 17 -36 21 -17 6 -14 10 20
41 21 19 43 34 47 35 5 0 5 -21 1 -47z m2402 13 c36 -31 37 -35 19 -42 -11 -4
-27 -13 -36 -21 -15 -12 -17 -10 -23 24 -4 21 -9 46 -12 56 -8 26 8 21 52 -17z
m-2468 -88 c16 -16 15 -53 -1 -66 -12 -10 -30 -4 -66 24 -2 2 4 15 13 29 18
27 35 32 54 13z m2539 -14 c16 -25 16 -27 -2 -40 -28 -21 -50 -17 -63 10 -8
18 -7 27 6 40 23 23 39 20 59 -10z m74 -130 c29 -61 30 -68 15 -82 -15 -15
-19 -13 -49 22 -57 69 -59 78 -29 103 15 12 28 22 29 23 1 0 16 -30 34 -66z
m-2673 38 l24 -18 -34 -48 c-18 -26 -40 -59 -49 -72 -15 -23 -16 -23 -32 -6
-23 25 -22 45 2 37 15 -4 18 -1 14 18 -5 24 30 107 45 107 4 0 18 -9 30 -18z
m396 -320 l1 -302 -203 0 c-190 0 -202 1 -193 18 5 9 48 80 94 157 47 77 125
206 174 288 128 215 125 218 127 -161z m58 286 c2 -13 2 -150 0 -305 -3 -234
-7 -283 -18 -283 -8 0 -14 3 -14 8 0 4 -1 139 -3 300 -2 161 -1 295 2 297 12
12 29 3 33 -17z m138 -252 c0 -150 3 -288 6 -305 l7 -31 -61 0 c-49 0 -60 3
-63 18 -2 9 -3 146 -1 305 l3 287 54 0 55 0 0 -274z m77 122 c-4 -83 -7 -220
-7 -305 0 -146 -1 -153 -20 -153 -20 0 -20 7 -20 305 l0 305 27 0 26 0 -6
-152z m159 -153 l1 -305 -68 0 -69 0 0 305 0 305 68 0 67 0 1 -305z m84 0 l0
-305 -30 0 -30 0 0 305 0 305 30 0 30 0 0 -305z m190 113 c0 -106 -3 -244 -7
-305 l-6 -113 -74 0 -73 0 0 305 0 305 80 0 80 0 0 -192z m90 -113 l0 -305
-29 0 -28 0 -6 83 c-4 45 -7 182 -7 305 l0 222 35 0 35 0 0 -305z m200 0 l0
-305 -85 0 -85 0 0 305 0 305 85 0 85 0 0 -305z m85 233 c0 -38 -2 -174 -3
-303 l-2 -235 -25 0 -25 0 0 306 0 305 28 -3 c27 -3 27 -4 27 -70z m185 -30
c0 -57 -3 -194 -7 -305 l-6 -203 -74 0 -73 0 0 305 0 305 80 0 80 0 0 -102z
m90 -203 l0 -305 -30 0 -30 0 0 305 0 305 30 0 30 0 0 -305z m160 0 l0 -305
-65 0 -65 0 0 305 0 305 65 0 65 0 0 -305z m80 158 c0 -82 -3 -219 -7 -305 -6
-145 -8 -158 -25 -158 -17 0 -18 15 -18 305 l0 305 25 0 25 0 0 -147z m150
-158 l0 -305 -65 0 -65 0 0 305 0 305 65 0 65 0 0 -305z m50 0 c0 -264 -2
-305 -15 -305 -13 0 -15 41 -15 305 0 264 2 305 15 305 13 0 15 -41 15 -305z
m108 217 c29 -48 58 -96 65 -107 6 -11 21 -36 33 -55 12 -19 54 -89 94 -155
40 -66 83 -136 96 -156 13 -19 24 -38 24 -42 0 -4 -88 -7 -195 -7 l-195 0 0
305 c0 237 3 305 13 305 6 0 36 -39 65 -88z m416 -54 c-7 -10 -34 -10 -34 0 0
4 5 13 12 20 9 9 14 9 19 0 4 -7 5 -16 3 -20z m-2811 -13 c4 -8 2 -17 -2 -20
-5 -2 -11 4 -14 15 -6 23 8 27 16 5z m3484 -437 c-2 -13 -4 -3 -4 22 0 25 2
35 4 23 2 -13 2 -33 0 -45z"/>
<path d="M2573 4114 c-15 -24 -15 -29 -2 -53 17 -31 50 -38 73 -16 21 22 20
58 -2 78 -26 24 -49 21 -69 -9z m53 -40 c-5 -13 -10 -14 -18 -6 -6 6 -8 18 -4
28 5 13 10 14 18 6 6 -6 8 -18 4 -28z"/>
<path d="M2362 3738 c-21 -21 -14 -66 12 -83 28 -19 49 -12 66 20 19 36 0 75
-38 75 -15 0 -33 -5 -40 -12z"/>
<path d="M2300 3631 c-20 -38 -12 -66 23 -79 29 -11 34 -10 50 9 32 40 14 89
-33 89 -19 0 -33 -7 -40 -19z"/>
<path d="M2235 3519 c-15 -28 -15 -32 0 -49 23 -25 50 -30 74 -13 31 21 28 67
-4 81 -40 18 -53 15 -70 -19z"/>
<path d="M2188 3439 c-12 -6 -18 -22 -18 -43 0 -26 5 -35 23 -40 40 -11 56 -6
74 20 17 26 16 27 -11 50 -30 26 -42 29 -68 13z"/>
<path d="M2133 3342 c-18 -12 -27 -60 -13 -77 15 -18 61 -20 78 -3 13 13 16
47 4 65 -10 15 -54 25 -69 15z"/>
<path d="M2780 3730 c-13 -25 -6 -51 20 -75 18 -16 20 -16 49 1 19 11 31 26
31 40 0 48 -78 75 -100 34z"/>
<path d="M2847 3632 c-23 -25 -21 -45 7 -71 23 -22 25 -22 55 -7 34 18 39 40
15 74 -18 27 -55 29 -77 4z"/>
<path d="M2903 3528 c-20 -20 -21 -23 -7 -50 11 -21 22 -28 44 -28 43 0 61 23
49 62 -5 18 -9 34 -9 35 0 2 -12 3 -28 3 -15 0 -37 -10 -49 -22z"/>
<path d="M2970 3432 c-20 -16 -21 -23 -13 -48 12 -36 49 -43 83 -16 22 18 22
19 6 50 -19 36 -43 41 -76 14z"/>
<path d="M3033 3338 c-29 -14 -31 -63 -4 -78 28 -14 57 -12 75 6 21 21 20 40
-4 64 -22 22 -35 24 -67 8z"/>
<path d="M5658 4356 c-89 -32 -139 -96 -157 -201 -34 -196 73 -345 248 -345
126 0 212 65 247 189 33 111 -5 257 -81 315 -70 54 -176 71 -257 42z m168
-105 c45 -27 68 -83 68 -161 0 -114 -51 -181 -140 -182 -84 -2 -136 58 -142
161 -5 86 9 131 54 171 28 24 44 30 82 30 28 0 59 -8 78 -19z"/>
<path d="M8305 4346 c-97 -46 -139 -123 -139 -256 1 -178 89 -280 244 -280
104 0 179 48 217 137 20 49 17 53 -41 53 -49 0 -56 -3 -68 -27 -20 -41 -61
-66 -108 -66 -84 0 -130 64 -130 181 0 121 43 182 127 182 57 0 97 -21 113
-60 12 -28 16 -30 66 -30 63 0 66 8 34 76 -50 102 -199 145 -315 90z"/>
<path d="M4990 4090 l0 -270 55 0 55 0 0 93 c0 85 2 96 23 115 13 12 26 22 30
22 3 0 40 -50 83 -111 42 -61 82 -113 89 -115 7 -3 39 -4 72 -2 l61 3 -114
155 -113 155 105 105 c57 58 104 109 104 113 0 4 -30 7 -67 7 l-68 0 -102
-107 -102 -108 -1 108 0 107 -55 0 -55 0 0 -270z"/>
<path d="M6090 4090 l0 -270 60 0 60 0 0 120 0 120 105 0 105 0 0 -120 0 -120
55 0 55 0 0 270 0 270 -55 0 -54 0 -3 -102 -3 -103 -102 -3 -102 -3 -3 103 -3
103 -57 3 -58 3 0 -271z"/>
<path d="M6660 4090 l0 -270 55 0 55 0 0 93 c0 85 2 96 23 115 13 12 26 22 30
22 3 0 40 -50 83 -111 42 -61 82 -113 89 -115 7 -3 39 -4 72 -2 l61 3 -114
155 -113 155 105 105 c57 58 104 109 104 113 0 4 -30 7 -67 7 l-68 0 -102
-107 -102 -108 -1 108 0 107 -55 0 -55 0 0 -270z"/>
<path d="M7153 4348 c3 -7 46 -100 97 -206 89 -189 91 -194 73 -214 -13 -15
-27 -19 -56 -16 l-38 4 3 -51 3 -50 54 -3 c51 -3 55 -2 95 40 33 35 60 87 139
269 53 124 97 229 97 232 0 4 -26 7 -58 7 l-58 0 -48 -132 c-27 -73 -52 -137
-56 -141 -4 -5 -34 55 -66 132 l-59 141 -64 0 c-47 0 -62 -3 -58 -12z"/>
<path d="M7690 4090 l0 -270 55 0 55 0 0 94 0 93 94 5 c151 8 198 48 204 171
4 88 -17 128 -81 157 -35 16 -66 20 -184 20 l-143 0 0 -270z m282 150 c24 -30
23 -85 -2 -110 -16 -16 -33 -20 -95 -20 l-75 0 0 73 c0 41 3 77 8 81 4 5 38 6
76 3 57 -4 73 -9 88 -27z"/>
<path d="M9358 4163 c-4 -225 -9 -243 -63 -243 l-35 0 0 -50 c0 -45 2 -50 26
-56 32 -8 91 1 112 18 43 36 71 179 72 361 l0 77 75 0 75 0 0 -225 0 -225 60
0 60 0 0 270 0 270 -189 0 -189 0 -4 -197z"/>
<path d="M9803 4348 c3 -7 46 -100 97 -206 89 -189 91 -194 73 -214 -13 -15
-27 -19 -56 -16 l-38 4 3 -51 3 -50 54 -3 c51 -3 55 -2 95 40 33 35 60 87 139
269 53 124 97 229 97 232 0 4 -26 7 -58 7 l-58 0 -48 -132 c-27 -73 -52 -137
-56 -141 -4 -5 -34 55 -66 132 l-59 141 -64 0 c-47 0 -62 -3 -58 -12z"/>
<path d="M10311 4232 c4 -146 15 -173 77 -199 29 -12 59 -14 135 -10 l97 6 0
-104 0 -105 55 0 55 0 0 270 0 270 -55 0 -55 0 0 -120 c0 -139 4 -134 -98
-135 -92 0 -102 15 -102 151 l0 104 -56 0 -56 0 3 -128z"/>
<path d="M10840 4091 l0 -271 305 0 305 0 -2 268 -3 267 -52 3 -53 3 0 -225 0
-226 -70 0 -70 0 -2 223 -3 222 -52 3 -53 3 0 -225 0 -226 -70 0 -70 0 -2 223
-3 222 -52 3 -53 3 0 -270z"/>
<path d="M11540 4090 l0 -270 59 0 58 0 104 179 104 179 3 -179 2 -179 55 0
55 0 0 270 0 270 -57 0 -58 0 -105 -182 -105 -182 -3 182 -2 182 -55 0 -55 0
0 -270z"/>
<path d="M12072 4338 c62 -96 148 -237 148 -243 0 -4 -22 -42 -49 -84 -26 -42
-65 -102 -85 -133 l-37 -58 66 0 65 0 28 45 c15 25 40 67 56 92 l28 46 50 -91
49 -92 70 0 69 0 -26 43 c-15 23 -53 83 -86 134 -32 51 -58 97 -58 102 0 5 35
65 79 133 l79 123 -56 3 c-30 2 -60 1 -66 -1 -6 -3 -31 -41 -56 -86 -25 -44
-47 -81 -50 -81 -3 0 -25 38 -50 85 l-45 85 -69 0 -68 0 14 -22z"/>
<path d="M5127 3063 c-7 -13 -187 -518 -187 -526 0 -4 26 -7 58 -7 l58 0 18
55 17 55 99 0 99 0 17 -55 18 -55 58 0 c32 0 58 3 58 8 0 4 -41 125 -92 270
l-92 262 -62 0 c-35 0 -65 -3 -67 -7z m123 -315 c0 -15 -9 -18 -58 -18 -32 0
-61 3 -64 6 -5 4 29 117 58 194 6 15 64 -150 64 -182z"/>
<path d="M5590 2800 l0 -270 55 0 55 0 0 94 0 93 94 5 c151 8 198 48 204 171
4 88 -17 128 -81 157 -35 16 -66 20 -184 20 l-143 0 0 -270z m282 150 c24 -30
23 -85 -2 -110 -16 -16 -33 -20 -95 -20 l-75 0 0 73 c0 41 3 77 8 81 4 5 38 6
76 3 57 -4 73 -9 88 -27z"/>
<path d="M6132 3048 c62 -96 148 -237 148 -243 0 -4 -22 -42 -49 -84 -26 -42
-65 -102 -85 -133 l-37 -58 66 0 65 0 28 45 c15 25 40 67 56 92 l28 46 50 -91
49 -92 70 0 69 0 -26 43 c-15 23 -53 83 -86 134 -32 51 -58 97 -58 102 0 5 35
65 79 133 l79 123 -56 3 c-30 2 -60 1 -66 -1 -6 -3 -31 -41 -56 -86 -25 -44
-47 -81 -50 -81 -3 0 -25 38 -50 85 l-45 85 -69 0 -68 0 14 -22z"/>
<path d="M6720 2800 l0 -270 59 0 58 0 104 179 104 179 3 -179 2 -179 55 0 55
0 0 270 0 270 -57 0 -58 0 -105 -182 -105 -182 -3 182 -2 182 -55 0 -55 0 0
-270z"/>
<path d="M7290 3025 l0 -45 80 0 80 0 0 -225 0 -225 60 0 60 0 0 225 0 225 80
0 80 0 0 45 0 45 -220 0 -220 0 0 -45z"/>
<path d="M7860 2800 l0 -270 205 0 205 0 0 50 0 50 -150 0 -150 0 0 65 0 65
130 0 130 0 0 50 0 50 -130 0 -130 0 0 60 0 60 145 0 145 0 0 45 0 45 -200 0
-200 0 0 -270z"/>
<path d="M8440 2800 l0 -270 55 0 55 0 0 93 c0 85 2 96 23 115 13 12 26 22 30
22 3 0 40 -50 83 -111 42 -61 82 -113 89 -115 7 -3 39 -4 72 -2 l61 3 -114
155 -113 155 105 105 c57 58 104 109 104 113 0 4 -30 7 -67 7 l-68 0 -102
-107 -102 -108 -1 108 0 107 -55 0 -55 0 0 -270z"/>
<path d="M8990 3025 l0 -45 80 0 80 0 0 -225 0 -225 60 0 60 0 0 225 0 225 80
0 80 0 0 45 0 45 -220 0 -220 0 0 -45z"/>
<path d="M9533 3058 c3 -7 46 -100 97 -206 89 -189 91 -194 73 -214 -13 -15
-27 -19 -56 -16 l-38 4 3 -51 3 -50 54 -3 c51 -3 55 -2 95 40 33 35 60 87 139
269 53 124 97 229 97 232 0 4 -26 7 -58 7 l-58 0 -48 -132 c-27 -73 -52 -137
-56 -141 -4 -5 -34 55 -66 132 l-59 141 -64 0 c-47 0 -62 -3 -58 -12z"/>
<path d="M10140 2800 l0 -270 55 0 55 0 0 94 0 93 94 5 c151 8 198 48 204 171
4 88 -17 128 -81 157 -35 16 -66 20 -184 20 l-143 0 0 -270z m282 150 c24 -30
23 -85 -2 -110 -16 -16 -33 -20 -95 -20 l-75 0 0 73 c0 41 3 77 8 81 4 5 38 6
76 3 57 -4 73 -9 88 -27z"/>
<path d="M10700 2800 l0 -270 60 0 60 0 0 120 0 120 105 0 105 0 0 -120 0
-120 55 0 55 0 0 270 0 270 -55 0 -54 0 -3 -102 -3 -103 -102 -3 -102 -3 -3
103 -3 103 -57 3 -58 3 0 -271z"/>
<path d="M11320 2799 l0 -270 153 3 c170 3 196 11 234 67 18 26 23 48 23 94 0
115 -52 157 -207 165 l-93 5 0 103 0 104 -55 0 -55 0 0 -271z m279 -53 c28
-25 28 -77 0 -102 -17 -15 -36 -19 -93 -19 l-71 0 -3 59 c-5 87 -3 89 77 84
50 -2 75 -9 90 -22z"/>
<path d="M11810 2800 l0 -270 55 0 55 0 0 270 0 270 -55 0 -55 0 0 -270z"/>
<path d="M12072 3048 c62 -96 148 -237 148 -243 0 -4 -22 -42 -49 -84 -26 -42
-65 -102 -85 -133 l-37 -58 66 0 65 0 28 45 c15 25 40 67 56 92 l28 46 50 -91
49 -92 70 0 69 0 -26 43 c-15 23 -53 83 -86 134 -32 51 -58 97 -58 102 0 5 35
65 79 133 l79 123 -56 3 c-30 2 -60 1 -66 -1 -6 -3 -31 -41 -56 -86 -25 -44
-47 -81 -50 -81 -3 0 -25 38 -50 85 l-45 85 -69 0 -68 0 14 -22z"/>
<path d="M12050 2005 c0 -28 24 -67 51 -81 34 -17 138 -18 174 -2 27 12 55 54
55 83 0 11 -11 15 -41 15 -33 0 -42 -4 -46 -20 -6 -23 -42 -35 -77 -26 -13 3
-26 15 -29 26 -4 16 -13 20 -46 20 -29 0 -41 -4 -41 -15z"/>
<path d="M6368 1876 c-89 -32 -139 -96 -157 -201 -34 -196 73 -345 248 -345
126 0 212 65 247 189 33 111 -5 257 -81 315 -70 54 -176 71 -257 42z m168
-105 c45 -27 68 -83 68 -161 0 -114 -51 -181 -140 -182 -84 -2 -136 58 -142
161 -5 86 9 131 54 171 28 24 44 30 82 30 28 0 59 -8 78 -19z"/>
<path d="M7668 1881 c-70 -23 -128 -86 -128 -140 0 -19 6 -21 49 -21 41 0 51
4 56 20 11 36 54 60 105 60 61 0 93 -24 93 -70 0 -49 -31 -70 -104 -70 l-59 0
0 -39 0 -38 72 -5 c59 -5 75 -10 90 -28 26 -32 23 -73 -8 -104 -22 -21 -36
-26 -80 -26 -69 0 -100 13 -119 50 -14 27 -20 30 -65 30 -58 0 -61 -9 -31 -76
27 -60 99 -94 197 -94 148 0 234 63 234 172 0 49 -29 103 -63 119 l-23 11 33
33 c27 27 33 41 33 75 0 55 -30 103 -78 126 -41 20 -160 29 -204 15z"/>
<path d="M4970 1610 l0 -270 60 0 60 0 0 225 0 226 103 -3 102 -3 3 -222 2
-223 55 0 55 0 0 270 0 270 -220 0 -220 0 0 -270z"/>
<path d="M5620 1610 l0 -270 55 0 55 0 0 94 0 93 94 5 c151 8 198 48 204 171
4 88 -17 128 -81 157 -35 16 -66 20 -184 20 l-143 0 0 -270z m282 150 c24 -30
23 -85 -2 -110 -16 -16 -33 -20 -95 -20 l-75 0 0 73 c0 41 3 77 8 81 4 5 38 6
76 3 57 -4 73 -9 88 -27z"/>
<path d="M6900 1610 l0 -270 59 0 58 0 104 179 104 179 3 -179 2 -179 55 0 55
0 0 270 0 270 -57 0 -58 0 -105 -182 -105 -182 -3 182 -2 182 -55 0 -55 0 0
-270z"/>
<path d="M8170 1610 l0 -270 141 0 c77 0 161 5 186 11 118 30 162 169 79 252
l-32 32 26 22 c22 18 25 29 25 81 0 53 -4 64 -28 90 -40 41 -92 52 -256 52
l-141 0 0 -270z m304 161 c21 -17 20 -60 -1 -83 -13 -15 -32 -18 -105 -18
l-88 0 0 61 0 61 89 -4 c53 -2 96 -9 105 -17z m12 -213 c24 -24 22 -75 -5
-101 -18 -19 -35 -23 -111 -25 l-90 -4 0 77 0 77 95 -4 c72 -2 98 -7 111 -20z"/>
<path d="M8810 1610 l0 -270 205 0 205 0 0 50 0 50 -150 0 -150 0 0 65 0 65
130 0 130 0 0 50 0 50 -130 0 -130 0 0 60 0 60 145 0 145 0 0 45 0 45 -200 0
-200 0 0 -270z"/>
<path d="M9487 1873 c-4 -3 -7 -40 -7 -82 0 -98 -15 -197 -42 -288 -18 -64
-24 -73 -44 -73 -24 0 -24 -1 -24 -106 l0 -105 48 3 47 3 3 58 3 57 169 0 170
0 0 -60 0 -60 45 0 45 0 0 105 0 105 -25 0 -25 0 0 225 0 225 -178 0 c-98 0
-182 -3 -185 -7z m251 -265 l2 -178 -106 0 c-97 0 -106 2 -99 18 17 46 36 146
41 227 3 50 7 96 10 103 3 9 24 12 76 10 l73 -3 3 -177z"/>
<path d="M10070 1610 l0 -270 205 0 205 0 0 50 0 50 -150 0 -150 0 0 65 0 65
130 0 130 0 0 50 0 50 -130 0 -130 0 0 60 0 60 145 0 145 0 0 45 0 45 -200 0
-200 0 0 -270z"/>
<path d="M10660 1610 l0 -270 60 0 60 0 0 120 0 120 105 0 105 0 0 -120 0
-120 55 0 55 0 0 270 0 270 -55 0 -54 0 -3 -102 -3 -103 -102 -3 -102 -3 -3
103 -3 103 -57 3 -58 3 0 -271z"/>
<path d="M11310 1610 l0 -270 59 0 58 0 104 179 104 179 3 -179 2 -179 55 0
55 0 0 270 0 270 -57 0 -58 0 -105 -182 -105 -182 -3 182 -2 182 -55 0 -55 0
0 -270z"/>
<path d="M11960 1610 l0 -270 59 0 58 0 104 179 104 179 3 -179 2 -179 55 0
55 0 0 270 0 270 -57 0 -58 0 -105 -182 -105 -182 -3 182 -2 182 -55 0 -55 0
0 -270z"/>
<path d="M595 993 c-8 -68 -24 -123 -35 -123 -6 0 -10 -13 -10 -30 0 -16 5
-30 10 -30 6 0 10 11 10 25 0 24 2 25 70 25 68 0 70 -1 70 -25 0 -14 5 -25 10
-25 6 0 10 14 10 30 0 17 -4 30 -10 30 -5 0 -10 37 -12 83 l-3 82 -52 3 -52 3
-6 -48z m93 -45 l-3 -73 -49 -3 c-47 -3 -48 -2 -41 20 3 13 9 47 12 76 l5 52
40 0 39 0 -3 -72z"/>
<path d="M760 950 l0 -90 63 2 62 1 -55 6 c-53 6 -55 7 -58 39 l-3 32 50 0
c28 0 51 5 51 10 0 6 -22 10 -50 10 -49 0 -50 1 -50 30 0 30 1 30 55 30 30 0
55 5 55 10 0 6 -27 10 -60 10 l-60 0 0 -90z"/>
<path d="M912 948 l2 -93 3 83 4 82 54 0 55 0 0 -80 c0 -49 4 -80 10 -80 7 0
10 32 8 88 l-3 87 -67 3 -68 3 2 -93z"/>
<path d="M1131 1018 c-5 -13 -20 -52 -35 -87 -30 -73 -29 -71 -17 -71 5 0 14
14 20 30 9 26 15 30 49 30 35 0 41 -4 52 -30 7 -16 16 -30 21 -30 8 0 2 19
-46 138 -19 47 -31 53 -44 20z m33 -32 c3 -13 9 -31 12 -40 5 -13 -1 -16 -25
-16 -34 0 -36 3 -20 49 13 37 25 40 33 7z"/>
<path d="M1251 948 c1 -64 4 -80 8 -53 6 39 7 40 51 43 52 4 70 16 70 47 0 35
-31 55 -83 55 l-47 0 1 -92z m107 40 c3 -22 -2 -29 -21 -33 -49 -13 -72 -3
-75 33 l-3 33 48 -3 c44 -3 48 -5 51 -30z"/>
<path d="M1390 1030 c0 -5 14 -10 30 -10 l30 0 0 -80 c0 -47 4 -80 10 -80 6 0
10 33 10 80 l0 80 30 0 c17 0 30 5 30 10 0 6 -30 10 -70 10 -40 0 -70 -4 -70
-10z"/>
<path d="M1591 1018 c-5 -13 -20 -52 -35 -87 -30 -73 -29 -71 -17 -71 5 0 14
14 20 30 9 26 15 30 49 30 35 0 41 -4 52 -30 7 -16 16 -30 21 -30 8 0 2 19
-46 138 -19 47 -31 53 -44 20z m33 -32 c3 -13 9 -31 12 -40 5 -13 -1 -16 -25
-16 -34 0 -36 3 -20 49 13 37 25 40 33 7z"/>
<path d="M1712 948 l2 -93 5 75 6 75 16 -35 c9 -19 22 -52 30 -73 7 -20 18
-36 23 -34 6 2 22 32 36 68 l25 64 3 -67 c4 -101 22 -83 22 22 0 115 -15 118
-54 13 l-29 -78 -13 30 c-8 17 -23 51 -34 78 -30 72 -40 60 -38 -45z"/>
<path d="M1930 950 l0 -90 63 2 62 1 -55 6 c-53 6 -55 7 -58 39 l-3 32 50 0
c28 0 51 5 51 10 0 6 -22 10 -50 10 -49 0 -50 1 -50 30 0 30 1 30 55 30 30 0
55 5 55 10 0 6 -27 10 -60 10 l-60 0 0 -90z"/>
<path d="M2083 950 c0 -65 2 -81 6 -50 l6 45 53 3 52 3 0 -45 c0 -26 5 -46 10
-46 6 0 10 37 10 90 0 53 -4 90 -10 90 -5 0 -10 -18 -10 -41 l0 -40 -52 3 -53
3 -6 40 c-4 25 -6 4 -6 -55z"/>
<path d="M2240 1030 c0 -5 14 -10 30 -10 l30 0 0 -80 c0 -47 4 -80 10 -80 6 0
10 33 10 80 l0 80 30 0 c17 0 30 5 30 10 0 6 -30 10 -70 10 -40 0 -70 -4 -70
-10z"/>
<path d="M2631 1018 c-5 -13 -20 -52 -35 -87 -30 -73 -29 -71 -17 -71 5 0 14
14 20 30 9 26 15 30 49 30 35 0 41 -4 52 -30 7 -16 16 -30 21 -30 8 0 2 19
-46 138 -19 47 -31 53 -44 20z m33 -32 c3 -13 9 -31 12 -40 5 -13 -1 -16 -25
-16 -34 0 -36 3 -20 49 13 37 25 40 33 7z"/>
<path d="M2751 948 c1 -64 4 -80 8 -53 6 39 7 40 51 43 52 4 70 16 70 47 0 35
-31 55 -83 55 l-47 0 1 -92z m107 40 c3 -22 -2 -29 -21 -33 -49 -13 -72 -3
-75 33 l-3 33 48 -3 c44 -3 48 -5 51 -30z"/>
<path d="M2921 996 l32 -45 -32 -42 c-17 -24 -28 -45 -25 -48 4 -3 12 3 20 14
7 11 20 29 29 40 l15 20 16 -20 c9 -11 22 -29 30 -39 7 -11 16 -17 20 -14 3 3
-8 25 -25 49 l-31 42 23 31 c34 45 39 56 28 56 -5 0 -19 -16 -31 -35 -12 -19
-25 -35 -28 -35 -4 0 -17 16 -30 35 -12 19 -27 35 -33 35 -6 0 4 -20 22 -44z"/>
<path d="M3062 953 c-1 -58 2 -93 8 -93 6 0 33 35 60 78 l50 77 0 -77 c0 -45
4 -78 10 -78 6 0 10 37 10 90 0 55 -4 90 -10 90 -6 0 -32 -34 -58 -74 -26 -41
-50 -75 -54 -75 -4 -1 -9 34 -11 77 l-3 77 -2 -92z"/>
<path d="M3220 1030 c0 -5 14 -10 30 -10 l30 0 0 -80 c0 -47 4 -80 10 -80 6 0
10 33 10 80 l0 80 30 0 c17 0 30 5 30 10 0 6 -30 10 -70 10 -40 0 -70 -4 -70
-10z"/>
<path d="M3380 950 l0 -90 63 2 62 1 -55 6 c-53 6 -55 7 -58 39 l-3 32 50 0
c28 0 51 5 51 10 0 6 -22 10 -50 10 -49 0 -50 1 -50 30 0 30 1 30 55 30 30 0
55 5 55 10 0 6 -27 10 -60 10 l-60 0 0 -90z"/>
<path d="M3543 950 c0 -52 2 -81 4 -64 2 18 13 40 23 49 19 17 21 17 39 -6 49
-62 60 -74 65 -68 4 3 -12 29 -34 57 l-40 50 37 29 c28 20 47 27 71 25 l32 -3
0 -80 c0 -46 4 -79 10 -79 6 0 10 33 10 79 l0 80 33 3 c31 3 33 0 62 -61 l29
-63 -23 -19 c-23 -19 -23 -19 -2 -19 16 0 31 20 66 90 25 50 41 90 36 90 -5 0
-21 -25 -35 -56 -14 -30 -29 -53 -34 -50 -4 2 -19 27 -32 55 l-23 51 -89 0
-89 0 -48 -45 c-26 -25 -51 -45 -54 -45 -3 0 -8 21 -10 48 -2 26 -3 4 -4 -48z"/>
<path d="M4001 948 c1 -64 4 -80 8 -53 6 39 7 40 51 43 52 4 70 16 70 47 0 35
-31 55 -83 55 l-47 0 1 -92z m107 40 c3 -22 -2 -29 -21 -33 -49 -13 -72 -3
-75 33 l-3 33 48 -3 c44 -3 48 -5 51 -30z"/>
<path d="M4161 953 l-1 -93 49 0 c55 0 81 17 81 54 0 32 -18 44 -70 48 -44 3
-45 4 -51 43 -4 27 -7 11 -8 -52z m93 -9 c9 -3 16 -17 16 -30 0 -47 -92 -62
-98 -16 -2 13 -1 30 2 38 5 14 51 19 80 8z"/>
<path d="M4324 950 c0 -52 1 -74 3 -47 2 26 2 68 0 95 -2 26 -3 4 -3 -48z"/>
<path d="M4562 953 c-1 -58 2 -93 8 -93 6 0 33 35 60 78 l50 77 0 -77 c0 -45
4 -78 10 -78 6 0 10 37 10 90 0 55 -4 90 -10 90 -6 0 -32 -34 -58 -74 -26 -41
-50 -75 -54 -75 -4 -1 -9 34 -11 77 l-3 77 -2 -92z"/>
<path d="M5069 798 c-46 -26 -79 -83 -79 -137 0 -37 2 -41 25 -41 20 0 25 6
31 38 15 86 58 119 137 109 88 -12 125 -109 75 -198 -11 -21 -79 -91 -150
-155 -94 -86 -128 -123 -128 -141 l0 -23 190 0 190 0 0 25 0 24 -147 3 -147 3
111 99 c129 114 163 165 163 245 0 108 -66 171 -176 171 -42 0 -70 -7 -95 -22z"/>
<path d="M7434 806 c-34 -15 -76 -65 -94 -111 -37 -98 -29 -273 17 -358 49
-90 145 -122 233 -77 75 38 113 129 113 270 0 145 -43 244 -120 276 -41 18
-109 17 -149 0z m148 -63 c72 -63 88 -293 27 -392 -45 -74 -146 -75 -194 -3
-34 53 -50 161 -36 253 15 95 42 143 91 162 26 11 91 -1 112 -20z"/>
<path d="M9753 803 c-34 -3 -43 -8 -43 -23 0 -16 9 -19 63 -22 l62 -3 3 -227
2 -228 -70 0 c-68 0 -70 -1 -70 -25 l0 -25 165 0 165 0 0 25 c0 24 -2 25 -70
25 l-70 0 0 255 0 255 -47 -2 c-27 -1 -67 -3 -90 -5z"/>
<path d="M12083 803 c-34 -3 -43 -8 -43 -23 0 -16 9 -19 63 -22 l62 -3 3 -227
2 -228 -70 0 c-68 0 -70 -1 -70 -25 l0 -25 165 0 165 0 0 25 c0 24 -2 25 -70
25 l-70 0 0 255 0 255 -47 -2 c-27 -1 -67 -3 -90 -5z"/>
<path d="M570 630 c0 -53 4 -90 10 -90 6 0 10 33 10 80 l0 80 45 0 c25 0 45 5
45 10 0 6 -25 10 -55 10 l-55 0 0 -90z"/>
<path d="M781 628 c1 -64 4 -80 8 -53 6 39 7 40 51 43 52 4 70 16 70 47 0 35
-31 55 -83 55 l-47 0 1 -92z m107 40 c3 -22 -2 -29 -21 -33 -49 -13 -72 -3
-75 33 l-3 33 48 -3 c44 -3 48 -5 51 -30z"/>
<path d="M1051 698 c-5 -13 -20 -52 -35 -87 -30 -73 -29 -71 -17 -71 5 0 14
14 20 30 9 26 15 30 49 30 35 0 41 -4 52 -30 7 -16 16 -30 21 -30 8 0 2 19
-46 138 -19 47 -31 53 -44 20z m33 -32 c3 -13 9 -31 12 -40 5 -13 -1 -16 -25
-16 -34 0 -36 3 -20 49 13 37 25 40 33 7z"/>
<path d="M1265 673 c-8 -68 -24 -123 -35 -123 -6 0 -10 -13 -10 -30 0 -16 5
-30 10 -30 6 0 10 11 10 25 0 24 2 25 70 25 68 0 70 -1 70 -25 0 -14 5 -25 10
-25 6 0 10 14 10 30 0 17 -4 30 -10 30 -5 0 -10 37 -12 83 l-3 82 -52 3 -52 3
-6 -48z m93 -45 l-3 -73 -49 -3 c-47 -3 -48 -2 -41 20 3 13 9 47 12 76 l5 52
40 0 39 0 -3 -72z"/>
<path d="M1505 695 c-55 -54 -18 -155 58 -155 57 0 84 38 78 110 -6 66 -89 93
-136 45z m100 -10 c16 -15 25 -36 25 -55 0 -36 -38 -80 -70 -80 -33 0 -60 35
-60 78 0 42 6 54 35 70 30 17 43 15 70 -13z"/>
<path d="M1782 713 c-19 -7 -42 -58 -42 -93 0 -64 93 -108 132 -62 20 23 30
52 18 52 -6 0 -10 -4 -10 -10 0 -17 -39 -50 -60 -50 -33 0 -60 35 -60 78 0 43
6 55 37 71 31 16 41 14 68 -15 17 -18 25 -22 25 -12 0 35 -63 59 -108 41z"/>
<path d="M1980 710 c0 -5 14 -10 30 -10 l30 0 0 -80 c0 -47 4 -80 10 -80 6 0
10 33 10 80 l0 80 30 0 c17 0 30 5 30 10 0 6 -30 10 -70 10 -40 0 -70 -4 -70
-10z"/>
<path d="M2221 628 c1 -64 4 -80 8 -53 6 39 7 40 51 43 52 4 70 16 70 47 0 35
-31 55 -83 55 l-47 0 1 -92z m107 40 c3 -22 -2 -29 -21 -33 -49 -13 -72 -3
-75 33 l-3 33 48 -3 c44 -3 48 -5 51 -30z"/>
<path d="M2465 695 c-55 -54 -18 -155 58 -155 57 0 84 38 78 110 -6 66 -89 93
-136 45z m100 -10 c16 -15 25 -36 25 -55 0 -36 -38 -80 -70 -80 -33 0 -60 35
-60 78 0 42 6 54 35 70 30 17 43 15 70 -13z"/>
<path d="M2712 633 c-1 -58 2 -93 8 -93 6 0 33 35 60 78 l50 77 0 -77 c0 -45
4 -78 10 -78 6 0 10 37 10 90 0 55 -4 90 -10 90 -6 0 -32 -34 -58 -74 -26 -41
-50 -75 -54 -75 -4 -1 -9 34 -11 77 l-3 77 -2 -92z"/>
<path d="M2940 710 c0 -5 14 -10 30 -10 l30 0 0 -80 c0 -47 4 -80 10 -80 6 0
10 33 10 80 l0 80 30 0 c17 0 30 5 30 10 0 6 -30 10 -70 10 -40 0 -70 -4 -70
-10z"/>
<path d="M3170 630 l0 -90 63 2 62 1 -55 6 c-53 6 -55 7 -58 39 l-3 32 50 0
c28 0 51 5 51 10 0 6 -22 10 -50 10 -49 0 -50 1 -50 30 0 30 1 30 55 30 30 0
55 5 55 10 0 6 -27 10 -60 10 l-60 0 0 -90z"/>
<path d="M3417 648 c-5 -58 -11 -77 -28 -90 -16 -14 -17 -18 -6 -18 28 0 47
41 47 102 l0 58 40 0 40 0 0 -80 c0 -47 4 -80 10 -80 6 0 10 37 10 90 l0 90
-54 0 -53 0 -6 -72z"/>
<path d="M3641 633 l-1 -93 49 0 c55 0 81 17 81 54 0 32 -18 44 -70 48 -44 3
-45 4 -51 43 -4 27 -7 11 -8 -52z m93 -9 c9 -3 16 -17 16 -30 0 -47 -92 -62
-98 -16 -2 13 -1 30 2 38 5 14 51 19 80 8z"/>
<path d="M3912 713 c-19 -7 -42 -58 -42 -93 0 -64 93 -108 132 -62 20 23 30
52 18 52 -6 0 -10 -4 -10 -10 0 -17 -39 -50 -60 -50 -33 0 -60 35 -60 78 0 43
6 55 37 71 31 16 41 14 68 -15 17 -18 25 -22 25 -12 0 35 -63 59 -108 41z"/>
<path d="M4110 710 c0 -5 14 -10 30 -10 l30 0 0 -80 c0 -47 4 -80 10 -80 6 0
10 33 10 80 l0 80 30 0 c17 0 30 5 30 10 0 6 -30 10 -70 10 -40 0 -70 -4 -70
-10z"/>
<path d="M4340 630 l0 -91 57 3 c50 3 59 6 72 30 14 24 14 28 -2 46 -12 13
-15 22 -8 27 18 11 12 54 -8 65 -11 5 -40 10 -65 10 l-46 0 0 -90z m105 40 c0
-23 -4 -25 -45 -25 -42 0 -45 2 -48 28 -3 28 -3 28 45 25 44 -3 48 -5 48 -28z
m-11 -50 c35 -13 34 -47 -1 -61 -43 -16 -77 -8 -81 19 -7 50 22 65 82 42z"/>
<path d="M4621 698 c-5 -13 -20 -52 -35 -87 -30 -73 -29 -71 -17 -71 5 0 14
14 20 30 9 26 15 30 49 30 35 0 41 -4 52 -30 7 -16 16 -30 21 -30 8 0 2 19
-46 138 -19 47 -31 53 -44 20z m33 -32 c3 -13 9 -31 12 -40 5 -13 -1 -16 -25
-16 -34 0 -36 3 -20 49 13 37 25 40 33 7z"/>
<path d="M573 310 c0 -52 2 -81 4 -64 2 18 13 40 23 49 19 17 21 17 39 -6 49
-62 60 -74 65 -68 4 3 -12 29 -34 56 l-40 51 43 35 c23 20 36 36 29 37 -7 0
-35 -20 -61 -45 -26 -25 -51 -45 -54 -45 -3 0 -8 21 -10 48 -2 26 -3 4 -4 -48z"/>
<path d="M791 308 c1 -64 4 -80 8 -53 6 39 7 40 51 43 52 4 70 16 70 47 0 35
-31 55 -83 55 l-47 0 1 -92z m107 40 c3 -22 -2 -29 -21 -33 -49 -13 -72 -3
-75 33 l-3 33 48 -3 c44 -3 48 -5 51 -30z"/>
<path d="M1051 378 c-5 -13 -20 -52 -35 -87 -30 -73 -29 -71 -17 -71 5 0 14
14 20 30 9 26 15 30 49 30 35 0 41 -4 52 -30 7 -16 16 -30 21 -30 8 0 2 19
-46 138 -19 47 -31 53 -44 20z m33 -32 c3 -13 9 -31 12 -40 5 -13 -1 -16 -25
-16 -34 0 -36 3 -20 49 13 37 25 40 33 7z"/>
<path d="M1262 393 c-19 -7 -42 -58 -42 -93 0 -64 93 -108 132 -62 20 23 30
52 18 52 -6 0 -10 -4 -10 -10 0 -17 -39 -50 -60 -50 -33 0 -60 35 -60 78 0 43
6 55 37 71 31 16 41 14 68 -15 17 -18 25 -22 25 -12 0 35 -63 59 -108 41z"/>
<path d="M1463 310 c0 -65 2 -81 6 -50 l6 45 53 3 52 3 0 -45 c0 -26 5 -46 10
-46 6 0 10 37 10 90 0 53 -4 90 -10 90 -5 0 -10 -18 -10 -41 l0 -40 -52 3 -53
3 -6 40 c-4 25 -6 4 -6 -55z"/>
<path d="M1715 375 c-55 -54 -18 -155 58 -155 57 0 84 38 78 110 -6 66 -89 93
-136 45z m100 -10 c16 -15 25 -36 25 -55 0 -36 -38 -80 -70 -80 -33 0 -60 35
-60 78 0 42 6 54 35 70 30 17 43 15 70 -13z"/>
<path d="M1965 353 c-8 -68 -24 -123 -35 -123 -6 0 -10 -13 -10 -30 0 -16 5
-30 10 -30 6 0 10 11 10 25 0 24 2 25 70 25 68 0 70 -1 70 -25 0 -14 5 -25 10
-25 6 0 10 14 10 30 0 17 -4 30 -10 30 -5 0 -10 37 -12 83 l-3 82 -52 3 -52 3
-6 -48z m93 -45 l-3 -73 -49 -3 c-47 -3 -48 -2 -41 20 3 13 9 47 12 76 l5 52
40 0 39 0 -3 -72z"/>
<path d="M2221 378 c-5 -13 -20 -52 -35 -87 -30 -73 -29 -71 -17 -71 5 0 14
14 20 30 9 26 15 30 49 30 35 0 41 -4 52 -30 7 -16 16 -30 21 -30 8 0 2 19
-46 138 -19 47 -31 53 -44 20z m33 -32 c3 -13 9 -31 12 -40 5 -13 -1 -16 -25
-16 -34 0 -36 3 -20 49 13 37 25 40 33 7z"/>
<path d="M2391 308 c1 -64 4 -80 8 -53 6 39 7 40 51 43 52 4 70 16 70 47 0 35
-31 55 -83 55 l-47 0 1 -92z m107 40 c3 -22 -2 -29 -21 -33 -49 -13 -72 -3
-75 33 l-3 33 48 -3 c44 -3 48 -5 51 -30z"/>
<path d="M2642 393 c-19 -7 -42 -58 -42 -93 0 -64 93 -108 132 -62 20 23 30
52 18 52 -6 0 -10 -4 -10 -10 0 -17 -39 -50 -60 -50 -33 0 -60 35 -60 78 0 43
6 55 37 71 31 16 41 14 68 -15 17 -18 25 -22 25 -12 0 35 -63 59 -108 41z"/>
<path d="M2843 310 c0 -52 2 -81 4 -64 2 18 13 40 23 49 19 17 21 17 39 -6 49
-62 60 -74 65 -68 4 3 -12 29 -34 56 l-40 51 43 35 c23 20 36 36 29 37 -7 0
-35 -20 -61 -45 -26 -25 -51 -45 -54 -45 -3 0 -8 21 -10 48 -2 26 -3 4 -4 -48z"/>
<path d="M3085 375 c-55 -54 -18 -155 58 -155 57 0 84 38 78 110 -6 66 -89 93
-136 45z m100 -10 c16 -15 25 -36 25 -55 0 -36 -38 -80 -70 -80 -33 0 -60 35
-60 78 0 42 6 54 35 70 30 17 43 15 70 -13z"/>
<path d="M3310 310 c0 -53 4 -90 10 -90 6 0 10 33 10 80 l0 80 45 0 c25 0 45
5 45 10 0 6 -25 10 -55 10 l-55 0 0 -90z"/>
<path d="M3515 375 c-55 -54 -18 -155 58 -155 57 0 84 38 78 110 -6 66 -89 93
-136 45z m100 -10 c16 -15 25 -36 25 -55 0 -36 -38 -80 -70 -80 -33 0 -60 35
-60 78 0 42 6 54 35 70 30 17 43 15 70 -13z"/>
<path d="M3863 310 c0 -52 2 -81 4 -64 2 18 13 40 23 49 19 17 21 17 39 -6 49
-62 60 -74 65 -68 4 3 -12 29 -34 56 l-40 51 43 35 c23 20 36 36 29 37 -7 0
-35 -20 -61 -45 -26 -25 -51 -45 -54 -45 -3 0 -8 21 -10 48 -2 26 -3 4 -4 -48z"/>
<path d="M4091 308 c1 -64 4 -80 8 -53 6 39 7 40 51 43 52 4 70 16 70 47 0 35
-31 55 -83 55 l-47 0 1 -92z m107 40 c3 -22 -2 -29 -21 -33 -49 -13 -72 -3
-75 33 l-3 33 48 -3 c44 -3 48 -5 51 -30z"/>
<path d="M4341 378 c-5 -13 -20 -52 -35 -87 -30 -73 -29 -71 -17 -71 5 0 14
14 20 30 9 26 15 30 49 30 35 0 41 -4 52 -30 7 -16 16 -30 21 -30 8 0 2 19
-46 138 -19 47 -31 53 -44 20z m33 -32 c3 -13 9 -31 12 -40 5 -13 -1 -16 -25
-16 -34 0 -36 3 -20 49 13 37 25 40 33 7z"/>
<path d="M4525 380 c-21 -24 -14 -63 15 -76 20 -9 19 -10 -11 -46 -18 -22 -25
-38 -17 -38 7 0 26 18 42 40 40 54 66 54 66 0 0 -22 5 -40 10 -40 6 0 10 37
10 90 l0 90 -48 0 c-36 0 -54 -5 -67 -20z m95 -36 c0 -34 -1 -35 -36 -32 -71
6 -74 68 -4 68 39 0 40 -1 40 -36z"/>
</g>
</svg>
