<?xml version="1.0" standalone="no"?>
<!DOCTYPE svg PUBLIC "-//W3C//DTD SVG 20010904//EN"
 "http://www.w3.org/TR/2001/REC-SVG-20010904/DTD/svg10.dtd">
<svg version="1.0" xmlns="http://www.w3.org/2000/svg"
 width="1130.000000pt" height="472.000000pt" viewBox="0 0 1130.000000 472.000000"
 preserveAspectRatio="xMidYMid meet">

<g transform="translate(0.000000,472.000000) scale(0.100000,-0.100000)"
fill="#000" stroke="none">
<path d="M10566 4683 c4 -16 14 -38 23 -50 17 -24 79 -53 111 -53 59 0 122 48
136 104 5 22 3 26 -15 26 -12 0 -21 -6 -21 -13 0 -22 -45 -57 -81 -63 -46 -8
-86 10 -107 46 -23 40 -55 42 -46 3z"/>
<path d="M576 4561 c28 -3 59 -12 68 -20 10 -8 16 -9 16 -3 0 19 -37 32 -87
31 l-48 -2 51 -6z"/>
<path d="M772 4550 c-43 -27 -76 -99 -68 -148 13 -81 109 -125 189 -87 88 41
109 166 38 229 -33 29 -117 33 -159 6z m123 -18 c66 -38 81 -133 30 -185 -91
-91 -250 37 -190 152 30 59 92 71 160 33z"/>
<path d="M1018 4458 c3 -108 4 -114 29 -137 21 -19 34 -22 66 -18 21 3 47 13
58 23 18 16 19 16 19 -4 0 -14 6 -22 18 -22 15 0 17 13 17 135 0 128 -1 135
-20 135 -19 0 -20 -6 -17 -106 4 -124 -6 -144 -68 -144 -61 0 -70 19 -70 143
0 95 -2 107 -17 107 -16 0 -18 -11 -15 -112z"/>
<path d="M1290 4550 c7 -13 10 -66 8 -135 -2 -72 1 -115 7 -115 6 0 9 42 7
112 l-3 113 105 -110 104 -110 4 133 c2 83 -1 132 -7 132 -6 0 -9 -40 -7 -107
l3 -108 -101 108 c-56 59 -108 107 -116 107 -12 0 -12 -4 -4 -20z"/>
<path d="M1710 4561 c25 -4 55 -12 67 -19 19 -10 22 -10 17 2 -7 18 -37 26
-89 25 l-40 -2 45 -6z"/>
<path d="M1855 4435 c0 -122 2 -135 18 -135 15 0 17 13 17 135 0 122 -2 135
-17 135 -16 0 -18 -13 -18 -135z"/>
<path d="M1945 4435 l0 -135 83 0 c77 0 82 1 82 22 0 20 -1 20 -18 5 -22 -20
-83 -22 -100 -5 -8 8 -12 52 -12 130 0 106 -2 118 -17 118 -16 0 -18 -13 -18
-135z"/>
<path d="M471 4530 c-17 -17 -33 -46 -37 -65 -19 -104 42 -167 159 -164 l52 2
-57 6 c-67 7 -99 33 -124 97 -20 53 -13 86 26 125 16 16 25 29 20 29 -5 0 -22
-14 -39 -30z"/>
<path d="M1605 4527 c-41 -41 -53 -93 -34 -144 22 -56 58 -77 137 -79 l67 -3
-58 8 c-86 12 -127 59 -127 146 0 40 5 52 31 76 17 16 28 29 24 29 -4 0 -22
-15 -40 -33z"/>
<path d="M5641 4530 c-89 -19 -184 -98 -221 -185 -66 -154 -27 -376 82 -470
118 -100 318 -101 434 -1 113 97 152 312 85 470 -28 63 -101 139 -160 164 -56
25 -158 35 -220 22z m171 -66 c106 -36 171 -147 172 -294 1 -143 -50 -242
-150 -291 -56 -26 -160 -30 -215 -7 -141 60 -203 246 -142 433 19 59 100 145
153 162 52 16 130 15 182 -3z"/>
<path d="M2630 4165 l0 -355 35 0 35 0 0 175 0 175 210 0 210 0 0 -175 0 -175
35 0 35 0 0 355 0 355 -35 0 -35 0 0 -155 0 -155 -210 0 -210 0 0 155 0 155
-35 0 -35 0 0 -355z"/>
<path d="M3541 4498 c-5 -13 -68 -169 -140 -347 -72 -178 -131 -328 -131 -333
0 -4 15 -8 33 -8 34 0 34 0 76 110 l42 110 164 0 164 0 42 -110 42 -110 38 0
37 0 -52 133 c-29 72 -92 232 -140 355 l-88 222 -39 0 c-32 0 -41 -4 -48 -22z
m118 -236 c34 -90 61 -165 61 -167 0 -3 -62 -5 -139 -5 l-138 0 70 180 c44
113 74 176 78 167 4 -7 35 -86 68 -175z"/>
<path d="M3980 4165 l0 -355 285 0 285 0 0 -95 0 -95 35 0 35 0 0 125 0 125
-45 0 -45 0 0 325 0 325 -35 0 -35 0 0 -325 0 -325 -205 0 -205 0 0 325 0 325
-35 0 -35 0 0 -355z"/>
<path d="M4700 4164 l0 -355 47 3 47 3 200 314 201 315 3 -317 2 -317 35 0 35
0 0 355 0 355 -47 0 -48 -1 -200 -314 -200 -314 -3 314 -2 315 -35 0 -35 0 0
-356z"/>
<path d="M6160 4165 l0 -355 35 0 35 0 0 175 0 175 210 0 210 0 0 -175 0 -175
35 0 35 0 0 355 0 355 -35 0 -35 0 0 -155 0 -155 -210 0 -210 0 0 155 0 155
-35 0 -35 0 0 -355z"/>
<path d="M7081 4498 c-5 -13 -68 -169 -140 -347 -72 -178 -131 -328 -131 -333
0 -4 15 -8 33 -8 34 0 34 0 76 110 l42 110 164 0 164 0 41 -109 42 -109 67 -4
c130 -9 172 20 210 141 28 89 40 176 48 364 l6 157 149 0 148 0 0 -330 0 -330
35 0 35 0 0 355 0 355 -220 0 -220 0 0 -147 c0 -352 -54 -526 -156 -510 -21 4
-34 1 -37 -6 -2 -7 -31 58 -64 143 -34 85 -93 237 -133 338 l-71 182 -40 0
c-32 0 -41 -4 -48 -22z m118 -236 c34 -90 61 -165 61 -167 0 -3 -62 -5 -139
-5 l-138 0 70 180 c44 113 74 176 78 167 4 -7 35 -86 68 -175z"/>
<path d="M8220 4165 l0 -355 178 0 c193 0 235 7 283 47 86 73 93 227 14 304
-51 50 -82 57 -252 58 l-153 1 0 150 0 150 -35 0 -35 0 0 -355z m391 -20 c65
-34 91 -143 50 -211 -32 -53 -71 -64 -230 -64 l-141 0 0 145 0 145 145 0 c112
0 153 -4 176 -15z"/>
<path d="M8860 4165 l0 -355 35 0 35 0 0 175 0 175 210 0 210 0 0 -175 0 -175
35 0 35 0 0 355 0 355 -35 0 -35 0 0 -155 0 -155 -210 0 -210 0 0 155 0 155
-35 0 -35 0 0 -355z"/>
<path d="M9570 4165 l0 -355 178 0 c193 0 235 7 283 47 86 73 93 227 14 304
-51 50 -82 57 -252 58 l-153 1 0 150 0 150 -35 0 -35 0 0 -355z m391 -20 c65
-34 91 -143 50 -211 -32 -53 -71 -64 -230 -64 l-141 0 0 145 0 145 145 0 c112
0 153 -4 176 -15z"/>
<path d="M10210 4165 l0 -355 30 0 30 0 0 355 0 355 -30 0 -30 0 0 -355z"/>
<path d="M10420 4164 l0 -355 47 3 47 3 200 314 201 315 3 -317 2 -317 35 0
35 0 0 355 0 355 -47 0 -48 -1 -200 -314 -200 -314 -3 314 -2 315 -35 0 -35 0
0 -356z"/>
<path d="M660 4320 c-13 -8 -12 -10 3 -10 9 0 17 5 17 10 0 12 -1 12 -20 0z"/>
<path d="M1790 4320 c-13 -8 -13 -10 2 -10 9 0 20 5 23 10 8 13 -5 13 -25 0z"/>
<path d="M325 4174 c-16 -8 -34 -20 -40 -26 -5 -7 2 -4 17 5 79 49 198 -19
198 -113 0 -53 -57 -110 -110 -110 -78 0 -152 108 -121 176 6 13 8 24 5 24 -8
0 -34 -68 -34 -91 0 -35 31 -89 61 -104 67 -35 162 -8 194 56 22 42 23 111 1
144 -33 50 -114 69 -171 39z"/>
<path d="M1920 4180 c0 -5 5 -10 10 -10 6 0 10 5 10 10 0 6 -4 10 -10 10 -5 0
-10 -4 -10 -10z"/>
<path d="M2110 4180 c0 -5 5 -10 10 -10 6 0 10 5 10 10 0 6 -4 10 -10 10 -5 0
-10 -4 -10 -10z"/>
<path d="M2223 4180 c16 -5 35 -14 43 -21 9 -8 14 -8 14 -1 0 15 -34 32 -62
31 -21 -1 -20 -2 5 -9z"/>
<path d="M555 4050 c0 -117 2 -130 18 -130 14 0 17 10 17 64 l0 65 53 4 52 3
-52 2 -53 2 0 60 c0 50 -3 60 -17 60 -16 0 -18 -13 -18 -130z"/>
<path d="M678 4173 c7 -3 16 -2 19 1 4 3 -2 6 -13 5 -11 0 -14 -3 -6 -6z"/>
<path d="M868 4050 l-3 -130 83 0 c45 0 82 3 82 8 0 4 -28 7 -62 7 l-63 0 -3
57 -3 57 53 4 53 3 -53 2 -54 2 4 60 c2 51 0 60 -14 60 -15 0 -17 -16 -20
-130z"/>
<path d="M990 4176 c0 -2 7 -6 15 -10 8 -3 15 -1 15 4 0 6 -7 10 -15 10 -8 0
-15 -2 -15 -4z"/>
<path d="M1105 4117 l44 -64 -44 -63 c-25 -35 -43 -66 -40 -68 3 -3 6 -3 8 -1
2 2 20 30 42 61 43 65 45 65 90 -11 21 -36 36 -51 52 -51 20 0 17 7 -30 75
l-51 75 37 52 c20 29 33 55 30 58 -3 3 -8 0 -10 -6 -2 -6 -18 -30 -35 -54
l-31 -42 -31 51 c-22 36 -37 50 -53 51 -21 0 -19 -5 22 -63z"/>
<path d="M1325 4050 c0 -117 2 -130 18 -130 15 0 17 13 17 130 0 117 -2 130
-17 130 -16 0 -18 -13 -18 -130z"/>
<path d="M1395 4171 c17 -4 35 -17 45 -34 14 -25 13 -30 -2 -57 -17 -29 -17
-30 2 -20 68 36 41 121 -37 119 -36 -1 -37 -2 -8 -8z"/>
<path d="M1508 4050 l-3 -130 83 0 c45 0 82 3 82 8 0 4 -28 7 -62 7 l-63 0 -3
57 -3 57 53 4 53 3 -53 2 -54 2 4 60 c2 51 0 60 -14 60 -15 0 -17 -16 -20
-130z"/>
<path d="M1630 4176 c0 -2 7 -6 15 -10 8 -3 15 -1 15 4 0 6 -7 10 -15 10 -8 0
-15 -2 -15 -4z"/>
<path d="M1710 4050 c0 -117 2 -130 18 -130 15 0 17 9 15 68 -1 37 -2 95 -2
130 -1 48 -4 62 -16 62 -13 0 -15 -21 -15 -130z"/>
<path d="M1808 4164 c30 -20 30 -77 1 -97 -24 -18 -18 -35 38 -104 30 -37 39
-43 71 -42 22 1 29 3 17 6 -27 7 -52 30 -87 81 l-29 42 20 27 c39 49 20 103
-36 103 -15 0 -14 -2 5 -16z"/>
<path d="M2008 4050 c-3 -124 -2 -130 17 -130 19 0 20 7 20 130 0 116 -2 130
-17 130 -15 0 -17 -16 -20 -130z"/>
<path d="M2160 4161 c-15 -29 -12 -77 5 -91 9 -7 38 -23 65 -36 40 -18 50 -28
50 -47 0 -33 -30 -57 -70 -57 -18 0 -42 7 -52 17 -17 15 -18 15 -18 -5 0 -20
5 -22 49 -22 64 0 79 6 97 42 25 48 5 81 -67 112 -64 28 -75 51 -42 88 9 10
11 18 5 18 -6 0 -16 -9 -22 -19z"/>
<path d="M250 2715 l0 -1025 1018 2 1017 3 3 1023 2 1022 -1020 0 -1020 0 0
-1025z m1490 988 c-25 -2 -359 -14 -744 -28 -384 -14 -702 -28 -707 -31 -5 -3
-9 11 -9 30 l0 36 753 -2 c413 -1 732 -3 707 -5z m519 -755 c-1 -420 -4 -752
-5 -738 -4 25 -54 1395 -54 1463 0 34 2 37 30 37 l30 0 -1 -762z m-94 730 c2
-7 13 -276 24 -598 11 -322 23 -639 26 -705 2 -66 3 -115 0 -110 -8 20 -108
1393 -102 1409 7 19 46 22 52 4z m-475 -14 c-34 -5 -1339 -104 -1368 -104 -18
0 -22 6 -22 30 0 29 2 30 48 31 26 0 310 11 632 23 549 22 768 28 710 20z
m390 -21 c0 -10 23 -306 50 -657 27 -352 47 -642 45 -645 -3 -2 -5 2 -5 10 0
19 -148 1234 -155 1277 -6 31 -5 32 30 32 27 0 35 -4 35 -17z m-90 -11 c0 -4
32 -264 70 -578 39 -313 69 -575 68 -583 -2 -8 -49 248 -105 569 -56 321 -100
587 -97 592 7 10 64 11 64 0z m-575 -34 c-126 -16 -422 -53 -657 -81 l-426
-53 -5 31 c-3 16 -4 31 -2 33 3 3 1234 100 1280 100 22 0 -63 -14 -190 -30z
m485 16 c0 -4 43 -250 95 -547 52 -297 94 -542 92 -543 -3 -3 -257 1063 -257
1078 0 4 10 9 23 11 37 7 47 7 47 1z m-341 -28 c-4 -4 -1145 -205 -1184 -209
-16 -2 -21 5 -23 31 -2 17 0 32 5 33 4 0 269 33 588 73 605 77 621 79 614 72z
m260 -33 c5 -21 51 -213 101 -428 50 -214 95 -407 101 -428 6 -22 8 -41 5 -44
-2 -3 -9 10 -14 29 -5 18 -69 226 -142 462 -140 452 -138 445 -83 446 17 0 24
-8 32 -37z m-80 -45 c25 -79 230 -746 237 -773 4 -16 3 -17 -4 -5 -10 16 -322
806 -322 815 0 7 40 23 57 24 6 1 21 -27 32 -61z m35 -322 c75 -192 134 -351
131 -354 -3 -3 -82 151 -175 343 -94 191 -170 348 -168 350 11 9 64 21 69 16
3 -3 68 -163 143 -355z m-319 349 c-5 -3 -237 -58 -515 -124 -278 -65 -517
-122 -532 -126 -23 -6 -27 -3 -33 25 -4 17 -4 34 -1 37 3 3 240 47 528 98 466
83 587 102 553 90z m248 -330 c86 -173 154 -315 149 -315 -8 1 -372 584 -372
597 0 7 37 27 60 32 3 1 76 -141 163 -314z m-388 265 c-56 -25 -900 -279 -906
-272 -3 4 -9 19 -13 34 -7 33 -57 18 459 138 215 50 401 94 415 99 14 5 34 9
45 9 l20 1 -20 -9z m311 -245 c86 -137 158 -258 159 -267 2 -9 28 -49 58 -88
30 -40 78 -116 106 -170 l51 -99 -90 -71 c-50 -40 -90 -74 -90 -77 0 -3 21 12
48 33 26 21 66 54 90 72 23 19 44 33 46 31 8 -10 26 -49 26 -57 0 -10 -473
-312 -487 -312 -5 0 12 19 37 41 l45 40 -41 -28 c-68 -47 -179 -144 -176 -154
1 -6 -2 -8 -8 -4 -5 3 -34 -10 -65 -29 -83 -54 -175 -98 -191 -92 -8 3 -13 0
-11 -6 1 -6 -12 -17 -29 -24 l-31 -13 -157 249 c-86 137 -156 253 -156 257 0
5 16 -10 36 -32 35 -39 35 -39 13 -5 -13 19 -42 57 -66 84 -78 88 -203 292
-203 331 0 8 -4 15 -8 15 -7 0 -35 61 -29 65 18 15 519 325 524 325 3 0 -17
-18 -46 -41 -28 -22 -51 -43 -51 -45 0 -8 62 38 115 85 61 54 188 137 273 180
62 31 65 32 85 14 22 -17 22 -17 4 2 -16 18 -16 20 5 32 13 7 31 12 40 10 11
-1 78 -98 174 -252z m-351 206 c-15 -13 -62 -26 -50 -13 6 5 19 12 30 15 11 3
22 5 25 6 2 0 0 -3 -5 -8z m-80 -30 c-12 -10 -756 -304 -759 -299 -2 2 -8 18
-14 35 l-11 33 112 35 c62 19 234 72 382 119 268 84 308 94 290 77z m15 -16
c0 -2 -10 -9 -22 -15 -22 -11 -22 -10 -4 4 21 17 26 19 26 11z m-60 -30 c0 -7
-681 -347 -686 -342 -3 2 -9 19 -14 36 -8 28 -6 33 13 42 43 19 672 268 680
268 4 1 7 -1 7 -4z m-50 -49 c0 -2 -16 -14 -35 -26 -19 -12 -32 -27 -29 -32 4
-7 2 -8 -5 -4 -6 4 -116 -58 -259 -148 -137 -85 -256 -158 -264 -161 -11 -4
-19 3 -27 26 -6 18 -10 33 -9 35 3 2 622 313 626 313 1 1 2 -1 2 -3z m-790
-771 c11 -324 22 -638 26 -697 l6 -108 -31 0 -31 0 2 738 c1 405 3 719 5 697
1 -22 12 -305 23 -630z m70 -111 c28 -358 50 -657 50 -663 0 -9 -59 -17 -60
-8 -3 25 -49 1332 -48 1357 l1 35 4 -35 c2 -19 26 -328 53 -686z m65 3 c41
-339 75 -623 75 -631 0 -12 -50 -30 -59 -21 -4 4 -101 1259 -100 1285 1 13 2
13 5 0 2 -8 37 -293 79 -633z m-38 541 c-3 -7 -5 -2 -5 12 0 14 2 19 5 13 2
-7 2 -19 0 -25z m108 -586 c52 -299 95 -552 95 -563 0 -30 -58 -27 -65 4 -8
36 -135 1093 -134 1113 2 30 3 23 104 -554z m69 -27 l123 -520 -30 -8 c-16 -5
-33 -5 -37 0 -7 8 -191 1049 -189 1068 2 14 -3 34 133 -540z m1346 430 c0 -5
-5 -3 -10 5 -5 8 -10 20 -10 25 0 6 5 3 10 -5 5 -8 10 -19 10 -25z m-1401 -50
c5 -22 68 -227 139 -455 71 -228 127 -418 123 -422 -3 -3 -19 -8 -36 -10 l-29
-3 -106 445 c-58 245 -110 459 -114 475 -5 20 -4 27 3 20 5 -5 14 -28 20 -50z
m126 -255 c53 -135 128 -323 165 -418 l68 -173 -25 -10 c-13 -5 -30 -9 -37 -9
-7 0 -62 161 -141 418 -70 229 -130 424 -133 432 -3 8 -3 13 0 10 4 -3 50
-115 103 -250z m-37 155 c-3 -3 -9 2 -12 12 -6 14 -5 15 5 6 7 -7 10 -15 7
-18z m186 -374 l175 -348 -37 -11 c-20 -6 -37 -10 -38 -9 -2 2 -229 575 -275
695 -5 12 -6 22 -4 22 3 0 83 -157 179 -349z m-99 258 c9 -16 20 -27 24 -24
12 7 34 -22 26 -35 -3 -5 64 -123 150 -261 87 -137 156 -251 154 -253 -8 -4
-60 -26 -64 -26 -3 0 -77 144 -165 321 -89 176 -156 318 -150 314 5 -3 17 -20
25 -36z m1345 -35 c6 -14 10 -29 10 -35 0 -5 -140 -79 -311 -164 -171 -86
-308 -151 -304 -145 3 5 20 17 36 25 16 9 27 20 24 24 -7 12 20 32 36 26 8 -2
120 63 249 144 129 82 238 150 243 150 4 1 12 -11 17 -25z m36 -100 l6 -30
-347 -137 c-191 -76 -350 -136 -352 -133 -8 8 671 345 679 337 4 -4 10 -20 14
-37z m33 -109 c1 -5 -106 -43 -237 -83 -130 -40 -309 -95 -396 -122 -87 -27
-153 -43 -145 -36 8 8 181 79 384 159 l370 146 12 -27 c7 -15 12 -31 12 -37z
m17 -60 c3 -20 5 -37 3 -39 -4 -2 -809 -192 -854 -201 -11 -2 -35 -9 -54 -14
-19 -6 -30 -7 -25 -2 7 8 891 287 916 290 4 1 10 -15 14 -34z m26 -95 c3 -21
0 -31 -11 -34 -40 -12 -1055 -186 -1065 -183 -6 2 16 9 49 16 33 6 274 63 535
125 261 62 478 112 481 110 4 -2 9 -17 11 -34z m-806 -55 c-11 -8 -25 -15 -30
-15 -6 1 0 7 14 15 32 19 40 18 16 0z m830 -63 c-7 -6 -1186 -153 -1199 -149
-5 1 261 50 590 108 l598 105 8 -29 c5 -16 6 -32 3 -35z m-866 23 c0 -8 -52
-26 -58 -20 -3 2 6 9 19 14 28 11 39 13 39 6z m890 -84 c0 -27 -3 -30 -42 -35
-72 -10 -1250 -98 -1253 -94 -5 4 1205 155 1258 157 35 1 37 -1 37 -28z m20
-90 l0 -29 -92 -6 c-145 -9 -1279 -48 -1283 -44 -4 4 1254 104 1338 107 35 1
37 -1 37 -28z m30 -91 l0 -30 -737 2 c-406 1 -697 4 -648 6 249 9 1306 49
1343 51 40 1 42 0 42 -29z"/>
<path d="M1465 3351 c27 -34 54 -65 59 -69 6 -3 -12 22 -39 57 -27 34 -54 65
-59 69 -6 3 12 -22 39 -57z"/>
<path d="M1575 3211 c27 -34 54 -65 59 -69 6 -3 -12 22 -39 57 -27 34 -54 65
-59 69 -6 3 12 -22 39 -57z"/>
<path d="M894 3128 l-19 -23 23 19 c21 18 27 26 19 26 -2 0 -12 -10 -23 -22z"/>
<path d="M1655 3110 c10 -11 20 -20 23 -20 3 0 -3 9 -13 20 -10 11 -20 20 -23
20 -3 0 3 -9 13 -20z"/>
<path d="M815 3069 c-76 -62 -88 -79 -17 -24 55 43 80 66 70 65 -2 -1 -25 -19
-53 -41z"/>
<path d="M1709 3037 c16 -23 40 -51 52 -62 13 -11 1 8 -25 43 -54 71 -69 82
-27 19z"/>
<path d="M704 2978 l-19 -23 23 19 c12 11 22 21 22 23 0 8 -8 2 -26 -19z"/>
<path d="M625 2919 c-76 -62 -88 -79 -17 -24 55 43 80 66 70 65 -2 -1 -25 -19
-53 -41z"/>
<path d="M860 2806 c0 -2 7 -7 16 -10 8 -3 12 -2 9 4 -6 10 -25 14 -25 6z"/>
<path d="M940 2715 c0 -84 2 -95 18 -95 15 0 17 10 14 89 l-3 90 43 4 c38 3
37 4 -14 5 l-58 2 0 -95z"/>
<path d="M1090 2715 c0 -69 3 -95 13 -95 9 0 12 26 12 95 0 69 -3 95 -12 95
-10 0 -13 -26 -13 -95z"/>
<path d="M1160 2715 l0 -95 28 1 c15 0 21 3 15 6 -9 3 -13 32 -13 94 0 72 -3
89 -15 89 -12 0 -15 -17 -15 -95z"/>
<path d="M1277 2796 c20 -9 40 -29 50 -50 16 -34 16 -38 0 -71 -9 -20 -27 -40
-39 -45 -13 -5 -17 -9 -10 -9 44 -2 88 67 77 119 -8 37 -33 58 -76 65 l-34 6
32 -15z"/>
<path d="M1435 2715 c0 -69 3 -95 13 -95 9 0 12 26 12 95 0 69 -3 95 -12 95
-10 0 -13 -26 -13 -95z"/>
<path d="M1510 2790 c25 -25 25 -35 0 -60 l-21 -21 32 -43 c29 -41 69 -67 69
-45 0 5 -4 9 -10 9 -5 0 -22 18 -37 41 -26 39 -26 41 -10 69 9 15 17 30 17 33
0 11 -32 37 -46 37 -10 0 -9 -5 6 -20z"/>
<path d="M1630 2732 c0 -48 5 -85 13 -96 12 -17 71 -26 84 -13 3 4 -8 7 -25 7
-42 0 -52 22 -52 109 0 41 -4 71 -10 71 -6 0 -10 -33 -10 -78z"/>
<path d="M1757 2723 c1 -49 2 -91 3 -95 0 -5 5 -8 10 -8 6 0 10 38 10 95 0 69
-3 95 -12 95 -10 0 -12 -23 -11 -87z"/>
<path d="M750 2776 c-52 -57 -19 -146 60 -160 l35 -7 -32 15 c-35 16 -58 46
-69 89 -5 21 -1 36 15 58 26 35 22 38 -9 5z"/>
<path d="M1375 2631 c-6 -11 9 -23 19 -14 9 9 7 23 -3 23 -6 0 -12 -4 -16 -9z"/>
<path d="M1730 2389 c-41 -33 -82 -68 -90 -76 -17 -18 87 61 140 106 62 53 28
32 -50 -30z"/>
<path d="M845 2360 c10 -11 20 -20 23 -20 3 0 -3 9 -13 20 -10 11 -20 20 -23
20 -3 0 3 -9 13 -20z"/>
<path d="M915 2271 c27 -34 54 -65 59 -69 6 -3 -12 22 -39 57 -27 34 -54 65
-59 69 -6 3 12 -22 39 -57z"/>
<path d="M1025 2131 c27 -34 54 -65 59 -69 6 -3 -12 22 -39 57 -27 34 -54 65
-59 69 -6 3 12 -22 39 -57z"/>
<path d="M1105 2030 c10 -11 20 -20 23 -20 3 0 -3 9 -13 20 -10 11 -20 20 -23
20 -3 0 3 -9 13 -20z"/>
<path d="M730 2481 c0 -6 4 -13 10 -16 6 -3 7 1 4 9 -7 18 -14 21 -14 7z"/>
<path d="M1520 2200 c-9 -6 -10 -10 -3 -10 6 0 15 5 18 10 8 12 4 12 -15 0z"/>
<path d="M6421 3340 c-89 -19 -184 -98 -221 -185 -66 -154 -27 -376 82 -470
118 -100 318 -101 434 -1 113 97 152 312 85 470 -28 63 -101 139 -160 164 -56
25 -158 35 -220 22z m171 -66 c106 -36 171 -147 172 -294 1 -143 -50 -242
-150 -291 -56 -26 -160 -30 -215 -7 -141 60 -203 246 -142 433 19 59 100 145
153 162 52 16 130 15 182 -3z"/>
<path d="M10611 3340 c-89 -19 -184 -98 -221 -185 -66 -154 -27 -376 82 -470
118 -100 318 -101 434 -1 113 97 152 312 85 470 -28 63 -101 139 -160 164 -56
25 -158 35 -220 22z m171 -66 c106 -36 171 -147 172 -294 1 -143 -50 -242
-150 -291 -56 -26 -160 -30 -215 -7 -141 60 -203 246 -142 433 19 59 100 145
153 162 52 16 130 15 182 -3z"/>
<path d="M2600 3213 c1 -190 23 -243 117 -279 35 -14 64 -16 156 -10 61 3 127
9 145 12 l32 6 0 -161 0 -161 35 0 35 0 0 355 0 355 -35 0 -35 0 0 -164 0
-164 -69 -12 c-110 -18 -212 -16 -249 6 -51 30 -62 66 -62 208 l0 126 -35 0
-35 0 0 -117z"/>
<path d="M3280 2975 l0 -355 250 0 250 0 0 30 0 30 -215 0 -215 0 0 140 0 140
200 0 200 0 0 30 0 30 -200 0 -200 0 0 130 0 130 210 0 210 0 0 25 0 25 -245
0 -245 0 0 -355z"/>
<path d="M3900 2976 l0 -356 35 0 35 0 2 302 3 301 120 -301 120 -302 32 0 32
0 120 303 120 302 1 -302 0 -303 35 0 35 0 0 355 0 355 -49 0 -50 0 -81 -207
c-45 -115 -100 -255 -122 -312 l-41 -104 -104 264 c-57 145 -112 284 -121 309
-18 44 -19 45 -70 48 l-52 3 0 -355z"/>
<path d="M4750 2975 l0 -355 35 0 35 0 0 330 0 330 205 0 205 0 0 -330 0 -330
35 0 35 0 0 355 0 355 -275 0 -275 0 0 -355z"/>
<path d="M5470 2974 l0 -355 47 3 47 3 200 314 201 315 3 -317 2 -317 35 0 35
0 0 355 0 355 -47 0 -48 -1 -200 -314 -200 -314 -3 314 -2 315 -35 0 -35 0 0
-356z"/>
<path d="M6970 2975 l0 -355 35 0 35 0 0 175 0 175 210 0 210 0 0 -175 0 -175
35 0 35 0 0 355 0 355 -35 0 -35 0 0 -155 0 -155 -210 0 -210 0 0 155 0 155
-35 0 -35 0 0 -355z"/>
<path d="M7901 3308 c-5 -13 -68 -169 -140 -347 -72 -178 -131 -328 -131 -333
0 -4 15 -8 33 -8 34 0 34 0 76 110 l42 110 164 0 164 0 42 -110 42 -110 38 0
37 0 -52 133 c-29 72 -92 232 -140 355 l-88 222 -39 0 c-32 0 -41 -4 -48 -22z
m118 -236 c34 -90 61 -165 61 -167 0 -3 -62 -5 -139 -5 l-138 0 70 180 c44
113 74 176 78 167 4 -7 35 -86 68 -175z"/>
<path d="M8280 3305 l0 -25 120 0 120 0 0 -330 0 -330 35 0 35 0 2 328 3 327
123 3 122 3 0 24 0 25 -280 0 -280 0 0 -25z"/>
<path d="M9680 2975 l0 -355 35 0 35 0 0 330 0 330 205 0 205 0 0 -330 0 -330
35 0 35 0 0 355 0 355 -275 0 -275 0 0 -355z"/>
<path d="M8006 2293 c4 -16 14 -38 23 -50 17 -24 79 -53 111 -53 59 0 122 48
136 104 5 22 3 26 -15 26 -12 0 -21 -6 -21 -13 0 -22 -45 -57 -81 -63 -46 -8
-86 10 -107 46 -23 40 -55 42 -46 3z"/>
<path d="M5503 2140 c-89 -21 -154 -84 -172 -167 l-9 -43 34 0 c24 0 34 5 34
15 0 32 41 94 75 115 51 31 150 38 211 15 57 -21 84 -62 84 -125 0 -84 -48
-119 -172 -127 -72 -5 -78 -7 -78 -28 0 -21 6 -23 78 -28 130 -8 192 -55 192
-142 0 -118 -134 -193 -275 -154 -78 21 -135 86 -135 153 0 31 -12 38 -46 30
-24 -6 -26 -10 -20 -46 21 -130 117 -198 280 -198 64 0 92 5 131 24 93 43 143
128 132 225 -6 51 -30 87 -79 120 l-36 23 34 31 c67 58 82 132 44 207 -44 86
-181 130 -307 100z"/>
<path d="M2740 2018 c0 -198 -28 -365 -82 -490 -19 -46 -22 -48 -59 -48 l-39
0 0 -125 0 -125 35 0 35 0 0 95 0 95 285 0 285 0 0 -95 0 -95 35 0 35 0 0 125
0 125 -45 0 -45 0 0 325 0 325 -220 0 -220 0 0 -112z m370 -238 l0 -300 -200
0 c-110 0 -200 2 -200 4 0 2 11 28 25 58 38 84 64 226 72 391 l6 147 149 0
148 0 0 -300z"/>
<path d="M3980 1774 l0 -355 47 3 47 3 200 314 201 315 3 -317 2 -317 35 0 35
0 0 355 0 355 -47 0 -48 -1 -200 -314 -200 -314 -3 314 -2 315 -35 0 -35 0 0
-356z"/>
<path d="M6791 2108 c-5 -13 -68 -169 -140 -347 -72 -178 -131 -328 -131 -333
0 -4 15 -8 33 -8 34 0 34 0 76 110 l42 110 164 0 164 0 42 -110 42 -110 38 0
37 0 -52 133 c-29 72 -92 232 -140 355 l-88 222 -39 0 c-32 0 -41 -4 -48 -22z
m118 -236 c34 -90 61 -165 61 -167 0 -3 -62 -5 -139 -5 l-138 0 70 180 c44
113 74 176 78 167 4 -7 35 -86 68 -175z"/>
<path d="M7860 1774 l0 -355 47 3 47 3 200 314 201 315 3 -317 2 -317 35 0 35
0 0 355 0 355 -47 0 -48 -1 -200 -314 -200 -314 -3 314 -2 315 -35 0 -35 0 0
-356z"/>
<path d="M9210 1775 l0 -355 35 0 35 0 0 175 0 175 210 0 210 0 0 -175 0 -175
35 0 35 0 0 355 0 355 -35 0 -35 0 0 -155 0 -155 -210 0 -210 0 0 155 0 155
-35 0 -35 0 0 -355z"/>
<path d="M10480 2126 c0 -3 58 -125 130 -271 l129 -267 -19 -38 c-32 -63 -66
-83 -127 -77 -53 6 -53 5 -53 -23 0 -26 4 -29 43 -35 65 -10 120 9 159 55 25
29 292 560 325 647 4 9 -5 13 -29 13 l-35 0 -109 -230 c-60 -126 -112 -230
-115 -230 -3 0 -56 104 -117 230 l-112 230 -35 0 c-19 0 -35 -2 -35 -4z"/>
<path d="M513 1550 c-112 -24 -213 -101 -260 -199 -20 -42 -28 -76 -31 -136
-5 -107 20 -177 92 -251 69 -70 143 -94 295 -94 142 1 229 20 258 57 27 33 30
53 5 30 -29 -26 -102 -55 -173 -67 -158 -27 -300 44 -369 184 -90 182 -49 353
105 431 52 27 68 30 149 30 96 0 149 -18 203 -68 30 -27 39 -17 19 21 -11 21
-29 35 -63 47 -58 20 -172 27 -230 15z"/>
<path d="M918 1540 l22 -9 0 -320 c0 -296 -1 -320 -17 -324 -10 -3 84 -5 210
-6 l227 -1 0 41 c0 24 -4 38 -10 34 -5 -3 -10 -13 -10 -20 0 -27 -38 -35 -157
-35 -164 0 -158 -7 -158 167 l0 138 99 3 c55 1 112 -2 128 -7 26 -9 28 -8 28
15 0 22 -3 23 -20 14 -12 -6 -65 -9 -127 -8 l-108 3 0 150 0 150 90 3 c138 5
173 -3 189 -41 l14 -32 1 48 1 47 -212 -1 c-138 0 -205 -3 -190 -9z"/>
<path d="M1408 1534 c22 -15 22 -16 22 -324 0 -284 -1 -310 -17 -319 -14 -8 1
-10 57 -10 56 0 71 2 58 10 -17 9 -18 35 -18 324 l0 313 28 10 c22 8 10 11
-63 11 -84 1 -88 0 -67 -15z"/>
<path d="M1617 1540 c31 -13 35 -55 31 -361 -2 -207 -6 -270 -17 -282 -12 -16
2 -17 196 -17 256 0 291 8 370 82 33 32 66 76 86 117 28 58 32 75 32 151 0 65
-5 96 -21 131 -47 100 -134 160 -261 179 -86 12 -447 12 -416 0z m418 -40 c82
-32 165 -114 191 -190 48 -142 -8 -310 -126 -374 -82 -45 -269 -54 -339 -17
-34 19 -41 74 -41 350 l0 263 128 -4 c101 -4 139 -10 187 -28z"/>
<path d="M2730 918 c-57 -31 -98 -95 -107 -166 -6 -50 -5 -52 19 -52 23 0 26
5 32 49 13 100 79 155 179 148 93 -6 147 -59 155 -152 9 -105 -19 -146 -225
-331 -124 -111 -163 -152 -163 -170 l0 -24 230 0 230 0 0 25 0 25 -192 0 -193
0 46 43 c25 23 95 88 156 144 132 122 163 173 163 268 0 77 -34 149 -86 184
-29 20 -51 25 -117 29 -72 3 -87 1 -127 -20z"/>
<path d="M5393 919 c-49 -24 -88 -71 -117 -143 -18 -44 -21 -72 -21 -201 0
-164 12 -213 69 -288 62 -81 191 -103 278 -48 88 56 129 161 129 336 0 175
-41 280 -129 336 -58 37 -144 40 -209 8z m160 -33 c42 -18 71 -50 99 -111 21
-45 23 -65 23 -200 0 -137 -2 -155 -24 -203 -75 -167 -263 -159 -326 14 -26
73 -32 252 -11 334 36 143 134 211 239 166z"/>
<path d="M8010 918 c-57 -31 -98 -95 -107 -166 -6 -50 -5 -52 19 -52 23 0 26
5 32 49 13 100 79 155 179 148 93 -6 147 -59 155 -152 9 -105 -19 -146 -225
-331 -124 -111 -163 -152 -163 -170 l0 -24 230 0 230 0 0 25 0 25 -192 0 -193
0 46 43 c25 23 95 88 156 144 132 122 163 173 163 268 0 77 -34 149 -86 184
-29 20 -51 25 -117 29 -72 3 -87 1 -127 -20z"/>
<path d="M10653 923 c-45 -3 -53 -7 -53 -24 0 -17 7 -19 80 -19 l80 0 0 -305
0 -304 -82 -3 c-77 -3 -83 -5 -86 -26 l-3 -22 201 0 201 0 -3 23 c-3 21 -8 22
-90 25 l-88 3 0 329 0 330 -52 -2 c-29 -1 -77 -3 -105 -5z"/>
<path d="M565 724 c-25 -25 -16 -76 17 -91 27 -14 58 -8 58 9 0 6 -8 8 -19 5
-25 -6 -51 10 -51 31 0 25 20 42 48 42 13 0 20 4 17 10 -10 16 -52 12 -70 -6z"/>
<path d="M667 722 c-36 -40 -11 -95 43 -95 36 0 60 23 60 59 0 49 -69 73 -103
36z m71 -14 c16 -16 15 -33 -3 -51 -19 -19 -52 -11 -60 15 -12 37 35 64 63 36z"/>
<path d="M790 685 l0 -55 35 0 c39 0 55 21 35 45 -6 8 -9 19 -5 25 10 16 -14
40 -41 40 -22 0 -24 -4 -24 -55z m48 24 c-2 -6 -8 -10 -13 -10 -5 0 -11 4 -13
10 -2 6 4 11 13 11 9 0 15 -5 13 -11z m-3 -59 c-5 -8 -11 -8 -17 -2 -6 6 -7
16 -3 22 5 8 11 8 17 2 6 -6 7 -16 3 -22z"/>
<path d="M890 685 c0 -54 0 -55 30 -55 17 0 30 5 30 10 0 6 -9 10 -20 10 -11
0 -20 7 -20 15 0 8 9 15 20 15 11 0 20 5 20 10 0 6 -9 10 -20 10 -11 0 -20 5
-20 10 0 6 9 10 20 10 11 0 20 5 20 10 0 6 -13 10 -30 10 -30 0 -30 -1 -30
-55z"/>
<path d="M960 730 c0 -5 7 -10 15 -10 11 0 15 -12 15 -45 0 -25 5 -45 10 -45
6 0 10 20 10 45 0 25 5 45 10 45 6 0 10 5 10 10 0 6 -16 10 -35 10 -19 0 -35
-4 -35 -10z"/>
<path d="M1080 730 c0 -5 14 -10 30 -10 20 0 30 -5 30 -15 0 -8 -9 -15 -20
-15 -11 0 -20 -4 -20 -10 0 -5 12 -10 28 -10 25 -1 26 -2 9 -14 -10 -8 -27
-12 -37 -9 -23 6 -27 -12 -5 -21 53 -20 100 58 59 98 -17 18 -74 22 -74 6z"/>
<path d="M1190 685 c0 -30 5 -55 10 -55 6 0 10 9 10 20 0 11 3 20 8 20 4 0 13
-9 20 -20 7 -11 19 -20 27 -20 12 0 11 6 -7 30 l-22 30 24 25 c19 21 21 25 7
25 -9 0 -22 -9 -29 -20 -7 -11 -16 -20 -20 -20 -5 0 -8 9 -8 20 0 11 -4 20
-10 20 -5 0 -10 -25 -10 -55z"/>
<path d="M1313 728 c-29 -37 -22 -77 17 -98 20 -11 50 -4 50 12 0 6 -6 8 -14
5 -23 -9 -48 16 -44 44 2 18 10 25 31 27 15 2 27 8 27 13 0 14 -56 11 -67 -3z"/>
<path d="M1400 685 c0 -30 5 -55 10 -55 6 0 10 20 10 45 0 41 2 45 25 45 23 0
25 -4 25 -45 0 -25 5 -45 10 -45 6 0 10 25 10 55 l0 55 -45 0 -45 0 0 -55z"/>
<path d="M1520 685 c0 -54 0 -55 30 -55 17 0 30 5 30 10 0 6 -9 10 -20 10 -27
0 -25 28 3 33 l22 4 -22 8 c-28 9 -30 25 -3 25 11 0 20 5 20 10 0 6 -13 10
-30 10 -30 0 -30 -1 -30 -55z"/>
<path d="M1600 685 c0 -30 5 -55 10 -55 6 0 10 7 10 15 0 9 11 20 25 25 51 19
39 70 -16 70 -28 0 -29 -1 -29 -55z m50 20 c0 -8 -7 -15 -15 -15 -8 0 -15 7
-15 15 0 8 7 15 15 15 8 0 15 -7 15 -15z"/>
<path d="M1680 730 c0 -5 7 -10 15 -10 11 0 15 -12 15 -45 0 -25 5 -45 10 -45
6 0 10 20 10 45 0 25 5 45 10 45 6 0 10 5 10 10 0 6 -16 10 -35 10 -19 0 -35
-4 -35 -10z"/>
<path d="M1774 715 c-19 -29 -11 -60 21 -81 53 -35 115 44 70 90 -25 25 -72
20 -91 -9z m82 -22 c5 -19 2 -30 -11 -39 -24 -18 -55 -1 -55 30 0 29 7 36 36
36 17 0 25 -7 30 -27z"/>
<path d="M1900 686 l0 -56 35 0 c42 0 48 12 37 65 -7 36 -11 40 -40 43 l-32 3
0 -55z m50 25 c0 -6 -4 -13 -10 -16 -5 -3 -10 1 -10 9 0 9 5 16 10 16 6 0 10
-4 10 -9z m10 -51 c0 -4 -7 -10 -15 -14 -10 -4 -15 1 -15 14 0 13 5 18 15 14
8 -4 15 -10 15 -14z"/>
<path d="M1993 559 c11 -7 23 -7 35 0 14 9 11 10 -18 10 -29 0 -32 -1 -17 -10z"/>
<path d="M240 485 c0 -30 3 -55 8 -55 4 0 19 14 34 32 l27 33 1 -32 c0 -23 5
-33 15 -33 12 0 15 13 15 55 0 66 -13 70 -52 18 l-28 -36 0 36 c0 21 -4 37
-10 37 -5 0 -10 -25 -10 -55z"/>
<path d="M360 485 c0 -54 15 -77 22 -32 2 14 11 23 26 25 18 3 22 -1 22 -22 0
-14 5 -26 10 -26 6 0 10 25 10 55 0 30 -4 55 -10 55 -5 0 -10 -9 -10 -20 0
-15 -7 -20 -25 -20 -18 0 -25 5 -25 20 0 11 -4 20 -10 20 -5 0 -10 -25 -10
-55z"/>
<path d="M470 530 c0 -5 5 -10 10 -10 6 0 10 -20 10 -45 0 -33 4 -45 15 -45
11 0 15 12 15 45 0 25 5 45 10 45 6 0 10 5 10 10 0 6 -16 10 -35 10 -19 0 -35
-4 -35 -10z"/>
<path d="M560 485 c0 -54 0 -55 30 -55 17 0 30 5 30 10 0 6 -9 10 -20 10 -27
0 -25 28 3 33 l22 4 -22 8 c-28 9 -30 25 -3 25 11 0 20 5 20 10 0 6 -13 10
-30 10 -30 0 -30 -1 -30 -55z"/>
<path d="M640 486 c0 -31 5 -56 10 -56 6 0 10 9 10 19 0 13 8 21 23 23 17 2
22 10 22 33 0 27 -4 30 -32 33 l-33 3 0 -55z m50 19 c0 -8 -7 -15 -15 -15 -8
0 -15 7 -15 15 0 8 7 15 15 15 8 0 15 -7 15 -15z"/>
<path d="M730 485 l0 -55 34 0 c27 0 36 5 42 22 7 22 -16 48 -43 48 -7 0 -13
9 -13 20 0 11 -4 20 -10 20 -5 0 -10 -25 -10 -55z m53 -20 c1 -5 -6 -11 -15
-13 -11 -2 -18 3 -18 13 0 17 30 18 33 0z"/>
<path d="M830 485 c0 -54 0 -55 30 -55 17 0 30 5 30 10 0 6 -9 10 -20 10 -27
0 -25 28 3 33 l22 4 -22 8 c-28 9 -30 25 -3 25 11 0 20 5 20 10 0 6 -13 10
-30 10 -30 0 -30 -1 -30 -55z"/>
<path d="M910 486 c0 -31 5 -56 10 -56 6 0 10 9 10 19 0 13 8 21 23 23 17 2
22 10 22 33 0 27 -4 30 -32 33 l-33 3 0 -55z m50 19 c0 -8 -7 -15 -15 -15 -8
0 -15 7 -15 15 0 8 7 15 15 15 8 0 15 -7 15 -15z"/>
<path d="M1000 485 c0 -30 5 -55 10 -55 6 0 10 11 10 25 0 20 5 25 25 25 20 0
25 -5 25 -25 0 -14 5 -25 10 -25 6 0 10 25 10 55 0 30 -4 55 -10 55 -5 0 -10
-9 -10 -20 0 -15 -7 -20 -25 -20 -18 0 -25 5 -25 20 0 11 -4 20 -10 20 -5 0
-10 -25 -10 -55z"/>
<path d="M1123 514 c-15 -24 -15 -29 -2 -53 10 -18 24 -27 47 -29 43 -4 62 12
62 52 0 41 -16 56 -57 56 -24 0 -37 -7 -50 -26z m82 -29 c0 -27 -3 -30 -30
-30 -21 0 -31 5 -33 18 -6 33 6 49 35 45 24 -3 28 -8 28 -33z"/>
<path d="M1250 485 c0 -42 3 -55 15 -55 11 0 15 12 15 45 0 33 4 45 15 45 8 0
15 5 15 10 0 6 -13 10 -30 10 -30 0 -30 -1 -30 -55z"/>
<path d="M1333 514 c-15 -24 -15 -29 -2 -53 10 -18 24 -27 47 -29 43 -4 62 12
62 52 0 41 -16 56 -57 56 -24 0 -37 -7 -50 -26z m82 -29 c0 -27 -3 -30 -30
-30 -21 0 -31 5 -33 18 -6 33 6 49 35 45 24 -3 28 -8 28 -33z"/>
<path d="M1510 495 c0 -25 -4 -45 -10 -45 -5 0 -10 -11 -10 -25 0 -14 5 -25
10 -25 6 0 10 7 10 15 0 10 11 15 35 15 24 0 35 -5 35 -15 0 -8 5 -15 11 -15
8 0 10 13 5 38 -3 20 -6 52 -6 70 0 31 -2 32 -40 32 l-40 0 0 -45z m60 -10 c0
-29 -4 -35 -21 -35 -15 0 -19 4 -15 16 3 9 6 24 6 35 0 10 7 19 15 19 10 0 15
-11 15 -35z"/>
<path d="M1620 485 c0 -30 3 -55 8 -55 4 0 21 17 39 37 l32 38 1 -37 c0 -21 5
-38 10 -38 6 0 10 25 10 55 0 30 -4 55 -9 55 -5 0 -23 -17 -40 -37 l-31 -38 0
38 c0 20 -4 37 -10 37 -5 0 -10 -25 -10 -55z"/>
<path d="M1750 531 c0 -6 12 -11 28 -11 26 -1 26 -1 8 -15 -20 -15 -20 -15 0
-29 15 -12 16 -17 7 -27 -10 -9 -15 -10 -27 0 -10 8 -16 9 -21 1 -8 -13 16
-23 47 -18 21 3 23 8 23 53 0 49 -1 50 -32 53 -19 2 -33 -1 -33 -7z"/>
<path d="M1861 494 c-24 -52 -25 -64 -11 -64 6 0 10 5 10 10 0 15 58 12 63 -2
2 -7 8 -10 12 -6 9 9 -29 101 -43 106 -6 2 -20 -18 -31 -44z m39 -9 c0 -8 -4
-15 -10 -15 -5 0 -10 7 -10 15 0 8 5 15 10 15 6 0 10 -7 10 -15z"/>
<path d="M1960 485 c0 -30 4 -55 9 -55 5 0 23 17 40 38 l30 37 1 -37 c0 -21 5
-38 10 -38 6 0 10 25 10 55 0 30 -4 55 -9 55 -5 0 -23 -17 -40 -37 l-30 -38
-1 38 c0 20 -4 37 -10 37 -5 0 -10 -25 -10 -55z"/>
<path d="M2090 485 c0 -30 5 -55 10 -55 6 0 10 12 10 26 0 21 4 25 23 22 14
-2 23 -11 25 -25 7 -45 22 -22 22 32 0 30 -4 55 -10 55 -5 0 -10 -9 -10 -20 0
-15 -7 -20 -25 -20 -18 0 -25 5 -25 20 0 11 -4 20 -10 20 -5 0 -10 -25 -10
-55z"/>
<path d="M2216 488 c-14 -33 -19 -55 -12 -57 5 -2 12 1 14 8 5 15 45 14 60 -1
6 -6 14 -9 17 -6 7 7 -36 108 -47 108 -4 0 -19 -24 -32 -52z m44 -9 c0 -5 -7
-9 -15 -9 -9 0 -12 6 -9 15 6 15 24 11 24 -6z"/>
<path d="M1650 369 c0 -13 32 -19 48 -9 19 10 18 11 -20 14 -16 1 -28 -1 -28
-5z"/>
<path d="M230 285 c0 -30 4 -55 9 -55 5 0 23 17 40 37 l31 38 0 -38 c0 -20 5
-37 10 -37 6 0 10 25 10 55 0 30 -4 55 -9 55 -5 0 -19 -13 -31 -30 -12 -16
-26 -30 -31 -30 -5 0 -9 14 -9 30 0 17 -4 30 -10 30 -5 0 -10 -25 -10 -55z"/>
<path d="M411 288 c-21 -51 -21 -72 1 -50 15 15 58 16 58 2 0 -5 6 -10 14 -10
11 0 10 11 -7 55 -12 30 -27 55 -33 55 -6 0 -21 -23 -33 -52z m38 -17 c-15 -5
-22 6 -14 19 6 9 10 9 16 -1 5 -8 4 -15 -2 -18z"/>
<path d="M510 285 c0 -30 5 -55 10 -55 6 0 10 9 10 19 0 12 8 21 21 23 55 8
44 68 -12 68 -28 0 -29 -1 -29 -55z m50 20 c0 -8 -7 -15 -15 -15 -8 0 -15 7
-15 15 0 8 7 15 15 15 8 0 15 -7 15 -15z"/>
<path d="M615 314 c15 -24 15 -27 0 -51 -21 -32 -9 -45 13 -15 17 22 17 22 30
2 20 -32 34 -23 17 11 -15 28 -15 33 0 55 13 20 13 24 1 24 -7 0 -17 -8 -21
-17 -6 -17 -7 -17 -19 0 -22 29 -41 21 -21 -9z"/>
<path d="M710 285 c0 -30 4 -55 9 -55 5 0 23 17 40 37 l31 38 0 -38 c0 -20 5
-37 10 -37 6 0 10 25 10 55 0 30 -3 55 -7 55 -5 0 -22 -17 -40 -37 l-32 -38
-1 38 c0 20 -4 37 -10 37 -5 0 -10 -25 -10 -55z"/>
<path d="M830 330 c0 -5 5 -10 10 -10 6 0 10 -20 10 -45 0 -25 5 -45 10 -45 6
0 10 20 10 45 0 33 4 45 15 45 8 0 15 5 15 10 0 6 -16 10 -35 10 -19 0 -35 -4
-35 -10z"/>
<path d="M910 285 l0 -55 36 0 c21 0 33 4 29 10 -3 6 -15 10 -26 10 -25 0 -25
20 1 27 11 3 20 9 20 14 0 5 -9 9 -20 9 -11 0 -20 5 -20 10 0 6 9 10 19 10 11
0 23 5 26 10 4 6 -8 10 -29 10 l-36 0 0 -55z"/>
<path d="M1000 285 c0 -30 5 -55 10 -55 6 0 10 10 10 22 l0 21 23 -21 c35 -33
56 -27 24 6 l-28 29 21 26 c26 33 6 37 -21 5 l-18 -23 -1 23 c0 12 -4 22 -10
22 -5 0 -10 -25 -10 -55z"/>
<path d="M1103 326 c11 -9 17 -27 17 -55 0 -22 5 -41 10 -41 6 0 10 20 10 44
0 31 5 46 16 50 20 8 17 10 38 -31 9 -17 13 -39 9 -49 -4 -11 -2 -15 7 -12 19
6 62 108 46 108 -7 0 -17 -12 -22 -27 l-11 -28 -13 28 c-12 25 -18 27 -69 27
-49 -1 -54 -2 -38 -14z"/>
<path d="M1280 285 c0 -42 3 -55 15 -55 8 0 15 8 15 19 0 10 9 21 20 24 48 12
30 67 -21 67 -28 0 -29 -1 -29 -55z m52 20 c0 -5 -5 -11 -11 -13 -6 -2 -11 4
-11 13 0 9 5 15 11 13 6 -2 11 -8 11 -13z"/>
<path d="M1370 285 c0 -42 3 -55 15 -55 9 0 15 9 15 25 0 18 5 25 20 25 15 0
20 -7 20 -25 0 -16 6 -25 15 -25 12 0 15 13 15 55 0 42 -3 55 -15 55 -8 0 -15
-9 -15 -20 0 -13 -7 -20 -20 -20 -13 0 -20 7 -20 20 0 11 -7 20 -15 20 -12 0
-15 -13 -15 -55z"/>
<path d="M1498 315 c-8 -18 -9 -35 -2 -53 19 -53 114 -34 114 23 0 30 -31 55
-69 55 -24 0 -34 -6 -43 -25z m81 -13 c13 -24 -4 -52 -33 -52 -26 0 -40 23
-31 51 8 24 51 25 64 1z"/>
<path d="M1630 285 c0 -30 3 -55 8 -55 4 0 21 17 39 37 l32 38 1 -37 c0 -21 5
-38 10 -38 6 0 10 25 10 55 0 30 -4 55 -9 55 -5 0 -23 -17 -40 -37 l-31 -38 0
38 c0 20 -4 37 -10 37 -5 0 -10 -25 -10 -55z"/>
<path d="M1800 321 c-14 -28 -12 -57 6 -75 17 -18 74 -22 74 -6 0 6 -11 10
-24 10 -30 0 -50 23 -41 50 4 14 15 20 36 20 16 0 29 5 29 10 0 6 -16 10 -35
10 -24 0 -37 -6 -45 -19z"/>
<path d="M1900 286 c0 -31 5 -56 10 -56 6 0 10 8 10 18 0 9 10 22 23 27 14 7
22 19 22 35 0 21 -5 26 -32 28 l-33 3 0 -55z m48 22 c-6 -18 -28 -21 -28 -4 0
9 7 16 16 16 9 0 14 -5 12 -12z"/>
<path d="M1990 285 c0 -54 0 -55 30 -55 17 0 30 5 30 10 0 6 -9 10 -20 10 -11
0 -20 7 -20 15 0 8 9 15 20 15 11 0 20 5 20 10 0 6 -9 10 -20 10 -11 0 -20 5
-20 10 0 6 9 10 20 10 11 0 20 5 20 10 0 6 -13 10 -30 10 -30 0 -30 -1 -30
-55z"/>
<path d="M2080 301 c0 -22 -4 -43 -10 -46 -5 -3 -10 -17 -10 -31 0 -13 5 -24
10 -24 6 0 10 7 10 15 0 10 11 15 35 15 24 0 35 -5 35 -15 0 -8 5 -15 11 -15
8 0 10 13 5 38 -3 20 -6 52 -6 70 0 31 -2 32 -40 32 -40 0 -40 0 -40 -39z m60
-16 c0 -28 -4 -35 -20 -35 -16 0 -20 7 -20 35 0 28 4 35 20 35 16 0 20 -7 20
-35z"/>
<path d="M2190 284 l0 -55 33 3 c26 2 33 8 35 30 3 22 -2 29 -22 34 -17 4 -26
13 -26 25 0 10 -4 19 -10 19 -5 0 -10 -25 -10 -56z m48 -22 c2 -7 -3 -12 -12
-12 -9 0 -16 7 -16 16 0 17 22 14 28 -4z"/>
<path d="M2270 285 c0 -42 3 -55 15 -55 12 0 15 13 15 55 0 42 -3 55 -15 55
-12 0 -15 -13 -15 -55z"/>
</g>
</svg>
