<svg width="1447" height="602" viewBox="0 0 1447 602" fill="none" xmlns="http://www.w3.org/2000/svg">
<path d="M1379.28 3.75397C1379.82 5.8873 1381.15 8.82064 1382.35 10.4206C1384.62 13.6206 1392.88 17.4873 1397.15 17.4873C1405.02 17.4873 1413.42 11.0873 1415.28 3.62064C1415.95 0.687304 1415.68 0.15397 1413.28 0.15397C1411.68 0.15397 1410.48 0.95397 1410.48 1.8873C1410.48 4.82064 1404.48 9.4873 1399.68 10.2873C1393.55 11.354 1388.22 8.95397 1385.42 4.15397C1382.35 -1.17936 1378.08 -1.44603 1379.28 3.75397Z" fill="black"/>
<path d="M47.2819 20.0206C51.0153 20.4206 55.1486 21.6206 56.3486 22.6873C57.6819 23.7539 58.4819 23.8873 58.4819 23.0873C58.4819 20.5539 53.5486 18.8206 46.8819 18.9539L40.4819 19.2206L47.2819 20.0206Z" fill="black"/>
<path d="M73.4153 21.4873C67.682 25.0873 63.282 34.6873 64.3486 41.2206C66.082 52.0206 78.882 57.8873 89.5486 52.8206C101.282 47.354 104.082 30.6873 94.6153 22.2873C90.2153 18.4206 79.0153 17.8873 73.4153 21.4873ZM89.8153 23.8873C98.6153 28.954 100.615 41.6206 93.8153 48.554C81.682 60.6873 60.482 43.6206 68.482 28.2873C72.482 20.4206 80.7486 18.8206 89.8153 23.8873Z" fill="black"/>
<path d="M106.215 33.7539C106.615 48.154 106.749 48.954 110.082 52.0206C112.882 54.554 114.615 54.954 118.882 54.4206C121.682 54.0206 125.149 52.6873 126.615 51.354C129.015 49.2206 129.149 49.2206 129.149 51.8873C129.149 53.754 129.949 54.8206 131.549 54.8206C133.549 54.8206 133.815 53.0873 133.815 36.8206C133.815 19.7539 133.682 18.8206 131.149 18.8206C128.615 18.8206 128.482 19.6206 128.882 32.9539C129.415 49.4873 128.082 52.154 119.815 52.154C111.682 52.154 110.482 49.6206 110.482 33.0873C110.482 20.4206 110.215 18.8206 108.215 18.8206C106.082 18.8206 105.815 20.2873 106.215 33.7539Z" fill="black"/>
<path d="M142.482 21.4873C143.416 23.2206 143.816 30.2873 143.549 39.4873C143.282 49.0873 143.682 54.8206 144.482 54.8206C145.282 54.8206 145.682 49.2206 145.416 39.8873L145.016 24.8206L159.016 39.4873L172.882 54.154L173.416 36.4206C173.682 25.3539 173.282 18.8206 172.482 18.8206C171.682 18.8206 171.282 24.1539 171.549 33.0873L171.949 47.4873L158.482 33.0873C151.016 25.2206 144.082 18.8206 143.016 18.8206C141.416 18.8206 141.416 19.3539 142.482 21.4873Z" fill="black"/>
<path d="M198.482 20.0206C201.815 20.5539 205.815 21.6206 207.415 22.5539C209.949 23.8873 210.349 23.8873 209.682 22.2873C208.749 19.8873 204.749 18.8206 197.815 18.9539L192.482 19.2206L198.482 20.0206Z" fill="black"/>
<path d="M217.815 36.8206C217.815 53.0873 218.082 54.8206 220.215 54.8206C222.215 54.8206 222.482 53.0873 222.482 36.8206C222.482 20.5539 222.215 18.8206 220.215 18.8206C218.082 18.8206 217.815 20.5539 217.815 36.8206Z" fill="black"/>
<path d="M229.815 36.8206V54.8206H240.882C251.149 54.8206 251.815 54.6873 251.815 51.8873C251.815 49.2206 251.682 49.2206 249.415 51.2206C246.482 53.8873 238.349 54.154 236.082 51.8873C235.015 50.8206 234.482 44.954 234.482 34.5539C234.482 20.4206 234.215 18.8206 232.215 18.8206C230.082 18.8206 229.815 20.5539 229.815 36.8206Z" fill="black"/>
<path d="M33.2822 24.1539C31.0155 26.4206 28.8822 30.2873 28.3488 32.8206C25.8155 46.6873 33.9488 55.0873 49.5488 54.6873L56.4822 54.4206L48.8822 53.6206C39.9488 52.6873 35.6822 49.2206 32.3488 40.6873C29.6822 33.6206 30.6155 29.2206 35.8155 24.0206C37.9488 21.8873 39.1488 20.1539 38.4822 20.1539C37.8155 20.1539 35.5488 22.0206 33.2822 24.1539Z" fill="black"/>
<path d="M184.482 24.5539C179.015 30.0206 177.415 36.9539 179.949 43.7539C182.882 51.2206 187.682 54.0206 198.215 54.2873L207.149 54.6873L199.415 53.6206C187.949 52.0206 182.482 45.7539 182.482 34.1539C182.482 28.8206 183.149 27.2206 186.615 24.0206C188.882 21.8873 190.349 20.1539 189.815 20.1539C189.282 20.1539 186.882 22.1539 184.482 24.5539Z" fill="black"/>
<path d="M722.616 24.1539C710.749 26.6873 698.082 37.2206 693.149 48.8206C684.349 69.3539 689.549 98.9539 704.082 111.487C719.816 124.821 746.482 124.954 761.949 111.621C777.016 98.6873 782.216 70.0206 773.282 48.9539C769.549 40.5539 759.816 30.4206 751.949 27.0873C744.482 23.7539 730.882 22.4206 722.616 24.1539ZM745.416 32.9539C759.549 37.7539 768.216 52.5539 768.349 72.1539C768.482 91.2206 761.682 104.421 748.349 110.954C740.882 114.421 727.016 114.954 719.682 111.887C700.882 103.887 692.616 79.0873 700.749 54.1539C703.282 46.2873 714.082 34.8206 721.149 32.5539C728.082 30.4206 738.482 30.5539 745.416 32.9539Z" fill="black"/>
<path d="M321.149 72.8206V120.154H325.816H330.482V96.8206V73.4873H358.482H386.482V96.8206V120.154H391.149H395.816V72.8206V25.4873H391.149H386.482V46.1539V66.8206H358.482H330.482V46.1539V25.4873H325.816H321.149V72.8206Z" fill="black"/>
<path d="M442.615 28.4206C441.949 30.1539 433.549 50.9539 423.949 74.6873C414.349 98.4206 406.482 118.421 406.482 119.087C406.482 119.621 408.482 120.154 410.882 120.154C415.415 120.154 415.415 120.154 421.015 105.487L426.615 90.8206H448.482H470.349L475.949 105.487L481.549 120.154H486.615H491.549L484.615 102.421C480.749 92.8206 472.349 71.4873 465.949 55.0873L454.215 25.4873H449.015C444.749 25.4873 443.549 26.0206 442.615 28.4206ZM458.349 59.8873C462.882 71.8873 466.482 81.8873 466.482 82.1539C466.482 82.5539 458.215 82.8206 447.949 82.8206H429.549L438.882 58.8206C444.749 43.7539 448.749 35.3539 449.282 36.5539C449.815 37.4873 453.949 48.0206 458.349 59.8873Z" fill="black"/>
<path d="M501.149 72.8206V120.154H539.149H577.149V132.821V145.487H581.816H586.482V128.821V112.154H580.482H574.482V68.8206V25.4873H569.816H565.149V68.8206V112.154H537.816H510.482V68.8206V25.4873H505.816H501.149V72.8206Z" fill="black"/>
<path d="M597.149 72.954V120.287L603.416 119.887L609.682 119.487L636.349 77.6206L663.149 35.6206L663.549 77.8873L663.816 120.154H668.482H673.149V72.8206V25.4873H666.882L660.482 25.6206L633.816 67.4873L607.149 109.354L606.749 67.4873L606.482 25.4873H601.816H597.149V72.954Z" fill="black"/>
<path d="M791.815 72.8206V120.154H796.482H801.149V96.8206V73.4873H829.149H857.149V96.8206V120.154H861.815H866.482V72.8206V25.4873H861.815H857.149V46.1539V66.8206H829.149H801.149V46.1539V25.4873H796.482H791.815V72.8206Z" fill="black"/>
<path d="M914.615 28.4206C913.949 30.1539 905.549 50.9539 895.949 74.6873C886.349 98.4206 878.482 118.421 878.482 119.087C878.482 119.621 880.482 120.154 882.882 120.154C887.415 120.154 887.415 120.154 893.015 105.487L898.615 90.8206H920.482H942.349L947.815 105.354L953.415 119.887L962.349 120.421C979.682 121.621 985.282 117.754 990.349 101.621C994.082 89.7539 995.682 78.1539 996.749 53.0873L997.549 32.1539H1017.42H1037.15V76.1539V120.154H1041.82H1046.48V72.8206V25.4873H1017.15H987.815V45.0873C987.815 92.0206 980.615 115.221 967.015 113.087C964.215 112.554 962.482 112.954 962.082 113.887C961.815 114.821 957.949 106.154 953.549 94.8206C949.015 83.4873 941.149 63.2206 935.815 49.7539L926.349 25.4873H921.015C916.749 25.4873 915.549 26.0206 914.615 28.4206ZM930.349 59.8873C934.882 71.8873 938.482 81.8873 938.482 82.1539C938.482 82.5539 930.215 82.8206 919.949 82.8206H901.549L910.882 58.8206C916.749 43.7539 920.749 35.3539 921.282 36.5539C921.815 37.4873 925.949 48.0206 930.349 59.8873Z" fill="black"/>
<path d="M1066.48 72.8206V120.154H1090.22C1115.95 120.154 1121.55 119.221 1127.95 113.887C1139.42 104.154 1140.35 83.6206 1129.82 73.3539C1123.02 66.6873 1118.88 65.7539 1096.22 65.6206L1075.82 65.4873V45.4873V25.4873H1071.15H1066.48V72.8206ZM1118.62 75.4873C1127.28 80.0206 1130.75 94.5539 1125.28 103.621C1121.02 110.687 1115.82 112.154 1094.62 112.154H1075.82V92.8206V73.4873H1095.15C1110.08 73.4873 1115.55 74.0206 1118.62 75.4873Z" fill="black"/>
<path d="M1151.82 72.8206V120.154H1156.48H1161.15V96.8206V73.4873H1189.15H1217.15V96.8206V120.154H1221.82H1226.48V72.8206V25.4873H1221.82H1217.15V46.1539V66.8206H1189.15H1161.15V46.1539V25.4873H1156.48H1151.82V72.8206Z" fill="black"/>
<path d="M1246.48 72.8206V120.154H1270.22C1295.95 120.154 1301.55 119.221 1307.95 113.887C1319.42 104.154 1320.35 83.6206 1309.82 73.3539C1303.02 66.6873 1298.88 65.7539 1276.22 65.6206L1255.82 65.4873V45.4873V25.4873H1251.15H1246.48V72.8206ZM1298.62 75.4873C1307.28 80.0206 1310.75 94.5539 1305.28 103.621C1301.02 110.687 1295.82 112.154 1274.62 112.154H1255.82V92.8206V73.4873H1275.15C1290.08 73.4873 1295.55 74.0206 1298.62 75.4873Z" fill="black"/>
<path d="M1331.82 72.8206V120.154H1335.82H1339.82V72.8206V25.4873H1335.82H1331.82V72.8206Z" fill="black"/>
<path d="M1359.82 72.954V120.287L1366.08 119.887L1372.35 119.487L1399.02 77.6206L1425.82 35.6206L1426.22 77.8873L1426.48 120.154H1431.15H1435.82V72.8206V25.4873H1429.55L1423.15 25.6206L1396.48 67.4873L1369.82 109.354L1369.42 67.4873L1369.15 25.4873H1364.48H1359.82V72.954Z" fill="black"/>
<path d="M58.482 52.154C56.7487 53.2206 56.882 53.4873 58.882 53.4873C60.082 53.4873 61.1487 52.8206 61.1487 52.154C61.1487 50.554 61.0154 50.554 58.482 52.154Z" fill="black"/>
<path d="M209.149 52.154C207.415 53.2206 207.415 53.4873 209.415 53.4873C210.615 53.4873 212.082 52.8206 212.482 52.154C213.549 50.4206 211.815 50.4206 209.149 52.154Z" fill="black"/>
<path d="M13.8153 71.6206C11.6819 72.6873 9.28193 74.2873 8.48193 75.0873C7.81527 76.0206 8.7486 75.6206 10.7486 74.4206C21.2819 67.8873 37.1486 76.9539 37.1486 89.4873C37.1486 96.5539 29.5486 104.154 22.4819 104.154C12.0819 104.154 2.21527 89.754 6.3486 80.6873C7.1486 78.9539 7.41527 77.4873 7.01527 77.4873C5.9486 77.4873 2.48193 86.5539 2.48193 89.6206C2.48193 94.2873 6.61527 101.487 10.6153 103.487C19.5486 108.154 32.2153 104.554 36.4819 96.0206C39.4153 90.4206 39.5486 81.2206 36.6153 76.8206C32.2153 70.1539 21.4153 67.6206 13.8153 71.6206Z" fill="black"/>
<path d="M226.482 70.8206C226.482 71.4873 227.149 72.1539 227.815 72.1539C228.615 72.1539 229.149 71.4873 229.149 70.8206C229.149 70.0206 228.615 69.4873 227.815 69.4873C227.149 69.4873 226.482 70.0206 226.482 70.8206Z" fill="black"/>
<path d="M251.815 70.8206C251.815 71.4873 252.482 72.1539 253.149 72.1539C253.949 72.1539 254.482 71.4873 254.482 70.8206C254.482 70.0206 253.949 69.4873 253.149 69.4873C252.482 69.4873 251.815 70.0206 251.815 70.8206Z" fill="black"/>
<path d="M266.882 70.8206C269.015 71.4873 271.549 72.6873 272.615 73.6206C273.815 74.6873 274.482 74.6873 274.482 73.7539C274.482 71.7539 269.949 69.4873 266.215 69.6206C263.415 69.7539 263.549 69.8873 266.882 70.8206Z" fill="black"/>
<path d="M44.4819 88.154C44.4819 103.754 44.7486 105.487 46.8819 105.487C48.7486 105.487 49.1486 104.154 49.1486 96.954V88.2873L56.2153 87.754L63.1486 87.354L56.2153 87.0873L49.1486 86.8206V78.8206C49.1486 72.154 48.7486 70.8206 46.8819 70.8206C44.7486 70.8206 44.4819 72.554 44.4819 88.154Z" fill="black"/>
<path d="M60.8819 71.754C61.8153 72.154 63.0153 72.0206 63.4153 71.6206C63.9486 71.2206 63.1486 70.8206 61.6819 70.954C60.2153 70.954 59.8153 71.354 60.8819 71.754Z" fill="black"/>
<path d="M86.2154 88.154L85.8154 105.487H96.8821C102.882 105.487 107.815 105.087 107.815 104.421C107.815 103.887 104.082 103.487 99.5488 103.487H91.1488L90.7488 95.8873L90.3488 88.2873L97.4154 87.754L104.482 87.354L97.4154 87.0873L90.2154 86.8206L90.7488 78.8206C91.0154 72.0206 90.7488 70.8206 88.8821 70.8206C86.8821 70.8206 86.6154 72.954 86.2154 88.154Z" fill="black"/>
<path d="M102.482 71.354C102.482 71.6206 103.415 72.154 104.482 72.6873C105.549 73.0873 106.482 72.8206 106.482 72.154C106.482 71.354 105.549 70.8206 104.482 70.8206C103.415 70.8206 102.482 71.0873 102.482 71.354Z" fill="black"/>
<path d="M117.815 79.2206L123.682 87.7539L117.815 96.1539C114.482 100.821 112.082 104.954 112.482 105.221C112.882 105.621 113.282 105.621 113.549 105.354C113.815 105.087 116.215 101.354 119.149 97.2206C124.882 88.5539 125.149 88.5539 131.149 98.6873C133.949 103.487 135.949 105.487 138.082 105.487C140.749 105.487 140.349 104.554 134.082 95.4873L127.282 85.4873L132.215 78.5539C134.882 74.6873 136.615 71.2206 136.215 70.8206C135.815 70.4206 135.149 70.8206 134.882 71.6206C134.615 72.4206 132.482 75.6206 130.215 78.8206L126.082 84.4206L121.949 77.6206C119.015 72.8206 117.015 70.9539 114.882 70.8206C112.082 70.8206 112.349 71.4873 117.815 79.2206Z" fill="black"/>
<path d="M147.149 88.154C147.149 103.754 147.416 105.487 149.549 105.487C151.549 105.487 151.816 103.754 151.816 88.154C151.816 72.554 151.549 70.8206 149.549 70.8206C147.416 70.8206 147.149 72.554 147.149 88.154Z" fill="black"/>
<path d="M156.482 72.0206C158.749 72.554 161.149 74.2873 162.482 76.554C164.349 79.8873 164.216 80.554 162.216 84.154C159.949 88.0206 159.949 88.154 162.482 86.8206C171.549 82.0206 167.949 70.6873 157.549 70.954C152.749 71.0873 152.616 71.2206 156.482 72.0206Z" fill="black"/>
<path d="M171.549 88.154L171.149 105.487H182.216C188.216 105.487 193.149 105.087 193.149 104.421C193.149 103.887 189.416 103.487 184.882 103.487H176.482L176.082 95.8873L175.682 88.2873L182.749 87.754L189.816 87.354L182.749 87.0873L175.549 86.8206L176.082 78.8206C176.349 72.0206 176.082 70.8206 174.216 70.8206C172.216 70.8206 171.949 72.954 171.549 88.154Z" fill="black"/>
<path d="M187.815 71.354C187.815 71.6206 188.749 72.154 189.815 72.6873C190.882 73.0873 191.815 72.8206 191.815 72.154C191.815 71.354 190.882 70.8206 189.815 70.8206C188.749 70.8206 187.815 71.0873 187.815 71.354Z" fill="black"/>
<path d="M198.482 88.154C198.482 103.754 198.749 105.487 200.882 105.487C202.882 105.487 203.149 104.287 202.882 96.4206C202.749 91.4873 202.615 83.754 202.615 79.0873C202.482 72.6873 202.082 70.8206 200.482 70.8206C198.749 70.8206 198.482 73.6206 198.482 88.154Z" fill="black"/>
<path d="M211.549 72.954C215.549 75.6206 215.549 83.2206 211.682 85.8873C208.482 88.2873 209.282 90.554 216.749 99.754C220.749 104.687 221.949 105.487 226.215 105.354C229.149 105.221 230.082 104.954 228.482 104.554C224.882 103.621 221.549 100.554 216.882 93.754L213.015 88.154L215.682 84.554C220.882 78.0206 218.349 70.8206 210.882 70.8206C208.882 70.8206 209.015 71.0873 211.549 72.954Z" fill="black"/>
<path d="M238.215 88.154C237.815 104.687 237.949 105.487 240.482 105.487C243.015 105.487 243.149 104.554 243.149 88.154C243.149 72.6873 242.882 70.8206 240.882 70.8206C238.882 70.8206 238.615 72.954 238.215 88.154Z" fill="black"/>
<path d="M258.482 73.354C256.482 77.2206 256.882 83.6206 259.149 85.4873C260.349 86.4206 264.215 88.554 267.815 90.2873C273.149 92.6873 274.482 94.0206 274.482 96.554C274.482 100.954 270.482 104.154 265.149 104.154C262.749 104.154 259.549 103.221 258.215 101.887C255.949 99.8873 255.815 99.8873 255.815 102.554C255.815 105.221 256.482 105.487 262.349 105.487C270.882 105.487 272.882 104.687 275.282 99.8873C278.615 93.4873 275.949 89.0873 266.349 84.954C257.815 81.2206 256.349 78.154 260.749 73.2206C261.949 71.8873 262.215 70.8206 261.415 70.8206C260.615 70.8206 259.282 72.0206 258.482 73.354Z" fill="black"/>
<path d="M3.81543 266.154V402.821L139.549 402.554L275.149 402.154L275.549 265.754L275.815 129.487H139.815H3.81543V266.154ZM202.482 134.421C199.149 134.687 154.615 136.287 103.282 138.154C52.0821 140.021 9.6821 141.887 9.01543 142.287C8.34876 142.687 7.81543 140.821 7.81543 138.287V133.487L108.215 133.754C163.282 133.887 205.815 134.154 202.482 134.421ZM271.682 235.087C271.549 291.087 271.149 335.354 271.015 333.487C270.482 330.154 263.815 147.487 263.815 138.421C263.815 133.887 264.082 133.487 267.815 133.487H271.815L271.682 235.087ZM259.149 137.754C259.415 138.687 260.882 174.554 262.349 217.487C263.815 260.421 265.415 302.687 265.815 311.487C266.082 320.287 266.215 326.821 265.815 326.154C264.749 323.487 251.415 140.421 252.215 138.287C253.149 135.754 258.349 135.354 259.149 137.754ZM195.815 139.621C191.282 140.287 17.2821 153.487 13.4154 153.487C11.0154 153.487 10.4821 152.687 10.4821 149.487C10.4821 145.621 10.7488 145.487 16.8821 145.354C20.3488 145.354 58.2154 143.887 101.149 142.287C174.349 139.354 203.549 138.554 195.815 139.621ZM247.815 142.421C247.815 143.754 250.882 183.221 254.482 230.021C258.082 276.954 260.749 315.621 260.482 316.021C260.082 316.287 259.815 315.754 259.815 314.687C259.815 312.154 240.082 150.154 239.149 144.421C238.349 140.287 238.482 140.154 243.149 140.154C246.749 140.154 247.815 140.687 247.815 142.421ZM235.815 143.887C235.815 144.421 240.082 179.087 245.149 220.954C250.349 262.687 254.349 297.621 254.215 298.687C253.949 299.754 247.682 265.621 240.215 222.821C232.749 180.021 226.882 144.554 227.282 143.887C228.215 142.554 235.815 142.421 235.815 143.887ZM159.149 148.421C142.349 150.554 102.882 155.487 71.5488 159.221L14.7488 166.287L14.0821 162.154C13.6821 160.021 13.5488 158.021 13.8154 157.754C14.2154 157.354 178.349 144.421 184.482 144.421C187.415 144.421 176.082 146.287 159.149 148.421ZM223.815 146.287C223.815 146.821 229.549 179.621 236.482 219.221C243.415 258.821 249.015 291.487 248.749 291.621C248.349 292.021 214.482 149.887 214.482 147.887C214.482 147.354 215.815 146.687 217.549 146.421C222.482 145.487 223.815 145.487 223.815 146.287ZM178.349 150.021C177.815 150.554 25.6821 177.354 20.4821 177.887C18.3488 178.154 17.6821 177.221 17.4154 173.754C17.1488 171.487 17.4154 169.487 18.0821 169.354C18.6154 169.354 53.9488 164.954 96.4821 159.621C177.149 149.354 179.282 149.087 178.349 150.021ZM213.015 154.421C213.682 157.221 219.815 182.821 226.482 211.487C233.149 240.021 239.149 265.754 239.949 268.554C240.749 271.487 241.015 274.021 240.615 274.421C240.349 274.821 239.415 273.087 238.749 270.554C238.082 268.154 229.549 240.421 219.815 208.954C201.149 148.687 201.415 149.621 208.749 149.487C211.015 149.487 211.949 150.554 213.015 154.421ZM202.349 160.421C205.682 170.954 233.015 259.887 233.949 263.487C234.482 265.621 234.349 265.754 233.415 264.154C232.082 262.021 190.482 156.687 190.482 155.487C190.482 154.554 195.815 152.421 198.082 152.287C198.882 152.154 200.882 155.887 202.349 160.421ZM207.015 203.354C217.015 228.954 224.882 250.154 224.482 250.554C224.082 250.954 213.549 230.421 201.149 204.821C188.615 179.354 178.482 158.421 178.749 158.154C180.215 156.954 187.282 155.354 187.949 156.021C188.349 156.421 197.015 177.754 207.015 203.354ZM164.482 156.821C163.815 157.221 132.882 164.554 95.8154 173.354C58.7488 182.021 26.8821 189.621 24.8821 190.154C21.8154 190.954 21.2821 190.554 20.4821 186.821C19.9488 184.554 19.9488 182.287 20.3488 181.887C20.7488 181.487 52.3488 175.621 90.7488 168.821C152.882 157.754 169.015 155.221 164.482 156.821ZM197.549 200.821C209.015 223.887 218.082 242.821 217.415 242.821C216.349 242.687 167.815 164.954 167.815 163.221C167.815 162.287 172.749 159.621 175.815 158.954C176.215 158.821 185.949 177.754 197.549 200.821ZM145.815 165.487C138.349 168.821 25.8154 202.687 25.0154 201.754C24.6154 201.221 23.8154 199.221 23.2821 197.221C22.3488 192.821 15.6821 194.821 84.4821 178.821C113.149 172.154 137.949 166.287 139.815 165.621C141.682 164.954 144.349 164.421 145.815 164.421L148.482 164.287L145.815 165.487ZM187.282 198.154C198.749 216.421 208.349 232.554 208.482 233.754C208.749 234.954 212.215 240.287 216.215 245.487C220.215 250.821 226.615 260.954 230.349 268.154L237.149 281.354L225.149 290.821C218.482 296.154 213.149 300.687 213.149 301.087C213.149 301.487 215.949 299.487 219.549 296.687C223.015 293.887 228.349 289.487 231.549 287.087C234.615 284.554 237.415 282.687 237.682 282.954C238.749 284.287 241.149 289.487 241.149 290.554C241.149 291.887 178.082 332.154 176.215 332.154C175.549 332.154 177.815 329.621 181.149 326.687L187.149 321.354L181.682 325.087C172.615 331.354 157.815 344.287 158.215 345.621C158.349 346.421 157.949 346.687 157.149 346.154C156.482 345.754 152.615 347.487 148.482 350.021C137.415 357.221 125.149 363.087 123.015 362.287C121.949 361.887 121.282 362.287 121.549 363.087C121.682 363.887 119.949 365.354 117.682 366.287L113.549 368.021L92.6154 334.821C81.1488 316.554 71.8154 301.087 71.8154 300.554C71.8154 299.887 73.9488 301.887 76.6154 304.821C81.2821 310.021 81.2821 310.021 78.3488 305.487C76.6154 302.954 72.7488 297.887 69.5488 294.287C59.1488 282.554 42.4821 255.354 42.4821 250.154C42.4821 249.087 41.9488 248.154 41.4154 248.154C40.4821 248.154 36.7488 240.021 37.5488 239.487C39.9488 237.487 106.749 196.154 107.415 196.154C107.815 196.154 105.149 198.554 101.282 201.621C97.5488 204.554 94.4821 207.354 94.4821 207.621C94.4821 208.687 102.749 202.554 109.815 196.287C117.949 189.087 134.882 178.021 146.215 172.287C154.482 168.154 154.882 168.021 157.549 170.421C160.482 172.687 160.482 172.687 158.082 170.154C155.949 167.754 155.949 167.487 158.749 165.887C160.482 164.954 162.882 164.287 164.082 164.554C165.549 164.687 174.482 177.621 187.282 198.154ZM140.482 170.687C138.482 172.421 132.215 174.154 133.815 172.421C134.615 171.754 136.349 170.821 137.815 170.421C139.282 170.021 140.749 169.754 141.149 169.621C141.415 169.621 141.149 170.021 140.482 170.687ZM129.815 174.687C128.215 176.021 29.0154 215.221 28.6154 214.554C28.3488 214.287 27.5488 212.154 26.7488 209.887L25.2821 205.487L40.2154 200.821C48.4821 198.287 71.4154 191.221 91.1488 184.954C126.882 173.754 132.215 172.421 129.815 174.687ZM131.815 176.821C131.815 177.087 130.482 178.021 128.882 178.821C125.949 180.287 125.949 180.154 128.349 178.287C131.149 176.021 131.815 175.754 131.815 176.821ZM123.815 180.821C123.815 181.754 33.0154 227.087 32.3488 226.421C31.9488 226.154 31.1488 223.887 30.4821 221.621C29.4154 217.887 29.6821 217.221 32.2154 216.021C37.9488 213.487 121.815 180.287 122.882 180.287C123.415 180.154 123.815 180.421 123.815 180.821ZM117.149 187.354C117.149 187.621 115.015 189.221 112.482 190.821C109.949 192.421 108.215 194.421 108.615 195.087C109.149 196.021 108.882 196.154 107.949 195.621C107.149 195.087 92.4821 203.354 73.4154 215.354C55.1488 226.687 39.2821 236.421 38.2154 236.821C36.7488 237.354 35.6821 236.421 34.6154 233.354C33.8154 230.954 33.2821 228.954 33.4154 228.687C33.8154 228.421 116.349 186.954 116.882 186.954C117.015 186.821 117.149 187.087 117.149 187.354ZM11.8154 290.154C13.2821 333.354 14.7488 375.221 15.2821 383.087L16.0821 397.487H11.9488H7.81543L8.0821 299.087C8.21543 245.087 8.4821 203.221 8.74876 206.154C8.8821 209.087 10.3488 246.821 11.8154 290.154ZM21.1488 304.954C24.8821 352.687 27.8154 392.554 27.8154 393.354C27.8154 394.554 19.9488 395.621 19.8154 394.421C19.4154 391.087 13.2821 216.821 13.4154 213.487L13.5488 208.821L14.0821 213.487C14.3488 216.021 17.5488 257.221 21.1488 304.954ZM29.8154 304.554C35.2821 349.754 39.8154 387.621 39.8154 388.687C39.8154 390.287 33.1488 392.687 31.9488 391.487C31.4154 390.954 18.4821 223.621 18.6154 220.154C18.7488 218.421 18.8821 218.421 19.2821 220.154C19.5488 221.221 24.2154 259.221 29.8154 304.554ZM24.7488 232.421C24.3488 233.354 24.0821 232.687 24.0821 230.821C24.0821 228.954 24.3488 228.287 24.7488 229.087C25.0154 230.021 25.0154 231.621 24.7488 232.421ZM39.1488 310.554C46.0821 350.421 51.8154 384.154 51.8154 385.621C51.8154 389.621 44.0821 389.221 43.1488 385.087C42.0821 380.287 25.1488 239.354 25.2821 236.687C25.5488 232.687 25.6821 233.621 39.1488 310.554ZM48.3488 314.154L64.7488 383.487L60.7488 384.554C58.6154 385.221 56.3488 385.221 55.8154 384.554C54.8821 383.487 30.3488 244.687 30.6154 242.154C30.8821 240.287 30.2154 237.621 48.3488 314.154ZM227.815 256.821C227.815 257.487 227.149 257.221 226.482 256.154C225.815 255.087 225.149 253.487 225.149 252.821C225.149 252.021 225.815 252.421 226.482 253.487C227.149 254.554 227.815 256.021 227.815 256.821ZM41.0154 263.487C41.6821 266.421 50.0821 293.754 59.5488 324.154C69.0154 354.554 76.4821 379.887 75.9488 380.421C75.5488 380.821 73.4154 381.487 71.1488 381.754L67.2821 382.154L53.1488 322.821C45.4154 290.154 38.4821 261.621 37.9488 259.487C37.2821 256.821 37.4154 255.887 38.3488 256.821C39.0154 257.487 40.2154 260.554 41.0154 263.487ZM57.8154 297.487C64.8821 315.487 74.8821 340.554 79.8154 353.221L88.8821 376.287L85.5488 377.621C83.8154 378.287 81.5488 378.821 80.6154 378.821C79.6821 378.821 72.3488 357.354 61.8154 323.087C52.4821 292.554 44.4821 266.554 44.0821 265.487C43.6821 264.421 43.6821 263.754 44.0821 264.154C44.6154 264.554 50.7488 279.487 57.8154 297.487ZM52.8821 276.821C52.4821 277.221 51.6821 276.554 51.2821 275.221C50.4821 273.354 50.6154 273.221 51.9488 274.421C52.8821 275.354 53.2821 276.421 52.8821 276.821ZM77.6821 326.687L101.015 373.087L96.0821 374.554C93.4154 375.354 91.1488 375.887 91.0154 375.754C90.7488 375.487 60.4821 299.087 54.3488 283.087C53.6821 281.487 53.5488 280.154 53.8154 280.154C54.2154 280.154 64.8821 301.087 77.6821 326.687ZM64.4821 292.287C65.6821 294.421 67.1488 295.887 67.6821 295.487C69.2821 294.554 72.2154 298.421 71.1488 300.154C70.7488 300.821 79.6821 316.554 91.1488 334.954C102.749 353.221 111.949 368.421 111.682 368.687C110.615 369.221 103.682 372.154 103.149 372.154C102.749 372.154 92.8821 352.954 81.1488 329.354C69.2821 305.887 60.3488 286.954 61.1488 287.487C61.8154 287.887 63.4154 290.154 64.4821 292.287ZM243.815 296.954C244.615 298.821 245.149 300.821 245.149 301.621C245.149 302.287 226.482 312.154 203.682 323.487C180.882 334.954 162.615 343.621 163.149 342.821C163.549 342.154 165.815 340.554 167.949 339.487C170.082 338.287 171.549 336.821 171.149 336.287C170.215 334.687 173.815 332.021 175.949 332.821C177.015 333.087 191.949 324.421 209.149 313.621C226.349 302.687 240.882 293.621 241.549 293.621C242.082 293.487 243.149 295.087 243.815 296.954ZM248.615 310.287L249.415 314.287L203.149 332.554C177.682 342.687 156.482 350.687 156.215 350.287C155.149 349.221 245.682 304.287 246.749 305.354C247.282 305.887 248.082 308.021 248.615 310.287ZM253.015 324.821C253.149 325.487 238.882 330.554 221.415 335.887C204.082 341.221 180.215 348.554 168.615 352.154C157.015 355.754 148.215 357.887 149.282 356.954C150.349 355.887 173.415 346.421 200.482 335.754L249.815 316.287L251.415 319.887C252.349 321.887 253.015 324.021 253.015 324.821ZM255.282 332.821C255.682 335.487 255.949 337.754 255.682 338.021C255.149 338.287 147.815 363.621 141.815 364.821C140.349 365.087 137.149 366.021 134.615 366.687C132.082 367.487 130.615 367.621 131.282 366.954C132.215 365.887 250.082 328.687 253.415 328.287C253.949 328.154 254.749 330.287 255.282 332.821ZM258.749 345.487C259.149 348.287 258.749 349.621 257.282 350.021C251.949 351.621 116.615 374.821 115.282 374.421C114.482 374.154 117.415 373.221 121.815 372.287C126.215 371.487 158.349 363.887 193.149 355.621C227.949 347.354 256.882 340.687 257.282 340.954C257.815 341.221 258.482 343.221 258.749 345.487ZM151.282 352.821C149.815 353.887 147.949 354.821 147.282 354.821C146.482 354.687 147.282 353.887 149.149 352.821C153.415 350.287 154.482 350.421 151.282 352.821ZM261.949 361.221C261.015 362.021 103.815 381.621 102.082 381.087C101.415 380.954 136.882 374.421 180.749 366.687L260.482 352.687L261.549 356.554C262.215 358.687 262.349 360.821 261.949 361.221ZM146.482 358.154C146.482 359.221 139.549 361.621 138.749 360.821C138.349 360.554 139.549 359.621 141.282 358.954C145.015 357.487 146.482 357.221 146.482 358.154ZM265.149 369.354C265.149 372.954 264.749 373.354 259.549 374.021C249.949 375.354 92.8821 387.087 92.4821 386.554C91.8154 386.021 253.149 365.887 260.215 365.621C264.882 365.487 265.149 365.754 265.149 369.354ZM267.815 381.354V385.221L255.549 386.021C236.215 387.221 85.0154 392.421 84.4821 391.887C83.9488 391.354 251.682 378.021 262.882 377.621C267.549 377.487 267.815 377.754 267.815 381.354ZM271.815 393.487V397.487L173.549 397.221C119.415 397.087 80.6154 396.687 87.1488 396.421C120.349 395.221 261.282 389.887 266.215 389.621C271.549 389.487 271.815 389.621 271.815 393.487Z" fill="black"/>
<path d="M165.816 181.354C169.416 185.887 173.016 190.021 173.682 190.554C174.482 190.954 172.082 187.621 168.482 182.954C164.882 178.421 161.282 174.287 160.616 173.754C159.816 173.354 162.216 176.687 165.816 181.354Z" fill="black"/>
<path d="M180.482 200.021C184.082 204.554 187.682 208.687 188.349 209.221C189.149 209.621 186.749 206.287 183.149 201.621C179.549 197.087 175.949 192.954 175.282 192.421C174.482 192.021 176.882 195.354 180.482 200.021Z" fill="black"/>
<path d="M89.6823 211.087L87.1489 214.154L90.2156 211.621C93.0156 209.221 93.8156 208.154 92.7489 208.154C92.4823 208.154 91.1489 209.487 89.6823 211.087Z" fill="black"/>
<path d="M191.149 213.487C192.482 214.954 193.815 216.154 194.215 216.154C194.615 216.154 193.815 214.954 192.482 213.487C191.149 212.021 189.815 210.821 189.415 210.821C189.015 210.821 189.815 212.021 191.149 213.487Z" fill="black"/>
<path d="M79.1488 218.954C69.0155 227.221 67.4155 229.487 76.8821 222.154C84.2155 216.421 87.5488 213.354 86.2155 213.487C85.9488 213.621 82.8821 216.021 79.1488 218.954Z" fill="black"/>
<path d="M198.349 223.221C200.482 226.287 203.682 230.021 205.282 231.487C207.015 232.954 205.415 230.421 201.949 225.754C194.749 216.287 192.749 214.821 198.349 223.221Z" fill="black"/>
<path d="M64.3488 231.087L61.8154 234.154L64.8821 231.621C66.4821 230.154 67.8154 228.821 67.8154 228.554C67.8154 227.487 66.7488 228.287 64.3488 231.087Z" fill="black"/>
<path d="M53.8153 238.954C43.682 247.221 42.082 249.487 51.5486 242.154C58.882 236.421 62.2153 233.354 60.882 233.487C60.6153 233.621 57.5486 236.021 53.8153 238.954Z" fill="black"/>
<path d="M85.1489 254.021C85.1489 254.287 86.0823 254.954 87.2823 255.354C88.3489 255.754 88.8823 255.621 88.4823 254.821C87.6823 253.487 85.1489 252.954 85.1489 254.021Z" fill="black"/>
<path d="M95.8154 266.154C95.8154 277.354 96.0821 278.821 98.2154 278.821C100.215 278.821 100.482 277.487 100.082 266.954L99.6821 254.954L105.415 254.421C110.482 254.021 110.349 253.887 103.549 253.754L95.8154 253.487V266.154Z" fill="black"/>
<path d="M115.815 266.154C115.815 275.354 116.215 278.821 117.549 278.821C118.749 278.821 119.149 275.354 119.149 266.154C119.149 256.954 118.749 253.487 117.549 253.487C116.215 253.487 115.815 256.954 115.815 266.154Z" fill="black"/>
<path d="M125.149 266.154V278.821L128.882 278.687C130.882 278.687 131.682 278.287 130.882 277.887C129.682 277.487 129.149 273.621 129.149 265.354C129.149 255.754 128.749 253.487 127.149 253.487C125.549 253.487 125.149 255.754 125.149 266.154Z" fill="black"/>
<path d="M140.749 255.354C143.415 256.554 146.082 259.221 147.415 262.021C149.549 266.554 149.549 267.087 147.415 271.487C146.215 274.154 143.815 276.821 142.215 277.487C140.482 278.154 139.949 278.687 140.882 278.687C146.749 278.954 152.615 269.754 151.149 262.821C150.082 257.887 146.749 255.087 141.015 254.154L136.482 253.354L140.749 255.354Z" fill="black"/>
<path d="M161.815 266.154C161.815 275.354 162.215 278.821 163.549 278.821C164.749 278.821 165.149 275.354 165.149 266.154C165.149 256.954 164.749 253.487 163.549 253.487C162.215 253.487 161.815 256.954 161.815 266.154Z" fill="black"/>
<path d="M171.816 256.154C175.149 259.487 175.149 260.821 171.816 264.154L169.016 266.954L173.282 272.687C177.149 278.154 182.482 281.621 182.482 278.687C182.482 278.021 181.949 277.487 181.149 277.487C180.482 277.487 178.216 275.087 176.216 272.021C172.749 266.821 172.749 266.554 174.882 262.821C176.082 260.821 177.149 258.821 177.149 258.421C177.149 256.954 172.882 253.487 171.016 253.487C169.682 253.487 169.816 254.154 171.816 256.154Z" fill="black"/>
<path d="M187.815 263.887C187.815 270.287 188.482 275.221 189.549 276.687C191.149 278.954 199.015 280.154 200.749 278.421C201.149 277.887 199.682 277.487 197.415 277.487C191.815 277.487 190.482 274.554 190.482 262.954C190.482 257.487 189.949 253.487 189.149 253.487C188.349 253.487 187.815 257.887 187.815 263.887Z" fill="black"/>
<path d="M204.749 265.087C204.882 271.621 205.015 277.221 205.149 277.754C205.149 278.421 205.815 278.821 206.482 278.821C207.282 278.821 207.815 273.754 207.815 266.154C207.815 256.954 207.415 253.487 206.215 253.487C204.882 253.487 204.615 256.554 204.749 265.087Z" fill="black"/>
<path d="M70.4821 258.021C63.5488 265.621 67.9488 277.487 78.4821 279.354L83.1488 280.287L78.8821 278.287C74.2154 276.154 71.1488 272.154 69.6821 266.421C69.0154 263.621 69.5488 261.621 71.6821 258.687C75.1488 254.021 74.6154 253.621 70.4821 258.021Z" fill="black"/>
<path d="M153.816 277.354C153.016 278.821 155.016 280.421 156.349 279.221C157.549 278.021 157.282 276.154 155.949 276.154C155.149 276.154 154.349 276.687 153.816 277.354Z" fill="black"/>
<path d="M201.149 309.621C195.682 314.021 190.215 318.687 189.149 319.754C186.882 322.154 200.749 311.621 207.815 305.621C216.082 298.554 211.549 301.354 201.149 309.621Z" fill="black"/>
<path d="M83.1487 313.487C84.482 314.954 85.8153 316.154 86.2153 316.154C86.6153 316.154 85.8153 314.954 84.482 313.487C83.1487 312.021 81.8153 310.821 81.4153 310.821C81.0153 310.821 81.8153 312.021 83.1487 313.487Z" fill="black"/>
<path d="M92.4821 325.354C96.0821 329.887 99.6821 334.021 100.349 334.554C101.149 334.954 98.7488 331.621 95.1488 326.954C91.5488 322.421 87.9488 318.287 87.2821 317.754C86.4821 317.354 88.8821 320.687 92.4821 325.354Z" fill="black"/>
<path d="M107.149 344.021C110.749 348.554 114.349 352.687 115.015 353.221C115.815 353.621 113.415 350.287 109.815 345.621C106.215 341.087 102.615 336.954 101.949 336.421C101.149 336.021 103.549 339.354 107.149 344.021Z" fill="black"/>
<path d="M117.815 357.487C119.149 358.954 120.482 360.154 120.882 360.154C121.282 360.154 120.482 358.954 119.149 357.487C117.815 356.021 116.482 354.821 116.082 354.821C115.682 354.821 116.482 356.021 117.815 357.487Z" fill="black"/>
<path d="M67.8154 297.354C67.8154 298.154 68.3488 299.087 69.1488 299.487C69.9488 299.887 70.0821 299.354 69.6821 298.287C68.7488 295.887 67.8154 295.487 67.8154 297.354Z" fill="black"/>
<path d="M173.149 334.821C171.949 335.621 171.815 336.154 172.749 336.154C173.549 336.154 174.749 335.487 175.149 334.821C176.215 333.221 175.682 333.221 173.149 334.821Z" fill="black"/>
<path d="M826.616 182.821C814.749 185.354 802.082 195.887 797.149 207.487C788.349 228.021 793.549 257.621 808.082 270.154C823.816 283.487 850.482 283.621 865.949 270.287C881.016 257.354 886.216 228.687 877.282 207.621C873.549 199.221 863.816 189.087 855.949 185.754C848.482 182.421 834.882 181.087 826.616 182.821ZM849.416 191.621C863.549 196.421 872.216 211.221 872.349 230.821C872.482 249.887 865.682 263.087 852.349 269.621C844.882 273.087 831.016 273.621 823.682 270.554C804.882 262.554 796.616 237.754 804.749 212.821C807.282 204.954 818.082 193.487 825.149 191.221C832.082 189.087 842.482 189.221 849.416 191.621Z" fill="black"/>
<path d="M1385.28 182.821C1373.42 185.354 1360.75 195.887 1355.82 207.487C1347.02 228.021 1352.22 257.621 1366.75 270.154C1382.48 283.487 1409.15 283.621 1424.62 270.287C1439.68 257.354 1444.88 228.687 1435.95 207.621C1432.22 199.221 1422.48 189.087 1414.62 185.754C1407.15 182.421 1393.55 181.087 1385.28 182.821ZM1408.08 191.621C1422.22 196.421 1430.88 211.221 1431.02 230.821C1431.15 249.887 1424.35 263.087 1411.02 269.621C1403.55 273.087 1389.68 273.621 1382.35 270.554C1363.55 262.554 1355.28 237.754 1363.42 212.821C1365.95 204.954 1376.75 193.487 1383.82 191.221C1390.75 189.087 1401.15 189.221 1408.08 191.621Z" fill="black"/>
<path d="M317.149 199.754C317.282 225.087 320.216 232.154 332.749 236.954C337.416 238.821 341.282 239.087 353.549 238.287C361.682 237.887 370.482 237.087 372.882 236.687L377.149 235.887V257.354V278.821H381.816H386.482V231.487V184.154H381.816H377.149V206.021V227.887L367.949 229.487C353.282 231.887 339.682 231.621 334.749 228.687C327.949 224.687 326.482 219.887 326.482 200.954V184.154H321.816H317.149V199.754Z" fill="black"/>
<path d="M407.815 231.487V278.821H441.149H474.482V274.821V270.821H445.815H417.149V252.154V233.487H443.815H470.482V229.487V225.487H443.815H417.149V208.154V190.821H445.149H473.149V187.487V184.154H440.482H407.815V231.487Z" fill="black"/>
<path d="M490.482 231.354V278.821H495.149H499.815L500.082 238.554L500.482 198.421L516.482 238.554L532.482 278.821H536.749H541.015L557.015 238.421L573.015 198.154L573.149 238.421V278.821H577.815H582.482V231.487V184.154H575.949H569.282L558.482 211.754C552.482 227.087 545.149 245.754 542.215 253.354L536.749 267.221L522.882 232.021C515.282 212.687 507.949 194.154 506.749 190.821C504.349 184.954 504.215 184.821 497.415 184.421L490.482 184.021V231.354Z" fill="black"/>
<path d="M603.815 231.487V278.821H608.482H613.149V234.821V190.821H640.482H667.815V234.821V278.821H672.482H677.149V231.487V184.154H640.482H603.815V231.487Z" fill="black"/>
<path d="M699.815 231.621V278.954L706.082 278.554L712.349 278.154L739.015 236.287L765.815 194.287L766.215 236.554L766.482 278.821H771.149H775.815V231.487V184.154H769.549L763.149 184.287L736.482 226.154L709.815 268.021L709.415 226.154L709.149 184.154H704.482H699.815V231.621Z" fill="black"/>
<path d="M899.815 231.487V278.821H904.482H909.149V255.487V232.154H937.149H965.149V255.487V278.821H969.815H974.482V231.487V184.154H969.815H965.149V204.821V225.487H937.149H909.149V204.821V184.154H904.482H899.815V231.487Z" fill="black"/>
<path d="M1023.95 187.087C1023.28 188.821 1014.88 209.621 1005.28 233.354C995.682 257.087 987.815 277.087 987.815 277.754C987.815 278.287 989.815 278.821 992.215 278.821C996.749 278.821 996.749 278.821 1002.35 264.154L1007.95 249.487H1029.82H1051.68L1057.28 264.154L1062.88 278.821H1067.95H1072.88L1065.95 261.087C1062.08 251.487 1053.68 230.154 1047.28 213.754L1035.55 184.154H1030.35C1026.08 184.154 1024.88 184.687 1023.95 187.087ZM1039.68 218.554C1044.22 230.554 1047.82 240.554 1047.82 240.821C1047.82 241.221 1039.55 241.487 1029.28 241.487H1010.88L1020.22 217.487C1026.08 202.421 1030.08 194.021 1030.62 195.221C1031.15 196.154 1035.28 206.687 1039.68 218.554Z" fill="black"/>
<path d="M1074.48 187.487V190.821H1090.48H1106.48V234.821V278.821H1111.15H1115.82L1116.08 235.087L1116.48 191.487L1132.88 191.087L1149.15 190.687V187.487V184.154H1111.82H1074.48V187.487Z" fill="black"/>
<path d="M1261.15 231.487V278.821H1265.82H1270.48V234.821V190.821H1297.82H1325.15V234.821V278.821H1329.82H1334.48V231.487V184.154H1297.82H1261.15V231.487Z" fill="black"/>
<path d="M1037.95 322.421C1038.48 324.554 1039.82 327.487 1041.02 329.087C1043.28 332.287 1051.55 336.154 1055.82 336.154C1063.68 336.154 1072.08 329.754 1073.95 322.287C1074.62 319.354 1074.35 318.821 1071.95 318.821C1070.35 318.821 1069.15 319.621 1069.15 320.554C1069.15 323.487 1063.15 328.154 1058.35 328.954C1052.22 330.021 1046.88 327.621 1044.08 322.821C1041.02 317.487 1036.75 317.221 1037.95 322.421Z" fill="black"/>
<path d="M704.215 342.821C692.349 345.621 683.682 354.021 681.282 365.087L680.082 370.821H684.615C687.815 370.821 689.149 370.154 689.149 368.821C689.149 364.554 694.615 356.287 699.149 353.487C705.949 349.354 719.149 348.421 727.282 351.487C734.882 354.287 738.482 359.754 738.482 368.154C738.482 379.354 732.082 384.021 715.549 385.087C705.949 385.754 705.149 386.021 705.149 388.821C705.149 391.621 705.949 391.887 715.549 392.554C732.882 393.621 741.149 399.887 741.149 411.487C741.149 427.221 723.282 437.221 704.482 432.021C694.082 429.221 686.482 420.554 686.482 411.621C686.482 407.487 684.882 406.554 680.349 407.621C677.149 408.421 676.882 408.954 677.682 413.754C680.482 431.087 693.282 440.154 715.015 440.154C723.549 440.154 727.282 439.487 732.482 436.954C744.882 431.221 751.549 419.887 750.082 406.954C749.282 400.154 746.082 395.354 739.549 390.954L734.749 387.887L739.282 383.754C748.215 376.021 750.215 366.154 745.149 356.154C739.282 344.687 721.015 338.821 704.215 342.821Z" fill="black"/>
<path d="M335.815 359.087C335.815 385.487 332.082 407.754 324.882 424.421C322.349 430.554 321.949 430.821 317.015 430.821H311.815V447.487V464.154H316.482H321.149V451.487V438.821H359.149H397.149V451.487V464.154H401.815H406.482V447.487V430.821H400.482H394.482V387.487V344.154H365.149H335.815V359.087ZM385.149 390.821V430.821H358.482C343.815 430.821 331.815 430.554 331.815 430.287C331.815 430.021 333.282 426.554 335.149 422.554C340.215 411.354 343.682 392.421 344.749 370.421L345.549 350.821H365.415H385.149V390.821Z" fill="black"/>
<path d="M501.149 391.621V438.954L507.416 438.554L513.682 438.154L540.349 396.287L567.149 354.287L567.549 396.554L567.816 438.821H572.482H577.149V391.487V344.154H570.882L564.482 344.287L537.816 386.154L511.149 428.021L510.749 386.154L510.482 344.154H505.816H501.149V391.621Z" fill="black"/>
<path d="M875.949 347.087C875.282 348.821 866.882 369.621 857.282 393.354C847.682 417.087 839.815 437.087 839.815 437.754C839.815 438.287 841.815 438.821 844.215 438.821C848.749 438.821 848.749 438.821 854.349 424.154L859.949 409.487H881.815H903.682L909.282 424.154L914.882 438.821H919.949H924.882L917.949 421.087C914.082 411.487 905.682 390.154 899.282 373.754L887.549 344.154H882.349C878.082 344.154 876.882 344.687 875.949 347.087ZM891.682 378.554C896.215 390.554 899.815 400.554 899.815 400.821C899.815 401.221 891.549 401.487 881.282 401.487H862.882L872.215 377.487C878.082 362.421 882.082 354.021 882.615 355.221C883.149 356.154 887.282 366.687 891.682 378.554Z" fill="black"/>
<path d="M1018.48 391.621V438.954L1024.75 438.554L1031.02 438.154L1057.68 396.287L1084.48 354.287L1084.88 396.554L1085.15 438.821H1089.82H1094.48V391.487V344.154H1088.22L1081.82 344.287L1055.15 386.154L1028.48 428.021L1028.08 386.154L1027.82 344.154H1023.15H1018.48V391.621Z" fill="black"/>
<path d="M1198.48 391.487V438.821H1203.15H1207.82V415.487V392.154H1235.82H1263.82V415.487V438.821H1268.48H1273.15V391.487V344.154H1268.48H1263.82V364.821V385.487H1235.82H1207.82V364.821V344.154H1203.15H1198.48V391.487Z" fill="black"/>
<path d="M1367.82 344.687C1367.82 345.087 1375.55 361.354 1385.15 380.821L1402.35 416.421L1399.82 421.487C1395.55 429.887 1391.02 432.554 1382.88 431.754C1375.82 430.954 1375.82 431.087 1375.82 434.821C1375.82 438.287 1376.35 438.687 1381.55 439.487C1390.22 440.821 1397.55 438.287 1402.75 432.154C1406.08 428.287 1441.68 357.487 1446.08 345.887C1446.62 344.687 1445.42 344.154 1442.22 344.154H1437.55L1423.02 374.821C1415.02 391.621 1408.08 405.487 1407.68 405.487C1407.28 405.487 1400.22 391.621 1392.08 374.821L1377.15 344.154H1372.48C1369.95 344.154 1367.82 344.421 1367.82 344.687Z" fill="black"/>
<path d="M38.8821 421.487C23.9487 424.687 10.4821 434.954 4.2154 448.021C1.54873 453.621 0.482066 458.154 0.082066 466.154C-0.584601 480.421 2.74873 489.754 12.3487 499.621C21.5487 508.954 31.4154 512.154 51.6821 512.154C70.6154 512.021 82.2154 509.487 86.0821 504.554C89.6821 500.154 90.0821 497.487 86.7487 500.554C82.8821 504.021 73.1487 507.887 63.6821 509.487C42.6154 513.087 23.6821 503.621 14.4821 484.954C2.48207 460.687 7.94873 437.887 28.4821 427.487C35.4154 423.887 37.5487 423.487 48.3487 423.487C61.1487 423.487 68.2154 425.887 75.4154 432.554C79.4154 436.154 80.6154 434.821 77.9487 429.754C76.4821 426.954 74.0821 425.087 69.5487 423.487C61.8154 420.821 46.6154 419.887 38.8821 421.487Z" fill="black"/>
<path d="M92.882 422.821L95.8153 424.021V466.687C95.8153 506.154 95.682 509.354 93.5486 509.887C92.2153 510.287 104.749 510.554 121.549 510.687L151.815 510.821V505.354C151.815 502.154 151.282 500.287 150.482 500.821C149.815 501.221 149.149 502.554 149.149 503.487C149.149 507.087 144.082 508.154 128.215 508.154C106.349 508.154 107.149 509.087 107.149 485.887V467.487L120.349 467.087C127.682 466.954 135.282 467.354 137.415 468.021C140.882 469.221 141.149 469.087 141.149 466.021C141.149 463.087 140.749 462.954 138.482 464.154C136.882 464.954 129.815 465.354 121.549 465.221L107.149 464.821V444.821V424.821L119.149 424.421C137.549 423.754 142.215 424.821 144.349 429.887L146.215 434.154L146.349 427.754L146.482 421.487L118.215 421.621C99.8153 421.621 90.882 422.021 92.882 422.821Z" fill="black"/>
<path d="M158.216 423.621C161.149 425.621 161.149 425.754 161.149 466.821C161.149 504.687 161.016 508.154 158.882 509.354C157.016 510.421 159.016 510.687 166.482 510.687C173.949 510.687 175.949 510.421 174.216 509.354C171.949 508.154 171.816 504.687 171.816 466.154V424.421L175.549 423.087C178.482 422.021 176.882 421.621 167.149 421.621C155.949 421.487 155.416 421.621 158.216 423.621Z" fill="black"/>
<path d="M186.082 422.821C190.215 424.554 190.749 430.154 190.215 470.954C189.949 498.554 189.415 506.954 187.949 508.554C186.349 510.687 188.215 510.821 214.082 510.821C248.215 510.821 252.882 509.754 263.415 499.887C267.815 495.621 272.215 489.754 274.882 484.287C278.615 476.554 279.149 474.287 279.149 464.154C279.149 455.487 278.482 451.354 276.349 446.687C270.082 433.354 258.482 425.354 241.549 422.821C230.082 421.221 181.949 421.221 186.082 422.821ZM241.815 428.154C252.749 432.421 263.815 443.354 267.282 453.487C273.682 472.421 266.215 494.821 250.482 503.354C239.549 509.354 214.615 510.554 205.282 505.621C200.749 503.087 199.815 495.754 199.815 458.954V423.887L216.882 424.421C230.349 424.954 235.415 425.754 241.815 428.154Z" fill="black"/>
<path d="M334.482 505.754C326.882 509.887 321.415 518.421 320.215 527.887C319.415 534.554 319.549 534.821 322.749 534.821C325.815 534.821 326.215 534.154 327.015 528.287C328.749 514.954 337.549 507.621 350.882 508.554C363.282 509.354 370.482 516.421 371.549 528.821C372.749 542.821 369.015 548.287 341.549 572.954C325.015 587.754 319.815 593.221 319.815 595.621V598.821H350.482H381.149V595.487V592.154H355.549H329.815L335.949 586.421C339.282 583.354 348.615 574.687 356.749 567.221C374.349 550.954 378.482 544.154 378.482 531.487C378.482 521.221 373.949 511.621 367.015 506.954C363.149 504.287 360.215 503.621 351.415 503.087C341.815 502.687 339.815 502.954 334.482 505.754Z" fill="black"/>
<path d="M689.549 505.621C683.016 508.821 677.816 515.087 673.949 524.687C671.549 530.554 671.149 534.287 671.149 551.487C671.149 573.354 672.749 579.887 680.349 589.887C688.616 600.687 705.816 603.621 717.416 596.287C729.149 588.821 734.616 574.821 734.616 551.487C734.616 528.154 729.149 514.154 717.416 506.687C709.682 501.754 698.216 501.354 689.549 505.621ZM710.882 510.021C716.482 512.421 720.349 516.687 724.082 524.821C726.882 530.821 727.149 533.487 727.149 551.487C727.149 569.754 726.882 572.154 723.949 578.554C713.949 600.821 688.882 599.754 680.482 576.687C677.016 566.954 676.216 543.087 679.016 532.154C683.816 513.087 696.882 504.021 710.882 510.021Z" fill="black"/>
<path d="M1038.48 505.754C1030.88 509.887 1025.42 518.421 1024.22 527.887C1023.42 534.554 1023.55 534.821 1026.75 534.821C1029.82 534.821 1030.22 534.154 1031.02 528.287C1032.75 514.954 1041.55 507.621 1054.88 508.554C1067.28 509.354 1074.48 516.421 1075.55 528.821C1076.75 542.821 1073.02 548.287 1045.55 572.954C1029.02 587.754 1023.82 593.221 1023.82 595.621V598.821H1054.48H1085.15V595.487V592.154H1059.55H1033.82L1039.95 586.421C1043.28 583.354 1052.62 574.687 1060.75 567.221C1078.35 550.954 1082.48 544.154 1082.48 531.487C1082.48 521.221 1077.95 511.621 1071.02 506.954C1067.15 504.287 1064.22 503.621 1055.42 503.087C1045.82 502.687 1043.82 502.954 1038.48 505.754Z" fill="black"/>
<path d="M1390.88 505.087C1384.88 505.487 1383.82 506.021 1383.82 508.287C1383.82 510.554 1384.75 510.821 1394.48 510.821H1405.15V551.487V592.021L1394.22 592.421C1383.95 592.821 1383.15 593.087 1382.75 595.887L1382.35 598.821H1409.15H1435.95L1435.55 595.754C1435.15 592.954 1434.48 592.821 1423.55 592.421L1411.82 592.021V548.154V504.154L1404.88 504.421C1401.02 504.554 1394.62 504.821 1390.88 505.087Z" fill="black"/>
<path d="M45.8153 531.621C42.482 534.954 43.682 541.754 48.082 543.754C51.682 545.621 55.8153 544.821 55.8153 542.554C55.8153 541.754 54.7487 541.487 53.282 541.887C49.9487 542.687 46.482 540.554 46.482 537.754C46.482 534.421 49.1487 532.154 52.882 532.154C54.6153 532.154 55.5487 531.621 55.1487 530.821C53.8153 528.687 48.2153 529.221 45.8153 531.621Z" fill="black"/>
<path d="M59.4154 531.887C54.6154 537.221 57.9487 544.554 65.1487 544.554C69.9487 544.554 73.1487 541.487 73.1487 536.687C73.1487 530.154 63.9487 526.954 59.4154 531.887ZM68.882 533.754C71.0154 535.887 70.882 538.154 68.482 540.554C65.9487 543.087 61.5487 542.021 60.482 538.554C58.882 533.621 65.1487 530.021 68.882 533.754Z" fill="black"/>
<path d="M75.8154 536.821V544.154H80.4821C85.6821 544.154 87.8154 541.354 85.1488 538.154C84.3488 537.087 83.9488 535.621 84.4821 534.821C85.8154 532.687 82.6154 529.487 79.0154 529.487C76.0821 529.487 75.8154 530.021 75.8154 536.821ZM82.2154 533.621C81.9488 534.421 81.1488 534.954 80.4821 534.954C79.8154 534.954 79.0154 534.421 78.7488 533.621C78.4821 532.821 79.2821 532.154 80.4821 532.154C81.6821 532.154 82.4821 532.821 82.2154 533.621ZM81.8154 541.487C81.1488 542.554 80.3488 542.554 79.5488 541.754C78.7488 540.954 78.6154 539.621 79.1488 538.821C79.8154 537.754 80.6154 537.754 81.4154 538.554C82.2154 539.354 82.3488 540.687 81.8154 541.487Z" fill="black"/>
<path d="M89.1489 536.821C89.1489 544.021 89.1489 544.154 93.1489 544.154C95.4156 544.154 97.1489 543.487 97.1489 542.821C97.1489 542.021 95.9489 541.487 94.4823 541.487C93.0156 541.487 91.8156 540.554 91.8156 539.487C91.8156 538.421 93.0156 537.487 94.4823 537.487C95.9489 537.487 97.1489 536.821 97.1489 536.154C97.1489 535.354 95.9489 534.821 94.4823 534.821C93.0156 534.821 91.8156 534.154 91.8156 533.487C91.8156 532.687 93.0156 532.154 94.4823 532.154C95.9489 532.154 97.1489 531.487 97.1489 530.821C97.1489 530.021 95.4156 529.487 93.1489 529.487C89.1489 529.487 89.1489 529.621 89.1489 536.821Z" fill="black"/>
<path d="M98.4819 530.821C98.4819 531.487 99.4153 532.154 100.482 532.154C101.949 532.154 102.482 533.754 102.482 538.154C102.482 541.487 103.149 544.154 103.815 544.154C104.615 544.154 105.149 541.487 105.149 538.154C105.149 534.821 105.815 532.154 106.482 532.154C107.282 532.154 107.815 531.487 107.815 530.821C107.815 530.021 105.682 529.487 103.149 529.487C100.615 529.487 98.4819 530.021 98.4819 530.821Z" fill="black"/>
<path d="M114.482 530.821C114.482 531.487 116.349 532.154 118.482 532.154C121.149 532.154 122.482 532.821 122.482 534.154C122.482 535.221 121.282 536.154 119.815 536.154C118.349 536.154 117.149 536.687 117.149 537.487C117.149 538.154 118.749 538.821 120.882 538.821C124.215 538.954 124.349 539.087 122.082 540.687C120.749 541.754 118.482 542.287 117.149 541.887C114.082 541.087 113.549 543.487 116.482 544.687C123.549 547.354 129.815 536.954 124.349 531.621C122.082 529.221 114.482 528.687 114.482 530.821Z" fill="black"/>
<path d="M129.149 536.821C129.149 540.821 129.816 544.154 130.482 544.154C131.282 544.154 131.816 542.954 131.816 541.487C131.816 540.021 132.216 538.821 132.882 538.821C133.416 538.821 134.616 540.021 135.549 541.487C136.482 542.954 138.082 544.154 139.149 544.154C140.749 544.154 140.616 543.354 138.216 540.154L135.282 536.154L138.482 532.821C141.016 530.021 141.282 529.487 139.416 529.487C138.216 529.487 136.482 530.687 135.549 532.154C134.616 533.621 133.416 534.821 132.882 534.821C132.216 534.821 131.816 533.621 131.816 532.154C131.816 530.687 131.282 529.487 130.482 529.487C129.816 529.487 129.149 532.821 129.149 536.821Z" fill="black"/>
<path d="M145.549 531.087C141.682 536.021 142.616 541.354 147.816 544.154C150.482 545.621 154.482 544.687 154.482 542.554C154.482 541.754 153.682 541.487 152.616 541.887C149.549 543.087 146.216 539.754 146.749 536.021C147.016 533.621 148.082 532.687 150.882 532.421C152.882 532.154 154.482 531.354 154.482 530.687C154.482 528.821 147.016 529.221 145.549 531.087Z" fill="black"/>
<path d="M157.149 536.821C157.149 540.821 157.816 544.154 158.482 544.154C159.282 544.154 159.816 541.487 159.816 538.154C159.816 532.687 160.082 532.154 163.149 532.154C166.216 532.154 166.482 532.687 166.482 538.154C166.482 541.487 167.149 544.154 167.816 544.154C168.616 544.154 169.149 540.821 169.149 536.821V529.487H163.149H157.149V536.821Z" fill="black"/>
<path d="M173.149 536.821C173.149 544.021 173.149 544.154 177.149 544.154C179.416 544.154 181.149 543.487 181.149 542.821C181.149 542.021 179.949 541.487 178.482 541.487C174.882 541.487 175.149 537.754 178.882 537.087L181.816 536.554L178.882 535.487C175.149 534.287 174.882 532.154 178.482 532.154C179.949 532.154 181.149 531.487 181.149 530.821C181.149 530.021 179.416 529.487 177.149 529.487C173.149 529.487 173.149 529.621 173.149 536.821Z" fill="black"/>
<path d="M183.815 536.821C183.815 540.821 184.482 544.154 185.149 544.154C185.949 544.154 186.482 543.221 186.482 542.154C186.482 540.954 187.949 539.487 189.815 538.821C196.615 536.287 195.015 529.487 187.682 529.487C183.949 529.487 183.815 529.621 183.815 536.821ZM190.482 534.154C190.482 535.221 189.549 536.154 188.482 536.154C187.415 536.154 186.482 535.221 186.482 534.154C186.482 533.087 187.415 532.154 188.482 532.154C189.549 532.154 190.482 533.087 190.482 534.154Z" fill="black"/>
<path d="M194.482 530.821C194.482 531.487 195.415 532.154 196.482 532.154C197.949 532.154 198.482 533.754 198.482 538.154C198.482 541.487 199.149 544.154 199.815 544.154C200.615 544.154 201.149 541.487 201.149 538.154C201.149 534.821 201.815 532.154 202.482 532.154C203.282 532.154 203.815 531.487 203.815 530.821C203.815 530.021 201.682 529.487 199.149 529.487C196.615 529.487 194.482 530.021 194.482 530.821Z" fill="black"/>
<path d="M207.016 532.821C204.482 536.687 205.549 540.821 209.816 543.621C216.882 548.287 225.149 537.754 219.149 531.621C215.816 528.287 209.549 528.954 207.016 532.821ZM217.949 535.754C218.616 538.287 218.216 539.754 216.482 540.954C213.282 543.354 209.149 541.087 209.149 536.954C209.149 533.087 210.082 532.154 213.949 532.154C216.216 532.154 217.282 533.087 217.949 535.754Z" fill="black"/>
<path d="M223.815 536.687V544.154H228.482C234.082 544.154 234.882 542.554 233.415 535.487C232.482 530.687 231.949 530.154 228.082 529.754L223.815 529.354V536.687ZM230.482 533.354C230.482 534.154 229.949 535.087 229.149 535.487C228.482 535.887 227.815 535.354 227.815 534.287C227.815 533.087 228.482 532.154 229.149 532.154C229.949 532.154 230.482 532.687 230.482 533.354ZM231.815 540.154C231.815 540.687 230.882 541.487 229.815 542.021C228.482 542.554 227.815 541.887 227.815 540.154C227.815 538.421 228.482 537.754 229.815 538.287C230.882 538.821 231.815 539.621 231.815 540.154Z" fill="black"/>
<path d="M236.216 553.621C237.682 554.554 239.282 554.554 240.882 553.621C242.749 552.421 242.349 552.287 238.482 552.287C234.616 552.287 234.216 552.421 236.216 553.621Z" fill="black"/>
<path d="M2.48193 563.487C2.48193 567.487 2.88193 570.821 3.5486 570.821C4.08193 570.821 6.08193 568.954 8.08193 566.554L11.6819 562.154L11.8153 566.421C11.8153 569.487 12.4819 570.821 13.8153 570.821C15.4153 570.821 15.8153 569.087 15.8153 563.487C15.8153 554.687 14.0819 554.154 8.88193 561.087L5.1486 565.887V561.087C5.1486 558.287 4.61527 556.154 3.81527 556.154C3.1486 556.154 2.48193 559.487 2.48193 563.487Z" fill="black"/>
<path d="M18.4819 563.487C18.4819 570.687 20.4819 573.754 21.4153 567.754C21.6819 565.887 22.8819 564.687 24.8819 564.421C27.2819 564.021 27.8153 564.554 27.8153 567.354C27.8153 569.221 28.4819 570.821 29.1486 570.821C29.9486 570.821 30.4819 567.487 30.4819 563.487C30.4819 559.487 29.9486 556.154 29.1486 556.154C28.4819 556.154 27.8153 557.354 27.8153 558.821C27.8153 560.821 26.8819 561.487 24.4819 561.487C22.0819 561.487 21.1486 560.821 21.1486 558.821C21.1486 557.354 20.6153 556.154 19.8153 556.154C19.1486 556.154 18.4819 559.487 18.4819 563.487Z" fill="black"/>
<path d="M33.1489 557.487C33.1489 558.154 33.8156 558.821 34.4823 558.821C35.2823 558.821 35.8156 561.487 35.8156 564.821C35.8156 569.221 36.3489 570.821 37.8156 570.821C39.2823 570.821 39.8156 569.221 39.8156 564.821C39.8156 561.487 40.4823 558.821 41.1489 558.821C41.9489 558.821 42.4823 558.154 42.4823 557.487C42.4823 556.687 40.3489 556.154 37.8156 556.154C35.2823 556.154 33.1489 556.687 33.1489 557.487Z" fill="black"/>
<path d="M45.1489 563.487C45.1489 570.687 45.1489 570.821 49.1489 570.821C51.4156 570.821 53.1489 570.154 53.1489 569.487C53.1489 568.687 51.9489 568.154 50.4823 568.154C46.8823 568.154 47.1489 564.421 50.8823 563.754L53.8156 563.221L50.8823 562.154C47.1489 560.954 46.8823 558.821 50.4823 558.821C51.9489 558.821 53.1489 558.154 53.1489 557.487C53.1489 556.687 51.4156 556.154 49.1489 556.154C45.1489 556.154 45.1489 556.287 45.1489 563.487Z" fill="black"/>
<path d="M55.8154 563.354C55.8154 567.487 56.4821 570.821 57.1488 570.821C57.9488 570.821 58.4821 569.621 58.4821 568.287C58.4821 566.554 59.5488 565.487 61.5488 565.221C63.8154 564.954 64.4821 563.887 64.4821 560.821C64.4821 557.221 63.9488 556.821 60.2154 556.421L55.8154 556.021V563.354ZM62.4821 560.821C62.4821 561.887 61.5488 562.821 60.4821 562.821C59.4154 562.821 58.4821 561.887 58.4821 560.821C58.4821 559.754 59.4154 558.821 60.4821 558.821C61.5488 558.821 62.4821 559.754 62.4821 560.821Z" fill="black"/>
<path d="M67.8154 563.487V570.821H72.3488C75.9488 570.821 77.1488 570.154 77.9488 567.887C78.8821 564.954 75.8154 561.487 72.2154 561.487C71.2821 561.487 70.4821 560.287 70.4821 558.821C70.4821 557.354 69.9488 556.154 69.1488 556.154C68.4821 556.154 67.8154 559.487 67.8154 563.487ZM74.8821 566.154C75.0154 566.821 74.0821 567.621 72.8821 567.887C71.4154 568.154 70.4821 567.487 70.4821 566.154C70.4821 563.887 74.4821 563.754 74.8821 566.154Z" fill="black"/>
<path d="M81.1489 563.487C81.1489 570.687 81.1489 570.821 85.1489 570.821C87.4156 570.821 89.1489 570.154 89.1489 569.487C89.1489 568.687 87.9489 568.154 86.4823 568.154C82.8823 568.154 83.1489 564.421 86.8823 563.754L89.8156 563.221L86.8823 562.154C83.1489 560.954 82.8823 558.821 86.4823 558.821C87.9489 558.821 89.1489 558.154 89.1489 557.487C89.1489 556.687 87.4156 556.154 85.1489 556.154C81.1489 556.154 81.1489 556.287 81.1489 563.487Z" fill="black"/>
<path d="M91.8154 563.354C91.8154 567.487 92.4821 570.821 93.1488 570.821C93.9488 570.821 94.4821 569.621 94.4821 568.287C94.4821 566.554 95.5488 565.487 97.5488 565.221C99.8154 564.954 100.482 563.887 100.482 560.821C100.482 557.221 99.9488 556.821 96.2154 556.421L91.8154 556.021V563.354ZM98.4821 560.821C98.4821 561.887 97.5488 562.821 96.4821 562.821C95.4154 562.821 94.4821 561.887 94.4821 560.821C94.4821 559.754 95.4154 558.821 96.4821 558.821C97.5488 558.821 98.4821 559.754 98.4821 560.821Z" fill="black"/>
<path d="M103.815 563.487C103.815 567.487 104.482 570.821 105.149 570.821C105.949 570.821 106.482 569.354 106.482 567.487C106.482 564.821 107.149 564.154 109.815 564.154C112.482 564.154 113.149 564.821 113.149 567.487C113.149 569.354 113.815 570.821 114.482 570.821C115.282 570.821 115.815 567.487 115.815 563.487C115.815 559.487 115.282 556.154 114.482 556.154C113.815 556.154 113.149 557.354 113.149 558.821C113.149 560.821 112.215 561.487 109.815 561.487C107.415 561.487 106.482 560.821 106.482 558.821C106.482 557.354 105.949 556.154 105.149 556.154C104.482 556.154 103.815 559.487 103.815 563.487Z" fill="black"/>
<path d="M120.215 559.621C118.215 562.821 118.215 563.487 119.949 566.687C121.282 569.087 123.149 570.287 126.215 570.554C131.949 571.087 134.482 568.954 134.482 563.621C134.482 558.154 132.349 556.154 126.882 556.154C123.682 556.154 121.949 557.087 120.215 559.621ZM131.149 563.487C131.149 567.087 130.749 567.487 127.149 567.487C124.349 567.487 123.015 566.821 122.749 565.087C121.949 560.687 123.549 558.554 127.415 559.087C130.615 559.487 131.149 560.154 131.149 563.487Z" fill="black"/>
<path d="M137.149 563.487C137.149 569.087 137.549 570.821 139.149 570.821C140.616 570.821 141.149 569.221 141.149 564.821C141.149 560.421 141.682 558.821 143.149 558.821C144.216 558.821 145.149 558.154 145.149 557.487C145.149 556.687 143.416 556.154 141.149 556.154C137.149 556.154 137.149 556.287 137.149 563.487Z" fill="black"/>
<path d="M148.215 559.621C146.215 562.821 146.215 563.487 147.949 566.687C149.282 569.087 151.149 570.287 154.215 570.554C159.949 571.087 162.482 568.954 162.482 563.621C162.482 558.154 160.349 556.154 154.882 556.154C151.682 556.154 149.949 557.087 148.215 559.621ZM159.149 563.487C159.149 567.087 158.749 567.487 155.149 567.487C152.349 567.487 151.015 566.821 150.749 565.087C149.949 560.687 151.549 558.554 155.415 559.087C158.615 559.487 159.149 560.154 159.149 563.487Z" fill="black"/>
<path d="M171.816 562.154C171.816 565.487 171.282 568.154 170.482 568.154C169.816 568.154 169.149 569.621 169.149 571.487C169.149 573.354 169.816 574.821 170.482 574.821C171.282 574.821 171.816 573.887 171.816 572.821C171.816 571.487 173.282 570.821 176.482 570.821C179.682 570.821 181.149 571.487 181.149 572.821C181.149 573.887 181.816 574.821 182.616 574.821C183.682 574.821 183.949 573.087 183.282 569.754C182.882 567.087 182.482 562.821 182.482 560.421C182.482 556.287 182.216 556.154 177.149 556.154H171.816V562.154ZM179.816 563.487C179.816 567.354 179.282 568.154 177.016 568.154C175.016 568.154 174.482 567.621 175.016 566.021C175.416 564.821 175.816 562.821 175.816 561.354C175.816 560.021 176.749 558.821 177.816 558.821C179.149 558.821 179.816 560.287 179.816 563.487Z" fill="black"/>
<path d="M186.482 563.487C186.482 567.487 186.882 570.821 187.549 570.821C188.082 570.821 190.349 568.554 192.749 565.887L197.015 560.821L197.149 565.754C197.149 568.554 197.815 570.821 198.482 570.821C199.282 570.821 199.815 567.487 199.815 563.487C199.815 559.487 199.282 556.154 198.615 556.154C197.949 556.154 195.549 558.421 193.282 561.087L189.149 566.154V561.087C189.149 558.421 188.615 556.154 187.815 556.154C187.149 556.154 186.482 559.487 186.482 563.487Z" fill="black"/>
<path d="M203.816 557.354C203.816 558.154 205.416 558.821 207.549 558.821C211.016 558.954 211.016 558.954 208.616 560.821C205.949 562.821 205.949 562.821 208.616 564.687C210.616 566.287 210.749 566.954 209.549 568.287C208.216 569.487 207.549 569.621 205.949 568.287C204.616 567.221 203.816 567.087 203.149 568.154C202.082 569.887 205.282 571.221 209.416 570.554C212.216 570.154 212.482 569.487 212.482 563.487C212.482 556.954 212.349 556.821 208.216 556.421C205.682 556.154 203.816 556.554 203.816 557.354Z" fill="black"/>
<path d="M218.615 562.287C215.415 569.221 215.282 570.821 217.149 570.821C217.949 570.821 218.482 570.154 218.482 569.487C218.482 567.487 226.215 567.887 226.882 569.754C227.149 570.687 227.949 571.087 228.482 570.554C229.682 569.354 224.615 557.087 222.749 556.421C221.949 556.154 220.082 558.821 218.615 562.287ZM223.815 563.487C223.815 564.554 223.282 565.487 222.482 565.487C221.815 565.487 221.149 564.554 221.149 563.487C221.149 562.421 221.815 561.487 222.482 561.487C223.282 561.487 223.815 562.421 223.815 563.487Z" fill="black"/>
<path d="M231.815 563.487C231.815 567.487 232.349 570.821 233.015 570.821C233.682 570.821 236.082 568.554 238.349 565.754L242.349 560.821L242.482 565.754C242.482 568.554 243.149 570.821 243.815 570.821C244.615 570.821 245.149 567.487 245.149 563.487C245.149 559.487 244.615 556.154 243.949 556.154C243.282 556.154 240.882 558.421 238.615 561.087L234.615 566.154L234.482 561.087C234.482 558.421 233.949 556.154 233.149 556.154C232.482 556.154 231.815 559.487 231.815 563.487Z" fill="black"/>
<path d="M249.149 563.487C249.149 567.487 249.816 570.821 250.482 570.821C251.282 570.821 251.816 569.221 251.816 567.354C251.816 564.554 252.349 564.021 254.882 564.421C256.749 564.687 257.949 565.887 258.216 567.754C259.149 573.754 261.149 570.687 261.149 563.487C261.149 559.487 260.616 556.154 259.816 556.154C259.149 556.154 258.482 557.354 258.482 558.821C258.482 560.821 257.549 561.487 255.149 561.487C252.749 561.487 251.816 560.821 251.816 558.821C251.816 557.354 251.282 556.154 250.482 556.154C249.816 556.154 249.149 559.487 249.149 563.487Z" fill="black"/>
<path d="M265.949 563.087C264.082 567.487 263.415 570.421 264.349 570.687C265.015 570.954 265.949 570.554 266.215 569.621C266.882 567.621 272.215 567.754 274.215 569.754C275.015 570.554 276.082 570.954 276.482 570.554C277.415 569.621 271.682 556.154 270.215 556.154C269.682 556.154 267.682 559.354 265.949 563.087ZM271.815 564.287C271.815 564.954 270.882 565.487 269.815 565.487C268.615 565.487 268.215 564.687 268.615 563.487C269.415 561.487 271.815 562.021 271.815 564.287Z" fill="black"/>
<path d="M190.482 578.954C190.482 580.687 194.749 581.487 196.882 580.154C199.415 578.821 199.282 578.687 194.215 578.287C192.082 578.154 190.482 578.421 190.482 578.954Z" fill="black"/>
<path d="M1.14893 590.154C1.14893 594.154 1.68226 597.487 2.34893 597.487C3.01559 597.487 5.41559 595.221 7.68226 592.554L11.8156 587.487V592.554C11.8156 595.221 12.4823 597.487 13.1489 597.487C13.9489 597.487 14.4823 594.154 14.4823 590.154C14.4823 586.154 13.9489 582.821 13.2823 582.821C12.6156 582.821 10.7489 584.554 9.14893 586.821C7.54893 588.954 5.68226 590.821 5.01559 590.821C4.34893 590.821 3.81559 588.954 3.81559 586.821C3.81559 584.554 3.28226 582.821 2.48226 582.821C1.81559 582.821 1.14893 586.154 1.14893 590.154Z" fill="black"/>
<path d="M25.2819 589.754C22.4819 596.554 22.4819 599.354 25.4152 596.421C27.4152 594.421 33.1485 594.287 33.1485 596.154C33.1485 596.821 33.9485 597.487 35.0152 597.487C36.4819 597.487 36.3485 596.021 34.0819 590.154C32.4819 586.154 30.4819 582.821 29.6819 582.821C28.8819 582.821 26.8819 585.887 25.2819 589.754ZM30.3485 592.021C28.3485 592.687 27.4152 591.221 28.4819 589.487C29.2819 588.287 29.8152 588.287 30.6152 589.621C31.2819 590.687 31.1485 591.621 30.3485 592.021Z" fill="black"/>
<path d="M38.4819 590.154C38.4819 594.154 39.1486 597.487 39.8153 597.487C40.6153 597.487 41.1486 596.287 41.1486 594.954C41.1486 593.354 42.2153 592.154 43.9486 591.887C51.2819 590.821 49.8153 582.821 42.3486 582.821C38.6153 582.821 38.4819 582.954 38.4819 590.154ZM45.1486 587.487C45.1486 588.554 44.2153 589.487 43.1486 589.487C42.0819 589.487 41.1486 588.554 41.1486 587.487C41.1486 586.421 42.0819 585.487 43.1486 585.487C44.2153 585.487 45.1486 586.421 45.1486 587.487Z" fill="black"/>
<path d="M52.4819 586.287C54.4819 589.487 54.4819 589.887 52.4819 593.087C49.6819 597.354 51.2819 599.087 54.2153 595.087C56.4819 592.154 56.4819 592.154 58.2153 594.821C60.8819 599.087 62.7486 597.887 60.4819 593.354C58.4819 589.621 58.4819 588.954 60.4819 586.021C62.2153 583.354 62.2153 582.821 60.6153 582.821C59.6819 582.821 58.3486 583.887 57.8153 585.087C57.0153 587.354 56.8819 587.354 55.2819 585.087C52.3486 581.221 49.8153 582.287 52.4819 586.287Z" fill="black"/>
<path d="M65.1489 590.154C65.1489 594.154 65.6823 597.487 66.3489 597.487C67.0156 597.487 69.4156 595.221 71.6823 592.554L75.8156 587.487V592.554C75.8156 595.221 76.4823 597.487 77.1489 597.487C77.9489 597.487 78.4823 594.154 78.4823 590.154C78.4823 586.154 78.0823 582.821 77.5489 582.821C76.8823 582.821 74.6156 585.087 72.2156 587.754L67.9489 592.821L67.8156 587.754C67.8156 585.087 67.2823 582.821 66.4823 582.821C65.8156 582.821 65.1489 586.154 65.1489 590.154Z" fill="black"/>
<path d="M81.1489 584.154C81.1489 584.821 81.8156 585.487 82.4823 585.487C83.2823 585.487 83.8156 588.154 83.8156 591.487C83.8156 594.821 84.4823 597.487 85.1489 597.487C85.9489 597.487 86.4823 594.821 86.4823 591.487C86.4823 587.087 87.0156 585.487 88.4823 585.487C89.5489 585.487 90.4823 584.821 90.4823 584.154C90.4823 583.354 88.3489 582.821 85.8156 582.821C83.2823 582.821 81.1489 583.354 81.1489 584.154Z" fill="black"/>
<path d="M91.8154 590.154V597.487H96.6154C99.4154 597.487 101.015 596.954 100.482 596.154C100.082 595.354 98.4821 594.821 97.0154 594.821C93.6821 594.821 93.6821 592.154 97.1488 591.221C98.6154 590.821 99.8154 590.021 99.8154 589.354C99.8154 588.687 98.6154 588.154 97.1488 588.154C95.6821 588.154 94.4821 587.487 94.4821 586.821C94.4821 586.021 95.6821 585.487 97.0154 585.487C98.4821 585.487 100.082 584.821 100.482 584.154C101.015 583.354 99.4154 582.821 96.6154 582.821H91.8154V590.154Z" fill="black"/>
<path d="M103.815 590.154C103.815 594.154 104.482 597.487 105.149 597.487C105.949 597.487 106.482 596.154 106.482 594.554V591.754L109.549 594.554C114.215 598.954 117.015 598.154 112.749 593.754L109.015 589.887L111.815 586.421C115.282 582.021 112.615 581.487 109.015 585.754L106.615 588.821L106.482 585.754C106.482 584.154 105.949 582.821 105.149 582.821C104.482 582.821 103.815 586.154 103.815 590.154Z" fill="black"/>
<path d="M117.549 584.687C119.016 585.887 119.816 588.287 119.816 592.021C119.816 594.954 120.482 597.487 121.149 597.487C121.949 597.487 122.482 594.821 122.482 591.621C122.482 587.487 123.149 585.487 124.616 584.954C127.282 583.887 126.882 583.621 129.682 589.087C130.882 591.354 131.416 594.287 130.882 595.621C130.349 597.087 130.616 597.621 131.816 597.221C134.349 596.421 140.082 582.821 137.949 582.821C137.016 582.821 135.682 584.421 135.016 586.421L133.549 590.154L131.816 586.421C130.216 583.087 129.416 582.821 122.616 582.821C116.082 582.954 115.416 583.087 117.549 584.687Z" fill="black"/>
<path d="M141.149 590.154C141.149 595.754 141.549 597.487 143.149 597.487C144.216 597.487 145.149 596.421 145.149 594.954C145.149 593.621 146.349 592.154 147.816 591.754C154.216 590.154 151.816 582.821 145.016 582.821C141.282 582.821 141.149 582.954 141.149 590.154ZM148.082 587.487C148.082 588.154 147.416 588.954 146.616 589.221C145.816 589.487 145.149 588.687 145.149 587.487C145.149 586.287 145.816 585.487 146.616 585.754C147.416 586.021 148.082 586.821 148.082 587.487Z" fill="black"/>
<path d="M153.149 590.154C153.149 595.754 153.549 597.487 155.149 597.487C156.349 597.487 157.149 596.287 157.149 594.154C157.149 591.754 157.816 590.821 159.816 590.821C161.816 590.821 162.482 591.754 162.482 594.154C162.482 596.287 163.282 597.487 164.482 597.487C166.082 597.487 166.482 595.754 166.482 590.154C166.482 584.554 166.082 582.821 164.482 582.821C163.416 582.821 162.482 584.021 162.482 585.487C162.482 587.221 161.549 588.154 159.816 588.154C158.082 588.154 157.149 587.221 157.149 585.487C157.149 584.021 156.216 582.821 155.149 582.821C153.549 582.821 153.149 584.554 153.149 590.154Z" fill="black"/>
<path d="M170.216 586.154C169.149 588.554 169.016 590.821 169.949 593.221C172.482 600.287 185.149 597.754 185.149 590.154C185.149 586.154 181.016 582.821 175.949 582.821C172.749 582.821 171.416 583.621 170.216 586.154ZM181.016 587.887C182.749 591.087 180.482 594.821 176.616 594.821C173.149 594.821 171.282 591.754 172.482 588.021C173.549 584.821 179.282 584.687 181.016 587.887Z" fill="black"/>
<path d="M187.815 590.154C187.815 594.154 188.215 597.487 188.882 597.487C189.415 597.487 191.682 595.221 194.082 592.554L198.349 587.487L198.482 592.421C198.482 595.221 199.149 597.487 199.815 597.487C200.615 597.487 201.149 594.154 201.149 590.154C201.149 586.154 200.615 582.821 199.949 582.821C199.282 582.821 196.882 585.087 194.615 587.754L190.482 592.821V587.754C190.482 585.087 189.949 582.821 189.149 582.821C188.482 582.821 187.815 586.154 187.815 590.154Z" fill="black"/>
<path d="M210.482 585.354C208.615 589.087 208.882 592.954 211.282 595.354C213.549 597.754 221.149 598.287 221.149 596.154C221.149 595.354 219.682 594.821 217.949 594.821C213.949 594.821 211.282 591.754 212.482 588.154C213.015 586.287 214.482 585.487 217.282 585.487C219.415 585.487 221.149 584.821 221.149 584.154C221.149 583.354 219.015 582.821 216.482 582.821C213.282 582.821 211.549 583.621 210.482 585.354Z" fill="black"/>
<path d="M223.815 590.021C223.815 594.154 224.482 597.487 225.149 597.487C225.949 597.487 226.482 596.421 226.482 595.087C226.482 593.887 227.815 592.154 229.549 591.487C231.415 590.554 232.482 588.954 232.482 586.821C232.482 584.021 231.815 583.354 228.215 583.087L223.815 582.687V590.021ZM230.215 587.087C229.415 589.487 226.482 589.887 226.482 587.621C226.482 586.421 227.415 585.487 228.615 585.487C229.815 585.487 230.482 586.154 230.215 587.087Z" fill="black"/>
<path d="M235.815 590.154C235.815 597.354 235.815 597.487 239.815 597.487C242.082 597.487 243.815 596.821 243.815 596.154C243.815 595.354 242.615 594.821 241.149 594.821C239.682 594.821 238.482 593.887 238.482 592.821C238.482 591.754 239.682 590.821 241.149 590.821C242.615 590.821 243.815 590.154 243.815 589.487C243.815 588.687 242.615 588.154 241.149 588.154C239.682 588.154 238.482 587.487 238.482 586.821C238.482 586.021 239.682 585.487 241.149 585.487C242.615 585.487 243.815 584.821 243.815 584.154C243.815 583.354 242.082 582.821 239.815 582.821C235.815 582.821 235.815 582.954 235.815 590.154Z" fill="black"/>
<path d="M247.816 588.021C247.816 590.954 247.282 593.754 246.482 594.154C245.816 594.554 245.149 596.421 245.149 598.287C245.149 600.021 245.816 601.487 246.482 601.487C247.282 601.487 247.816 600.554 247.816 599.487C247.816 598.154 249.282 597.487 252.482 597.487C255.682 597.487 257.149 598.154 257.149 599.487C257.149 600.554 257.816 601.487 258.616 601.487C259.682 601.487 259.949 599.754 259.282 596.421C258.882 593.754 258.482 589.487 258.482 587.087C258.482 582.954 258.216 582.821 253.149 582.821C247.816 582.821 247.816 582.821 247.816 588.021ZM255.816 590.154C255.816 593.887 255.282 594.821 253.149 594.821C251.016 594.821 250.482 593.887 250.482 590.154C250.482 586.421 251.016 585.487 253.149 585.487C255.282 585.487 255.816 586.421 255.816 590.154Z" fill="black"/>
<path d="M262.482 590.287V597.621L266.882 597.221C270.349 596.954 271.282 596.154 271.549 593.221C271.949 590.287 271.282 589.354 268.615 588.687C266.349 588.154 265.149 586.954 265.149 585.354C265.149 584.021 264.615 582.821 263.815 582.821C263.149 582.821 262.482 586.154 262.482 590.287ZM268.882 593.221C269.149 594.154 268.482 594.821 267.282 594.821C266.082 594.821 265.149 593.887 265.149 592.687C265.149 590.421 268.082 590.821 268.882 593.221Z" fill="black"/>
<path d="M273.149 590.154C273.149 595.754 273.549 597.487 275.149 597.487C276.749 597.487 277.149 595.754 277.149 590.154C277.149 584.554 276.749 582.821 275.149 582.821C273.549 582.821 273.149 584.554 273.149 590.154Z" fill="black"/>
</svg>
