<svg width="1484" height="601" viewBox="0 0 1484 601" fill="none" xmlns="http://www.w3.org/2000/svg">
<g clip-path="url(#clip0_21_928)">
<path d="M215.563 365.241L405.53 0L595.504 365.241H215.563Z" fill="#fff"/>
<path d="M129.13 575.085L117.402 598.857H96.3657V596.388L152.237 483.327H161.553L217.076 596.388V598.857H196.214L184.313 575.085H129.13ZM135.688 559.031H177.942L156.906 513.145L135.688 559.031Z" fill="#fff"/>
<path d="M411.263 486.115L440.241 563.948H440.581L452.656 522.819L465.411 484.145H486.629V486.926L446.445 599.668H436.1L406.956 526.099H406.616L377.472 599.668H366.439L326.429 486.926V484.145H347.292L360.402 522.819L372.991 564.107H373.331L402.301 486.115H411.263Z" fill="#fff"/>
<path d="M624.945 575.085L613.218 598.857H592.181V596.388L648.052 483.327H657.369L712.899 596.388V598.857H692.029L680.128 575.085H624.945ZM631.496 559.031H673.743L652.707 513.145L631.496 559.031Z" fill="#fff"/>
<path d="M937.425 596.062V598.857H917.076L887.063 558.872H860.496V598.857H840.328V484.145H890.168C916.374 484.145 932.075 501.024 932.075 521.501C932.075 537.395 922.071 550.668 906.724 555.918L937.425 596.062ZM889.995 543.13C903.112 543.13 912.58 534.122 912.58 521.675C912.58 509.706 903.278 500.705 889.995 500.705H860.163V543.13H889.995Z" fill="#fff"/>
<path d="M1122.47 484.312C1160.06 484.312 1181.44 511.183 1181.44 541.342C1181.44 571.486 1160.41 598.857 1122.47 598.857H1078.84V484.312H1122.47ZM1122.12 581.486C1147.13 581.486 1161.45 563.13 1161.45 541.501C1161.45 519.88 1146.96 501.524 1122.31 501.524H1098.85V581.493L1122.12 581.486Z" fill="#fff"/>
<path d="M1323.89 566.243C1324.76 579.183 1339.59 583.933 1352.7 583.933C1365.46 583.933 1380.63 580.334 1380.63 566.07C1380.63 550.994 1364.24 549.531 1350.28 548.206C1328.2 546.41 1306.31 539.691 1306.31 516.737C1306.31 493.146 1328.2 481.995 1351.66 481.995C1374.6 481.995 1396.33 491.828 1396.84 515.274H1377.87C1377.01 502.979 1363.38 499.047 1351.48 499.047C1340.45 499.047 1326.13 503.312 1326.13 516.252C1326.13 529.206 1339.75 530.842 1353.73 532.645C1378.22 535.267 1400.63 539.85 1400.63 566.243C1400.63 591.471 1375.62 600.986 1353.04 600.986C1329.41 601.471 1304.75 590.327 1304.23 566.243H1323.89Z" fill="#fff"/>
<path fill-rule="evenodd" clip-rule="evenodd" d="M964.318 2.59949V183.92V365.227H1134.26C1227.96 365.227 1304.18 284.012 1304.18 184.174C1304.18 84.321 1227.96 2.59949 1134.26 2.59949H964.318Z" fill="#fff"/>
<path d="M778.376 2.59949H608.447V183.92V364.293V365.234H778.383C872.078 365.234 948.312 284.02 948.312 184.181C948.305 84.321 872.078 2.59949 778.376 2.59949Z" fill="#fff"/>
</g>
<defs>
<clipPath id="clip0_21_928">
<rect width="1484" height="601" fill="08070B"/>
</clipPath>
</defs>
</svg>
