<?xml version="1.0" standalone="no"?>
<!DOCTYPE svg PUBLIC "-//W3C//DTD SVG 20010904//EN"
 "http://www.w3.org/TR/2001/REC-SVG-20010904/DTD/svg10.dtd">
<svg version="1.0" xmlns="http://www.w3.org/2000/svg"
 width="1299.000000pt" height="472.000000pt" viewBox="0 0 1299.000000 472.000000"
 preserveAspectRatio="xMidYMid meet">

<g transform="translate(0.000000,472.000000) scale(0.100000,-0.100000)"
fill="#000" stroke="none">
<path d="M847 3893 c-4 -3 -7 -26 -7 -50 l0 -43 -74 0 c-78 0 -101 -12 -94
-47 3 -15 16 -19 83 -23 l80 -5 5 -45 c4 -40 8 -45 32 -48 26 -3 27 -1 30 45
l3 48 208 3 208 2 -3 33 -3 32 -207 3 -208 2 0 50 c0 46 -2 50 -23 50 -13 0
-27 -3 -30 -7z"/>
<path d="M3565 3888 c-3 -7 -6 -232 -7 -500 l-3 -488 -25 13 c-14 8 -135 71
-270 142 -135 70 -252 133 -260 140 -8 7 -25 16 -38 19 -12 4 -57 27 -100 50
-70 39 -170 91 -492 259 -63 33 -146 76 -185 97 -68 36 -130 69 -386 204 -69
36 -131 66 -138 66 -8 0 -11 -256 -11 -995 0 -886 2 -995 15 -995 9 0 55 21
103 46 48 26 114 61 147 79 33 17 123 65 200 105 77 40 214 112 305 160 234
124 344 181 605 318 127 66 259 135 295 154 257 138 240 130 240 106 1 -13 0
-230 0 -484 0 -253 2 -468 6 -477 4 -12 18 -17 45 -17 l39 0 -2 1003 -3 1002
-38 3 c-24 2 -39 -1 -42 -10z"/>
<path d="M3950 3275 l0 -465 99 0 98 0 178 305 c97 168 181 308 186 311 5 3 9
-127 9 -305 l0 -311 90 0 90 0 0 465 0 466 -97 -3 -98 -3 -180 -309 -180 -309
-5 309 -5 309 -92 3 -93 3 0 -466z"/>
<path d="M5007 3733 c-4 -3 -7 -47 -7 -97 0 -199 -31 -415 -81 -573 l-30 -93
-39 0 -40 0 0 -180 0 -180 80 0 80 0 0 100 0 100 295 0 295 0 0 -100 0 -100
80 0 80 0 0 180 0 180 -45 0 -45 0 0 385 0 385 -308 0 c-170 0 -312 -3 -315
-7z m433 -458 l0 -305 -180 0 -179 0 15 48 c43 137 73 332 74 468 0 44 3 84 7
87 3 4 64 7 135 7 l128 0 0 -305z"/>
<path d="M5850 3275 l0 -465 350 0 350 0 0 85 0 85 -260 0 -260 0 0 115 0 115
230 0 230 0 0 80 0 80 -230 0 -230 0 0 105 0 105 250 0 251 0 -3 78 -3 77
-337 3 -338 2 0 -465z"/>
<path d="M6690 3275 l0 -465 99 0 98 0 178 305 c97 168 181 308 186 311 5 3 9
-127 9 -305 l0 -311 90 0 90 0 0 465 0 466 -97 -3 -98 -3 -180 -309 -180 -309
-5 309 -5 309 -92 3 -93 3 0 -466z"/>
<path d="M8087 3733 c-4 -3 -7 -47 -7 -97 0 -199 -31 -415 -81 -573 l-30 -93
-39 0 -40 0 0 -180 0 -180 80 0 80 0 0 100 0 100 295 0 295 0 0 -100 0 -100
80 0 80 0 0 180 0 180 -45 0 -45 0 0 385 0 385 -308 0 c-170 0 -312 -3 -315
-7z m433 -458 l0 -305 -180 0 -179 0 15 48 c43 137 73 332 74 468 0 44 3 84 7
87 3 4 64 7 135 7 l128 0 0 -305z"/>
<path d="M9030 3503 c-1 -458 -27 -555 -141 -523 l-29 9 0 -90 c0 -88 0 -89
28 -96 46 -12 135 -7 167 9 107 56 143 183 152 541 l6 227 133 0 134 0 0 -385
0 -385 95 0 95 0 0 465 0 465 -320 0 -320 0 0 -237z"/>
<path d="M10083 3730 c-156 -18 -253 -121 -253 -269 0 -93 55 -185 122 -207
18 -5 15 -9 -21 -31 -54 -32 -77 -80 -91 -189 -13 -109 -26 -183 -35 -206 -7
-16 2 -18 93 -18 117 0 106 -14 123 157 18 189 33 202 241 206 l143 2 3 -182
2 -183 90 0 90 0 0 465 0 465 -222 -1 c-123 -1 -251 -5 -285 -9z m327 -280 l0
-120 -145 0 c-165 0 -204 10 -229 59 -30 57 -13 131 38 162 27 16 51 19 184
19 l152 0 0 -120z"/>
<path d="M11770 3722 c-196 -65 -320 -242 -320 -457 0 -320 288 -538 602 -456
l67 17 62 -88 62 -88 89 0 c69 0 87 3 82 13 -5 6 -45 63 -90 126 l-83 114 38
46 c78 93 111 188 111 322 0 195 -89 342 -258 426 -70 35 -79 37 -190 40 -93
2 -129 -1 -172 -15z m299 -162 c41 -20 102 -83 124 -127 63 -122 37 -312 -56
-405 -58 -59 -119 -82 -212 -83 -92 0 -157 24 -213 78 -122 117 -128 348 -13
479 79 90 255 117 370 58z"/>
<path d="M11130 3270 l0 -460 75 0 75 0 0 460 0 460 -75 0 -75 0 0 -460z"/>
<path d="M921 3539 c-56 -40 -91 -114 -90 -189 0 -101 43 -177 126 -226 41
-23 60 -27 123 -28 80 0 111 11 169 60 88 74 106 234 38 335 -21 32 -80 79
-98 79 -20 0 -8 -58 17 -81 33 -30 63 -94 64 -135 0 -69 -48 -146 -112 -180
-41 -22 -119 -18 -168 9 -113 59 -132 227 -34 302 25 19 34 34 34 56 0 37 -16
37 -69 -2z"/>
<path d="M984 3000 c-97 -38 -153 -120 -154 -223 0 -145 104 -247 252 -247
173 0 285 153 237 323 -17 63 -120 160 -149 142 -20 -13 -9 -42 31 -80 72 -70
88 -144 47 -225 -26 -51 -108 -104 -128 -84 -7 7 -11 70 -11 170 -1 87 -4 177
-8 199 -6 36 -10 40 -36 42 -17 1 -53 -6 -81 -17z m63 -220 c1 -85 -2 -162 -7
-170 -8 -13 -15 -12 -52 8 -87 46 -122 156 -76 237 27 46 83 87 113 83 19 -3
20 -10 22 -158z"/>
<path d="M674 2426 c-14 -37 0 -51 54 -54 l52 -3 0 35 0 36 -50 0 c-35 0 -52
-5 -56 -14z"/>
<path d="M847 2434 c-4 -4 -7 -20 -7 -36 l0 -28 254 0 c246 0 254 -1 287 -23
18 -12 36 -33 39 -47 7 -28 34 -38 55 -20 27 23 -10 97 -67 134 -31 20 -47 21
-293 24 -143 2 -264 0 -268 -4z"/>
<path d="M1006 2265 c-183 -47 -238 -290 -95 -419 100 -90 238 -90 336 -2 133
120 99 344 -63 412 -43 18 -125 22 -178 9z m136 -65 c117 -33 166 -184 91
-278 -45 -56 -86 -74 -164 -70 -54 3 -73 9 -103 31 -91 70 -100 206 -18 280
45 41 125 56 194 37z"/>
<path d="M3997 2074 c-4 -4 -7 -254 -7 -556 l0 -548 120 0 120 0 0 193 0 193
54 53 53 53 172 -246 172 -246 145 0 c110 0 143 3 138 12 -4 6 -95 131 -202
277 -107 146 -210 288 -230 314 l-35 49 221 221 c122 122 222 226 222 230 0 4
-65 7 -144 7 l-144 0 -209 -221 -208 -222 -5 219 -5 219 -111 3 c-60 1 -113
-1 -117 -4z"/>
<path d="M5100 1526 l0 -556 288 0 c368 0 438 15 540 113 73 71 104 208 73
324 -13 48 -78 125 -121 143 l-30 12 45 40 c67 59 79 88 79 188 0 101 -19 146
-88 207 -81 71 -109 76 -468 81 l-318 4 0 -556z m553 355 c86 -14 127 -85 94
-163 -27 -63 -57 -72 -254 -76 l-173 -4 0 126 0 126 143 -1 c78 0 164 -4 190
-8z m64 -444 c42 -22 63 -64 63 -124 0 -58 -26 -105 -72 -130 -27 -15 -63 -19
-210 -21 l-178 -4 0 152 0 152 183 -4 c149 -3 188 -7 214 -21z"/>
<path d="M6509 2053 c-6 -15 -77 -215 -159 -443 -82 -228 -167 -466 -189 -527
l-40 -113 122 0 123 0 37 115 38 115 204 0 204 0 36 -115 36 -115 125 0 c115
0 125 1 120 18 -3 9 -91 258 -195 552 l-189 535 -131 3 -131 3 -11 -28z m210
-452 c34 -107 61 -198 61 -203 0 -4 -61 -8 -135 -8 -91 0 -135 4 -135 11 0 31
134 419 141 408 4 -8 35 -101 68 -208z"/>
<path d="M7330 1525 l0 -555 115 0 115 0 0 200 0 200 163 0 c208 0 270 17 350
95 78 76 111 189 95 324 -10 88 -36 148 -84 196 -80 80 -157 95 -506 95 l-248
0 0 -555z m538 342 c50 -27 72 -71 72 -145 0 -132 -45 -161 -247 -162 l-133 0
0 166 0 166 138 -4 c105 -3 145 -8 170 -21z"/>
<path d="M8250 1985 l0 -95 168 -2 167 -3 3 -457 2 -458 115 0 115 0 0 460 0
460 170 0 171 0 -3 93 -3 92 -452 3 -453 2 0 -95z"/>
<path d="M9589 2053 c-6 -15 -77 -215 -159 -443 -82 -228 -167 -466 -189 -527
l-40 -113 122 0 123 0 37 115 38 115 204 0 204 0 36 -115 36 -115 125 0 c115
0 125 1 120 18 -3 9 -91 258 -195 552 l-189 535 -131 3 -131 3 -11 -28z m210
-452 c34 -107 61 -198 61 -203 0 -4 -61 -8 -135 -8 -91 0 -135 4 -135 11 0 31
134 419 141 408 4 -8 35 -101 68 -208z"/>
<path d="M10527 1723 c-5 -378 -13 -460 -51 -516 -21 -31 -25 -32 -89 -31
l-67 1 0 -102 0 -102 39 -11 c48 -15 124 -15 176 -1 85 24 150 126 181 286 18
94 34 330 34 506 l0 137 160 0 160 0 0 -460 0 -460 115 0 115 0 0 555 0 555
-384 0 -384 0 -5 -357z"/>
<path d="M11819 2053 c-6 -15 -77 -215 -159 -443 -82 -228 -167 -466 -189
-527 l-40 -113 122 0 123 0 37 115 38 115 204 0 204 0 36 -115 36 -115 125 0
c115 0 125 1 120 18 -3 9 -91 258 -195 552 l-189 535 -131 3 -131 3 -11 -28z
m210 -452 c34 -107 61 -198 61 -203 0 -4 -61 -8 -135 -8 -91 0 -135 4 -135 11
0 31 134 419 141 408 4 -8 35 -101 68 -208z"/>
<path d="M830 1736 c0 -13 11 -40 25 -60 30 -44 30 -42 5 -49 -29 -8 -27 -55
3 -62 12 -3 119 -4 237 -3 l215 3 0 30 0 30 -165 5 c-190 6 -209 12 -241 86
-17 38 -24 44 -49 44 -25 0 -30 -4 -30 -24z"/>
<path d="M1655 1737 c-3 -6 -4 -183 -3 -392 l3 -380 88 -3 87 -3 1 178 c2 243
3 263 14 264 5 1 75 -97 155 -217 l145 -219 285 0 284 0 72 108 c81 123 95
139 110 129 6 -4 46 -60 88 -124 l77 -118 94 0 c75 0 95 3 95 14 0 8 -56 98
-125 202 -69 103 -125 194 -125 203 0 8 30 59 67 113 l66 99 91 -3 91 -3 5
-310 5 -310 87 -3 88 -3 2 313 3 313 72 3 c82 3 81 2 73 96 l-5 61 -306 3
-306 2 -67 -100 c-37 -56 -73 -100 -79 -97 -7 2 -41 46 -77 98 l-65 94 -300 0
-300 0 -3 -222 c-1 -123 -6 -223 -10 -222 -4 0 -73 101 -154 225 l-148 224
-85 0 c-59 0 -87 -4 -90 -13z m998 -165 c26 -29 127 -186 127 -197 -1 -5 -36
-62 -79 -125 l-77 -115 -152 -3 -152 -3 0 69 c0 39 5 73 12 80 7 7 44 12 95
12 l84 0 -3 77 -3 77 -80 1 c-44 0 -86 4 -92 8 -13 8 -18 93 -7 121 5 14 29
16 159 16 133 0 154 -2 168 -18z"/>
<path d="M995 1457 c-57 -15 -137 -98 -154 -159 -20 -72 -10 -148 27 -208 34
-54 34 -51 -16 -66 -7 -2 -12 -14 -10 -26 l3 -23 318 -3 c287 -2 318 -1 324
14 15 39 -9 49 -121 52 -58 1 -106 5 -106 7 0 2 14 25 32 50 26 37 33 57 36
111 4 57 1 72 -27 127 -34 67 -71 102 -129 123 -44 15 -121 16 -177 1z m200
-91 c124 -95 86 -290 -65 -326 -74 -18 -139 0 -185 51 -59 66 -71 129 -36 204
34 75 90 106 182 102 55 -2 73 -7 104 -31z"/>
</g>
</svg>
