<svg width="1575" height="394" viewBox="0 0 1575 394" fill="none" xmlns="http://www.w3.org/2000/svg">
<path d="M23.7437 0.93334C23.2103 1.33334 22.8103 4.40001 22.8103 7.60001V13.3333H12.9437C2.54368 13.3333 -0.522988 14.9333 0.410345 19.6C0.810346 21.6 2.54368 22.1333 11.477 22.6667L22.1437 23.3333L22.8103 29.3333C23.3437 34.6667 23.877 35.3333 27.077 35.7333C30.5437 36.1333 30.677 35.8667 31.077 29.7333L31.477 23.3333L59.2104 22.9333L86.9437 22.6667L86.5437 18.2667L86.1437 14L58.5437 13.6L30.8103 13.3333V6.66667C30.8103 0.53334 30.5437 6.26808e-06 27.7437 6.26808e-06C26.0103 6.26808e-06 24.1437 0.400006 23.7437 0.93334Z" fill="black"/>
<path d="M386.143 1.59993C385.743 2.53326 385.343 32.5333 385.21 68.2666L384.81 133.333L381.477 131.6C379.61 130.533 363.477 122.133 345.477 112.667C327.477 103.333 311.877 94.9333 310.81 93.9999C309.743 93.0666 307.477 91.8666 305.743 91.4666C304.143 90.9333 298.143 87.8666 292.41 84.7999C283.077 79.5999 269.743 72.6666 226.81 50.2666C218.41 45.8666 207.343 40.1333 202.143 37.3333C193.077 32.5333 184.81 28.1333 150.677 10.1333C141.477 5.33326 133.21 1.33326 132.277 1.33326C131.21 1.33326 130.81 35.4666 130.81 134C130.81 252.133 131.077 266.667 132.81 266.667C134.01 266.667 140.143 263.867 146.543 260.533C152.943 257.067 161.743 252.4 166.143 250C170.543 247.733 182.543 241.333 192.81 236C203.077 230.667 221.343 221.067 233.477 214.667C264.677 198.133 279.343 190.533 314.143 172.267C331.077 163.467 348.677 154.267 353.477 151.733C387.743 133.333 385.477 134.4 385.477 137.6C385.61 139.333 385.477 168.267 385.477 202.133C385.477 235.867 385.743 264.533 386.277 265.733C386.81 267.333 388.677 268 392.277 268H397.477L397.21 134.267L396.81 0.666592L391.743 0.266592C388.543 -7.50124e-05 386.543 0.399925 386.143 1.59993Z" fill="black"/>
<path d="M437.477 83.3333V145.333H450.677H463.743L487.477 104.667C500.41 82.2666 511.61 63.5999 512.277 63.1999C512.943 62.7999 513.477 80.1333 513.477 103.867V145.333H525.477H537.477V83.3333V21.1999L524.543 21.5999L511.477 21.9999L487.477 63.1999L463.477 104.4L462.81 63.1999L462.143 21.9999L449.877 21.5999L437.477 21.1999V83.3333Z" fill="black"/>
<path d="M578.41 22.2667C577.877 22.6667 577.477 28.5333 577.477 35.2C577.477 61.7333 573.344 90.5333 566.677 111.6L562.677 124H557.477H552.144V148V172H562.81H573.477V158.667V145.333H612.81H652.144V158.667V172H662.81H673.477V148V124H667.477H661.477V72.6667V21.3333H620.41C597.744 21.3333 578.81 21.7333 578.41 22.2667ZM636.144 83.3333V124H612.144H588.277L590.277 117.6C596.01 99.3333 600.01 73.3333 600.144 55.2C600.144 49.3333 600.544 44 601.077 43.6C601.477 43.0667 609.61 42.6667 619.077 42.6667H636.144V83.3333Z" fill="black"/>
<path d="M690.81 83.3332V145.333H737.477H784.143V134V122.667H749.477H714.81V107.333V91.9999H745.477H776.143V81.3332V70.6666H745.477H714.81V56.6666V42.6666H748.143H781.61L781.21 32.2666L780.81 21.9999L735.877 21.5999L690.81 21.3332V83.3332Z" fill="black"/>
<path d="M802.81 83.3333V145.333H816.01H829.077L852.81 104.667C865.743 82.2666 876.943 63.5999 877.61 63.1999C878.277 62.7999 878.81 80.1333 878.81 103.867V145.333H890.81H902.81V83.3333V21.1999L889.877 21.5999L876.81 21.9999L852.81 63.1999L828.81 104.4L828.143 63.1999L827.477 21.9999L815.21 21.5999L802.81 21.1999V83.3333Z" fill="black"/>
<path d="M989.077 22.2667C988.543 22.6667 988.143 28.5333 988.143 35.2C988.143 61.7333 984.01 90.5333 977.343 111.6L973.343 124H968.143H962.81V148V172H973.477H984.143V158.667V145.333H1023.48H1062.81V158.667V172H1073.48H1084.14V148V124H1078.14H1072.14V72.6667V21.3333H1031.08C1008.41 21.3333 989.477 21.7333 989.077 22.2667ZM1046.81 83.3333V124H1022.81H998.943L1000.94 117.6C1006.68 99.3333 1010.68 73.3333 1010.81 55.2C1010.81 49.3333 1011.21 44 1011.74 43.6C1012.14 43.0667 1020.28 42.6667 1029.74 42.6667H1046.81V83.3333Z" fill="black"/>
<path d="M1114.81 52.9333C1114.68 114 1111.21 126.933 1096.01 122.667L1092.14 121.467V133.467C1092.14 145.2 1092.14 145.333 1095.88 146.267C1102.01 147.867 1113.88 147.2 1118.14 145.067C1132.41 137.6 1137.21 120.667 1138.41 72.9333L1139.21 42.6666H1156.94H1174.81V93.9999V145.333H1187.48H1200.14V83.3333V21.3333H1157.48H1114.81V52.9333Z" fill="black"/>
<path d="M1255.21 22.6666C1234.41 25.0666 1221.48 38.7999 1221.48 58.5333C1221.48 70.9333 1228.81 83.1999 1237.74 86.1333C1240.14 86.7999 1239.74 87.3333 1234.94 90.2666C1227.74 94.5333 1224.68 100.933 1222.81 115.467C1221.08 130 1219.34 139.867 1218.14 142.933C1217.21 145.067 1218.41 145.333 1230.54 145.333C1246.14 145.333 1244.68 147.2 1246.94 124.4C1249.34 99.1999 1251.34 97.4666 1279.08 96.9333L1298.14 96.6666L1298.54 120.933L1298.81 145.333H1310.81H1322.81V83.3333V21.3333L1293.21 21.4666C1276.81 21.5999 1259.74 22.1333 1255.21 22.6666ZM1298.81 59.9999V75.9999H1279.48C1257.48 75.9999 1252.28 74.6666 1248.94 68.1333C1244.94 60.5333 1247.21 50.6666 1254.01 46.5333C1257.61 44.3999 1260.81 43.9999 1278.54 43.9999H1298.81V59.9999Z" fill="black"/>
<path d="M1480.14 23.7333C1454.01 32.4 1437.48 56 1437.48 84.6666C1437.48 127.333 1475.88 156.4 1517.74 145.467L1526.68 143.2L1534.94 154.933L1543.21 166.667H1555.08C1564.28 166.667 1566.68 166.267 1566.01 164.933C1565.34 164.133 1560.01 156.533 1554.01 148.133L1542.94 132.933L1548.01 126.8C1558.41 114.4 1562.81 101.733 1562.81 83.8666C1562.81 57.8666 1550.94 38.2666 1528.41 27.0666C1519.08 22.4 1517.88 22.1333 1503.08 21.7333C1490.68 21.4666 1485.88 21.8666 1480.14 23.7333ZM1520.01 45.3333C1525.48 48 1533.61 56.4 1536.54 62.2666C1544.94 78.5333 1541.48 103.867 1529.08 116.267C1521.34 124.133 1513.21 127.2 1500.81 127.333C1488.54 127.333 1479.88 124.133 1472.41 116.933C1456.14 101.333 1455.34 70.5333 1470.68 53.0666C1481.21 41.0666 1504.68 37.4666 1520.01 45.3333Z" fill="black"/>
<path d="M1394.81 83.9999V145.333H1404.81H1414.81V83.9999V22.6666H1404.81H1394.81V83.9999Z" fill="black"/>
<path d="M33.6102 48.1333C26.1435 53.4666 21.4769 63.3333 21.6102 73.3333C21.6102 86.8 27.3435 96.9333 38.4102 103.467C43.8769 106.533 46.4102 107.067 54.8102 107.2C65.4769 107.2 69.6102 105.733 77.3435 99.2C89.0769 89.3333 91.4769 67.9999 82.4102 54.5333C79.6102 50.2666 71.7435 43.9999 69.3435 43.9999C66.6769 43.9999 68.2769 51.7333 71.6102 54.7999C76.0102 58.7999 80.0102 67.3333 80.1435 72.7999C80.1435 81.9999 73.7435 92.2666 65.2102 96.8C59.7435 99.7333 49.3435 99.2 42.8102 95.6C27.7435 87.7333 25.2102 65.3333 38.2769 55.3333C41.6102 52.7999 42.8102 50.7999 42.8102 47.8666C42.8102 42.9333 40.6769 42.9333 33.6102 48.1333Z" fill="black"/>
<path d="M42.0101 120C29.0768 125.067 21.6101 136 21.4768 149.733C21.4768 169.067 35.3435 182.667 55.0768 182.667C78.1435 182.667 93.0768 162.267 86.6768 139.6C84.4101 131.2 70.6768 118.267 66.8101 120.667C64.1435 122.4 65.6101 126.267 70.9435 131.333C80.5435 140.667 82.6768 150.533 77.2101 161.333C73.7435 168.133 62.8101 175.2 60.1435 172.533C59.2101 171.6 58.6768 163.2 58.6768 149.867C58.5435 138.267 58.1435 126.267 57.6101 123.333C56.8101 118.533 56.2768 118 52.8101 117.733C50.5435 117.6 45.7435 118.533 42.0101 120ZM50.4101 149.333C50.5435 160.667 50.1435 170.933 49.4768 172C48.4101 173.733 47.4768 173.6 42.5435 170.933C30.9435 164.8 26.2768 150.133 32.4101 139.333C36.0101 133.2 43.4768 127.733 47.4768 128.267C50.0101 128.667 50.1435 129.6 50.4101 149.333Z" fill="black"/>
<path d="M0.676817 196.533C-1.18985 201.467 0.676817 203.333 7.87682 203.733L14.8102 204.133V199.467V194.667H8.14348C3.47682 194.667 1.21015 195.333 0.676817 196.533Z" fill="black"/>
<path d="M23.7434 195.467C23.2101 196 22.8101 198.133 22.8101 200.267V204H56.6767C89.4767 204 90.5434 204.133 94.9434 207.067C97.3434 208.667 99.7434 211.467 100.143 213.333C101.077 217.067 104.677 218.4 107.477 216C111.077 212.933 106.143 203.067 98.5434 198.133C94.4101 195.467 92.2767 195.333 59.4767 194.933C40.4101 194.667 24.2767 194.933 23.7434 195.467Z" fill="black"/>
<path d="M44.9435 218C20.5435 224.267 13.2102 256.667 32.2769 273.867C45.6102 285.867 64.0102 285.867 77.0769 274.133C94.8102 258.133 90.2769 228.267 68.6769 219.2C62.9435 216.8 52.0102 216.267 44.9435 218ZM63.0769 226.667C78.6769 231.067 85.2102 251.2 75.2102 263.733C69.2102 271.2 63.7435 273.6 53.3435 273.067C46.1435 272.667 43.6102 271.867 39.6102 268.933C27.4769 259.6 26.2769 241.467 37.2102 231.6C43.2102 226.133 53.8769 224.133 63.0769 226.667Z" fill="black"/>
<path d="M443.743 243.467C443.21 244 442.81 277.333 442.81 317.6V390.667H458.81H474.81V364.933V339.2L482.01 332.133L489.077 325.067L512.01 357.867L534.943 390.667H554.277C568.943 390.667 573.343 390.267 572.677 389.067C572.143 388.267 560.01 371.6 545.743 352.133C531.477 332.667 517.743 313.733 515.077 310.267L510.41 303.733L539.877 274.267C556.143 258 569.477 244.133 569.477 243.6C569.477 243.067 560.81 242.667 550.277 242.667H531.077L503.21 272.133L475.477 301.733L474.81 272.533L474.143 243.333L459.343 242.933C451.343 242.8 444.277 243.067 443.743 243.467Z" fill="black"/>
<path d="M590.81 316.533V390.667H629.21C678.277 390.667 687.61 388.667 701.21 375.6C710.943 366.133 715.077 347.867 710.943 332.4C709.21 326 700.543 315.733 694.81 313.333L690.81 311.733L696.81 306.4C705.743 298.533 707.343 294.667 707.343 281.333C707.343 267.867 704.81 261.867 695.61 253.733C684.81 244.267 681.077 243.6 633.21 242.933L590.81 242.4V316.533ZM664.543 269.2C676.01 271.067 681.477 280.533 677.077 290.933C673.477 299.333 669.477 300.533 643.21 301.067L620.143 301.6V284.8V268L639.21 268.133C649.61 268.133 661.077 268.667 664.543 269.2ZM673.077 328.4C678.677 331.333 681.477 336.933 681.477 344.933C681.477 352.667 678.01 358.933 671.877 362.267C668.277 364.267 663.477 364.8 643.877 365.067L620.143 365.6V345.333V325.067L644.543 325.6C664.41 326 669.61 326.533 673.077 328.4Z" fill="black"/>
<path d="M778.677 246.267C777.877 248.267 768.41 274.933 757.477 305.333C746.543 335.733 735.21 367.467 732.277 375.6L726.943 390.667H743.21H759.61L764.543 375.333L769.61 360H796.81H824.01L828.81 375.333L833.61 390.667H850.277C865.61 390.667 866.943 390.533 866.277 388.267C865.877 387.067 854.143 353.867 840.277 314.667L815.077 243.333L797.61 242.933L780.143 242.533L778.677 246.267ZM806.677 306.533C811.21 320.8 814.81 332.933 814.81 333.6C814.81 334.133 806.677 334.667 796.81 334.667C784.677 334.667 778.81 334.133 778.81 333.2C778.81 329.067 796.677 277.333 797.61 278.8C798.143 279.867 802.277 292.267 806.677 306.533Z" fill="black"/>
<path d="M888.144 316.667V390.667H903.477H918.81V364V337.333H940.544C968.277 337.333 976.544 335.067 987.21 324.667C997.61 314.533 1002.01 299.467 999.877 281.467C998.544 269.733 995.077 261.733 988.677 255.333C978.01 244.667 967.744 242.667 921.21 242.667H888.144V316.667ZM959.877 271.067C966.544 274.667 969.477 280.533 969.477 290.4C969.477 308 963.477 311.867 936.544 312H918.81V289.867V267.733L937.21 268.267C951.21 268.667 956.544 269.333 959.877 271.067Z" fill="black"/>
<path d="M1010.81 255.333V268L1033.21 268.267L1055.48 268.667L1055.88 329.6L1056.14 390.667H1071.48H1086.81V329.333V268H1109.48H1132.28L1131.88 255.6L1131.48 243.333L1071.21 242.933L1010.81 242.667V255.333Z" fill="black"/>
<path d="M1189.34 246.267C1188.54 248.267 1179.08 274.933 1168.14 305.333C1157.21 335.733 1145.88 367.467 1142.94 375.6L1137.61 390.667H1153.88H1170.28L1175.21 375.333L1180.28 360H1207.48H1234.68L1239.48 375.333L1244.28 390.667H1260.94C1276.28 390.667 1277.61 390.533 1276.94 388.267C1276.54 387.067 1264.81 353.867 1250.94 314.667L1225.74 243.333L1208.28 242.933L1190.81 242.533L1189.34 246.267ZM1217.34 306.533C1221.88 320.8 1225.48 332.933 1225.48 333.6C1225.48 334.133 1217.34 334.667 1207.48 334.667C1195.34 334.667 1189.48 334.133 1189.48 333.2C1189.48 329.067 1207.34 277.333 1208.28 278.8C1208.81 279.867 1212.94 292.267 1217.34 306.533Z" fill="black"/>
<path d="M1314.41 290.267C1313.74 340.667 1312.68 351.6 1307.61 359.067C1304.81 363.2 1304.28 363.333 1295.74 363.2L1286.81 363.067V376.667V390.267L1292.01 391.733C1298.41 393.733 1308.54 393.733 1315.48 391.867C1326.81 388.667 1335.48 375.067 1339.61 353.733C1342.01 341.2 1344.14 309.733 1344.14 286.267V268H1365.48H1386.81V329.333V390.667H1402.14H1417.48V316.667V242.667H1366.28H1315.08L1314.41 290.267Z" fill="black"/>
<path d="M1486.68 246.267C1485.88 248.267 1476.41 274.933 1465.48 305.333C1454.54 335.733 1443.21 367.467 1440.28 375.6L1434.94 390.667H1451.21H1467.61L1472.54 375.333L1477.61 360H1504.81H1532.01L1536.81 375.333L1541.61 390.667H1558.28C1573.61 390.667 1574.94 390.533 1574.28 388.267C1573.88 387.067 1562.14 353.867 1548.28 314.667L1523.08 243.333L1505.61 242.933L1488.14 242.533L1486.68 246.267ZM1514.68 306.533C1519.21 320.8 1522.81 332.933 1522.81 333.6C1522.81 334.133 1514.68 334.667 1504.81 334.667C1492.68 334.667 1486.81 334.133 1486.81 333.2C1486.81 329.067 1504.68 277.333 1505.61 278.8C1506.14 279.867 1510.28 292.267 1514.68 306.533Z" fill="black"/>
<path d="M21.4768 288.533C21.4768 290.267 22.9435 293.867 24.8101 296.533C28.8101 302.4 28.8101 302.133 25.4768 303.067C21.6101 304.133 21.8768 310.4 25.8768 311.333C27.4768 311.733 41.7435 311.867 57.4768 311.733L86.1435 311.333V307.333V303.333L64.1435 302.667C38.8101 301.867 36.2768 301.067 32.0101 291.2C29.7435 286.133 28.8101 285.333 25.4768 285.333C22.1435 285.333 21.4768 285.867 21.4768 288.533Z" fill="black"/>
<path d="M131.477 288.4C131.077 289.2 130.944 312.8 131.077 340.667L131.477 391.333L143.21 391.733L154.81 392.133L154.944 368.4C155.21 336 155.344 333.333 156.81 333.2C157.477 333.067 166.81 346.133 177.477 362.133L196.81 391.333H234.81H272.677L282.277 376.933C293.077 360.533 294.944 358.4 296.944 359.733C297.744 360.267 303.077 367.733 308.677 376.267L318.944 392H331.477C341.477 392 344.144 391.6 344.144 390.133C344.144 389.067 336.677 377.067 327.477 363.2C318.277 349.467 310.81 337.333 310.81 336.133C310.81 335.067 314.81 328.267 319.744 321.067L328.544 307.867L340.677 308.267L352.81 308.667L353.477 350L354.144 391.333L365.744 391.733L377.477 392.133L377.744 350.4L378.144 308.667L387.744 308.267C398.677 307.867 398.544 308 397.477 295.467L396.81 287.333L356.01 286.933L315.21 286.667L306.277 300C301.344 307.467 296.544 313.333 295.744 312.933C294.81 312.667 290.277 306.8 285.477 299.867L276.81 287.333H236.81H196.81L196.41 316.933C196.277 333.333 195.61 346.667 195.077 346.533C194.544 346.533 185.344 333.067 174.544 316.533L154.81 286.667H143.477C135.61 286.667 131.877 287.2 131.477 288.4ZM264.544 310.4C268.01 314.267 281.477 335.2 281.477 336.667C281.344 337.333 276.677 344.933 270.944 353.333L260.677 368.667L240.41 369.067L220.144 369.467V360.267C220.144 355.067 220.81 350.533 221.744 349.6C222.677 348.667 227.61 348 234.41 348H245.61L245.21 337.733L244.81 327.467L234.144 327.333C228.277 327.333 222.677 326.8 221.877 326.267C220.144 325.2 219.477 313.867 220.944 310.133C221.61 308.267 224.81 308 242.144 308C259.877 308 262.677 308.267 264.544 310.4Z" fill="black"/>
<path d="M43.4768 325.733C35.8768 327.733 25.2102 338.8 22.9435 346.933C20.2768 356.533 21.6102 366.667 26.5435 374.667C31.0768 381.867 31.0768 381.467 24.4102 383.467C23.4768 383.733 22.8102 385.333 23.0768 386.933L23.4768 390L65.8768 390.4C104.144 390.667 108.277 390.533 109.077 388.533C111.077 383.333 107.877 382 92.9435 381.6C85.2102 381.467 78.8102 380.933 78.8102 380.667C78.8102 380.4 80.6768 377.333 83.0768 374C86.5435 369.067 87.4768 366.4 87.8768 359.2C88.4102 351.6 88.0102 349.6 84.2768 342.267C79.7435 333.333 74.8102 328.667 67.0768 325.867C61.2102 323.867 50.9435 323.733 43.4768 325.733ZM70.1435 337.867C86.6768 350.533 81.6102 376.533 61.4768 381.333C51.6102 383.733 42.9435 381.333 36.8102 374.533C28.9435 365.733 27.3435 357.333 32.0102 347.333C36.5435 337.333 44.0102 333.2 56.2768 333.733C63.6102 334 66.0102 334.667 70.1435 337.867Z" fill="black"/>
</svg>
