<?xml version="1.0" standalone="no"?>
<!DOCTYPE svg PUBLIC "-//W3C//DTD SVG 20010904//EN"
 "http://www.w3.org/TR/2001/REC-SVG-20010904/DTD/svg10.dtd">
<svg version="1.0" xmlns="http://www.w3.org/2000/svg"
 width="1181.000000pt" height="472.000000pt" viewBox="0 0 1181.000000 472.000000"
 preserveAspectRatio="xMidYMid meet">

<g transform="translate(0.000000,472.000000) scale(0.100000,-0.100000)"
fill="#fff" stroke="none">
<path d="M1347 3873 c-4 -3 -7 -26 -7 -50 l0 -43 -74 0 c-78 0 -101 -12 -94
-47 3 -15 16 -19 83 -23 l80 -5 5 -45 c4 -40 8 -45 32 -48 26 -3 27 -1 30 45
l3 48 208 3 208 2 -3 33 -3 32 -207 3 -208 2 0 50 c0 46 -2 50 -23 50 -13 0
-27 -3 -30 -7z"/>
<path d="M4065 3868 c-3 -7 -6 -232 -7 -500 l-3 -488 -25 13 c-14 8 -135 71
-270 142 -135 70 -252 133 -260 140 -8 7 -25 16 -38 19 -12 4 -57 27 -100 50
-70 39 -170 91 -492 259 -63 33 -146 76 -185 97 -68 36 -130 69 -386 204 -69
36 -131 66 -138 66 -8 0 -11 -256 -11 -995 0 -886 2 -995 15 -995 9 0 55 21
103 46 48 26 114 61 147 79 33 17 123 65 200 105 77 40 214 112 305 160 234
124 344 181 605 318 127 66 259 135 295 154 257 138 240 130 240 106 1 -13 0
-230 0 -484 0 -253 2 -468 6 -477 4 -12 18 -17 45 -17 l39 0 -2 1003 -3 1002
-38 3 c-24 2 -39 -1 -42 -10z"/>
<path d="M4675 3867 c-149 -50 -228 -148 -227 -282 1 -73 21 -127 65 -173 47
-49 94 -70 243 -107 73 -19 146 -41 163 -49 44 -23 71 -63 71 -105 0 -52 -20
-83 -70 -111 -38 -21 -58 -25 -130 -25 -62 0 -94 5 -117 18 -49 26 -82 67 -95
115 l-10 42 -79 0 -79 0 0 -28 c0 -44 26 -120 56 -163 56 -81 186 -139 314
-139 64 0 173 25 227 52 57 29 126 104 141 156 41 137 -12 268 -132 327 -29
14 -112 41 -184 60 -156 40 -188 55 -209 99 -42 90 38 176 165 176 100 0 170
-47 192 -130 l11 -40 81 0 81 0 -7 46 c-14 108 -79 195 -178 240 -53 23 -79
28 -158 31 -60 2 -110 -2 -135 -10z"/>
<path d="M8628 3865 c-110 -30 -216 -107 -276 -203 -96 -150 -105 -378 -20
-545 41 -82 131 -170 210 -207 167 -78 387 -51 499 61 l39 39 0 -65 0 -65 75
0 75 0 0 270 0 270 -210 0 -210 0 0 -80 0 -80 131 0 131 0 -7 -27 c-32 -135
-144 -215 -300 -215 -74 0 -125 15 -181 53 -108 73 -161 260 -120 417 42 156
159 240 320 230 120 -8 207 -62 248 -155 l19 -43 91 0 c74 0 89 3 85 14 -3 8
-11 32 -16 53 -34 124 -180 250 -329 282 -69 14 -194 13 -254 -4z"/>
<path d="M5350 3370 l0 -490 80 0 80 0 0 133 1 132 84 90 c68 73 86 88 97 77
7 -7 78 -106 158 -220 l146 -207 102 -3 c56 -1 102 0 102 3 0 3 -90 132 -199
287 l-200 282 142 149 c78 81 163 172 188 200 l46 51 15 -24 c9 -14 91 -155
182 -314 l166 -289 0 -174 0 -173 85 0 85 0 0 174 0 173 180 313 c99 172 180
314 180 317 0 2 -44 2 -97 1 l-97 -3 -123 -225 c-68 -124 -126 -224 -130 -223
-3 1 -61 102 -129 225 l-122 223 -204 2 -203 3 -131 -148 c-184 -205 -305
-336 -315 -340 -5 -2 -9 107 -9 242 l0 246 -80 0 -80 0 0 -490z"/>
<path d="M7180 3370 l0 -490 310 0 310 0 0 75 0 75 -227 2 -228 3 -3 413 -2
412 -80 0 -80 0 0 -490z"/>
<path d="M7930 3370 l0 -490 80 0 80 0 0 490 0 490 -80 0 -80 0 0 -490z"/>
<path d="M9450 3370 l0 -490 80 0 80 0 0 210 0 210 235 0 235 0 0 -210 0 -210
85 0 85 0 0 490 0 490 -85 0 -85 0 0 -200 0 -200 -235 0 -235 0 0 200 0 200
-80 0 -80 0 0 -490z"/>
<path d="M10380 3780 l0 -80 140 0 140 0 0 -410 0 -410 85 0 85 0 0 410 0 409
143 3 142 3 3 78 3 77 -371 0 -370 0 0 -80z"/>
<path d="M1421 3519 c-56 -40 -91 -114 -90 -189 0 -101 43 -177 126 -226 41
-23 60 -27 123 -28 80 0 111 11 169 60 88 74 106 234 38 335 -21 32 -80 79
-98 79 -20 0 -8 -58 17 -81 33 -30 63 -94 64 -135 0 -69 -48 -146 -112 -180
-41 -22 -119 -18 -168 9 -113 59 -132 227 -34 302 25 19 34 34 34 56 0 37 -16
37 -69 -2z"/>
<path d="M1484 2980 c-97 -38 -153 -120 -154 -223 0 -145 104 -247 252 -247
173 0 285 153 237 323 -17 63 -120 160 -149 142 -20 -13 -9 -42 31 -80 72 -70
88 -144 47 -225 -26 -51 -108 -104 -128 -84 -7 7 -11 70 -11 170 -1 87 -4 177
-8 199 -6 36 -10 40 -36 42 -17 1 -53 -6 -81 -17z m63 -220 c1 -85 -2 -162 -7
-170 -8 -13 -15 -12 -52 8 -87 46 -122 156 -76 237 27 46 83 87 113 83 19 -3
20 -10 22 -158z"/>
<path d="M1174 2406 c-14 -37 0 -51 54 -54 l52 -3 0 35 0 36 -50 0 c-35 0 -52
-5 -56 -14z"/>
<path d="M1347 2414 c-4 -4 -7 -20 -7 -36 l0 -28 254 0 c246 0 254 -1 287 -23
18 -12 36 -33 39 -47 7 -28 34 -38 55 -20 27 23 -10 97 -67 134 -31 20 -47 21
-293 24 -143 2 -264 0 -268 -4z"/>
<path d="M1506 2245 c-183 -47 -238 -290 -95 -419 100 -90 238 -90 336 -2 133
120 99 344 -63 412 -43 18 -125 22 -178 9z m136 -65 c117 -33 166 -184 91
-278 -45 -56 -86 -74 -164 -70 -54 3 -73 9 -103 31 -91 70 -100 206 -18 280
45 41 125 56 194 37z"/>
<path d="M7135 1957 c-149 -50 -228 -148 -227 -282 1 -73 21 -127 65 -173 47
-49 94 -70 243 -107 73 -19 146 -41 163 -49 44 -23 71 -63 71 -105 0 -52 -20
-83 -70 -111 -38 -21 -58 -25 -130 -25 -62 0 -94 5 -117 18 -49 26 -82 67 -95
115 l-10 42 -79 0 -79 0 0 -28 c0 -44 26 -120 56 -163 56 -81 186 -139 314
-139 64 0 173 25 227 52 57 29 126 104 141 156 41 137 -12 268 -132 327 -29
14 -112 41 -184 60 -156 40 -188 55 -209 99 -42 90 38 176 165 176 100 0 170
-47 192 -130 l11 -40 81 0 81 0 -7 46 c-14 108 -79 195 -178 240 -53 23 -79
28 -158 31 -60 2 -110 -2 -135 -10z"/>
<path d="M9048 1955 c-110 -30 -216 -107 -276 -203 -96 -150 -105 -378 -20
-545 41 -82 131 -170 210 -207 167 -78 387 -51 499 61 l39 39 0 -65 0 -65 75
0 75 0 0 270 0 270 -210 0 -210 0 0 -80 0 -80 131 0 131 0 -7 -27 c-32 -135
-144 -215 -300 -215 -74 0 -125 15 -181 53 -108 73 -161 260 -120 417 42 156
159 240 320 230 120 -8 207 -62 248 -155 l19 -43 91 0 c74 0 89 3 85 14 -3 8
-11 32 -16 53 -34 124 -180 250 -329 282 -69 14 -194 13 -254 -4z"/>
<path d="M4470 1460 l0 -492 233 4 c202 4 241 8 297 26 179 59 294 197 319
384 26 188 -37 363 -162 457 -126 94 -164 103 -449 108 l-238 5 0 -492z m466
316 c63 -20 126 -64 158 -113 57 -87 70 -237 29 -347 -23 -62 -89 -131 -150
-157 -54 -23 -193 -42 -280 -37 l-58 3 -3 325 c-1 179 0 331 3 339 5 11 28 13
128 8 67 -3 145 -13 173 -21z"/>
<path d="M5780 1460 l0 -490 345 0 345 0 0 75 0 75 -262 2 -263 3 -3 133 -3
132 251 0 250 0 0 80 0 80 -250 0 -251 0 3 123 3 122 263 3 262 2 0 75 0 75
-345 0 -345 0 0 -490z"/>
<path d="M8080 1460 l0 -490 80 0 80 0 0 490 0 490 -80 0 -80 0 0 -490z"/>
<path d="M10140 1460 l0 -490 80 0 80 0 2 349 3 349 235 -349 235 -348 88 -1
87 0 0 490 0 490 -85 0 -85 0 -2 -346 -3 -346 -234 346 -234 346 -83 0 -84 0
0 -490z"/>
<path d="M1330 1716 c0 -13 11 -40 25 -60 30 -44 30 -42 5 -49 -29 -8 -27 -55
3 -62 12 -3 119 -4 237 -3 l215 3 0 30 0 30 -165 5 c-190 6 -209 12 -241 86
-17 38 -24 44 -49 44 -25 0 -30 -4 -30 -24z"/>
<path d="M2155 1717 c-3 -6 -4 -183 -3 -392 l3 -380 88 -3 87 -3 1 178 c2 243
3 263 14 264 5 1 75 -97 155 -217 l145 -219 285 0 284 0 72 108 c81 123 95
139 110 129 6 -4 46 -60 88 -124 l77 -118 94 0 c75 0 95 3 95 14 0 8 -56 98
-125 202 -69 103 -125 194 -125 203 0 8 30 59 67 113 l66 99 91 -3 91 -3 5
-310 5 -310 87 -3 88 -3 2 313 3 313 72 3 c82 3 81 2 73 96 l-5 61 -306 3
-306 2 -67 -100 c-37 -56 -73 -100 -79 -97 -7 2 -41 46 -77 98 l-65 94 -300 0
-300 0 -3 -222 c-1 -123 -6 -223 -10 -222 -4 0 -73 101 -154 225 l-148 224
-85 0 c-59 0 -87 -4 -90 -13z m998 -165 c26 -29 127 -186 127 -197 -1 -5 -36
-62 -79 -125 l-77 -115 -152 -3 -152 -3 0 69 c0 39 5 73 12 80 7 7 44 12 95
12 l84 0 -3 77 -3 77 -80 1 c-44 0 -86 4 -92 8 -13 8 -18 93 -7 121 5 14 29
16 159 16 133 0 154 -2 168 -18z"/>
<path d="M1495 1437 c-57 -15 -137 -98 -154 -159 -20 -72 -10 -148 27 -208 34
-54 34 -51 -16 -66 -7 -2 -12 -14 -10 -26 l3 -23 318 -3 c287 -2 318 -1 324
14 15 39 -9 49 -121 52 -58 1 -106 5 -106 7 0 2 14 25 32 50 26 37 33 57 36
111 4 57 1 72 -27 127 -34 67 -71 102 -129 123 -44 15 -121 16 -177 1z m200
-91 c124 -95 86 -290 -65 -326 -74 -18 -139 0 -185 51 -59 66 -71 129 -36 204
34 75 90 106 182 102 55 -2 73 -7 104 -31z"/>
</g>
</svg>
