<svg width="1327" height="393" viewBox="0 0 1327 393" fill="none" xmlns="http://www.w3.org/2000/svg">
<path d="M23.7434 0.93334C23.2101 1.33334 22.8101 4.40001 22.8101 7.60001V13.3333H12.9434C2.54343 13.3333 -0.523232 14.9333 0.410101 19.6C0.810101 21.6 2.54343 22.1333 11.4768 22.6667L22.1434 23.3333L22.8101 29.3333C23.3434 34.6667 23.8768 35.3333 27.0768 35.7333C30.5434 36.1333 30.6768 35.8667 31.0768 29.7333L31.4768 23.3333L59.2101 22.9333L86.9434 22.6667L86.5434 18.2667L86.1434 14L58.5434 13.6L30.8101 13.3333V6.66667C30.8101 0.53334 30.5434 6.26808e-06 27.7434 6.26808e-06C26.0101 6.26808e-06 24.1434 0.400006 23.7434 0.93334Z" fill="black"/>
<path d="M386.143 1.59999C385.743 2.53332 385.343 32.5333 385.21 68.2667L384.81 133.333L381.477 131.6C379.61 130.533 363.477 122.133 345.477 112.667C327.477 103.333 311.877 94.9333 310.81 94C309.743 93.0667 307.477 91.8667 305.743 91.4667C304.143 90.9333 298.143 87.8667 292.41 84.8C283.077 79.6 269.743 72.6667 226.81 50.2667C218.41 45.8667 207.343 40.1333 202.143 37.3333C193.077 32.5333 184.81 28.1333 150.677 10.1333C141.477 5.33332 133.21 1.33332 132.277 1.33332C131.21 1.33332 130.81 35.4667 130.81 134C130.81 252.133 131.077 266.667 132.81 266.667C134.01 266.667 140.143 263.867 146.543 260.533C152.943 257.067 161.743 252.4 166.143 250C170.543 247.733 182.543 241.333 192.81 236C203.077 230.667 221.343 221.067 233.477 214.667C264.677 198.133 279.343 190.533 314.143 172.267C331.077 163.467 348.677 154.267 353.477 151.733C387.743 133.333 385.477 134.4 385.477 137.6C385.61 139.333 385.477 168.267 385.477 202.133C385.477 235.867 385.743 264.533 386.277 265.733C386.81 267.333 388.677 268 392.277 268H397.477L397.21 134.267L396.81 0.666653L391.743 0.266653C388.543 -1.39773e-05 386.543 0.399986 386.143 1.59999Z" fill="black"/>
<path d="M467.477 1.73333C447.61 8.39999 437.077 21.4667 437.21 39.3333C437.344 49.0667 440.01 56.2667 445.877 62.4C452.144 68.9333 458.41 71.7333 478.277 76.6667C488.01 79.2 497.744 82.1333 500.01 83.2C505.877 86.2667 509.477 91.6 509.477 97.2C509.477 104.133 506.81 108.267 500.144 112C495.077 114.8 492.41 115.333 482.81 115.333C474.544 115.333 470.277 114.667 467.21 112.933C460.677 109.467 456.277 104 454.544 97.6L453.21 92H442.677H432.144V95.7333C432.144 101.6 435.61 111.733 439.61 117.467C447.077 128.267 464.41 136 481.477 136C490.01 136 504.544 132.667 511.744 129.067C519.344 125.2 528.544 115.2 530.544 108.267C536.01 90 528.944 72.5333 512.944 64.6667C509.077 62.8 498.01 59.2 488.41 56.6667C467.61 51.3333 463.344 49.3333 460.544 43.4667C454.944 31.4667 465.61 20 482.544 20C495.877 20 505.21 26.2667 508.144 37.3333L509.61 42.6667H520.41H531.21L530.277 36.5333C528.41 22.1333 519.744 10.5333 506.544 4.53333C499.477 1.46666 496.01 0.799993 485.477 0.399993C477.477 0.133326 470.81 0.66666 467.477 1.73333Z" fill="black"/>
<path d="M994.544 2.00001C979.877 6.00001 965.744 16.2667 957.744 29.0667C944.944 49.0667 943.744 79.4667 955.077 101.733C960.544 112.667 972.544 124.4 983.077 129.333C1005.34 139.733 1034.68 136.133 1049.61 121.2L1054.81 116V124.667V133.333H1064.81H1074.81V97.3334V61.3333H1046.81H1018.81V72V82.6667H1036.28H1053.74L1052.81 86.2667C1048.54 104.267 1033.61 114.933 1012.81 114.933C1002.94 114.933 996.144 112.933 988.677 107.867C974.277 98.1334 967.21 73.2 972.677 52.2667C978.277 31.4667 993.877 20.2667 1015.34 21.6C1031.34 22.6667 1042.94 29.8667 1048.41 42.2667L1050.94 48H1063.08C1072.94 48 1074.94 47.6 1074.41 46.1333C1074.01 45.0667 1072.94 41.8667 1072.28 39.0667C1067.74 22.5333 1048.28 5.73334 1028.41 1.46668C1019.21 -0.399991 1002.54 -0.266657 994.544 2.00001Z" fill="black"/>
<path d="M557.477 68V133.333H568.143H578.81V115.6L578.943 98L590.143 86C599.21 76.2667 601.61 74.2667 603.077 75.7334C604.01 76.6667 613.477 89.8667 624.143 105.067L643.61 132.667L657.21 133.067C664.677 133.2 670.81 133.067 670.81 132.667C670.81 132.267 658.81 115.067 644.277 94.4L617.61 56.8L636.543 36.9334C646.943 26.1334 658.277 14 661.61 10.2667L667.743 3.4667L669.743 6.6667C670.943 8.53337 681.877 27.3334 694.01 48.5334L716.143 87.0667V110.267V133.333H727.477H738.81V110.133V87.0667L762.81 45.3334C776.01 22.4 786.81 3.4667 786.81 3.0667C786.81 2.80003 780.943 2.80003 773.877 2.93337L760.943 3.33337L744.543 33.3334C735.477 49.8667 727.743 63.2 727.21 63.0667C726.81 62.9334 719.077 49.4667 710.01 33.0667L693.743 3.33337L666.543 3.0667L639.477 2.6667L622.01 22.4C597.477 49.7334 581.343 67.2 580.01 67.7334C579.343 68 578.81 53.4667 578.81 35.4667V2.6667H568.143H557.477V68Z" fill="black"/>
<path d="M801.477 68V133.333H842.81H884.143V123.333V113.333L853.877 113.067L823.477 112.667L823.077 57.6L822.81 2.6667H812.143H801.477V68Z" fill="black"/>
<path d="M901.477 68V133.333H912.143H922.81V68V2.6667H912.143H901.477V68Z" fill="black"/>
<path d="M1104.14 68V133.333H1114.81H1125.48V105.333V77.3334H1156.81H1188.14V105.333V133.333H1199.48H1210.81V68V2.6667H1199.48H1188.14V29.3334V56H1156.81H1125.48V29.3334V2.6667H1114.81H1104.14V68Z" fill="black"/>
<path d="M1228.14 13.3334V24H1246.81H1265.48V78.6667V133.333H1276.81H1288.14V78.6667V24.1334L1307.21 23.7334L1326.14 23.3334L1326.54 12.9334L1326.94 2.6667H1277.48H1228.14V13.3334Z" fill="black"/>
<path d="M33.6102 48.1333C26.1435 53.4666 21.4769 63.3333 21.6102 73.3333C21.6102 86.8 27.3435 96.9333 38.4102 103.467C43.8769 106.533 46.4102 107.067 54.8102 107.2C65.4769 107.2 69.6102 105.733 77.3435 99.2C89.0769 89.3333 91.4769 67.9999 82.4102 54.5333C79.6102 50.2666 71.7435 43.9999 69.3435 43.9999C66.6769 43.9999 68.2769 51.7333 71.6102 54.7999C76.0102 58.7999 80.0102 67.3333 80.1435 72.7999C80.1435 81.9999 73.7435 92.2666 65.2102 96.8C59.7435 99.7333 49.3435 99.2 42.8102 95.6C27.7435 87.7333 25.2102 65.3333 38.2769 55.3333C41.6102 52.7999 42.8102 50.7999 42.8102 47.8666C42.8102 42.9333 40.6769 42.9333 33.6102 48.1333Z" fill="black"/>
<path d="M42.0101 120C29.0768 125.067 21.6101 136 21.4768 149.733C21.4768 169.067 35.3435 182.667 55.0768 182.667C78.1435 182.667 93.0768 162.267 86.6768 139.6C84.4101 131.2 70.6768 118.267 66.8101 120.667C64.1435 122.4 65.6101 126.267 70.9435 131.333C80.5435 140.667 82.6768 150.533 77.2101 161.333C73.7435 168.133 62.8101 175.2 60.1435 172.533C59.2101 171.6 58.6768 163.2 58.6768 149.867C58.5435 138.267 58.1435 126.267 57.6101 123.333C56.8101 118.533 56.2768 118 52.8101 117.733C50.5435 117.6 45.7435 118.533 42.0101 120ZM50.4101 149.333C50.5435 160.667 50.1435 170.933 49.4768 172C48.4101 173.733 47.4768 173.6 42.5435 170.933C30.9435 164.8 26.2768 150.133 32.4101 139.333C36.0101 133.2 43.4768 127.733 47.4768 128.267C50.0101 128.667 50.1435 129.6 50.4101 149.333Z" fill="black"/>
<path d="M0.676817 196.533C-1.18985 201.467 0.676817 203.333 7.87682 203.733L14.8102 204.133V199.467V194.667H8.14348C3.47682 194.667 1.21015 195.333 0.676817 196.533Z" fill="black"/>
<path d="M23.7434 195.467C23.2101 196 22.8101 198.133 22.8101 200.267V204H56.6767C89.4767 204 90.5434 204.133 94.9434 207.067C97.3434 208.667 99.7434 211.467 100.143 213.333C101.077 217.067 104.677 218.4 107.477 216C111.077 212.933 106.143 203.067 98.5434 198.133C94.4101 195.467 92.2767 195.333 59.4767 194.933C40.4101 194.667 24.2767 194.933 23.7434 195.467Z" fill="black"/>
<path d="M44.9435 218C20.5435 224.267 13.2102 256.667 32.2769 273.867C45.6102 285.867 64.0102 285.867 77.0769 274.133C94.8102 258.133 90.2769 228.267 68.6769 219.2C62.9435 216.8 52.0102 216.267 44.9435 218ZM63.0769 226.667C78.6769 231.067 85.2102 251.2 75.2102 263.733C69.2102 271.2 63.7435 273.6 53.3435 273.067C46.1435 272.667 43.6102 271.867 39.6102 268.933C27.4769 259.6 26.2769 241.467 37.2102 231.6C43.2102 226.133 53.8769 224.133 63.0769 226.667Z" fill="black"/>
<path d="M795.477 256.4C775.61 263.067 765.077 276.133 765.21 294C765.344 303.733 768.01 310.933 773.877 317.067C780.144 323.6 786.41 326.4 806.277 331.333C816.01 333.867 825.744 336.8 828.01 337.867C833.877 340.933 837.477 346.267 837.477 351.867C837.477 358.8 834.81 362.933 828.144 366.667C823.077 369.467 820.41 370 810.81 370C802.544 370 798.277 369.333 795.21 367.6C788.677 364.133 784.277 358.667 782.544 352.267L781.21 346.667H770.677H760.144V350.4C760.144 356.267 763.61 366.4 767.61 372.133C775.077 382.933 792.41 390.667 809.477 390.667C818.01 390.667 832.544 387.333 839.744 383.733C847.344 379.867 856.544 369.867 858.544 362.933C864.01 344.667 856.944 327.2 840.944 319.333C837.077 317.467 826.01 313.867 816.41 311.333C795.61 306 791.344 304 788.544 298.133C782.944 286.133 793.61 274.667 810.544 274.667C823.877 274.667 833.21 280.933 836.144 292L837.61 297.333H848.41H859.21L858.277 291.2C856.41 276.8 847.744 265.2 834.544 259.2C827.477 256.133 824.01 255.467 813.477 255.067C805.477 254.8 798.81 255.333 795.477 256.4Z" fill="black"/>
<path d="M1050.54 256.667C1035.88 260.667 1021.74 270.933 1013.74 283.733C1000.94 303.733 999.744 334.133 1011.08 356.4C1016.54 367.333 1028.54 379.067 1039.08 384C1061.34 394.4 1090.68 390.8 1105.61 375.867L1110.81 370.667V379.333V388H1120.81H1130.81V352V316H1102.81H1074.81V326.667V337.333H1092.28H1109.74L1108.81 340.933C1104.54 358.933 1089.61 369.6 1068.81 369.6C1058.94 369.6 1052.14 367.6 1044.68 362.533C1030.28 352.8 1023.21 327.867 1028.68 306.933C1034.28 286.133 1049.88 274.933 1071.34 276.267C1087.34 277.333 1098.94 284.533 1104.41 296.933L1106.94 302.667H1119.08C1128.94 302.667 1130.94 302.267 1130.41 300.8C1130.01 299.733 1128.94 296.533 1128.28 293.733C1123.74 277.2 1104.28 260.4 1084.41 256.133C1075.21 254.267 1058.54 254.4 1050.54 256.667Z" fill="black"/>
<path d="M440.144 322.667V388.267L471.21 387.733C498.144 387.2 503.344 386.667 510.81 384.267C534.677 376.4 550.01 358 553.344 333.067C556.81 308 548.41 284.667 531.744 272.133C514.944 259.6 509.877 258.4 471.877 257.733L440.144 257.067V322.667ZM502.277 280.533C510.677 283.2 519.077 289.067 523.344 295.6C530.944 307.2 532.677 327.2 527.21 341.867C524.144 350.133 515.344 359.333 507.21 362.8C500.01 365.867 481.477 368.4 469.877 367.733L462.144 367.333L461.744 324C461.61 300.133 461.744 279.867 462.144 278.8C462.81 277.333 465.877 277.067 479.21 277.733C488.144 278.133 498.544 279.467 502.277 280.533Z" fill="black"/>
<path d="M614.81 322.667V388H660.81H706.81V378V368L671.877 367.733L636.81 367.333L636.41 349.6L636.01 332H669.477H702.81V321.333V310.667H669.477H636.01L636.41 294.267L636.81 278L671.877 277.6L706.81 277.333V267.333V257.333H660.81H614.81V322.667Z" fill="black"/>
<path d="M921.477 322.667V388H932.143H942.81V322.667V257.333H932.143H921.477V322.667Z" fill="black"/>
<path d="M1196.14 322.667V388H1206.81H1217.48L1217.74 341.467L1218.14 294.933L1249.48 341.467L1280.81 387.867L1292.54 388H1304.14V322.667V257.333H1292.81H1281.48L1281.21 303.467L1280.81 349.6L1249.61 303.467L1218.41 257.333H1207.34H1196.14V322.667Z" fill="black"/>
<path d="M21.4768 288.533C21.4768 290.267 22.9435 293.867 24.8101 296.533C28.8101 302.4 28.8101 302.133 25.4768 303.067C21.6101 304.133 21.8768 310.4 25.8768 311.333C27.4768 311.733 41.7435 311.867 57.4768 311.733L86.1435 311.333V307.333V303.333L64.1435 302.667C38.8101 301.867 36.2768 301.067 32.0101 291.2C29.7435 286.133 28.8101 285.333 25.4768 285.333C22.1435 285.333 21.4768 285.867 21.4768 288.533Z" fill="black"/>
<path d="M131.477 288.4C131.077 289.2 130.944 312.8 131.077 340.667L131.477 391.333L143.21 391.733L154.81 392.133L154.944 368.4C155.21 336 155.344 333.333 156.81 333.2C157.477 333.067 166.81 346.133 177.477 362.133L196.81 391.333H234.81H272.677L282.277 376.933C293.077 360.533 294.944 358.4 296.944 359.733C297.744 360.267 303.077 367.733 308.677 376.267L318.944 392H331.477C341.477 392 344.144 391.6 344.144 390.133C344.144 389.067 336.677 377.067 327.477 363.2C318.277 349.467 310.81 337.333 310.81 336.133C310.81 335.067 314.81 328.267 319.744 321.067L328.544 307.867L340.677 308.267L352.81 308.667L353.477 350L354.144 391.333L365.744 391.733L377.477 392.133L377.744 350.4L378.144 308.667L387.744 308.267C398.677 307.867 398.544 308 397.477 295.467L396.81 287.333L356.01 286.933L315.21 286.667L306.277 300C301.344 307.467 296.544 313.333 295.744 312.933C294.81 312.667 290.277 306.8 285.477 299.867L276.81 287.333H236.81H196.81L196.41 316.933C196.277 333.333 195.61 346.667 195.077 346.533C194.544 346.533 185.344 333.067 174.544 316.533L154.81 286.667H143.477C135.61 286.667 131.877 287.2 131.477 288.4ZM264.544 310.4C268.01 314.267 281.477 335.2 281.477 336.667C281.344 337.333 276.677 344.933 270.944 353.333L260.677 368.667L240.41 369.067L220.144 369.467V360.267C220.144 355.067 220.81 350.533 221.744 349.6C222.677 348.667 227.61 348 234.41 348H245.61L245.21 337.733L244.81 327.467L234.144 327.333C228.277 327.333 222.677 326.8 221.877 326.267C220.144 325.2 219.477 313.867 220.944 310.133C221.61 308.267 224.81 308 242.144 308C259.877 308 262.677 308.267 264.544 310.4Z" fill="black"/>
<path d="M43.4768 325.733C35.8768 327.733 25.2102 338.8 22.9435 346.933C20.2768 356.533 21.6102 366.667 26.5435 374.667C31.0768 381.867 31.0768 381.467 24.4102 383.467C23.4768 383.733 22.8102 385.333 23.0768 386.933L23.4768 390L65.8768 390.4C104.144 390.667 108.277 390.533 109.077 388.533C111.077 383.333 107.877 382 92.9435 381.6C85.2102 381.467 78.8102 380.933 78.8102 380.667C78.8102 380.4 80.6768 377.333 83.0768 374C86.5435 369.067 87.4768 366.4 87.8768 359.2C88.4102 351.6 88.0102 349.6 84.2768 342.267C79.7435 333.333 74.8102 328.667 67.0768 325.867C61.2102 323.867 50.9435 323.733 43.4768 325.733ZM70.1435 337.867C86.6768 350.533 81.6102 376.533 61.4768 381.333C51.6102 383.733 42.9435 381.333 36.8102 374.533C28.9435 365.733 27.3435 357.333 32.0102 347.333C36.5435 337.333 44.0102 333.2 56.2768 333.733C63.6102 334 66.0102 334.667 70.1435 337.867Z" fill="black"/>
</svg>
