<svg width="1616" height="412" viewBox="0 0 1616 412" fill="none" xmlns="http://www.w3.org/2000/svg">
<path d="M226 3.62781C219.733 5.62781 208.933 8.29447 202 9.62781C195.067 10.9611 186.667 13.2278 183.467 14.6945C180.267 16.1611 173.867 17.8945 169.467 18.5611C161.067 19.7611 156.133 20.9611 142.667 25.2278C138.267 26.5611 128.4 28.9611 120.8 30.4278C113.2 32.0278 104.8 34.1611 102.133 35.2278C99.4666 36.2945 93.4666 38.0278 88.6666 39.0945C83.8666 40.0278 75.8666 42.0278 70.6666 43.6278C65.5999 45.2278 48.7999 49.7611 33.3333 53.7611C17.9999 57.6278 4.13325 61.3611 2.66659 61.7611C0.399919 62.4278 -8.05992e-05 63.4945 0.399919 69.7611C0.933253 77.7611 0.933253 77.6278 9.06659 75.8945C33.1999 70.6945 42.1333 68.6945 47.3333 67.0945C50.6666 66.1611 60.5333 64.0278 69.3333 62.5611C88.5333 59.0945 92.1333 58.4278 109.333 54.0278C116.667 52.1611 126.533 50.2945 131.2 49.7611C136 49.3611 142.267 48.0278 145.2 46.9611C148.267 46.0278 152 45.0945 153.467 45.0945C155.067 45.0945 157.067 44.2945 157.867 43.2278C158.667 42.2945 163.467 41.0945 168.933 40.5611C177.333 39.7611 201.867 34.1611 204.933 32.2945C205.467 31.8945 210.267 30.8278 215.6 29.8945C226.933 27.7611 236.667 24.9611 243.467 22.0278C248 20.0278 248.4 20.0278 253.733 23.2278C256.8 25.0945 259.333 27.2278 259.333 27.8945C259.333 28.6945 262.8 32.6945 267.067 36.8278C271.467 40.9611 278.667 48.5611 283.333 53.7611C291.467 62.6945 324.533 97.7611 336.4 109.894C342.533 116.294 346 117.361 346 113.094C346 106.694 343.867 104.028 308 65.7611C280.933 36.9611 260.8 14.2945 256.933 8.16114C251.067 -1.17219 243.867 -2.23886 226 3.62781Z" fill="black"/>
<path d="M224.667 38.4278C217.467 39.0945 209.867 40.8278 204 43.0945C198.133 45.3612 190.267 47.2278 183.2 47.8945C170.533 48.9612 162 50.9612 156.4 53.8945C154.4 54.9612 147.733 56.4278 141.733 57.0945C131.333 58.2945 122.533 60.1612 106.667 64.4278C103.067 65.3612 97.6001 66.5612 94.6668 66.9612C91.7335 67.4945 86.4001 68.6945 82.6668 69.6278C68.1335 73.6278 54.0001 77.0945 41.3334 79.7612C34.0001 81.3612 25.6001 83.2278 22.6668 83.8945C19.7334 84.6945 13.7334 86.0278 9.33345 86.8278L1.33345 88.4278L0.933447 102.828L0.533447 117.095H4.53345C8.53345 117.095 20.0001 114.561 32.0001 111.095C41.0668 108.561 70.9335 102.295 86.6668 99.7612C91.0668 98.9612 96.1335 97.8945 98.0001 97.0945C99.8668 96.4278 105.2 95.2278 110 94.4278C114.8 93.4945 119.333 92.4278 120 91.7612C120.8 91.2278 124.667 90.2945 128.667 89.7612C139.333 88.4278 154.133 85.0945 158 83.0945C159.867 82.1612 168.267 80.4278 176.533 79.2278C191.867 77.0945 198 75.6278 205.333 72.2945C207.6 71.3612 214.133 69.8945 220 69.0945C225.867 68.1612 233.067 66.4278 236 65.0945C248.933 59.3612 252.4 60.6945 271.2 78.8278C278.933 86.2945 292.133 98.9612 300.533 107.095C308.933 115.095 321.333 127.361 328.133 134.028C342.667 148.828 346 149.895 346 139.895C346 131.628 343.733 128.695 316.667 102.961C295.867 83.0945 265.6 52.6945 256.4 42.5612C251.733 37.2278 251.2 37.0945 243.733 37.2278C239.467 37.3612 230.933 37.8945 224.667 38.4278Z" fill="black"/>
<path d="M391.867 87.3612C387.467 90.4278 387.333 93.6278 387.333 214.828C387.333 335.361 387.333 335.361 390.133 338.961L392.933 342.561L449.867 342.028C506 341.495 517.733 340.695 525.867 336.561C527.733 335.628 532.267 333.361 535.733 331.628C541.333 328.828 551.733 319.895 556.133 314.295C558.133 311.495 564.133 299.895 566.933 293.095C570.4 284.561 570.4 252.695 567.067 247.361C565.733 245.495 564.667 242.828 564.667 241.495C564.667 238.428 558.533 229.494 552 223.361C543.6 215.228 542.533 214.428 540.933 214.428C536.933 214.428 538.8 210.961 547.733 202.028C561.867 187.894 564.667 180.428 564.667 157.228C564.667 142.161 564.267 138.961 561.333 131.094C556.133 117.494 549.067 108.428 537.2 100.161C531.733 96.4278 521.6 91.8945 516.267 90.8278C514 90.4278 511.2 89.3612 510.133 88.5612C508 86.8278 394.267 85.7612 391.867 87.3612ZM505.333 131.628C513.067 136.161 516.133 139.628 519.2 147.494C522.667 156.161 522.667 162.428 519.467 171.361C516.533 179.228 512.4 183.628 503.467 188.028C497.733 190.961 495.467 191.094 465.467 191.494C440 191.894 433.333 191.628 432.533 190.161C431.067 188.028 430.933 129.894 432.267 128.561C432.8 128.028 448.267 127.761 466.667 128.028C498.933 128.428 500.133 128.561 505.333 131.628ZM500 234.295C510.533 238.028 516.4 242.295 520.267 248.828C523.467 254.295 523.867 256.428 524 267.095C524 277.628 523.6 279.761 520.667 284.561C516.4 291.628 510.667 296.428 503.2 299.228C498.533 300.961 490.667 301.495 465.2 302.028L433.067 302.695L432.267 299.628C431.067 295.495 431.067 236.695 432.133 233.895C432.8 232.028 436.8 231.761 463.2 231.761C488.667 231.895 494.4 232.161 500 234.295Z" fill="black"/>
<path d="M584.267 92.8278C582.267 95.0945 582 103.094 582 181.228C582 236.428 582.533 268.961 583.467 272.428C584.267 275.361 585.467 280.694 586.267 284.428C588.267 294.828 595.467 307.628 605.6 319.095C609.6 323.495 621.2 333.095 622.667 333.095C623.2 333.095 625.2 334.161 627.067 335.495C636.4 341.761 659.467 347.761 674.267 347.761C684.667 347.761 703.6 344.161 712 340.561C717.867 338.161 721.067 336.428 732.533 329.761C740.667 324.961 757.467 304.028 760 295.628C760.4 293.894 761.733 290.561 762.8 288.294C766.4 280.294 767.2 258.694 767.333 177.894C767.467 106.161 767.2 96.5612 765.333 93.6278C763.333 90.5612 762.8 90.4278 746.267 90.4278C733.067 90.4278 728.667 90.8278 726.267 92.5612L723.333 94.5612V181.761C723.333 264.561 723.2 269.361 720.8 275.494C715.2 289.628 708.133 297.095 694.667 303.628C689.067 306.295 686 306.828 675.2 306.695C663.6 306.695 661.467 306.295 653.6 302.561C644.4 298.161 638.133 292.028 631.6 281.094L628 275.094L627.733 187.094C627.467 138.694 627.067 97.8945 626.667 96.2945C625.6 91.7612 620.4 90.4278 602.8 90.4278C588.667 90.4278 586.133 90.6945 584.267 92.8278Z" fill="black"/>
<path d="M786.267 93.4945L783.333 96.5612V218.828V340.961L787.333 343.095C792.933 346.028 821.467 345.895 825.733 342.961L828.667 340.961V218.694C828.667 110.161 828.4 96.0278 826.533 93.3612C824.667 90.5612 823.6 90.4278 806.8 90.4278C790 90.4278 788.933 90.5612 786.267 93.4945Z" fill="black"/>
<path d="M848 92.2945C845.6 94.0278 845.467 98.1612 845.467 218.294C845.333 327.361 845.6 342.694 847.333 343.761C848.533 344.561 875.333 345.094 913.467 345.094C991.067 345.094 984 347.094 984 325.228C984 313.361 983.6 310.161 981.733 308.294C979.867 306.294 974.667 306.028 936.267 305.894C901.867 305.761 892.667 305.361 890.933 303.894C888.8 302.294 888.667 293.361 888.667 199.228C888.667 108.294 888.4 96.0278 886.533 93.3612C884.667 90.5612 883.6 90.4278 867.467 90.4278C855.2 90.4278 849.867 90.9612 848 92.2945Z" fill="black"/>
<path d="M1002.93 92.4278C1000.8 94.4278 1000.67 103.894 1000.67 217.761C1000.67 330.161 1000.8 341.094 1002.8 343.094C1004.8 345.094 1010.4 345.228 1059.87 344.828C1113.07 344.294 1114.93 344.161 1124 341.228C1129.2 339.494 1134.27 337.228 1135.47 336.294C1136.53 335.228 1138.53 334.428 1139.6 334.428C1142 334.428 1160.67 320.294 1160.67 318.428C1160.67 317.761 1161.6 316.294 1162.8 315.094C1165.87 312.028 1171.33 303.894 1171.33 302.428C1171.33 301.761 1172.53 299.228 1174 296.828C1175.47 294.428 1176.67 291.361 1176.67 290.028C1176.67 288.694 1177.47 286.294 1178.53 284.694C1179.6 282.961 1180.67 276.161 1181.2 268.428C1181.6 261.094 1182.67 244.828 1183.47 232.161C1184.67 212.961 1184.53 204.961 1182.67 181.494C1181.33 164.561 1179.73 152.294 1178.53 149.894C1177.47 147.761 1176.67 145.094 1176.67 143.894C1176.67 140.961 1170.53 129.628 1165.47 123.094C1155.6 110.161 1142.93 101.628 1124 94.8278C1114.8 91.4945 1114.13 91.4945 1059.87 90.8278C1009.73 90.1611 1004.93 90.2945 1002.93 92.4278ZM1097.73 131.628C1104.4 132.961 1111.73 135.228 1114.27 136.561C1120 139.761 1130 149.228 1130 151.361C1130 152.428 1130.8 153.494 1131.87 153.894C1132.8 154.294 1134.13 157.094 1134.53 160.161C1135.07 163.094 1136.13 166.561 1137.07 167.628C1138.27 168.961 1138.67 181.494 1138.67 214.961C1138.67 256.028 1138.4 261.361 1136 269.761C1133.6 278.694 1127.87 289.094 1123.33 292.828C1114.13 300.561 1108.8 302.294 1086.67 305.094C1075.87 306.428 1052.13 306.828 1047.73 305.628L1044.67 304.828V218.294C1044.67 137.361 1044.8 131.761 1047.07 130.561C1051.2 128.161 1084.27 128.828 1097.73 131.628Z" fill="black"/>
<path d="M1426 91.4945C1412 92.1612 1410.93 94.9612 1419.73 109.361C1422.8 114.561 1426.67 120.961 1428.27 123.628C1429.87 126.294 1432.13 130.161 1433.2 132.428C1435.07 135.894 1443.07 149.361 1452 163.894C1458.27 174.028 1460.67 177.894 1462.4 181.094C1463.47 182.961 1468 190.694 1472.4 198.428C1476.93 206.161 1480.67 213.361 1480.67 214.428C1480.67 216.561 1468.53 238.161 1458.67 253.761C1455.33 258.828 1451.47 265.228 1450.13 267.761C1448.8 270.294 1445.47 275.761 1442.8 279.761C1440.13 283.761 1438 287.761 1438 288.561C1438 289.361 1437.07 290.828 1435.87 291.895C1434.67 292.828 1431.07 298.161 1427.87 303.628C1418.93 318.828 1418.93 318.695 1415.6 324.028C1413.87 326.695 1411.6 331.495 1410.53 334.561C1407.33 343.495 1408 343.761 1436.13 343.761C1461.73 343.761 1466.53 342.828 1468.13 338.028C1468.67 336.561 1471.07 332.161 1473.6 328.161C1476 324.295 1478.53 320.028 1478.93 318.695C1479.47 317.495 1481.2 314.428 1482.8 312.028C1484.53 309.628 1486.93 304.828 1488.13 301.361C1489.47 297.895 1491.07 294.695 1491.6 294.295C1492.27 293.895 1496.27 287.361 1500.4 279.628C1506.93 267.894 1508.67 265.761 1511.73 265.361C1513.87 265.094 1515.33 265.628 1515.33 266.561C1515.33 267.361 1517.33 271.361 1519.73 275.361C1527.07 288.028 1527.6 288.961 1548.27 327.095C1552.27 334.428 1556.53 341.228 1557.73 342.161C1559.33 343.361 1567.07 343.761 1587.6 343.761L1615.33 343.628V336.161C1615.33 330.161 1614.93 328.961 1613.33 329.628C1612.27 330.028 1610.53 329.095 1609.33 327.361C1604.93 321.361 1598 310.028 1593.87 302.695C1591.6 298.561 1589.2 294.428 1588.53 293.495C1586 290.561 1570.13 264.428 1566 256.694C1563.73 252.428 1559.33 245.228 1556.27 240.694C1548.93 230.028 1542 217.228 1542 214.561C1542.13 211.494 1548.53 198.961 1554.93 189.628C1558 185.094 1562.4 177.628 1564.8 172.961C1567.2 168.294 1570.53 162.428 1572.4 160.028C1574.27 157.628 1576.67 153.894 1577.87 151.761C1580.27 147.228 1598.8 116.161 1602.27 110.694C1607.73 102.294 1609.07 94.0278 1605.2 92.5612C1601.07 90.9612 1556.13 91.7612 1553.87 93.4945C1551.33 95.4945 1536.93 120.161 1535.87 124.428C1535.47 126.161 1534.27 128.294 1533.2 129.228C1532.13 130.028 1531.33 131.361 1531.33 132.028C1531.33 132.694 1530.13 134.828 1528.67 136.694C1527.2 138.561 1526 141.094 1526 142.161C1526 143.361 1525.2 145.228 1524.13 146.294C1523.2 147.494 1520.67 151.761 1518.53 155.761C1516.4 159.761 1514.13 163.494 1513.33 164.028C1511.33 165.628 1508.67 165.228 1508.67 163.494C1508.67 162.694 1507.87 160.961 1506.8 159.894C1505.73 158.694 1502.93 153.894 1500.53 149.094C1498.13 144.294 1494.93 138.561 1493.33 136.428C1491.73 134.161 1489.6 130.294 1488.67 127.761C1487.6 125.228 1485.47 120.961 1483.87 118.428C1482.27 115.761 1479.2 110.028 1476.93 105.761C1470.4 92.6945 1469.33 92.1612 1450.67 91.6278C1441.87 91.3612 1430.8 91.2278 1426 91.4945Z" fill="black"/>
<path d="M1220.67 94.4278C1218 97.0945 1218 98.4278 1218.27 218.561C1218.67 336.961 1218.67 340.028 1221.2 341.894C1225.07 344.694 1380.27 344.694 1384.13 341.894C1386.4 340.161 1386.67 338.428 1386.4 320.428C1386.27 307.761 1385.73 300.294 1384.67 299.228C1383.6 298.161 1367.2 297.628 1329.2 297.094C1277.6 296.428 1275.07 296.294 1273.2 293.894C1270.67 290.294 1270.53 246.694 1273.07 243.361C1274.53 241.494 1279.73 241.228 1319.6 240.828C1360.53 240.428 1364.8 240.161 1366.93 238.028C1368.93 236.028 1369.33 232.828 1369.6 217.228C1370 200.028 1369.73 198.694 1367.2 196.294C1364.53 193.894 1361.47 193.761 1320.27 193.361C1282.67 193.094 1275.73 192.828 1274 191.094C1272.4 189.361 1271.87 184.561 1271.6 167.361C1271.33 154.694 1271.73 144.161 1272.53 142.161L1273.87 138.561L1328.53 138.161C1370.4 137.894 1383.6 137.361 1384.93 136.028C1386.8 134.161 1388.13 110.961 1386.8 101.761C1385.07 90.9612 1391.33 91.7612 1302.53 91.7612C1224.93 91.7612 1223.33 91.7612 1220.67 94.4278Z" fill="black"/>
<path d="M230 99.3612C228.133 99.6278 220.667 101.361 213.333 103.094C206 104.828 196.133 106.561 191.333 106.961C181.333 107.894 158.933 112.161 154 114.161C152.133 114.828 146.8 115.894 142 116.428C132 117.494 108.933 121.894 104.4 123.628C102.667 124.294 96 125.494 89.4667 126.294C82.8 127.228 76.9334 128.294 76.1334 128.694C74.2667 129.894 52.4 134.294 37.4667 136.561C30.2667 137.628 23.8667 138.694 23.4667 139.094C22.9334 139.361 18.2667 140.294 13.3334 141.094C8.26669 141.894 3.33336 143.228 2.40003 144.028C0.266694 145.761 -0.133306 189.761 1.86669 191.095C2.66669 191.495 6.40003 191.228 10.2667 190.561C16.5334 189.495 41.3334 184.828 50 183.095C56 181.895 78.5334 178.295 87.3334 177.095C92.1334 176.428 104.667 174.161 115.333 171.895C126 169.761 138.933 167.494 144 167.094C149.2 166.561 155.733 165.361 158.667 164.428C168.133 161.361 183.733 158.428 198 157.094C211.2 155.761 216.8 154.561 224.667 151.361C231.2 148.828 248.533 146.561 252.933 147.894C255.333 148.561 260.533 152.294 264.667 156.161C268.667 160.028 274.133 165.094 276.8 167.228C287.2 175.895 297.6 184.828 305.6 192.028C310.133 196.295 314.4 199.761 314.933 199.761C315.6 199.761 321.6 205.228 328.533 211.761C335.467 218.428 342.133 223.761 343.467 223.761C345.867 223.761 346 222.428 346 204.428C346 183.095 345.2 179.895 338.4 174.961C336.267 173.361 329.467 167.628 323.2 162.294C317.067 156.828 308 149.361 303.333 145.494C298.533 141.761 291.067 135.361 286.667 131.228C282.267 127.094 277.2 122.828 275.333 121.761C273.467 120.828 267.333 115.094 261.6 109.228L251.333 98.4278L242.267 98.5612C237.333 98.6945 231.867 99.0945 230 99.3612Z" fill="black"/>
<path d="M235.333 165.228C232 165.761 221.867 167.228 212.667 168.561C203.467 169.761 193.333 171.494 190 172.561C186.667 173.494 178 174.961 170.667 175.761C163.333 176.694 156.933 177.628 156.4 177.894C155.867 178.294 149.867 179.361 143.067 180.428C131.733 182.161 118.267 184.828 106 187.761C97.4667 189.761 61.0667 196.428 21.3333 203.228C0.666667 206.694 1.33333 206.428 0.933333 212.828C0.533333 217.494 0.933333 218.428 2.93333 218.428C6.8 218.428 35.8667 214.428 38 213.628C40.4 212.828 62.6667 209.494 78.6667 207.628C92.2667 206.028 99.6 204.828 118.667 200.961C126 199.494 137.467 197.761 144 197.094C158 195.894 178.533 192.428 188 189.761C191.733 188.694 202.933 186.961 213.2 185.761C232 183.761 240.8 181.894 245.067 178.961C248 177.094 254.933 180.294 262 186.961C264.533 189.361 269.467 193.228 272.933 195.628C278.667 199.494 302 218.161 330.4 241.894C338.267 248.561 341.467 250.294 343.467 249.761C345.6 248.961 346 248.161 345.333 245.361C344.933 243.361 343.2 240.694 341.6 239.361C340 238.028 334.667 233.628 329.867 229.761C325.067 225.761 318.667 220.828 315.733 218.828C312.667 216.694 307.067 212.294 303.2 208.961C291.067 198.428 279.2 188.561 276.133 186.428C270.933 182.828 256 170.028 254.933 168.294C254.4 167.361 252 166.294 249.6 165.761C247.333 165.228 244.4 164.694 243.333 164.561C242.267 164.294 238.667 164.561 235.333 165.228Z" fill="black"/>
<path d="M235.067 192.428C234.667 192.828 224.267 194.028 211.867 195.094C187.733 197.094 179.467 198.428 170 201.494C166.667 202.561 157.467 203.894 149.333 204.428C136.267 205.228 128.667 206.428 110.667 210.561C107.733 211.228 101.467 212.428 96.6667 213.228C82.8 215.361 58.1333 219.761 48.6667 221.761C43.8667 222.828 35.8667 224.028 30.6667 224.561C25.6 224.961 16.9333 226.561 11.7333 227.894C6.4 229.361 1.73333 230.428 1.33333 230.428C0.533332 230.428 0.399998 300.428 1.33333 301.361C2 301.895 24.9333 299.095 44.6667 295.761C49.4667 295.095 59.3333 293.761 66.6667 292.961C88 290.695 96.6667 289.495 107.067 287.228C112.4 286.028 119.067 285.095 121.867 285.095C128.4 285.095 153.733 281.361 158 279.761C161.6 278.428 169.867 277.228 200 273.095C211.067 271.495 224.8 269.095 230.667 267.495C246.933 263.361 251.733 263.761 262.667 269.628C267.867 272.428 275.2 276.428 279.2 278.561C283.2 280.695 287.733 283.628 289.333 285.095C290.933 286.561 292.8 287.761 293.6 287.761C294.267 287.761 297.6 289.761 300.8 292.295C304 294.695 309.333 298.028 312.667 299.761C315.867 301.361 320.133 303.761 322 305.095C336.133 314.695 340.667 317.228 342.8 316.828C345.067 316.428 345.333 314.561 345.733 294.428C345.867 280.961 345.467 271.228 344.667 269.095C343.867 267.228 340.4 263.628 336.933 261.095C333.6 258.561 324.533 251.494 316.933 245.361C309.467 239.361 300 232.161 296 229.494C292 226.828 288.667 224.294 288.667 223.761C288.667 222.694 285.333 220.428 274.4 213.628C271.867 212.161 266.933 207.494 263.333 203.494C259.733 199.361 254.667 195.094 252.133 193.894C247.867 191.894 236.667 190.961 235.067 192.428Z" fill="black"/>
<path d="M223.6 325.094C217.467 325.761 208.4 327.228 203.467 328.294C198.533 329.494 184.667 331.228 172.533 332.428C160.533 333.494 146.8 334.694 142 335.228C137.2 335.628 129.867 337.094 125.6 338.561C121.467 339.894 114.8 341.094 110.933 341.228C104.133 341.228 93.7333 342.694 66.6667 346.961C51.7333 349.361 18.2667 354.161 7.73333 355.361L0.8 356.161L0.4 383.095L0 410.028L24.6667 410.828C38.2667 411.361 107.2 411.761 178 411.761C286.933 411.761 309.2 411.495 323.333 409.628C349.2 406.428 346.267 408.828 345.733 391.095C345.333 376.561 345.2 375.761 341.467 371.895C339.467 369.761 336.133 367.628 334.133 367.095C330.8 366.295 306.4 354.694 280 341.361C273.467 338.028 264.4 332.961 260.133 330.161C253.333 325.628 250.933 324.828 243.467 324.428C238.667 324.161 229.6 324.428 223.6 325.094Z" fill="black"/>
</svg>
