<?xml version="1.0" standalone="no"?>
<!DOCTYPE svg PUBLIC "-//W3C//DTD SVG 20010904//EN"
 "http://www.w3.org/TR/2001/REC-SVG-20010904/DTD/svg10.dtd">
<svg version="1.0" xmlns="http://www.w3.org/2000/svg"
 width="1299.000000pt" height="472.000000pt" viewBox="0 0 1299.000000 472.000000"
 preserveAspectRatio="xMidYMid meet">

<g transform="translate(0.000000,472.000000) scale(0.100000,-0.100000)"
fill="#000" stroke="none">
<path d="M2200 4111 c-47 -15 -128 -35 -180 -45 -52 -10 -115 -27 -139 -38
-24 -11 -72 -24 -105 -29 -63 -9 -100 -18 -201 -50 -33 -10 -107 -28 -164 -39
-57 -12 -120 -28 -140 -36 -20 -8 -65 -21 -101 -29 -36 -7 -96 -22 -135 -34
-38 -12 -164 -46 -280 -76 -115 -29 -219 -57 -230 -60 -17 -5 -20 -13 -17 -60
4 -60 4 -59 65 -46 181 39 248 54 287 66 25 7 99 23 165 34 144 26 171 31 300
64 55 14 129 28 164 32 36 3 83 13 105 21 23 7 51 14 62 14 12 0 27 6 33 14 6
7 42 16 83 20 63 6 247 48 270 62 4 3 40 11 80 18 85 16 158 37 209 59 34 15
37 15 77 -9 23 -14 42 -30 42 -35 0 -6 26 -36 58 -67 33 -31 87 -88 122 -127
61 -67 309 -330 398 -421 46 -48 72 -56 72 -24 0 48 -16 68 -285 355 -203 216
-354 386 -383 432 -44 70 -98 78 -232 34z"/>
<path d="M2190 3850 c-54 -5 -111 -18 -155 -35 -44 -17 -103 -31 -156 -36 -95
-8 -159 -23 -201 -45 -15 -8 -65 -19 -110 -24 -78 -9 -144 -23 -263 -55 -27
-7 -68 -16 -90 -19 -22 -4 -62 -13 -90 -20 -109 -30 -215 -56 -310 -76 -55
-12 -118 -26 -140 -31 -22 -6 -67 -16 -100 -22 l-60 -12 -3 -108 -3 -107 30 0
c30 0 116 19 206 45 68 19 292 66 410 85 33 6 71 14 85 20 14 5 54 14 90 20
36 7 70 15 75 20 6 4 35 11 65 15 80 10 191 35 220 50 14 7 77 20 139 29 115
16 161 27 216 52 17 7 66 18 110 24 44 7 98 20 120 30 97 43 123 33 264 -103
58 -56 157 -151 220 -212 63 -60 156 -152 207 -202 109 -111 134 -119 134 -44
0 62 -17 84 -220 277 -156 149 -383 377 -452 453 -35 40 -39 41 -95 40 -32 -1
-96 -5 -143 -9z"/>
<path d="M3444 3483 c-33 -23 -34 -47 -34 -956 0 -904 0 -904 21 -931 l21 -27
427 4 c421 4 509 10 570 41 14 7 48 24 74 37 42 21 120 88 153 130 15 21 60
108 81 159 26 64 26 303 1 343 -10 14 -18 34 -18 44 0 23 -46 90 -95 136 -63
61 -71 67 -83 67 -30 0 -16 26 51 93 106 106 127 162 127 336 0 113 -3 137
-25 196 -39 102 -92 170 -181 232 -41 28 -117 62 -157 70 -17 3 -38 11 -46 17
-16 13 -869 21 -887 9z m851 -332 c58 -34 81 -60 104 -119 26 -65 26 -112 2
-179 -22 -59 -53 -92 -120 -125 -43 -22 -60 -23 -285 -26 -191 -3 -241 -1
-247 10 -11 16 -12 452 -2 462 4 4 120 6 258 4 242 -3 251 -4 290 -27z m-40
-770 c79 -28 123 -60 152 -109 24 -41 27 -57 28 -137 0 -79 -3 -95 -25 -131
-32 -53 -75 -89 -131 -110 -35 -13 -94 -17 -285 -21 l-241 -5 -6 23 c-9 31 -9
472 -1 493 5 14 35 16 233 16 191 -1 234 -3 276 -19z"/>
<path d="M4887 3442 c-15 -17 -17 -77 -17 -663 0 -414 4 -658 11 -684 6 -22
15 -62 21 -90 15 -78 69 -174 145 -260 30 -33 117 -105 128 -105 4 0 19 -8 33
-18 70 -47 243 -92 354 -92 78 0 220 27 283 54 44 18 68 31 154 81 61 36 187
193 206 256 3 13 13 38 21 55 27 60 33 222 34 828 1 538 -1 610 -15 632 -15
23 -19 24 -143 24 -99 0 -132 -3 -150 -16 l-22 -15 0 -654 c0 -621 -1 -657
-19 -703 -42 -106 -95 -162 -196 -211 -42 -20 -65 -24 -146 -23 -87 0 -103 3
-162 31 -69 33 -116 79 -165 161 l-27 45 -2 660 c-2 363 -5 669 -8 681 -8 34
-47 44 -179 44 -106 0 -125 -2 -139 -18z"/>
<path d="M6402 3437 l-22 -23 0 -917 0 -916 30 -16 c42 -22 256 -21 288 1 l22
15 0 917 c0 814 -2 920 -16 940 -14 21 -22 22 -148 22 -126 0 -134 -1 -154
-23z"/>
<path d="M6865 3446 c-18 -13 -19 -44 -19 -945 -1 -818 1 -933 14 -941 9 -6
210 -10 496 -10 582 0 529 -15 529 149 0 89 -3 113 -17 127 -14 15 -53 17
-341 18 -258 1 -327 4 -340 15 -16 12 -17 79 -17 785 0 682 -2 774 -16 794
-14 21 -22 22 -143 22 -92 0 -132 -4 -146 -14z"/>
<path d="M8027 3445 c-16 -15 -17 -86 -17 -940 0 -843 1 -925 16 -940 15 -15
57 -16 428 -13 399 4 413 5 481 27 39 13 77 30 86 37 8 8 23 14 31 14 18 0
158 106 158 120 0 5 7 16 16 25 23 23 64 84 64 95 0 5 9 24 20 42 11 18 20 41
20 51 0 10 6 28 14 40 8 13 16 64 20 122 3 55 11 177 17 272 9 144 8 204 -6
380 -10 127 -22 219 -31 237 -8 16 -14 36 -14 45 0 22 -46 107 -84 156 -74 97
-169 161 -311 212 -69 25 -74 25 -481 30 -376 5 -412 4 -427 -12z m711 -294
c50 -10 105 -27 124 -37 43 -24 118 -95 118 -111 0 -8 6 -16 14 -19 7 -3 17
-24 20 -47 4 -22 12 -48 19 -56 9 -10 12 -104 12 -355 0 -308 -2 -348 -20
-411 -18 -67 -61 -145 -95 -173 -69 -58 -109 -71 -275 -92 -81 -10 -259 -13
-292 -4 l-23 6 0 649 c0 607 1 649 18 658 31 18 279 13 380 -8z"/>
<path d="M11200 3452 c-105 -5 -113 -26 -47 -134 23 -39 52 -87 64 -107 12
-20 29 -49 37 -66 14 -26 74 -127 141 -236 47 -76 65 -105 78 -129 8 -14 42
-72 75 -130 34 -58 62 -112 62 -120 0 -16 -91 -178 -165 -295 -25 -38 -54 -86
-64 -105 -10 -19 -35 -60 -55 -90 -20 -30 -36 -60 -36 -66 0 -6 -7 -17 -16
-25 -9 -7 -36 -47 -60 -88 -67 -114 -67 -113 -92 -153 -13 -20 -30 -56 -38
-79 -24 -67 -19 -69 192 -69 192 0 228 7 240 43 4 11 22 44 41 74 18 29 37 61
40 71 4 9 17 32 29 50 13 18 31 54 40 80 10 26 22 50 26 53 5 3 35 52 66 110
49 88 62 104 85 107 16 2 27 -2 27 -9 0 -6 15 -36 33 -66 55 -95 59 -102 214
-388 30 -55 62 -106 71 -113 12 -9 70 -12 224 -12 l208 1 0 56 c0 45 -3 54
-15 49 -8 -3 -21 4 -30 17 -33 45 -85 130 -116 185 -17 31 -35 62 -40 69 -19
22 -138 218 -169 276 -17 32 -50 86 -73 120 -55 80 -107 176 -107 196 1 23 49
117 97 187 23 34 56 90 74 125 18 35 43 79 57 97 14 18 32 46 41 62 18 34 157
267 183 308 41 63 51 125 22 136 -31 12 -368 6 -385 -7 -19 -15 -127 -200
-135 -232 -3 -13 -12 -29 -20 -36 -8 -6 -14 -16 -14 -21 0 -5 -9 -21 -20 -35
-11 -14 -20 -33 -20 -41 0 -9 -6 -23 -14 -31 -7 -9 -26 -41 -42 -71 -16 -30
-33 -58 -39 -62 -15 -12 -35 -9 -35 4 0 6 -6 19 -14 27 -8 9 -29 45 -47 81
-18 36 -42 79 -54 95 -12 17 -28 46 -35 65 -8 19 -24 51 -36 70 -12 20 -35 63
-52 95 -49 98 -57 102 -197 106 -66 2 -149 3 -185 1z"/>
<path d="M9660 3430 c-20 -20 -20 -30 -18 -931 3 -888 3 -911 22 -925 29 -21
1193 -21 1222 0 17 13 19 26 17 161 -1 95 -5 151 -13 159 -8 8 -131 12 -416
16 -387 5 -406 6 -420 24 -19 27 -20 354 -1 379 11 14 50 16 349 19 307 3 339
5 355 21 15 15 18 39 20 156 3 129 1 139 -18 157 -20 18 -43 19 -352 22 -282
2 -334 4 -347 17 -12 13 -16 49 -18 178 -2 95 1 174 7 189 l10 27 410 3 c314
2 413 6 423 16 14 14 24 188 14 257 -13 81 34 75 -632 75 -582 0 -594 0 -614
-20z"/>
<path d="M2230 3393 c-14 -2 -70 -15 -125 -28 -55 -13 -129 -26 -165 -29 -75
-7 -243 -39 -280 -54 -14 -5 -54 -13 -90 -17 -75 -8 -248 -41 -282 -54 -13 -5
-63 -14 -112 -20 -50 -7 -94 -15 -100 -18 -14 -9 -178 -42 -290 -59 -54 -8
-102 -16 -105 -19 -4 -2 -39 -9 -76 -15 -38 -6 -75 -16 -82 -22 -16 -13 -19
-343 -4 -353 6 -3 34 -1 63 4 47 8 233 43 298 56 45 9 214 36 280 45 36 5 130
22 210 39 80 16 177 33 215 36 39 4 88 13 110 20 71 23 188 45 295 55 99 10
141 19 200 43 49 19 179 36 212 26 18 -5 57 -33 88 -62 30 -29 71 -67 91 -83
78 -65 156 -132 216 -186 34 -32 66 -58 70 -58 5 0 50 -41 102 -90 52 -50 102
-90 112 -90 18 0 19 10 19 145 0 160 -6 184 -57 221 -16 12 -67 55 -114 95
-46 41 -114 97 -149 126 -36 28 -92 76 -125 107 -33 31 -71 63 -85 71 -14 7
-60 50 -103 94 l-77 81 -68 -1 c-37 -1 -78 -4 -92 -6z"/>
<path d="M2270 2899 c-25 -4 -101 -15 -170 -25 -69 -9 -145 -22 -170 -30 -25
-7 -90 -18 -145 -24 -55 -7 -103 -14 -107 -16 -4 -3 -49 -11 -100 -19 -85 -13
-186 -33 -278 -55 -64 -15 -337 -65 -635 -116 -155 -26 -150 -24 -153 -72 -3
-35 0 -42 15 -42 29 0 247 30 263 36 18 6 185 31 305 45 102 12 157 21 300 50
55 11 141 24 190 29 105 9 259 35 330 55 28 8 112 21 189 30 141 15 207 29
239 51 22 14 74 -10 127 -60 19 -18 56 -47 82 -65 43 -29 218 -169 431 -347
59 -50 83 -63 98 -59 16 6 19 12 14 33 -3 15 -16 35 -28 45 -12 10 -52 43 -88
72 -36 30 -84 67 -106 82 -23 16 -65 49 -94 74 -91 79 -180 153 -203 169 -39
27 -151 123 -159 136 -4 7 -22 15 -40 19 -17 4 -39 8 -47 9 -8 2 -35 0 -60 -5z"/>
<path d="M2268 2695 c-3 -3 -81 -12 -174 -20 -181 -15 -243 -25 -314 -48 -25
-8 -94 -18 -155 -22 -98 -6 -155 -15 -290 -46 -22 -5 -69 -14 -105 -20 -104
-16 -289 -49 -360 -64 -36 -8 -96 -17 -135 -21 -38 -3 -103 -15 -142 -25 -40
-11 -75 -19 -78 -19 -6 0 -7 -525 0 -532 5 -4 177 17 325 42 36 5 110 15 165
21 160 17 225 26 303 43 40 9 90 16 111 16 49 0 239 28 271 40 27 10 89 19
315 50 83 12 186 30 230 42 122 31 158 28 240 -16 39 -21 94 -51 124 -67 30
-16 64 -38 76 -49 12 -11 26 -20 32 -20 5 0 30 -15 54 -34 24 -18 64 -43 89
-56 24 -12 56 -30 70 -40 106 -72 140 -91 156 -88 17 3 19 17 22 168 1 101 -2
174 -8 190 -6 14 -32 41 -58 60 -25 19 -93 72 -150 118 -56 45 -127 99 -157
119 -30 20 -55 39 -55 43 0 8 -25 25 -107 76 -19 11 -56 46 -83 76 -27 31 -65
63 -84 72 -32 15 -116 22 -128 11z"/>
<path d="M2182 1700 c-46 -5 -114 -16 -151 -24 -37 -9 -141 -22 -232 -31 -90
-8 -193 -17 -229 -21 -36 -3 -91 -14 -123 -25 -31 -10 -81 -19 -110 -20 -51 0
-129 -11 -332 -43 -112 -18 -363 -54 -442 -63 l-52 -6 -3 -202 -3 -202 185 -6
c102 -4 619 -7 1150 -7 817 0 984 2 1090 16 194 24 172 6 168 139 -3 109 -4
115 -32 144 -15 16 -40 32 -55 36 -25 6 -208 93 -406 193 -49 25 -117 63 -149
84 -51 34 -69 40 -125 43 -36 2 -104 0 -149 -5z"/>
</g>
</svg>
