<?xml version="1.0" standalone="no"?>
<!DOCTYPE svg PUBLIC "-//W3C//DTD SVG 20010904//EN"
 "http://www.w3.org/TR/2001/REC-SVG-20010904/DTD/svg10.dtd">
<svg version="1.0" xmlns="http://www.w3.org/2000/svg"
 width="1299.000000pt" height="472.000000pt" viewBox="0 0 1299.000000 472.000000"
 preserveAspectRatio="xMidYMid meet">

<g transform="translate(0.000000,472.000000) scale(0.100000,-0.100000)"
fill="#fff" stroke="none">
<path d="M3433 4363 c-15 -21 -33 -42 -38 -48 -33 -33 -57 -65 -45 -60 8 3 35
31 60 61 48 58 76 68 108 37 52 -52 181 -163 187 -163 4 0 -23 28 -60 63 -38
34 -89 81 -114 104 -25 23 -51 43 -58 43 -7 0 -25 -17 -40 -37z"/>
<path d="M7132 4329 c-78 -15 -154 -79 -188 -157 -25 -57 -30 -196 -10 -264
20 -71 69 -136 126 -168 40 -22 57 -25 146 -25 94 0 104 2 150 30 55 34 107
105 126 168 17 64 14 175 -7 235 -52 143 -183 213 -343 181z m131 -113 c91
-38 132 -169 91 -289 -35 -102 -147 -141 -237 -83 -89 59 -96 271 -10 348 41
38 102 47 156 24z"/>
<path d="M7690 4019 l0 -300 183 3 c158 3 187 6 222 23 96 48 116 217 34 292
-38 35 -77 45 -196 50 l-113 6 0 63 0 64 155 0 155 0 0 50 0 50 -220 0 -220 0
0 -301z m342 -56 c24 -24 27 -88 5 -110 -19 -20 -79 -32 -154 -33 l-63 0 0 86
0 87 96 -5 c78 -4 99 -9 116 -25z"/>
<path d="M8320 4270 l0 -50 90 0 90 0 0 -251 0 -251 173 4 c150 3 176 6 206
23 57 34 75 67 79 148 3 62 1 77 -20 106 -12 19 -34 42 -48 52 -31 23 -112 39
-196 39 l-64 0 0 115 0 115 -155 0 -155 0 0 -50z m497 -314 c62 -73 -2 -135
-139 -136 l-48 0 0 86 0 87 82 -5 c73 -4 84 -8 105 -32z"/>
<path d="M9150 4020 l0 -300 230 0 230 0 0 55 0 55 -170 0 -170 0 0 75 0 75
151 0 150 0 -3 53 -3 52 -147 3 -148 3 0 64 0 65 160 0 160 0 0 50 0 50 -220
0 -220 0 0 -300z"/>
<path d="M9790 4020 l0 -300 65 0 65 0 0 102 c0 97 1 103 27 130 15 15 30 28
33 28 4 0 47 -58 96 -130 l89 -129 78 -1 c42 0 77 2 77 5 0 3 -57 83 -126 177
-123 167 -125 171 -107 192 9 11 62 67 117 124 l101 102 -80 0 -80 0 -110
-118 -110 -118 -3 118 -3 118 -64 0 -65 0 0 -300z"/>
<path d="M10420 4270 l0 -50 90 0 90 0 0 -250 0 -250 65 0 65 0 0 250 0 250
90 0 90 0 0 50 0 50 -245 0 -245 0 0 -50z"/>
<path d="M11070 4020 l0 -300 64 0 63 0 106 183 c58 100 113 191 121 202 14
18 15 1 16 -182 l0 -203 60 0 60 0 0 300 0 301 -67 -3 -68 -3 -115 -198 -115
-199 -3 201 -2 201 -60 0 -60 0 0 -300z"/>
<path d="M11770 4019 l0 -301 183 4 c172 3 184 4 227 28 106 59 121 217 26
279 -28 19 -28 19 -7 30 29 16 51 63 51 108 0 55 -30 104 -80 130 -40 21 -55
23 -222 23 l-178 0 0 -301z m346 177 c20 -28 17 -63 -6 -86 -17 -17 -33 -20
-120 -20 l-100 0 0 66 0 66 106 -4 c91 -3 108 -6 120 -22z m4 -231 c23 -21 27
-81 7 -109 -17 -23 -75 -35 -164 -36 l-73 0 0 86 0 87 105 -5 c83 -4 109 -9
125 -23z"/>
<path d="M3289 4193 c-24 -27 -72 -82 -107 -123 -35 -41 -87 -100 -116 -131
-140 -152 -220 -242 -248 -276 -16 -21 -49 -57 -73 -81 l-44 -43 -1214 7
-1214 7 -5 -39 c-5 -39 -5 -145 0 -306 l2 -88 878 0 c484 0 940 -3 1015 -7
123 -5 137 -8 137 -24 0 -10 -8 -24 -18 -31 -10 -7 -23 -21 -28 -30 -5 -10
-49 -60 -97 -112 -48 -52 -87 -99 -87 -104 0 -5 23 -31 51 -57 28 -26 48 -50
45 -53 -3 -3 -432 -6 -953 -6 l-948 -1 0 -630 0 -630 1017 -5 c771 -4 1020 -8
1029 -17 9 -9 -4 -30 -59 -91 -40 -44 -72 -84 -72 -89 0 -5 10 -17 23 -27 12
-11 51 -44 86 -75 l63 -55 47 50 c84 91 216 237 234 261 18 22 23 23 172 23
85 0 156 -3 158 -7 4 -7 -132 -167 -346 -407 -34 -38 -62 -78 -62 -88 0 -19
140 -148 161 -148 13 0 132 130 429 468 l160 182 153 -2 c163 -2 171 -5 129
-49 -22 -23 -72 -79 -223 -256 -37 -43 -76 -89 -88 -103 -12 -14 -78 -88 -146
-166 -169 -191 -215 -245 -215 -256 0 -9 130 -124 157 -139 17 -9 23 -4 178
166 31 33 78 87 105 120 28 33 88 103 135 155 47 53 112 127 145 165 83 97
177 195 185 195 11 0 77 -54 175 -144 50 -46 108 -98 130 -117 22 -19 41 -37
43 -41 2 -3 20 -19 40 -33 40 -29 -59 68 -183 180 -152 137 -188 172 -184 183
10 28 242 282 258 282 10 0 40 -20 66 -45 43 -40 87 -78 194 -170 19 -16 48
-42 65 -57 16 -15 32 -25 35 -23 2 3 2 6 0 8 -12 8 -239 210 -301 268 -21 20
-38 42 -38 49 0 9 103 133 150 180 3 3 27 31 54 63 41 49 47 61 35 71 -8 7
-43 39 -79 71 -36 32 -83 74 -105 94 -22 20 -119 106 -215 191 -96 85 -209
185 -249 222 l-75 68 5 243 c2 133 4 355 4 492 l0 250 -156 3 c-113 2 -160 6
-168 15 -14 17 162 227 190 227 21 0 25 15 8 26 -7 4 -25 -8 -43 -28 -17 -19
-71 -81 -120 -137 l-88 -101 -252 6 c-138 4 -255 10 -260 15 -5 5 7 27 30 52
69 76 159 180 234 267 40 47 76 87 80 90 3 3 42 45 86 95 43 49 86 97 94 106
20 21 44 52 54 67 15 24 -2 11 -45 -35z m-427 -1101 c6 -6 -4 -25 -31 -53 -22
-24 -69 -78 -105 -119 l-65 -75 69 -65 c39 -37 70 -71 70 -78 0 -9 -72 -12
-291 -12 l-290 0 -60 57 c-32 31 -59 61 -59 67 0 6 17 29 36 51 20 22 77 87
127 144 l92 103 248 -5 c143 -3 253 -9 259 -15z m354 -14 c3 -11 3 -102 -1
-203 l-7 -182 -172 -2 -172 -2 -82 71 c-45 39 -82 78 -82 87 0 30 201 249 234
255 10 1 76 2 147 0 119 -3 128 -5 135 -24z m-1007 -815 l475 -6 40 -38 c23
-20 68 -60 101 -89 33 -28 63 -57 67 -64 6 -10 -35 -62 -142 -179 l-35 -39
-405 2 c-223 2 -679 5 -1015 9 l-610 6 -2 185 c-1 102 1 193 3 203 5 16 39 17
527 17 287 0 735 -3 996 -7z m851 -14 c0 -14 -119 -155 -137 -163 -7 -3 -41
21 -75 53 -35 31 -74 65 -87 74 -14 9 -26 23 -27 32 -2 13 21 15 162 15 115 0
164 -3 164 -11z m150 -319 c0 -94 -12 -102 -66 -46 l-33 34 32 41 c17 22 39
42 47 44 8 3 16 5 18 6 1 0 2 -35 2 -79z m733 13 c42 -37 77 -74 77 -83 0 -15
-84 -110 -98 -110 -8 1 -166 140 -170 151 -6 14 81 109 99 109 8 0 50 -30 92
-67z m-830 -73 c4 -16 0 -20 -19 -20 -13 0 -24 6 -24 13 0 32 35 37 43 7z
m711 -63 c42 -38 76 -74 76 -80 0 -19 -231 -277 -247 -277 -12 0 -14 28 -11
175 l3 174 40 41 c22 22 45 39 52 38 6 -2 46 -34 87 -71z"/>
<path d="M3726 4165 c4 -8 11 -15 16 -15 6 0 5 6 -2 15 -7 8 -14 15 -16 15 -2
0 -1 -7 2 -15z"/>
<path d="M3785 4110 c3 -5 8 -10 11 -10 2 0 4 5 4 10 0 6 -5 10 -11 10 -5 0
-7 -4 -4 -10z"/>
<path d="M3810 4096 c0 -2 8 -10 18 -17 15 -13 16 -12 3 4 -13 16 -21 21 -21
13z"/>
<path d="M3865 4042 c11 -13 29 -28 40 -34 21 -11 18 -8 -30 32 -29 24 -29 24
-10 2z"/>
<path d="M3940 3976 c0 -2 8 -10 18 -17 15 -13 16 -12 3 4 -13 16 -21 21 -21
13z"/>
<path d="M4045 3880 c21 -24 26 -25 19 -6 -3 8 -13 17 -22 21 -13 5 -13 2 3
-15z"/>
<path d="M4080 3854 c0 -10 80 -78 84 -73 1 2 -17 21 -41 43 -24 21 -43 35
-43 30z"/>
<path d="M3540 3761 c0 -5 8 -16 19 -23 23 -16 120 -100 170 -148 78 -74 433
-385 444 -389 6 -2 -11 16 -38 40 -27 24 -78 71 -115 104 -36 33 -99 89 -139
125 -95 83 -103 91 -197 176 -115 104 -144 127 -144 115z"/>
<path d="M4194 3745 c10 -8 50 -42 89 -77 38 -35 75 -65 81 -67 13 -4 15 -6
-90 87 -44 40 -85 72 -90 72 -5 0 -1 -7 10 -15z"/>
<path d="M4380 3582 c0 -4 10 -13 23 -21 22 -14 22 -14 3 8 -20 22 -26 25 -26
13z"/>
<path d="M4479 3493 c30 -27 73 -65 95 -86 82 -77 212 -196 262 -238 28 -24
118 -105 201 -179 82 -74 164 -148 182 -163 18 -16 90 -81 159 -144 211 -193
294 -263 310 -263 6 0 19 11 29 24 10 13 56 66 102 117 46 52 109 123 140 159
31 35 103 116 160 180 57 63 107 119 111 123 13 14 45 -1 87 -41 21 -20 80
-73 131 -116 51 -44 92 -84 92 -89 0 -13 -338 -401 -655 -752 -55 -61 -125
-140 -155 -175 -30 -36 -61 -72 -69 -80 -27 -28 -375 -422 -451 -510 -42 -48
-108 -123 -147 -166 -39 -44 -82 -92 -94 -109 -13 -16 -61 -73 -108 -125 -89
-100 -104 -118 -189 -218 -30 -34 -61 -62 -70 -62 -17 0 -119 88 -338 289 -4
3 -5 1 -3 -5 2 -5 60 -61 129 -123 69 -62 144 -130 168 -152 49 -45 56 -46 75
-19 8 11 29 37 48 58 34 37 234 266 273 312 35 42 300 345 306 350 3 3 53 59
110 125 58 65 112 126 120 135 8 9 28 32 44 51 58 67 330 374 340 384 6 6 38
41 71 80 33 38 107 122 165 185 58 64 132 147 165 185 33 37 69 79 80 91 77
85 143 162 160 183 11 14 28 33 39 42 26 21 16 35 -116 149 -60 52 -128 112
-151 133 l-42 37 -25 -29 c-14 -16 -38 -44 -55 -63 -16 -19 -68 -77 -115 -129
-47 -53 -115 -129 -151 -170 -213 -239 -212 -238 -228 -229 -13 7 -177 153
-516 459 -22 20 -74 65 -115 101 -41 36 -79 70 -85 76 -11 13 -266 239 -365
324 -35 30 -83 72 -106 93 -23 20 -45 37 -50 37 -5 0 16 -21 45 -47z"/>
<path d="M8362 3269 c-78 -15 -154 -79 -188 -157 -25 -57 -30 -196 -10 -264
20 -71 69 -136 126 -168 40 -22 57 -25 146 -25 94 0 104 2 150 30 55 34 107
105 126 168 17 64 14 175 -7 235 -52 143 -183 213 -343 181z m131 -113 c91
-38 132 -169 91 -289 -35 -102 -147 -141 -237 -83 -89 59 -96 271 -10 348 41
38 102 47 156 24z"/>
<path d="M9625 3271 c-76 -19 -145 -77 -179 -151 -18 -38 -21 -64 -21 -160 1
-100 4 -121 24 -163 28 -57 100 -123 150 -137 48 -13 150 -13 192 1 73 25 140
101 155 177 l7 32 -61 0 c-56 0 -60 -2 -72 -29 -39 -95 -160 -114 -229 -36
-70 80 -58 280 20 336 66 47 161 30 200 -36 20 -34 23 -35 81 -35 l61 0 -7 32
c-25 123 -178 203 -321 169z"/>
<path d="M6940 2960 l0 -300 65 0 65 0 0 135 0 135 115 0 115 0 0 -135 0 -135
65 0 65 0 0 300 0 300 -65 0 -65 0 0 -115 0 -115 -115 0 -115 0 0 115 0 115
-65 0 -65 0 0 -300z"/>
<path d="M10620 3210 l0 -50 90 0 90 0 0 -250 0 -250 65 0 65 0 0 250 0 250
90 0 90 0 0 50 0 50 -245 0 -245 0 0 -50z"/>
<path d="M11810 2959 l0 -300 168 3 c143 3 173 6 207 23 96 48 116 217 34 292
-37 34 -76 44 -181 50 l-98 6 0 113 0 114 -65 0 -65 0 0 -301z m313 -58 c25
-25 28 -84 5 -107 -19 -19 -78 -33 -140 -34 l-48 0 0 86 0 87 81 -6 c64 -4 86
-10 102 -26z"/>
<path d="M4190 3176 c0 -2 11 -11 25 -20 28 -19 33 -15 9 8 -14 15 -34 22 -34
12z"/>
<path d="M4264 3115 c8 -8 18 -15 22 -15 3 0 1 7 -6 15 -7 8 -17 15 -22 15 -5
0 -3 -7 6 -15z"/>
<path d="M4300 3086 c0 -2 8 -10 18 -17 15 -13 16 -12 3 4 -13 16 -21 21 -21
13z"/>
<path d="M4350 3046 c0 -2 8 -10 18 -17 15 -13 16 -12 3 4 -13 16 -21 21 -21
13z"/>
<path d="M4407 2989 c7 -7 15 -10 18 -7 3 3 -2 9 -12 12 -14 6 -15 5 -6 -5z"/>
<path d="M4451 2953 c0 -4 13 -18 30 -31 16 -13 27 -18 24 -10 -7 16 -55 52
-54 41z"/>
<path d="M4540 2869 c14 -12 54 -49 90 -83 36 -34 106 -97 155 -141 50 -44
124 -111 165 -150 41 -38 154 -139 250 -224 96 -85 176 -159 178 -165 1 -6 -5
-21 -15 -32 -10 -11 -52 -58 -93 -104 -41 -47 -89 -101 -106 -120 -94 -106
-183 -207 -209 -239 -41 -50 -152 -177 -202 -231 -23 -25 -54 -61 -70 -80 -15
-20 -34 -42 -41 -50 -50 -59 -63 -70 -77 -70 -8 0 -15 -4 -15 -10 0 -27 36 -2
107 76 43 48 87 96 98 108 11 12 80 91 154 176 74 85 155 178 180 205 25 28
89 100 141 160 52 61 113 129 135 153 22 24 41 47 43 51 1 4 -37 43 -85 87
-48 43 -90 81 -93 84 -3 3 -39 34 -80 70 -87 76 -147 129 -244 221 -39 37 -87
80 -106 95 -19 16 -53 45 -75 65 -118 107 -191 169 -200 169 -5 -1 1 -10 15
-21z"/>
<path d="M6950 1889 l0 -301 183 4 c172 3 184 4 227 28 106 59 121 217 26 279
-28 19 -28 19 -7 30 29 16 51 63 51 108 0 55 -30 104 -80 130 -40 21 -55 23
-222 23 l-178 0 0 -301z m346 177 c20 -28 17 -63 -6 -86 -17 -17 -33 -20 -120
-20 l-100 0 0 66 0 66 106 -4 c91 -3 108 -6 120 -22z m4 -231 c23 -21 27 -81
7 -109 -17 -23 -75 -35 -164 -36 l-73 0 0 86 0 87 105 -5 c83 -4 109 -9 125
-23z"/>
<path d="M7940 1890 l0 -300 65 0 65 0 0 135 0 135 115 0 115 0 0 -135 0 -135
65 0 65 0 0 300 0 300 -65 0 -65 0 0 -115 0 -115 -115 0 -115 0 0 115 0 115
-65 0 -65 0 0 -300z"/>
<path d="M9006 1970 c57 -122 104 -227 104 -234 0 -28 -38 -49 -80 -43 l-41 5
3 -56 3 -57 58 -3 c50 -3 64 1 93 23 18 14 45 45 58 68 22 37 226 501 226 513
0 3 -30 4 -67 2 l-67 -3 -55 -152 c-31 -84 -59 -153 -62 -153 -3 0 -34 70 -70
155 l-64 155 -72 0 -71 0 104 -220z"/>
<path d="M9840 2140 l0 -50 90 0 90 0 0 -250 0 -250 65 0 65 0 0 250 0 250 90
0 90 0 0 50 0 50 -245 0 -245 0 0 -50z"/>
<path d="M10810 1890 l0 -300 65 0 65 0 0 110 0 110 93 0 c97 0 154 17 189 56
61 69 63 206 4 273 -39 44 -74 51 -251 51 l-165 0 0 -300z m306 177 c21 -19
27 -32 27 -66 0 -67 -25 -85 -123 -89 l-80 -4 0 91 0 91 74 0 c64 0 79 -3 102
-23z"/>
<path d="M11760 1890 l0 -300 64 0 63 0 106 183 c58 100 113 191 121 202 14
18 15 1 16 -182 l0 -203 60 0 60 0 0 300 0 301 -67 -3 -68 -3 -115 -198 -115
-199 -3 201 -2 201 -60 0 -60 0 0 -300z"/>
<path d="M4486 1228 c3 -7 17 -22 32 -32 27 -19 27 -19 -2 12 -32 35 -38 38
-30 20z"/>
<path d="M7035 1102 c-68 -32 -115 -105 -115 -179 0 -21 5 -23 49 -23 l49 0 7
39 c9 54 43 84 96 83 58 -1 92 -34 91 -90 0 -23 -5 -49 -10 -59 -6 -10 -71
-78 -146 -152 -128 -126 -136 -135 -136 -172 l0 -39 205 0 205 0 0 45 0 45
-132 0 -132 0 116 113 c101 98 117 118 127 159 15 65 14 96 -8 145 -28 60 -84
94 -163 100 -48 3 -73 -1 -103 -15z"/>
<path d="M8692 1099 c-50 -25 -85 -67 -108 -130 -25 -65 -25 -247 0 -317 22
-63 68 -120 113 -138 46 -20 117 -17 162 6 90 45 126 130 126 295 0 103 -2
115 -32 177 -39 82 -85 117 -164 124 -43 4 -63 1 -97 -17z m143 -103 c32 -32
45 -85 45 -190 0 -146 -31 -208 -105 -208 -75 0 -107 65 -106 217 0 101 18
165 54 190 33 23 84 19 112 -9z"/>
<path d="M11965 1102 c-68 -32 -115 -105 -115 -179 0 -21 5 -23 49 -23 l49 0
7 39 c9 54 43 84 96 83 58 -1 92 -34 91 -90 0 -23 -5 -49 -10 -59 -6 -10 -71
-78 -146 -152 -128 -126 -136 -135 -136 -172 l0 -39 205 0 205 0 0 45 0 45
-132 0 -132 0 116 113 c101 98 117 118 127 159 15 65 14 96 -8 145 -28 60 -84
94 -163 100 -48 3 -73 -1 -103 -15z"/>
<path d="M10325 1091 c-68 -16 -70 -17 -73 -49 l-3 -32 66 0 65 0 -2 -207 -3
-208 -62 -3 -63 -3 0 -39 0 -40 180 0 180 0 0 40 0 39 -62 3 -63 3 -3 258 -2
257 -43 -1 c-23 -1 -73 -9 -112 -18z"/>
</g>
</svg>
