<?xml version="1.0" standalone="no"?>
<!DOCTYPE svg PUBLIC "-//W3C//DTD SVG 20010904//EN"
 "http://www.w3.org/TR/2001/REC-SVG-20010904/DTD/svg10.dtd">
<svg version="1.0" xmlns="http://www.w3.org/2000/svg"
 width="1299.000000pt" height="472.000000pt" viewBox="0 0 1299.000000 472.000000"
 preserveAspectRatio="xMidYMid meet">

<g transform="translate(0.000000,472.000000) scale(0.100000,-0.100000)"
fill="#fff" stroke="none">
<path d="M3880 4505 c0 -28 24 -67 51 -81 34 -17 138 -18 174 -2 27 12 55 54
55 83 0 11 -11 15 -41 15 -33 0 -42 -4 -46 -20 -3 -11 -16 -23 -29 -26 -35 -9
-71 3 -77 26 -4 16 -13 20 -46 20 -29 0 -41 -4 -41 -15z"/>
<path d="M5900 4456 c-47 -10 -150 -51 -186 -74 -63 -39 -98 -69 -140 -115
-55 -62 -131 -189 -140 -235 -6 -28 -3 -31 41 -51 27 -12 87 -44 135 -71 48
-28 91 -50 96 -50 5 0 20 23 33 51 12 28 39 68 58 90 45 49 143 99 196 99 58
0 120 -33 152 -82 27 -40 27 -43 15 -97 -17 -78 -36 -114 -110 -212 -117 -155
-254 -314 -497 -576 -68 -72 -123 -139 -123 -148 0 -10 15 -55 33 -101 l32
-83 557 -1 557 0 3 168 c2 92 2 171 0 175 -2 4 -134 7 -294 7 -159 -1 -292 0
-294 3 -3 3 44 57 103 122 197 213 294 342 354 469 94 203 72 424 -58 562 -81
86 -281 165 -413 163 -30 0 -80 -6 -110 -13z"/>
<path d="M7240 4463 c-111 -18 -269 -102 -340 -180 -71 -77 -92 -107 -133
-187 -27 -53 -34 -74 -26 -88 5 -10 15 -18 21 -18 7 0 65 -29 129 -65 64 -36
121 -65 127 -65 6 0 16 17 23 37 22 67 134 164 219 189 68 20 107 12 157 -31
77 -66 79 -125 8 -247 -72 -123 -152 -221 -420 -517 -197 -217 -255 -288 -255
-311 0 -10 7 -47 16 -82 28 -111 -9 -104 532 -103 257 1 504 2 550 3 l82 2 0
170 0 170 -132 2 c-73 2 -208 1 -300 -1 -120 -2 -168 0 -168 8 0 7 43 57 95
112 225 238 365 438 401 574 67 250 -28 474 -244 575 -104 50 -238 70 -342 53z"/>
<path d="M2168 4381 c-70 -23 -128 -86 -128 -140 0 -19 6 -21 49 -21 41 0 51
4 56 20 11 36 54 60 105 60 61 0 93 -24 93 -70 0 -49 -31 -70 -104 -70 l-59 0
0 -39 0 -38 72 -5 c59 -5 75 -10 90 -28 26 -32 23 -73 -8 -104 -22 -21 -36
-26 -80 -26 -69 0 -100 13 -119 50 -14 27 -20 30 -65 30 -58 0 -61 -9 -31 -76
27 -60 99 -94 197 -94 148 0 234 63 234 172 0 49 -29 103 -63 119 l-23 11 33
33 c27 27 33 41 33 75 0 55 -30 103 -78 126 -41 20 -160 29 -204 15z"/>
<path d="M337 4373 c-4 -3 -7 -40 -7 -82 0 -98 -15 -197 -42 -288 -18 -64 -24
-73 -44 -73 -24 0 -24 -1 -24 -106 l0 -105 48 3 47 3 3 58 3 57 169 0 170 0 0
-60 0 -60 45 0 45 0 0 105 0 105 -25 0 -25 0 0 225 0 225 -178 0 c-98 0 -182
-3 -185 -7z m251 -265 l2 -178 -106 0 c-97 0 -106 2 -99 18 17 46 36 146 41
227 3 50 7 96 10 103 3 9 24 12 76 10 l73 -3 3 -177z"/>
<path d="M1160 4110 l0 -270 59 0 58 0 104 179 104 179 3 -179 2 -179 55 0 55
0 0 270 0 270 -57 0 -58 0 -105 -182 -105 -182 -3 182 -2 182 -55 0 -55 0 0
-270z"/>
<path d="M3057 4373 c-7 -13 -187 -518 -187 -526 0 -4 26 -7 58 -7 l58 0 18
55 17 55 99 0 99 0 17 -55 18 -55 58 0 c32 0 58 3 58 8 0 4 -41 125 -92 270
l-92 262 -62 0 c-35 0 -65 -3 -67 -7z m123 -315 c0 -15 -9 -18 -58 -18 -32 0
-61 3 -64 6 -5 4 29 117 58 194 6 15 64 -150 64 -182z"/>
<path d="M3790 4110 l0 -270 59 0 58 0 104 179 104 179 3 -179 2 -179 55 0 55
0 0 270 0 270 -57 0 -58 0 -105 -182 -105 -182 -3 182 -2 182 -55 0 -55 0 0
-270z"/>
<path d="M4680 4110 l0 -270 60 0 60 0 0 120 0 120 105 0 105 0 0 -120 0 -120
55 0 55 0 0 270 0 270 -55 0 -54 0 -3 -102 -3 -103 -102 -3 -102 -3 -3 103 -3
103 -57 3 -58 3 0 -271z"/>
<path d="M11065 3913 c-65 -5 -440 -60 -530 -79 -115 -23 -315 -69 -560 -127
-126 -30 -279 -65 -340 -77 -60 -12 -114 -27 -118 -34 -5 -6 -6 -2 -2 11 3 12
1 24 -5 28 -6 3 -20 25 -31 48 -40 79 -95 143 -143 166 -119 56 -196 -4 -196
-152 l0 -74 -38 -7 c-90 -14 -314 85 -464 205 -40 32 -78 59 -85 59 -26 0
-134 -94 -167 -147 -53 -84 -63 -144 -43 -255 13 -76 23 -102 64 -167 50 -79
146 -165 277 -252 71 -46 282 -151 351 -174 185 -61 403 -92 580 -81 260 15
520 137 629 295 16 23 32 41 36 41 11 0 123 -203 145 -262 10 -27 21 -48 25
-48 4 0 20 24 35 53 97 179 193 267 292 267 52 0 129 -53 185 -127 24 -31 62
-77 85 -102 l42 -46 88 -1 c67 -1 99 -6 133 -22 25 -12 37 -22 26 -22 -51 0
-266 -144 -340 -228 -51 -56 -110 -145 -131 -194 -21 -53 -29 -139 -16 -180
17 -53 82 -114 127 -121 58 -10 133 -8 198 4 184 34 468 241 543 396 14 29 31
57 39 64 8 6 11 16 7 22 -3 6 -1 7 5 3 19 -12 175 33 230 67 120 72 177 205
195 455 6 69 8 68 -61 15 -110 -84 -311 -101 -577 -49 -182 35 -469 124 -844
260 -60 22 -165 46 -201 46 -33 0 -60 9 -60 20 0 4 28 20 63 36 89 41 212 41
347 0 113 -34 270 -112 395 -196 50 -33 93 -60 96 -60 4 0 10 17 14 38 15 84
99 281 204 479 50 94 36 158 -42 194 -37 16 -65 18 -227 17 -102 -1 -207 -3
-235 -5z m-1903 -365 c10 -34 15 -64 13 -66 -2 -2 -11 23 -20 57 -13 46 -22
61 -39 64 -18 4 -17 4 4 6 23 1 27 -5 42 -61z m375 -30 c-3 -8 -6 -5 -6 6 -1
11 2 17 5 13 3 -3 4 -12 1 -19z m-246 -204 c65 -67 150 -84 195 -39 14 14 31
40 39 58 8 17 14 26 15 19 1 -38 -60 -108 -101 -117 -33 -8 -99 20 -146 62
-33 29 -113 148 -113 167 0 6 18 -18 39 -53 22 -35 54 -78 72 -97z m256 104
c-2 -13 -4 -5 -4 17 -1 22 1 32 4 23 2 -10 2 -28 0 -40z m1930 -544 c-3 -3
-12 -4 -19 -1 -8 3 -5 6 6 6 11 1 17 -2 13 -5z m160 0 c-3 -3 -12 -4 -19 -1
-8 3 -5 6 6 6 11 1 17 -2 13 -5z m-212 -14 c-11 -5 -27 -9 -35 -9 -9 0 -8 4 5
9 11 5 27 9 35 9 9 0 8 -4 -5 -9z m311 -42 l29 -33 -32 29 c-31 28 -38 36 -30
36 2 0 16 -15 33 -32z"/>
<path d="M376 3295 c-51 -18 -103 -71 -121 -121 l-13 -39 56 -3 c40 -2 58 1
61 10 2 7 17 25 32 40 53 54 157 29 192 -45 31 -64 28 -67 -74 -67 l-90 0 3
-42 3 -43 88 -3 c97 -3 100 -6 71 -68 -39 -81 -159 -92 -207 -19 -20 32 -26
35 -74 35 -64 0 -68 -13 -24 -82 39 -62 112 -98 195 -98 76 0 129 24 177 77
50 55 64 102 63 204 0 73 -4 95 -28 142 -45 94 -117 138 -222 137 -27 -1 -67
-7 -88 -15z"/>
<path d="M1485 3286 c-97 -46 -139 -123 -139 -256 1 -178 89 -280 244 -280
104 0 179 48 217 137 20 49 17 53 -41 53 -49 0 -56 -3 -68 -27 -20 -41 -61
-66 -108 -66 -84 0 -130 64 -130 181 0 121 43 182 127 182 57 0 97 -21 113
-60 12 -28 16 -30 66 -30 63 0 66 8 34 76 -50 102 -199 145 -315 90z"/>
<path d="M2608 3296 c-89 -32 -139 -96 -157 -201 -34 -196 73 -345 248 -345
126 0 212 65 247 189 33 111 -5 257 -81 315 -70 54 -176 71 -257 42z m168
-105 c45 -27 68 -83 68 -161 0 -114 -51 -181 -140 -182 -84 -2 -136 58 -142
161 -5 86 9 131 54 171 28 24 44 30 82 30 28 0 59 -8 78 -19z"/>
<path d="M3168 3301 c-70 -23 -128 -86 -128 -140 0 -19 6 -21 49 -21 41 0 51
4 56 20 11 36 54 60 105 60 61 0 93 -24 93 -70 0 -49 -31 -70 -104 -70 l-59 0
0 -39 0 -38 72 -5 c59 -5 75 -10 90 -28 26 -32 23 -73 -8 -104 -22 -21 -36
-26 -80 -26 -69 0 -100 13 -119 50 -14 27 -20 30 -65 30 -58 0 -61 -9 -31 -76
27 -60 99 -94 197 -94 148 0 234 63 234 172 0 49 -29 103 -63 119 l-23 11 33
33 c27 27 33 41 33 75 0 55 -30 103 -78 126 -41 20 -160 29 -204 15z"/>
<path d="M830 3030 l0 -270 55 0 55 0 0 93 c0 85 2 96 23 115 13 12 26 22 30
22 3 0 40 -50 83 -111 42 -61 82 -113 89 -115 7 -3 39 -4 72 -2 l61 3 -114
155 -113 155 105 105 c57 58 104 109 104 113 0 4 -30 7 -67 7 l-68 0 -102
-107 -102 -108 -1 108 0 107 -55 0 -55 0 0 -270z"/>
<path d="M1910 3030 l0 -270 60 0 60 0 0 225 0 226 103 -3 102 -3 3 -222 2
-223 55 0 55 0 0 270 0 270 -220 0 -220 0 0 -270z"/>
<path d="M3570 3030 l0 -270 59 0 58 0 104 179 104 179 3 -179 2 -179 55 0 55
0 0 270 0 270 -57 0 -58 0 -105 -182 -105 -182 -3 182 -2 182 -55 0 -55 0 0
-270z"/>
<path d="M4120 3030 l0 -270 200 0 200 0 0 -60 0 -60 45 0 45 0 0 105 0 105
-25 0 -25 0 0 225 0 225 -55 0 -55 0 -2 -222 -3 -223 -102 -3 -103 -3 -2 223
-3 223 -57 3 -58 3 0 -271z"/>
<path d="M4680 3030 l0 -270 59 0 58 0 104 179 104 179 3 -179 2 -179 55 0 55
0 0 270 0 270 -57 0 -58 0 -105 -182 -105 -182 -3 182 -2 182 -55 0 -55 0 0
-270z"/>
<path d="M5538 2663 l-58 -4 0 -402 c0 -221 3 -426 7 -455 l6 -53 96 3 96 3 5
175 5 175 163 3 162 2 0 90 0 90 -165 0 -165 0 0 90 0 90 189 0 188 0 7 38 c3
20 6 63 6 95 l0 57 -147 0 c-82 0 -191 2 -243 4 -52 2 -121 2 -152 -1z"/>
<path d="M8089 2656 c-140 -54 -237 -161 -274 -301 -19 -73 -19 -232 -1 -301
19 -71 70 -164 114 -207 52 -50 159 -104 225 -112 111 -14 249 37 324 118 151
164 171 454 44 643 -75 111 -175 166 -311 171 -55 2 -98 -2 -121 -11z m225
-147 c133 -66 200 -261 147 -427 -41 -125 -122 -197 -236 -209 -139 -14 -249
73 -291 232 -29 105 -2 248 60 330 74 97 211 129 320 74z"/>
<path d="M6250 2223 c0 -241 4 -443 8 -450 6 -9 82 -13 302 -13 l295 -1 3 90
3 91 -206 0 -205 0 0 95 0 95 175 0 176 0 -3 83 -3 82 -170 5 -170 5 -3 81 -3
81 38 7 c21 3 111 6 201 6 l163 0 -3 88 -3 87 -297 3 -298 2 0 -437z"/>
<path d="M7040 2203 l0 -458 60 3 60 4 0 169 0 169 98 0 97 0 88 -173 89 -173
71 4 c40 2 73 5 74 6 2 1 -38 78 -87 172 -49 93 -90 174 -90 181 0 6 15 20 33
30 64 38 116 139 117 229 1 115 -57 215 -150 261 -54 27 -60 28 -257 31 l-203
3 0 -458z m411 299 c45 -27 69 -75 69 -137 0 -57 -21 -100 -63 -125 -27 -17
-51 -20 -164 -20 l-133 0 0 148 c0 82 3 152 8 156 4 4 61 6 127 4 104 -3 125
-6 156 -26z"/>
<path d="M8700 2209 l0 -454 182 5 c210 6 229 12 326 104 89 84 132 194 132
341 0 148 -44 260 -141 356 -81 81 -115 91 -326 97 l-173 4 0 -453z m399 368
c63 -35 117 -94 152 -169 33 -71 34 -77 34 -198 0 -114 -3 -131 -28 -190 -15
-36 -40 -79 -56 -96 -32 -35 -106 -88 -136 -97 -17 -5 -276 -12 -312 -8 -13 1
-19 761 -6 775 5 4 78 6 163 4 127 -3 161 -7 189 -21z"/>
<path d="M9460 2630 l0 -30 70 0 70 0 0 -172 c0 -95 -3 -271 -7 -390 l-6 -218
-69 0 -68 0 0 -40 0 -40 175 0 175 0 0 40 0 40 -68 0 -69 0 -6 218 c-4 119 -7
295 -7 390 l0 172 70 0 70 0 0 30 0 30 -165 0 -165 0 0 -30z"/>
<path d="M9983 2652 c-6 -4 -13 -16 -15 -27 -3 -19 3 -20 225 -23 167 -2 227
-6 227 -14 0 -15 -74 -133 -304 -486 -47 -73 -86 -137 -86 -142 0 -6 -4 -10
-10 -10 -14 0 -100 -151 -100 -176 0 -19 7 -22 61 -28 79 -8 306 -8 431 0 l96
7 4 33 4 34 -242 0 c-134 0 -245 4 -248 9 -3 5 11 35 32 67 20 33 37 64 37 69
0 6 26 49 57 96 31 48 62 97 68 110 15 28 125 205 188 302 24 38 56 91 70 119
21 42 23 51 11 59 -16 10 -489 11 -506 1z"/>
<path d="M260 1860 l0 -270 59 0 58 0 104 179 104 179 3 -179 2 -179 55 0 55
0 0 270 0 270 -57 0 -58 0 -105 -182 -105 -182 -3 182 -2 182 -55 0 -55 0 0
-270z"/>
<path d="M4680 1860 l0 -270 59 0 58 0 104 179 104 179 3 -179 2 -179 55 0 55
0 0 270 0 270 -57 0 -58 0 -105 -182 -105 -182 -3 182 -2 182 -55 0 -55 0 0
-270z"/>
<path d="M7986 1660 l-169 -5 -81 -175 c-113 -243 -96 -229 -145 -124 -23 49
-65 137 -94 196 l-52 108 -187 0 c-104 0 -188 -2 -188 -5 0 -10 114 -222 134
-250 30 -41 131 -213 147 -250 7 -16 21 -41 31 -54 23 -31 23 -82 0 -112 -11
-13 -56 -89 -102 -169 -45 -80 -99 -174 -120 -210 -51 -89 -120 -218 -120
-225 0 -3 83 -5 184 -5 l184 0 16 40 c9 22 27 58 41 79 13 22 27 51 31 65 3
14 11 30 18 35 12 10 78 138 90 174 3 9 9 17 13 17 12 -1 52 -70 144 -247 l84
-163 188 0 187 0 -41 82 c-23 45 -53 100 -67 122 -14 23 -59 100 -100 171 -40
72 -80 137 -87 145 -7 8 -16 26 -20 40 -4 14 -16 34 -26 46 -10 11 -20 31 -21
45 -1 24 255 494 307 564 28 36 30 69 5 70 -8 1 -91 -2 -184 -5z"/>
<path d="M8281 1638 c7 -13 56 -99 109 -193 53 -93 125 -219 158 -278 34 -59
62 -113 62 -118 0 -6 -25 -54 -56 -107 -31 -53 -68 -117 -82 -142 -14 -25 -57
-99 -97 -165 -81 -135 -139 -245 -132 -251 3 -3 86 -5 186 -6 l182 -1 35 64
c19 35 64 126 102 201 37 75 72 137 79 138 14 0 39 -43 132 -225 39 -77 77
-148 84 -157 12 -14 39 -17 200 -20 103 -2 187 -1 187 0 0 7 -89 167 -140 252
-27 47 -50 92 -50 101 0 9 -7 22 -15 29 -8 6 -42 61 -76 121 -34 60 -66 112
-70 115 -17 10 -9 76 16 124 21 41 23 53 13 69 -15 24 6 54 31 46 12 -4 25 11
49 58 18 34 69 125 113 202 45 77 83 146 86 153 4 9 -35 12 -175 12 l-180 0
-70 -142 c-39 -79 -80 -165 -92 -191 -18 -43 -23 -47 -37 -35 -9 7 -46 74 -83
148 -37 74 -77 154 -90 178 l-22 42 -184 0 -185 0 12 -22z"/>
<path d="M9560 1431 c0 -127 3 -232 8 -234 4 -3 80 -8 170 -12 l162 -7 0 241
0 241 -170 0 -170 0 0 -229z"/>
<path d="M10160 1415 l0 -245 153 0 c83 0 158 -4 165 -9 8 -5 12 -17 10 -27
-4 -24 -81 -33 -225 -26 l-103 5 0 -320 c0 -176 3 -341 6 -367 l7 -46 163 0
164 0 0 640 0 640 -170 0 -170 0 0 -245z"/>
<path d="M10889 1639 c-6 -3 -8 -48 -7 -100 l3 -94 73 -3 c59 -2 72 0 72 13 0
12 -13 15 -65 15 l-65 0 0 30 0 30 60 0 c47 0 60 3 60 15 0 12 -13 15 -60 15
l-60 0 0 30 0 30 61 0 c44 0 60 3 56 13 -4 12 -110 18 -128 6z"/>
<path d="M11108 1635 c-52 -29 -60 -136 -12 -176 38 -31 134 -4 134 38 0 19
-13 16 -28 -7 -8 -14 -23 -20 -46 -20 -47 0 -68 27 -64 81 2 35 8 46 31 59 25
14 30 13 67 -7 47 -25 56 -7 14 26 -31 24 -58 26 -96 6z"/>
<path d="M11430 1545 c0 -126 9 -132 64 -45 60 94 66 95 66 11 0 -78 14 -96
23 -28 6 43 1 156 -7 164 -2 3 -19 -16 -38 -42 -18 -25 -43 -58 -55 -73 l-22
-27 -1 73 c0 57 -3 72 -15 72 -12 0 -15 -18 -15 -105z"/>
<path d="M11637 1643 c-4 -3 -7 -51 -7 -105 l0 -98 55 0 c82 0 117 43 80 97
-10 14 -12 24 -5 28 16 10 11 44 -10 65 -20 20 -98 29 -113 13z m98 -53 c0
-22 -5 -25 -38 -28 -39 -3 -55 13 -43 44 4 11 17 14 43 12 33 -3 38 -6 38 -28z
m10 -90 c0 -23 -4 -25 -47 -28 -48 -3 -48 -3 -48 28 0 31 0 31 48 28 43 -3 47
-5 47 -28z"/>
<path d="M11862 1633 c-5 -10 -17 -43 -27 -73 -10 -30 -21 -59 -25 -65 -4 -5
-11 -20 -14 -32 -11 -35 13 -28 25 7 10 27 15 30 55 30 38 0 45 -4 59 -30 9
-16 20 -30 26 -30 6 0 9 3 7 8 -1 4 -20 51 -42 105 -21 53 -42 97 -47 97 -4 0
-12 -8 -17 -17z m40 -68 c9 -34 3 -45 -23 -45 -25 0 -32 20 -19 54 12 34 31
30 42 -9z"/>
<path d="M10740 1625 c-7 -8 -19 -15 -26 -15 -22 0 -54 -38 -54 -64 0 -30 36
-76 60 -76 10 0 20 -5 22 -10 5 -15 85 26 98 51 20 36 2 79 -38 96 -21 8 -40
19 -43 25 -3 5 -12 2 -19 -7z m0 -85 c0 -52 -6 -59 -32 -37 -34 27 -26 87 12
87 17 0 20 -6 20 -50z m69 41 c20 -13 17 -62 -5 -78 -34 -25 -44 -16 -44 37 0
52 14 63 49 41z"/>
<path d="M11256 1631 c5 -5 20 -11 34 -13 24 -3 25 -6 28 -85 4 -110 22 -107
22 2 0 83 0 85 24 85 14 0 28 5 31 10 4 6 -22 10 -71 10 -48 0 -74 -4 -68 -9z"/>
<path d="M12020 1555 c0 -79 -2 -86 -22 -95 -22 -9 -22 -9 3 -9 32 -1 39 17
39 107 l0 63 38 -3 37 -3 3 -87 c4 -122 22 -112 22 12 l0 100 -60 0 -60 0 0
-85z"/>
<path d="M12190 1539 l0 -101 61 4 c67 5 79 15 79 66 0 37 -25 52 -86 52 -33
0 -34 1 -34 40 0 22 -4 40 -10 40 -6 0 -10 -40 -10 -101z m101 -9 c10 -6 19
-21 19 -34 0 -19 -7 -25 -34 -30 -46 -9 -66 1 -66 33 0 15 3 31 7 34 10 10 52
8 74 -3z"/>
<path d="M11770 1329 c0 -7 -10 -9 -25 -5 -15 4 -25 2 -25 -4 0 -15 62 -8 68
8 2 6 -1 12 -7 12 -6 0 -11 -5 -11 -11z"/>
<path d="M10670 1186 c0 -53 4 -98 10 -101 6 -4 10 10 10 33 0 44 10 52 64 52
38 0 66 26 66 61 0 39 -18 49 -87 49 l-63 0 0 -94z m124 51 c15 -25 -18 -49
-64 -45 -32 3 -35 6 -38 36 l-3 33 47 -3 c32 -2 50 -9 58 -21z"/>
<path d="M10872 1258 c-63 -68 -18 -178 72 -178 32 0 82 43 89 76 7 38 -10 91
-36 109 -33 23 -99 19 -125 -7z m117 -24 c44 -55 14 -124 -53 -124 -41 0 -66
28 -66 75 0 73 76 104 119 49z"/>
<path d="M11089 1261 c-20 -16 -24 -28 -24 -76 0 -50 3 -60 28 -81 34 -29 76
-31 111 -3 26 20 35 49 16 49 -5 0 -10 -4 -10 -10 0 -5 -13 -16 -29 -25 -57
-29 -110 19 -96 87 13 56 65 76 113 42 32 -22 43 -7 13 17 -30 25 -92 25 -122
0z"/>
<path d="M11293 1260 c-26 -23 -37 -69 -28 -111 14 -61 99 -86 147 -42 34 31
20 44 -19 17 -20 -13 -43 -22 -51 -19 -7 3 -18 5 -23 5 -16 0 -40 69 -33 93
16 55 77 76 116 40 16 -15 18 -15 18 0 0 38 -91 51 -127 17z"/>
<path d="M11470 1180 c0 -59 4 -100 10 -100 5 0 33 34 62 75 59 85 66 83 67
-17 1 -32 6 -58 11 -58 6 0 10 40 10 100 0 129 -14 132 -85 23 l-50 -77 -3 77
c-4 113 -22 95 -22 -23z"/>
<path d="M11672 1183 c2 -53 8 -98 13 -99 6 -2 29 26 53 61 56 85 72 85 72 0
0 -37 4 -65 10 -65 6 0 10 40 10 100 0 134 -17 135 -91 5 l-34 -60 -3 78 c-2
60 -6 77 -18 77 -12 0 -14 -16 -12 -97z"/>
<path d="M11903 1265 c-34 -24 -47 -76 -30 -118 16 -38 51 -67 80 -67 25 0 77
31 77 46 0 8 -14 5 -39 -9 l-40 -22 -28 21 c-34 25 -43 82 -18 120 19 29 69
33 97 7 10 -9 21 -13 26 -9 12 13 -39 46 -72 46 -17 0 -41 -7 -53 -15z"/>
<path d="M12070 1185 c0 -78 3 -95 15 -95 11 0 15 11 15 40 0 22 5 40 10 40 6
0 25 -20 42 -45 18 -25 35 -45 40 -45 16 0 7 28 -20 66 -27 37 -28 41 -14 64
9 14 25 35 36 48 19 21 19 22 0 22 -11 0 -31 -18 -49 -45 -16 -24 -33 -45 -37
-45 -5 0 -8 20 -8 45 0 33 -4 45 -15 45 -12 0 -15 -17 -15 -95z"/>
<path d="M12255 1255 c-38 -37 -35 -106 5 -147 27 -26 36 -30 67 -25 56 9 83
41 83 97 0 68 -27 100 -86 100 -34 0 -51 -6 -69 -25z m109 -8 c9 -7 20 -31 23
-54 5 -35 2 -45 -20 -67 -33 -33 -61 -33 -92 -1 -49 49 -22 135 43 135 16 0
36 -6 46 -13z"/>
<path d="M12450 1186 c0 -53 4 -98 10 -101 6 -4 10 27 10 84 l0 91 49 0 c28 0
53 5 56 10 4 6 -18 10 -59 10 l-66 0 0 -94z"/>
<path d="M12610 1262 c-26 -21 -38 -98 -21 -130 17 -32 67 -55 101 -47 16 4
41 21 56 38 53 63 8 157 -75 157 -22 0 -48 -8 -61 -18z m114 -21 c27 -30 18
-99 -16 -124 -23 -17 -31 -18 -57 -8 -75 32 -56 151 24 151 19 0 39 -8 49 -19z"/>
<path d="M9560 756 l0 -376 170 0 170 0 0 364 0 364 -57 6 c-32 3 -109 8 -170
12 l-113 6 0 -376z"/>
<path d="M11462 958 c5 -16 58 -23 58 -9 0 6 -6 8 -14 5 -8 -3 -17 -1 -21 5
-9 15 -28 14 -23 -1z"/>
<path d="M260 660 l0 -270 59 0 58 0 104 179 104 179 3 -179 2 -179 55 0 55 0
0 270 0 270 -57 0 -58 0 -105 -182 -105 -182 -3 182 -2 182 -55 0 -55 0 0
-270z"/>
<path d="M840 660 l0 -270 60 0 60 0 0 120 0 120 105 0 105 0 0 -120 0 -120
55 0 55 0 0 270 0 270 -55 0 -54 0 -3 -102 -3 -103 -102 -3 -102 -3 -3 103 -3
103 -57 3 -58 3 0 -271z"/>
<path d="M1390 885 l0 -45 80 0 80 0 0 -225 0 -225 60 0 60 0 0 225 0 225 80
0 80 0 0 45 0 45 -220 0 -220 0 0 -45z"/>
<path d="M1950 660 l0 -270 205 0 205 0 0 50 0 50 -150 0 -150 0 0 65 0 65
130 0 130 0 0 50 0 50 -130 0 -130 0 0 60 0 60 145 0 145 0 0 45 0 45 -200 0
-200 0 0 -270z"/>
<path d="M2500 660 l0 -270 55 0 55 0 0 94 0 93 94 5 c151 8 198 48 204 171 4
88 -17 128 -81 157 -35 16 -66 20 -184 20 l-143 0 0 -270z m282 150 c24 -30
23 -85 -2 -110 -16 -16 -33 -20 -95 -20 l-75 0 0 73 c0 41 3 77 8 81 4 5 38 6
76 3 57 -4 73 -9 88 -27z"/>
<path d="M3050 659 l0 -270 153 3 c170 3 196 11 234 67 18 26 23 48 23 94 0
115 -52 157 -207 165 l-93 5 0 103 0 104 -55 0 -55 0 0 -271z m279 -53 c28
-25 28 -77 0 -102 -17 -15 -36 -19 -93 -19 l-71 0 -3 59 c-5 87 -3 89 77 84
50 -2 75 -9 90 -22z"/>
<path d="M3600 660 l0 -270 205 0 205 0 0 50 0 50 -150 0 -150 0 0 65 0 65
130 0 130 0 0 50 0 50 -130 0 -130 0 0 60 0 60 145 0 145 0 0 45 0 45 -200 0
-200 0 0 -270z"/>
<path d="M4140 660 l0 -270 55 0 55 0 0 94 0 93 94 5 c151 8 198 48 204 171 4
88 -17 128 -81 157 -35 16 -66 20 -184 20 l-143 0 0 -270z m282 150 c24 -30
23 -85 -2 -110 -16 -16 -33 -20 -95 -20 l-75 0 0 73 c0 41 3 77 8 81 4 5 38 6
76 3 57 -4 73 -9 88 -27z"/>
<path d="M4837 923 c-7 -13 -187 -518 -187 -526 0 -4 26 -7 58 -7 l58 0 18 55
17 55 99 0 99 0 17 -55 18 -55 58 0 c32 0 58 3 58 8 0 4 -41 125 -92 270 l-92
262 -62 0 c-35 0 -65 -3 -67 -7z m123 -315 c0 -15 -9 -18 -58 -18 -32 0 -61 3
-64 6 -5 4 29 117 58 194 6 15 64 -150 64 -182z"/>
<path d="M12546 907 c-36 -36 -33 -72 10 -142 43 -73 81 -107 159 -145 144
-72 224 -9 161 125 -42 92 -157 173 -257 183 -41 4 -51 1 -73 -21z"/>
<path d="M10687 839 c-3 -53 -11 -86 -21 -98 -17 -18 -23 -93 -7 -76 5 6 11
19 13 30 2 11 9 20 16 19 6 -1 37 -2 67 -2 52 -2 55 -4 55 -27 0 -14 5 -25 11
-25 7 0 9 12 4 38 -4 20 -9 79 -12 130 l-4 92 -58 0 -58 0 -6 -81z m101 -26
l3 -73 -47 0 -47 0 7 53 c3 28 6 62 6 75 0 21 4 23 38 20 l37 -3 3 -72z"/>
<path d="M10860 820 c0 -125 12 -129 77 -28 26 40 48 68 49 63 1 -6 5 -40 9
-77 4 -38 11 -68 16 -68 14 0 7 202 -7 207 -6 2 -35 -33 -65 -79 l-54 -82 -3
82 c-4 117 -22 103 -22 -18z"/>
<path d="M11077 902 c-18 -20 -22 -42 -8 -42 5 0 14 7 21 16 19 22 65 14 65
-11 0 -13 -8 -21 -22 -23 -31 -5 -29 -30 3 -42 19 -7 25 -16 22 -33 -4 -32
-51 -36 -72 -5 -11 15 -19 19 -26 12 -7 -7 -4 -19 10 -37 40 -51 120 -26 120
38 0 19 -4 36 -9 40 -5 3 -7 20 -4 38 3 24 0 39 -12 50 -22 22 -68 22 -88 -1z"/>
<path d="M11281 898 c-5 -13 -16 -41 -26 -63 -29 -68 -45 -125 -34 -125 6 0
15 14 20 30 10 28 15 30 59 30 44 0 49 -2 59 -30 13 -38 33 -40 22 -2 -16 54
-74 182 -83 182 -5 0 -12 -10 -17 -22z m48 -90 c1 -5 -13 -8 -30 -8 -28 0 -31
2 -24 23 3 12 9 33 12 47 6 24 7 23 24 -15 10 -22 18 -43 18 -47z"/>
<path d="M11495 842 l-50 -77 -3 73 c-4 109 -22 87 -22 -28 0 -55 4 -100 9
-100 5 0 31 34 57 75 26 41 51 75 56 75 4 0 8 -34 8 -75 0 -43 4 -75 10 -75 6
0 10 42 10 105 0 77 -3 105 -12 105 -7 0 -35 -35 -63 -78z"/>
<path d="M11620 821 c0 -102 16 -150 22 -64 l3 48 50 0 50 0 3 -48 c2 -26 7
-45 13 -42 12 8 12 205 -1 205 -5 0 -10 -17 -10 -39 0 -37 -1 -38 -41 -44 -59
-8 -69 -1 -69 44 0 21 -4 39 -10 39 -6 0 -10 -40 -10 -99z"/>
<path d="M11872 907 c-17 -20 -74 -188 -67 -196 8 -7 35 28 35 46 0 9 15 13
45 13 39 0 46 -3 60 -30 21 -40 36 -39 24 3 -14 48 -72 177 -80 177 -3 0 -11
-6 -17 -13z m32 -53 c13 -35 7 -54 -19 -54 -28 0 -30 6 -15 44 11 29 25 34 34
10z"/>
<path d="M10670 466 c0 -53 4 -98 10 -101 6 -4 10 10 10 33 0 43 10 52 60 52
51 0 60 -9 60 -57 0 -27 4 -42 10 -38 13 8 13 205 1 205 -6 0 -11 -19 -13 -42
l-3 -43 -55 0 -55 0 -3 43 c-6 80 -22 42 -22 -52z"/>
<path d="M10922 543 c-5 -10 -21 -53 -36 -95 -29 -81 -30 -131 -2 -65 15 34
19 37 57 37 36 0 42 -3 52 -30 6 -16 17 -30 24 -30 17 0 18 -6 -26 101 -40 97
-53 113 -69 82z m48 -90 c0 -8 -13 -13 -31 -13 -29 0 -31 2 -24 27 4 16 12 34
18 42 9 11 14 8 24 -15 7 -16 12 -35 13 -41z"/>
<path d="M11140 455 c0 -75 3 -104 11 -99 7 4 9 21 6 41 -4 24 -2 36 9 40 19
7 39 -10 59 -52 9 -19 22 -35 30 -35 18 0 19 14 2 32 -53 55 -56 95 -12 142
14 16 24 31 21 33 -12 12 -35 -8 -57 -48 -34 -60 -49 -61 -49 -5 0 24 -4 48
-10 51 -6 4 -10 -32 -10 -100z"/>
<path d="M11300 455 c0 -63 4 -105 10 -105 6 0 10 34 10 81 0 44 4 78 9 75 4
-3 18 -37 30 -76 12 -38 28 -70 35 -70 6 0 18 21 25 48 8 26 20 56 28 67 11
17 13 11 13 -53 0 -57 3 -72 15 -72 12 0 15 18 15 99 0 141 -30 149 -66 19
-10 -33 -22 -57 -28 -55 -6 2 -20 30 -31 63 -24 71 -32 84 -51 84 -11 0 -14
-20 -14 -105z"/>
<path d="M11537 553 c-4 -3 -7 -48 -7 -99 0 -105 5 -112 80 -99 50 8 64 26 56
67 -4 18 -7 52 -6 75 1 32 -4 44 -19 52 -22 12 -94 15 -104 4z m101 -50 c-3
-25 -7 -28 -43 -28 -36 0 -40 3 -43 28 -3 26 -2 27 43 27 45 0 46 -1 43 -27z
m10 -90 c-2 -23 -9 -29 -42 -35 -43 -9 -56 0 -56 40 0 20 5 22 51 22 49 0 50
-1 47 -27z"/>
</g>
</svg>
