<svg width="568" height="579" viewBox="0 0 568 579" fill="none" xmlns="http://www.w3.org/2000/svg">
<path d="M56.4 1.80454C44.1333 4.4712 32.6667 11.1379 22 21.8045C6.26667 37.4045 0 53.1379 0 77.1379C0 89.9379 2 100.205 6.26667 109.538C8 113.671 8.13333 115.138 6.93333 117.271C6 118.605 5.33333 121.005 5.33333 122.471C5.33333 125.138 5.6 125.938 9.73333 134.205C10.9333 136.738 12 139.805 12 141.138C12 142.338 12.9333 144.205 14 145.138C15.0667 146.071 16 148.471 16 150.471C16 152.471 17.2 155.138 18.5333 156.338C20 157.671 20.8 159.671 20.4 161.138C20 162.605 20.9333 164.871 22.8 166.738C24.9333 168.871 25.8667 171.138 25.6 173.405C25.3333 175.805 26.2667 178.071 28.1333 179.938C30.2667 182.071 31.0667 184.338 30.8 187.271C30.5333 190.471 31.3333 192.071 33.8667 194.205C36.5333 196.205 37.3333 198.071 37.3333 201.671C37.3333 205.138 38.2667 207.538 40.6667 209.938C43.0667 212.338 43.8667 214.205 43.2 216.071C42.8 217.538 43.3333 221.005 44.4 223.671C45.6 226.338 46.8 230.738 47.3333 233.405C48.1333 238.338 54.2667 245.138 58 245.138C62 245.138 61.0667 247.805 56.2667 250.338C40 258.605 31.2 282.471 38 299.405C40.1333 304.871 40.1333 305.271 37.4667 309.538C34.5333 314.338 33.8667 320.471 36 323.805C36.9333 325.271 36.1333 326.738 33.0667 329.538C29.3333 333.005 29.0667 333.805 29.7333 340.205C30.2667 346.071 29.8667 347.671 27.2 350.871C23.8667 354.738 23.4667 357.271 25.2 361.671C25.8667 363.405 25.2 365.138 22.9333 367.405C20.2667 370.071 19.8667 371.538 20.5333 375.805C21.0667 379.405 20.8 381.271 19.2 382.605C17.8667 383.671 17.3333 386.071 17.4667 389.005C17.7333 391.805 16.9333 395.271 15.4667 397.405C14.1333 399.538 13.4667 402.071 14 403.671C14.4 405.271 13.8667 407.805 12.5333 409.671C11.3333 411.538 10.6667 414.071 11.2 415.138C11.6 416.338 11.0667 418.605 10 420.338C8.8 422.071 8.26667 424.338 8.66667 425.538C9.2 426.605 8.93333 427.938 8.13333 428.471C7.33333 428.871 6.66667 430.605 6.66667 432.338C6.66667 433.938 6 435.938 5.33333 436.605C4.4 437.538 4.13333 462.205 4.26667 507.938L4.66667 577.805H76H147.333L147.733 508.605C147.867 463.271 147.6 438.871 146.667 437.938C146 437.271 145.333 435.005 145.333 433.005C145.333 431.005 144.8 429.005 144.133 428.605C143.6 428.205 143.333 426.471 143.6 424.738C144 423.005 143.333 420.871 142.133 419.938C140.8 418.871 140.4 417.005 140.8 414.605C141.333 412.205 140.8 410.205 139.333 408.738C138 407.271 137.467 405.538 138 403.805C138.533 402.071 138 399.538 136.533 397.405C135.2 395.271 134.267 391.938 134.533 389.405C134.667 387.005 134.133 384.071 133.067 382.871C132.133 381.671 131.333 378.071 131.333 374.738C131.333 370.471 130.533 368.205 128.533 366.605C126.533 365.005 126 363.671 126.8 361.805C128.533 357.271 128.133 354.738 124.8 350.871C122.133 347.671 121.733 346.071 122.267 341.005C122.933 335.671 122.533 334.338 118.933 330.338C116 327.005 115.2 325.138 116.133 323.671C118.667 319.671 116.8 310.071 112.933 307.538C112 307.005 112.267 304.338 113.733 299.805C120 280.605 112.8 260.605 96.5333 251.005C93.3333 249.138 90.6667 247.271 90.6667 247.005C90.6667 246.738 92.8 245.671 95.3333 244.605C100.667 242.338 105.333 235.538 105.333 229.671C105.333 227.538 106 225.005 106.8 224.205C107.6 223.405 108.133 220.205 107.733 217.271C107.467 214.205 107.733 211.805 108.267 211.805C110.8 211.805 114.667 205.538 114.667 201.405C114.667 198.338 115.6 196.071 117.6 194.605C119.333 193.005 120.533 190.605 120.533 187.671C120.667 185.005 122.133 181.271 123.733 179.138C125.6 176.871 126.533 174.205 126.133 172.738C125.733 171.138 126.533 169.271 128.267 167.938C129.867 166.605 131.067 164.071 131.067 161.938C131.067 159.805 132.133 157.005 133.467 155.671C134.933 154.205 136 151.671 136 149.938C136 148.205 136.933 146.071 138 145.138C139.067 144.205 140 142.338 140 141.138C140 139.805 141.067 136.738 142.267 134.205C146.4 125.938 146.667 125.138 146.667 121.938C146.667 120.205 145.733 118.071 144.667 117.138C142.933 115.671 142.933 115.005 144.8 111.405C155.733 90.3379 155.867 63.9379 145.067 41.2712C136.267 22.7379 112.267 4.33787 92.6667 1.13787C81.7333 -0.595465 66.4 -0.328798 56.4 1.80454ZM128 135.805C126.4 137.405 125.333 139.805 125.733 141.005C126 142.338 125.2 144.071 123.867 145.005C122.4 145.805 121.333 147.938 121.333 149.805C121.333 151.538 119.867 154.471 118 156.338C116.133 158.205 114.667 160.871 114.667 162.471C114.667 163.938 113.467 166.338 112 167.805C110.533 169.271 109.333 172.071 109.333 173.938C109.333 176.071 108 178.471 106 180.071C103.733 181.805 102.667 183.938 102.667 186.738C102.667 189.538 101.333 191.938 98.5333 194.605C95.0667 197.938 94.4 199.271 95.0667 202.871C95.6 206.605 95.2 207.538 91.8667 209.405C89.7333 210.738 88 212.605 88 213.805C88 214.871 86.9333 215.805 85.4667 215.805C83.4667 215.805 82.9333 214.738 82.9333 210.605C82.8 206.471 83.4667 205.138 86.1333 203.671C91.4667 200.871 94.6667 194.338 94.6667 186.471C94.6667 179.938 94.2667 179.005 89.4667 174.471C83.6 168.871 77.8667 167.271 70.6667 169.138C64.5333 170.871 57.7333 178.071 56.6667 184.338C55.4667 190.338 59.8667 200.471 64.9333 203.405C68.1333 205.138 68.6667 206.471 68.6667 210.605C68.6667 216.605 66.6667 217.405 63.4667 212.605C62.4 210.738 60.2667 209.005 58.8 208.471C56.6667 207.805 56.2667 206.871 56.9333 203.138C57.6 199.138 57.0667 197.938 53.4667 194.605C50.5333 191.938 49.3333 189.538 49.3333 186.605C49.3333 183.671 48.4 181.938 46 180.338C43.7333 178.871 42.6667 177.005 42.6667 174.338C42.6667 172.205 41.4667 169.271 39.7333 167.538C38.1333 165.938 36.8 163.138 36.6667 161.405C36.6667 159.671 35.2 157.138 33.6 155.805C31.8667 154.338 30.9333 152.605 31.4667 151.271C31.8667 150.071 30.9333 147.938 29.0667 146.071C27.3333 144.471 26.1333 142.071 26.4 140.871C26.6667 139.671 25.4667 137.405 23.8667 135.938C18.8 131.271 23.4667 132.738 30.2667 138.071C43.8667 148.471 62 153.805 80 152.738C94.9333 151.938 107.6 147.538 120 139.005C130.4 131.805 132.933 130.871 128 135.805ZM83.3333 325.538C89.7333 324.471 90.9333 324.605 92.8 326.605C94 327.938 96 329.405 97.3333 329.805C99.2 330.338 99.4667 331.671 98.9333 337.138C98.4 343.005 98.6667 344.071 102.267 347.538C105.467 350.871 106.133 352.338 105.6 356.471C105.067 360.471 105.733 362.071 108.667 365.138C111.333 367.805 112.133 369.805 111.6 371.938C110.8 375.005 113.867 382.471 116 382.471C116.667 382.471 117.2 384.605 117.067 387.138C116.933 390.071 117.867 392.871 119.467 394.605C120.8 396.205 121.867 398.605 121.6 400.071C121.333 401.405 122.267 404.205 123.467 406.205C124.8 408.205 126 411.538 126.133 413.671C126.267 415.805 127.467 418.338 128.667 419.271C129.867 420.205 130.533 421.538 130.133 422.338C129.6 423.138 130.133 425.538 131.333 427.671C135.733 436.338 139.067 435.805 76 435.805C22.2667 435.805 18.6667 435.671 18.6667 433.405C18.6667 432.205 19.6 429.938 20.6667 428.605C21.7333 427.138 22.6667 424.871 22.6667 423.538C22.6667 422.205 23.6 419.538 24.8 417.805C26 416.071 26.6667 413.538 26.4 412.205C26.1333 410.871 27.0667 408.738 28.2667 407.538C29.6 406.205 30.6667 403.271 30.6667 401.005C30.6667 398.605 31.6 396.071 32.9333 395.138C34.4 394.071 35.2 391.671 35.2 388.471C35.2 384.871 36.1333 382.471 38.4 380.205C41.0667 377.538 41.4667 376.205 40.8 372.471C40.1333 368.871 40.4 367.671 42.5333 366.605C45.7333 364.871 47.8667 358.871 46.6667 354.471C46.1333 351.938 46.8 350.471 50 347.671C53.4667 344.471 54 343.138 53.8667 337.671C53.7333 332.338 54.2667 330.871 57.7333 327.805C61.4667 324.471 62.1333 324.338 68.8 325.671C73.4667 326.471 78.5333 326.471 83.3333 325.538Z" fill="black"/>
<path d="M195.333 49.5379C194.933 50.4712 194.8 68.6046 194.933 89.8046L195.333 128.471L203.067 128.871L210.667 129.271V106.471C210.667 94.0712 211.067 83.8046 211.733 83.8046C212.267 83.8046 215.333 89.1379 218.4 95.5379C221.6 101.938 226.933 112.071 230.267 118.205L236.267 129.271L244.4 128.871L252.667 128.471L253.067 88.8712L253.333 49.1379L250.267 48.4712C248.533 47.9379 244.8 47.8046 241.867 48.0712L236.667 48.4712L236 71.5379L235.333 94.6046L224.8 73.5379C219.067 61.9379 213.467 51.4046 212.267 50.0712C209.733 47.2712 196.267 46.7379 195.333 49.5379Z" fill="black"/>
<path d="M283.333 49.4046C283.067 50.3379 281.2 55.2712 279.333 60.4712C270 85.2712 256.133 126.871 256.8 127.938C257.867 129.805 271.733 129.405 272.933 127.538C273.467 126.605 274.933 123.138 276.133 119.805L278.267 113.805L292.267 113.405L306.4 113.005L308.933 120.738L311.6 128.471L319.867 128.871L328.267 129.271L327.6 124.871C326.667 118.338 302.533 49.9379 300.8 48.8712C298.267 47.1379 284 47.6712 283.333 49.4046ZM297.333 84.4712C299.067 89.5379 300.667 94.6046 301.067 95.4046C301.467 96.7379 299.333 97.1379 292.8 97.1379C288 97.1379 284 96.8712 284 96.4712C284 96.0712 285.2 92.3379 286.533 88.0712C292.667 69.9379 292.667 69.9379 297.333 84.4712Z" fill="black"/>
<path d="M313.333 49.5379C313.333 50.6046 318.667 60.7379 325.2 72.0712L337.2 92.8712L337.467 109.671C337.733 118.871 338.267 127.138 338.667 127.938C339.2 128.738 342.667 129.138 346.8 128.871L354 128.471L354.667 110.471L355.333 92.4712L362.133 81.1379C377.2 56.2046 380.267 50.6046 379.333 49.2712C378.933 48.4712 375.333 47.8046 371.333 47.8046C363.2 47.8046 362.267 48.6046 352.533 65.5379C349.733 70.4712 346.933 74.3379 346.267 74.0712C345.6 73.9379 341.6 68.0712 337.467 61.1379L329.867 48.4712L321.6 48.0712C315.2 47.8046 313.333 48.0712 313.333 49.5379Z" fill="black"/>
<path d="M391.067 49.4046C390.267 50.3379 385.333 63.6712 380 79.1379C374.8 94.4712 368.933 111.271 367.2 116.205C362.533 129.405 362.533 129.271 372.267 128.871L380.533 128.471L383.333 121.138L386.133 113.805L400.133 113.405L414 113.005L416.667 120.738L419.333 128.471L427.867 128.871L436.267 129.271L435.6 125.538C434.667 120.338 410.533 51.5379 408.933 49.4046C408.267 48.4712 404.533 47.8046 400 47.8046C395.467 47.8046 391.733 48.4712 391.067 49.4046ZM406.667 89.4046L409.067 97.1379H400.533C394.4 97.1379 392 96.6046 392 95.4046C392 93.4046 398 75.2712 399.467 72.8712C400.533 71.2712 401.867 74.6046 406.667 89.4046Z" fill="black"/>
<path d="M440.267 48.8712C439.067 49.8046 438.667 58.7379 438.933 89.2712L439.333 128.471L459.333 128.871C471.6 129.005 480.667 128.605 482.8 127.805C484.667 127.005 488.667 123.938 491.467 121.005L496.667 115.671V89.2712V62.8712L493.067 58.2046C486.533 49.6712 480.4 47.8046 459.867 47.8046C450 47.8046 441.2 48.3379 440.267 48.8712ZM476.8 64.8712C480.4 67.2712 481.333 72.3379 481.333 89.4046C481.333 112.871 481.2 113.138 465.867 113.138H454.667V88.4712V63.8046H465.067C470.667 63.8046 476 64.3379 476.8 64.8712Z" fill="black"/>
<path d="M522.533 51.4045C516.667 66.2045 496 125.805 496 127.805C496 128.738 499.067 129.138 504.267 128.871L512.533 128.471L515.467 121.138L518.4 113.805L532.4 113.405L546.4 113.005L548.933 120.738L551.6 128.471H559.467H567.333L566.933 124.471C566.667 122.205 562.267 108.205 557.067 93.1378C551.733 78.0712 546.4 62.2045 544.933 57.8045C543.467 53.4045 541.6 49.4045 540.8 48.8712C540 48.3378 535.867 47.8045 531.6 47.8045C524.4 47.8045 523.867 48.0712 522.533 51.4045ZM537.6 85.2712C539.6 91.4045 541.333 96.6045 541.333 96.7378C541.333 97.0045 537.467 97.1378 532.667 97.1378C527.867 97.1378 524 96.7378 524 96.0712C523.867 93.2712 531.467 73.1378 532.533 73.5378C533.333 73.8045 535.467 79.0045 537.6 85.2712Z" fill="black"/>
<path d="M216.267 160.738C215.6 162.071 213.333 168.204 211.333 174.471C209.333 180.738 203.467 197.404 198.4 211.671C193.2 226.604 189.733 238.071 190.4 238.738C191.067 239.404 194.8 239.804 198.8 239.538L205.867 239.138L208.533 232.471C212.8 222.071 212.267 222.471 225.867 222.471C239.867 222.471 239.867 222.471 243.6 232.471L246.133 239.138L253.733 239.538C259.067 239.804 261.6 239.404 262 238.204C262.267 237.271 256.4 219.004 248.933 197.804L235.333 159.138L226.4 158.738C218.933 158.471 217.333 158.738 216.267 160.738ZM231.2 193.538C233.333 199.538 235.333 205.271 235.733 206.071C236.133 207.404 233.733 207.804 226 207.804C218.267 207.804 215.867 207.404 216.267 206.071C216.667 205.271 218.667 199.538 220.8 193.538C222.933 187.404 225.333 182.471 226 182.471C226.8 182.471 229.067 187.404 231.2 193.538Z" fill="black"/>
<path d="M266 160.205C265.6 161.138 265.467 179.271 265.6 200.471L266 239.138L273.2 239.538C278.133 239.805 280.8 239.405 281.467 238.205C282.133 237.271 282.667 230.338 282.667 223.005V209.405L295.867 208.871C307.333 208.471 309.6 207.938 314.267 204.871C321.467 200.205 324 194.205 324 182.738C324 172.205 321.333 166.738 313.467 161.538C309.2 158.605 307.6 158.471 287.733 158.471C272 158.471 266.4 158.871 266 160.205ZM305.867 175.271C308.667 178.071 308.667 188.205 305.867 191.138C304.133 192.738 301.467 193.138 292.8 192.871L282 192.471L281.6 184.605C281.333 180.338 281.467 175.938 281.867 175.005C282.933 172.205 303.067 172.471 305.867 175.271Z" fill="black"/>
<path d="M321.333 159.938C321.333 160.604 326.133 169.271 332 179.004C337.867 188.738 342.667 197.271 342.667 197.938C342.667 198.738 337.6 207.538 331.333 217.671C325.067 227.804 320 236.871 320 237.938C320 239.271 322 239.804 327.867 239.804C336.8 239.804 336.533 240.071 345.333 225.404C348.667 219.804 352 215.138 352.667 214.871C353.467 214.738 357.467 220.204 361.733 227.138L369.6 239.804H377.333C381.6 239.804 385.6 239.138 386 238.471C386.533 237.671 381.467 228.471 374.8 217.938C368.133 207.404 362.667 198.471 362.667 198.071C362.667 197.671 367.733 189.138 374 179.138C380.267 169.138 385.067 160.338 384.667 159.671C384.133 159.004 380.267 158.471 376 158.471H368.267L361.2 169.804C357.467 176.071 353.6 181.138 352.8 181.138C352 181.138 349.2 177.404 346.667 172.871C338.667 158.871 338.267 158.471 329.2 158.471C324.533 158.471 321.333 159.004 321.333 159.938Z" fill="black"/>
<path d="M394.267 159.271C393.067 160.471 392.933 234.738 394.133 237.671C394.8 239.271 396.8 239.805 402.667 239.805H410.4L416.4 228.738C419.733 222.738 425.2 212.071 428.8 205.138L435.333 192.471L436 215.805L436.667 239.138H444H451.333L451.733 198.738L452 158.471H444.133C436.933 158.471 436 158.871 433.467 162.338C431.867 164.471 430.667 166.605 430.667 167.005C430.667 167.538 426.267 176.071 421.067 186.205L411.333 204.471L410.667 181.805L410 159.138L402.667 158.738C398.533 158.471 394.8 158.738 394.267 159.271Z" fill="black"/>
<path d="M194.667 308.071C194.667 336.738 195.067 347.671 196.267 348.871C198.267 350.871 230.4 351.138 237.333 349.138C240 348.471 244.4 345.404 247.333 342.471C252.4 337.271 252.667 336.604 253.067 327.271C253.467 320.071 253.067 316.471 251.467 313.271C249.467 309.404 249.467 308.871 251.467 305.004C253.067 301.804 253.467 298.204 253.067 290.871C252.667 281.404 252.4 281.004 246.933 275.404L241.333 269.804L218 269.404L194.667 269.004V308.071ZM234.933 286.071C238.267 289.004 238.133 296.338 234.667 299.804C232.267 302.204 230.533 302.471 221.6 302.204L211.333 301.804L210.933 292.738L210.533 283.804H221.467C229.867 283.804 233.067 284.338 234.933 286.071ZM232.533 317.138C237.067 318.738 238.533 326.338 235.467 331.138C233.333 334.471 232.667 334.604 222.267 334.204L211.333 333.804L210.933 326.604C210.667 322.738 210.8 318.604 211.2 317.671C212 315.404 227.2 315.004 232.533 317.138Z" fill="black"/>
<path d="M260.933 270.071C260.4 270.471 260 287.938 260 308.605C260 341.138 260.267 346.605 262.133 348.338C263.733 350.071 267.467 350.471 281.067 350.471C303.333 350.338 307.467 349.405 313.733 342.338C318.533 336.871 318.667 336.605 318.667 325.671C318.667 315.005 318.533 314.338 314.4 309.671C308.4 302.738 303.467 301.138 289.333 301.138H277.333V285.138V269.138H269.6C265.333 269.138 261.333 269.538 260.933 270.071ZM299.2 317.138C302.267 318.205 302.667 319.138 302.667 324.871C302.667 328.338 302 331.938 301.067 332.871C300.133 333.805 295.2 334.471 288.4 334.471H277.333V326.071C277.333 321.405 277.733 317.138 278.267 316.738C279.6 315.271 295.333 315.671 299.2 317.138Z" fill="black"/>
<path d="M324.933 269.938C323.2 271.671 323.867 347.138 325.6 348.871C327.733 351.004 338 350.871 339.867 348.604C340.933 347.404 341.333 335.671 341.067 308.338L340.667 269.804L333.333 269.404C329.2 269.138 325.467 269.404 324.933 269.938Z" fill="black"/>
<path d="M358 271.671C352.667 274.871 346.667 282.071 346.667 285.138C346.667 286.871 348.4 287.938 353.333 289.138C359.733 290.604 360.133 290.604 364.133 287.271C367.333 284.604 369.6 283.804 374.8 283.804C384.533 283.804 386.667 285.404 386.667 292.471C386.667 299.804 384.667 301.138 372.8 301.138H364V307.671C364 315.938 365.6 317.271 374.267 316.338C384.133 315.138 386.667 317.004 386.667 325.138C386.667 333.004 384.8 334.471 374.8 334.471C369.6 334.471 367.333 333.671 364.133 331.004C360.133 327.671 359.733 327.671 353.333 329.138C348 330.471 346.667 331.271 346.667 333.405C346.667 337.538 357.067 347.271 363.333 349.005C370 350.871 381.733 350.871 388 349.138C393.467 347.671 400.533 341.005 402.533 335.405C404.667 329.805 404.267 317.538 401.867 312.871C399.867 309.004 399.867 308.338 401.867 304.204C404.533 298.738 404.667 287.938 402.133 282.071C401.2 279.671 398.133 275.804 395.467 273.404C390.667 269.138 390.533 269.138 376.267 269.138C364.667 269.138 361.2 269.671 358 271.671Z" fill="black"/>
<path d="M422.667 271.405C417.067 275.138 412.133 281.538 411.2 285.805C410.8 288.071 410.667 300.205 410.933 312.738L411.333 335.671L417.333 341.805C424.133 348.738 428.933 350.471 441.333 350.471C454 350.471 459.733 348.471 466.4 341.671L472 335.805V309.538V283.405L468.533 278.871C462.133 270.471 458.533 269.138 441.333 269.138C429.067 269.138 425.2 269.538 422.667 271.405ZM453.6 286.071C455.733 287.938 456 290.605 456 308.871C456 334.471 456 334.471 441.6 334.471C426.533 334.471 426.667 334.605 426.667 309.405C426.667 283.805 426.667 283.805 441.067 283.805C448.533 283.805 451.733 284.338 453.6 286.071Z" fill="black"/>
<path d="M480 308.871C480 344.071 480.267 349.004 482.133 349.671C485.333 350.871 516 350.604 521.867 349.271C527.867 347.804 534.267 342.204 536.8 336.204C539.2 330.738 539.067 320.738 536.667 314.071C535.2 309.671 535.2 308.204 536.8 304.338C539.2 298.604 539.2 287.671 536.8 282.071C535.867 279.671 533.067 275.938 530.8 273.805L526.533 269.805L503.2 269.405L480 269.005V308.871ZM520.267 286.071C523.333 288.738 523.467 296.738 520.4 300.071C518.667 302.071 516.267 302.471 507.067 302.471H496V293.138V283.805H506.933C515.2 283.805 518.4 284.338 520.267 286.071ZM520.267 318.071C523.067 320.605 523.6 330.338 521.067 332.871C520 333.938 515.067 334.471 507.733 334.471H496V326.071C496 321.405 496.4 317.138 496.933 316.738C497.333 316.205 502.267 315.804 507.733 315.804C515.2 315.804 518.4 316.338 520.267 318.071Z" fill="black"/>
<path d="M200.933 459.271C200.4 459.805 200 470.738 200 483.405V506.605L203.733 506.205C207.2 505.805 207.333 505.538 208 496.471L208.667 487.138L217.733 486.738L226.8 486.338L226.4 482.071C226 477.805 226 477.805 217.333 477.138C209.2 476.471 208.667 476.338 208.667 473.138C208.667 470.071 209.2 469.805 214.667 469.405C218 469.271 222.667 468.738 225.067 468.338C229.067 467.671 229.467 467.271 229.067 463.405L228.667 459.138L215.2 458.738C207.867 458.605 201.467 458.738 200.933 459.271Z" fill="black"/>
<path d="M235.2 460.205C234.933 461.138 234.8 471.805 234.933 483.805L235.333 505.805H250H264.667V501.805V497.805L254.4 497.405L244 497.005V479.805C244 470.471 243.6 461.805 243.2 460.605C242.267 458.071 236.133 457.805 235.2 460.205Z" fill="black"/>
<path d="M269.867 460.205C269.6 461.138 269.467 471.805 269.6 483.805L270 505.805H285.333C300.533 505.805 300.667 505.805 301.067 502.605C301.733 498.205 299.467 497.138 288.4 497.138H278.667V491.805V486.605L288.4 486.205L298 485.805V481.805V477.805L288.4 477.405L278.667 477.005V473.138V469.138H287.467C297.733 469.138 301.333 467.538 301.333 463.271C301.333 459.005 299.333 458.471 283.867 458.471C274.267 458.471 270.4 459.005 269.867 460.205Z" fill="black"/>
<path d="M305.867 460.338C305.467 461.405 307.6 466.471 310.533 471.405C313.6 476.471 316 481.005 316 481.671C316 482.205 313.2 487.405 309.867 493.138C306.533 499.005 304.133 504.338 304.667 505.138C305.067 505.805 307.2 506.471 309.333 506.471C312.667 506.471 313.733 505.538 316.667 499.938C318.4 496.338 320.533 493.005 321.2 492.471C322 492.071 324.4 495.005 326.8 499.138C330.267 505.271 331.467 506.471 334.667 506.471C336.8 506.471 338.933 505.805 339.333 505.005C339.867 504.338 337.467 498.871 334.133 493.138C330.8 487.271 328 482.071 328 481.538C328 481.005 330.4 476.471 333.467 471.405C339.333 461.671 339.467 458.471 334 458.471C331.333 458.471 329.6 459.938 326.4 465.138C324.133 468.738 322.133 471.805 321.867 471.805C321.733 471.805 319.733 468.738 317.467 465.138C314.267 459.938 312.533 458.471 310 458.471C308.133 458.471 306.267 459.271 305.867 460.338Z" fill="black"/>
<path d="M371.2 461.005C365.2 464.605 363.6 470.738 364.267 486.071C364.8 498.471 364.933 498.871 369.067 502.605C372.667 505.805 374.533 506.471 380.133 506.471C387.467 506.471 393.867 503.805 396 499.938C397.867 496.338 397.733 470.071 395.867 465.938C392.667 458.871 379.067 456.205 371.2 461.005ZM388.533 468.605C391.467 471.538 391.6 492.605 388.533 496.871C386.133 500.471 377.333 501.005 374.133 497.671C371.467 495.005 371.067 470.605 373.6 468.071C376 465.671 386.133 466.071 388.533 468.605Z" fill="black"/>
<path d="M404.667 460.205C404.267 461.138 404.133 471.805 404.267 483.805C404.667 504.071 404.8 505.805 407.2 506.205C410.8 507.005 412 504.205 412 494.071V485.138H421.333C430.4 485.138 430.667 485.005 430.667 481.805C430.667 478.605 430.4 478.471 421.333 478.471H412V472.471V466.471H421.067C431.067 466.471 433.867 465.271 433.067 461.671C432.667 459.405 431.067 459.138 418.933 458.738C408.533 458.471 405.067 458.738 404.667 460.205Z" fill="black"/>
<path d="M438.133 460.471C437.067 463.271 437.067 501.538 438.133 504.338C438.533 505.538 440 506.471 441.333 506.471C444.533 506.471 445.333 503.938 445.333 493.671V485.138H454.667C463.733 485.138 464 485.005 464 481.805C464 478.605 463.733 478.471 454.667 478.471H445.333V472.471V466.605L455.733 466.205C465.733 465.805 466 465.671 466 462.471C466 459.138 465.867 459.138 452.533 458.738C441.067 458.471 438.8 458.738 438.133 460.471Z" fill="black"/>
<path d="M470.133 460.605C469.067 463.405 471.6 466.471 474.8 466.471C477.2 466.471 477.333 467.671 477.333 483.005V499.671L473.733 500.071C471.067 500.338 470 501.271 470 503.138C470 505.538 470.933 505.805 480.667 505.805C490.4 505.805 491.333 505.538 491.333 503.138C491.333 501.271 490.267 500.338 487.733 500.071L484 499.671V483.138V466.605L487.733 466.205C490.533 465.938 491.333 465.138 491.333 462.471C491.333 459.271 491.067 459.138 481.2 458.738C472.667 458.471 470.8 458.738 470.133 460.605Z" fill="black"/>
<path d="M505.867 459.805C504.267 460.338 501.733 462.605 500.133 464.605C497.733 467.671 497.333 469.938 497.333 481.938C497.333 489.805 498 497.138 498.933 499.138C501.067 503.938 506.533 506.471 514.533 506.471C523.6 506.471 529.6 501.538 529.867 493.671C530 489.271 529.6 488.471 527.067 488.071C524.667 487.671 524 488.205 524 490.738C524 496.605 520.4 499.805 514.133 499.805C506.267 499.805 504.933 497.805 504.4 484.738C503.733 470.338 505.2 467.271 513.467 466.738C518.133 466.471 520 467.005 522 469.138C526.8 474.471 531.333 471.405 528 465.005C525.067 459.538 513.333 456.738 505.867 459.805Z" fill="black"/>
<path d="M536.933 459.271C536.4 459.805 536 470.605 536 483.405V506.605L551.067 506.205C564.933 505.805 566 505.671 566 503.138C566 500.738 564.933 500.471 554.267 500.071L542.533 499.671L542.933 492.738L543.333 485.805L553.733 485.405C563.6 485.005 564.133 484.871 563.733 482.071C563.333 479.405 562.533 479.138 553.067 478.738L542.667 478.338V472.471V466.471H553.067C564.4 466.471 567.2 465.405 566.4 461.671C566 459.405 564.4 459.138 551.867 458.738C544.133 458.605 537.467 458.871 536.933 459.271Z" fill="black"/>
<path d="M204.133 530.738C202.4 531.671 199.6 534.205 198.133 536.205C195.333 539.938 195.333 540.071 197.867 541.938C201.333 544.338 204.533 544.338 206.667 541.671C207.733 540.471 210 539.805 212.533 540.071C215.867 540.338 216.8 541.138 217.067 543.805C217.467 546.738 216.4 547.671 208.8 551.405C197.733 556.871 195.733 559.938 196.267 570.071L196.667 577.805L212.4 578.205C229.6 578.605 231.333 577.805 228.267 571.005C226.8 568.071 226 567.805 216.533 567.805C204 567.805 204 566.338 216.667 559.671C226.667 554.338 229.2 551.005 229.333 543.538C229.333 539.805 228.267 537.405 225.6 534.338C222.4 530.738 220.667 529.938 214.533 529.538C210.267 529.271 206 529.671 204.133 530.738Z" fill="black"/>
<path d="M239.733 531.271C233.6 534.471 232 539.405 232 554.471C232 573.938 235.467 578.471 250.267 578.471C256.933 578.471 260.933 576.871 264.267 572.605C267.467 568.738 267.733 540.605 264.533 536.071C260 529.538 247.467 527.005 239.733 531.271ZM254.533 541.671C255.6 542.871 256 547.805 255.733 555.405L255.333 567.138H249.333H243.333L242.933 555.405C242.533 542.338 243.467 539.805 249.333 539.805C251.333 539.805 253.733 540.605 254.533 541.671Z" fill="black"/>
<path d="M274.4 533.271C271.6 535.538 269.333 538.338 269.333 539.671C269.333 542.471 273.867 545.405 276.667 544.338C278.4 543.671 278.667 545.538 278.667 558.738C278.667 575.538 279.867 579.005 285.467 578.205L288.667 577.805V553.805V529.805L284 529.538C280.4 529.271 278.133 530.205 274.4 533.271Z" fill="black"/>
<path d="M299.2 531.004C298.8 532.071 298.667 534.338 298.933 536.071C299.333 538.738 300.133 539.138 305.733 539.538C309.2 539.804 312 540.338 312 540.738C312 541.138 310.533 543.138 308.667 545.404C306.8 547.671 305.333 551.004 305.333 553.271C305.333 557.138 306.4 557.804 314.667 558.738C316.933 559.004 318.133 560.071 318.4 562.204C319.067 566.338 316.4 569.138 312 569.138C309.067 569.138 308 568.338 306.8 565.004C305.6 561.671 304.8 561.004 301.733 561.404C297.733 561.804 296.533 564.471 297.867 569.938C299.6 576.604 311.733 580.471 320.533 577.138C324.533 575.671 328 569.538 328 563.804C328 557.938 324.533 550.338 321.333 549.538C318 548.604 318 548.471 322 543.271C325.6 538.604 326.267 533.271 323.733 530.738C321.333 528.338 300.133 528.604 299.2 531.004Z" fill="black"/>
</svg>
