<?xml version="1.0" standalone="no"?>
<!DOCTYPE svg PUBLIC "-//W3C//DTD SVG 20010904//EN"
 "http://www.w3.org/TR/2001/REC-SVG-20010904/DTD/svg10.dtd">
<svg version="1.0" xmlns="http://www.w3.org/2000/svg"
 width="1000.000000pt" height="472.000000pt" viewBox="0 0 494.000000 472.000000"
 preserveAspectRatio="xMidYMid meet">

<g transform="translate(0.000000,472.000000) scale(0.100000,-0.100000)"
fill="#000" stroke="none">
<path d="M683 4545 c-92 -20 -178 -70 -258 -150 -118 -117 -165 -235 -165
-415 0 -96 15 -173 47 -243 13 -31 14 -42 5 -58 -7 -10 -12 -28 -12 -39 0 -20
2 -26 33 -88 9 -19 17 -42 17 -52 0 -9 7 -23 15 -30 8 -7 15 -25 15 -40 0 -15
9 -35 19 -44 11 -10 17 -25 14 -36 -3 -11 4 -28 18 -42 16 -16 23 -33 21 -50
-2 -18 5 -35 19 -49 16 -16 22 -33 20 -55 -2 -24 4 -36 23 -52 20 -15 26 -29
26 -56 0 -26 7 -44 25 -62 18 -18 24 -32 19 -46 -3 -11 1 -37 9 -57 9 -20 18
-53 22 -73 6 -37 52 -88 80 -88 30 0 23 -20 -13 -39 -122 -62 -188 -241 -137
-368 16 -41 16 -44 -4 -76 -22 -36 -27 -82 -11 -107 7 -11 1 -22 -22 -43 -28
-26 -30 -32 -25 -80 4 -44 1 -56 -19 -80 -25 -29 -28 -48 -15 -81 5 -13 0 -26
-17 -43 -20 -20 -23 -31 -18 -63 4 -27 2 -41 -10 -51 -10 -8 -14 -26 -13 -48
2 -21 -4 -47 -15 -63 -10 -16 -15 -35 -11 -47 3 -12 -1 -31 -11 -45 -9 -14
-14 -33 -10 -41 3 -9 -1 -26 -9 -39 -9 -13 -13 -30 -10 -39 4 -8 2 -18 -4 -22
-6 -3 -11 -16 -11 -29 0 -12 -5 -27 -10 -32 -7 -7 -9 -192 -8 -535 l3 -524
535 0 535 0 3 519 c1 340 -1 523 -8 530 -5 5 -10 22 -10 37 0 15 -4 30 -9 33
-4 3 -6 16 -4 29 3 13 -2 29 -11 36 -10 8 -13 22 -10 40 4 18 0 33 -11 44 -10
11 -14 24 -10 37 4 13 0 32 -11 48 -10 16 -17 41 -15 60 1 18 -3 40 -11 49 -7
9 -13 36 -13 61 0 32 -6 49 -21 61 -15 12 -19 22 -13 36 13 34 10 53 -15 82
-20 24 -23 36 -19 74 5 40 2 50 -25 80 -22 25 -28 39 -21 50 19 30 5 102 -24
121 -7 4 -5 24 6 58 47 144 -7 294 -129 366 -24 14 -44 28 -44 30 0 2 16 10
35 18 40 17 75 68 75 112 0 16 5 35 11 41 6 6 10 30 7 52 -2 23 0 41 4 41 19
0 48 47 48 78 0 23 7 40 22 51 13 12 22 30 22 52 1 20 12 48 24 64 14 17 21
37 18 48 -3 12 3 26 16 36 12 10 21 29 21 45 0 16 8 37 18 47 11 11 19 30 19
43 0 13 7 29 15 36 8 7 15 21 15 30 0 10 8 33 17 52 31 62 33 68 33 92 0 13
-7 29 -15 36 -13 11 -13 16 1 43 82 158 83 356 2 526 -66 139 -246 277 -393
301 -82 13 -197 11 -272 -5z m537 -1005 c-12 -12 -20 -30 -17 -39 2 -10 -4
-23 -14 -30 -11 -6 -19 -22 -19 -36 0 -13 -11 -35 -25 -49 -14 -14 -25 -34
-25 -46 0 -11 -9 -29 -20 -40 -11 -11 -20 -32 -20 -46 0 -16 -10 -34 -25 -46
-17 -13 -25 -29 -25 -50 0 -21 -10 -39 -31 -59 -26 -25 -31 -35 -26 -62 4 -28
1 -35 -24 -49 -16 -10 -29 -24 -29 -33 0 -8 -8 -15 -19 -15 -15 0 -19 8 -19
39 -1 31 4 41 24 52 40 21 64 70 64 129 0 49 -3 56 -39 90 -44 42 -87 54 -141
40 -46 -13 -97 -67 -105 -114 -9 -45 24 -121 62 -143 24 -13 28 -23 28 -54 0
-45 -15 -51 -39 -15 -8 14 -24 27 -35 31 -16 5 -19 12 -14 40 5 30 1 39 -26
64 -22 20 -31 38 -31 60 0 22 -7 35 -25 47 -17 11 -25 25 -25 45 0 16 -9 38
-22 51 -12 12 -22 33 -23 46 0 13 -11 32 -23 42 -13 11 -20 24 -16 34 3 9 -4
25 -18 39 -13 12 -22 30 -20 39 2 9 -7 26 -19 37 -38 35 -3 24 48 -16 102 -78
238 -118 373 -110 112 6 207 39 300 103 78 54 97 61 60 24z m-335 -1423 c48 8
57 7 71 -8 9 -10 24 -21 34 -24 14 -4 16 -14 12 -55 -4 -44 -2 -52 25 -78 24
-25 29 -36 25 -67 -4 -30 1 -42 23 -65 20 -20 26 -35 22 -51 -6 -23 17 -79 33
-79 5 0 9 -16 8 -35 -1 -22 6 -43 18 -56 10 -12 18 -30 16 -41 -2 -10 5 -31
14 -46 10 -15 19 -40 20 -56 1 -16 10 -35 19 -42 9 -7 14 -17 11 -23 -4 -6 0
-24 9 -40 33 -65 58 -61 -415 -61 -403 0 -430 1 -430 18 0 9 7 26 15 36 8 11
15 28 15 38 0 10 7 30 16 43 9 13 14 32 12 42 -2 10 5 26 14 35 10 10 18 32
18 49 0 18 7 37 17 44 11 8 17 26 17 50 0 27 7 45 24 62 20 20 23 30 18 58 -5
27 -3 36 13 44 24 13 40 58 31 91 -4 19 1 30 25 51 26 24 30 34 29 75 -1 40 3
51 29 74 28 25 33 26 83 16 35 -6 73 -6 109 1z"/>
<path d="M1725 4187 c-3 -7 -4 -143 -3 -302 l3 -290 58 -3 57 -3 0 171 c0 93
3 170 8 170 4 0 27 -40 50 -88 24 -48 64 -124 89 -170 l45 -83 61 3 62 3 3
297 2 298 -23 5 c-13 4 -41 5 -63 3 l-39 -3 -5 -173 -5 -173 -79 158 c-43 87
-85 166 -94 176 -19 21 -120 25 -127 4z"/>
<path d="M2385 4188 c-2 -7 -16 -44 -30 -83 -70 -186 -174 -498 -169 -506 8
-14 112 -11 121 3 4 7 15 33 24 58 l16 45 105 3 106 3 19 -58 20 -58 62 -3 63
-3 -5 33 c-7 49 -188 562 -201 570 -19 13 -126 9 -131 -4z m105 -263 c13 -38
25 -76 28 -82 3 -10 -13 -13 -62 -13 -36 0 -66 2 -66 5 0 3 9 31 19 63 46 136
46 136 81 27z"/>
<path d="M2610 4187 c0 -8 40 -84 89 -169 l90 -156 2 -126 c2 -69 6 -131 9
-137 4 -6 30 -9 61 -7 l54 3 5 135 5 135 51 85 c113 187 136 229 129 239 -3 6
-30 11 -60 11 -61 0 -68 -6 -141 -133 -21 -37 -42 -66 -47 -64 -5 1 -35 45
-66 97 l-57 95 -62 3 c-48 2 -62 0 -62 -11z"/>
<path d="M3193 4188 c-6 -7 -43 -107 -83 -223 -39 -115 -83 -241 -96 -278 -35
-99 -35 -98 38 -95 l62 3 21 55 21 55 105 3 104 3 20 -58 20 -58 64 -3 63 -3
-5 28 c-7 39 -188 555 -200 571 -5 7 -33 12 -67 12 -34 0 -62 -5 -67 -12z
m117 -300 l18 -58 -64 0 c-46 0 -64 4 -64 13 0 15 45 151 56 169 8 12 18 -13
54 -124z"/>
<path d="M3562 4192 c-9 -7 -12 -74 -10 -303 l3 -294 150 -3 c92 -1 160 2 176
8 14 6 44 29 65 51 l39 40 0 198 0 198 -27 35 c-49 64 -95 78 -249 78 -74 0
-140 -4 -147 -8z m274 -120 c27 -18 34 -56 34 -184 0 -176 -1 -178 -116 -178
l-84 0 0 185 0 185 78 0 c42 0 82 -4 88 -8z"/>
<path d="M4179 4173 c-44 -111 -199 -558 -199 -573 0 -7 23 -10 62 -8 l62 3
22 55 22 55 105 3 105 3 19 -58 20 -58 59 0 59 0 -3 30 c-2 17 -35 122 -74
235 -40 113 -80 232 -91 265 -11 33 -25 63 -31 67 -6 4 -37 8 -69 8 -54 0 -58
-2 -68 -27z m113 -254 c15 -46 28 -85 28 -86 0 -2 -29 -3 -65 -3 -36 0 -65 3
-65 8 -1 21 56 172 64 169 6 -2 22 -41 38 -88z"/>
<path d="M1882 3353 c-5 -10 -22 -56 -37 -103 -15 -47 -59 -172 -97 -279 -39
-112 -65 -198 -60 -203 5 -5 33 -8 63 -6 l53 3 20 50 c32 78 28 75 130 75 105
0 105 0 133 -75 l19 -50 57 -3 c40 -2 59 1 62 10 2 7 -42 144 -98 303 l-102
290 -67 3 c-56 2 -68 0 -76 -15z m112 -246 c16 -45 31 -88 34 -94 3 -10 -15
-13 -73 -13 -58 0 -76 3 -73 13 3 6 18 49 34 94 16 46 34 83 39 83 6 0 23 -37
39 -83z"/>
<path d="M2255 3357 c-3 -7 -4 -143 -3 -302 l3 -290 54 -3 c37 -2 57 1 62 10
5 7 9 59 9 114 l0 102 99 4 c86 3 103 7 138 30 54 35 73 80 73 166 0 79 -20
120 -79 159 -32 22 -44 23 -193 23 -118 0 -160 -3 -163 -13z m299 -113 c21
-21 21 -97 0 -119 -13 -12 -33 -15 -98 -13 l-81 3 -3 59 c-2 32 -1 65 2 72 8
21 159 19 180 -2z"/>
<path d="M2670 3359 c0 -5 36 -70 80 -143 44 -73 80 -137 80 -142 0 -6 -38
-72 -85 -148 -47 -76 -85 -144 -85 -152 0 -10 15 -14 59 -14 67 0 65 -2 131
108 25 42 50 77 55 79 6 1 36 -40 68 -92 l59 -95 58 0 c32 0 62 5 65 10 4 6
-34 75 -84 154 -50 79 -91 146 -91 149 0 3 38 67 85 142 47 75 83 141 80 146
-4 5 -33 9 -65 9 l-58 0 -53 -85 c-28 -47 -57 -85 -63 -85 -6 0 -27 28 -46 62
-60 105 -63 108 -131 108 -35 0 -59 -4 -59 -11z"/>
<path d="M3217 3364 c-9 -9 -10 -566 -1 -588 5 -12 20 -16 64 -16 l58 0 45 83
c25 45 66 125 93 177 l49 95 5 -175 5 -175 55 0 55 0 3 303 2 302 -59 0 c-54
0 -61 -3 -80 -29 -12 -16 -21 -32 -21 -35 0 -4 -33 -68 -72 -144 l-73 -137 -5
170 -5 170 -55 3 c-31 2 -59 0 -63 -4z"/>
<path d="M1720 2248 c0 -215 3 -297 12 -306 15 -15 256 -17 308 -2 20 5 53 28
75 50 38 39 40 44 43 114 3 54 0 81 -12 105 -15 29 -15 33 0 62 12 24 15 51
12 106 -3 71 -5 74 -46 116 l-42 42 -175 3 -175 3 0 -293z m302 165 c25 -22
24 -77 -2 -103 -18 -18 -31 -20 -98 -18 l-77 3 -3 68 -3 67 82 0 c63 0 87 -4
101 -17z m-18 -233 c34 -12 45 -69 22 -105 -16 -25 -21 -26 -99 -23 l-82 3 -3
54 c-2 29 -1 60 2 67 6 17 120 20 160 4z"/>
<path d="M2217 2533 c-4 -3 -7 -134 -7 -289 0 -244 2 -285 16 -298 12 -13 40
-16 142 -16 167 1 198 8 245 61 36 41 37 43 37 125 0 80 -1 85 -32 120 -45 52
-82 64 -188 64 l-90 0 0 120 0 120 -58 0 c-32 0 -62 -3 -65 -7z m287 -353 c23
-8 26 -15 26 -58 0 -26 -5 -53 -12 -60 -7 -7 -44 -12 -95 -12 l-83 0 0 63 c0
35 3 67 7 70 10 11 128 8 157 -3z"/>
<path d="M2697 2534 c-13 -13 -8 -579 5 -592 16 -16 93 -15 107 2 8 9 11 97 9
302 l-3 289 -55 3 c-31 2 -59 0 -63 -4z"/>
<path d="M2945 2521 c-40 -24 -85 -78 -85 -101 0 -13 13 -21 50 -30 48 -11 51
-11 81 14 24 20 41 26 80 26 73 0 89 -12 89 -65 0 -55 -15 -65 -104 -65 l-66
0 0 -49 c0 -62 12 -72 77 -65 74 9 93 -5 93 -66 0 -59 -14 -70 -89 -70 -39 0
-56 6 -80 26 -30 25 -33 25 -81 14 -40 -10 -50 -16 -50 -32 0 -31 78 -104 125
-117 50 -14 138 -14 185 -1 41 11 94 61 109 103 16 42 13 134 -5 169 -15 29
-15 34 0 65 20 41 21 122 2 166 -7 18 -30 47 -50 65 -36 32 -37 32 -144 32
-87 0 -113 -4 -137 -19z"/>
<path d="M3430 2523 c-42 -28 -79 -76 -86 -108 -3 -17 -4 -108 -2 -202 l3
-172 45 -46 c51 -52 87 -65 180 -65 95 0 138 15 188 66 l42 44 0 197 0 196
-26 34 c-48 63 -75 73 -204 73 -92 0 -121 -3 -140 -17z m232 -110 c16 -14 18
-34 18 -171 0 -192 0 -192 -108 -192 -113 0 -112 -1 -112 188 0 192 0 192 108
192 56 0 80 -4 94 -17z"/>
<path d="M3860 2242 c0 -264 2 -301 16 -306 24 -9 254 -7 298 3 45 11 93 53
112 98 18 41 17 116 -1 166 -11 33 -11 44 1 73 18 43 18 125 0 167 -7 18 -28
46 -45 62 l-32 30 -175 3 -174 3 0 -299z m302 171 c23 -20 24 -80 1 -105 -13
-15 -31 -18 -100 -18 l-83 0 0 70 0 70 82 0 c62 0 86 -4 100 -17z m0 -240 c21
-19 25 -92 6 -111 -8 -8 -45 -12 -100 -12 l-88 0 0 63 c0 35 3 67 7 70 3 4 40
7 81 7 56 0 80 -4 94 -17z"/>
<path d="M1767 1114 c-4 -4 -7 -86 -7 -181 l0 -174 28 3 c26 3 27 5 32 73 l5
70 68 3 68 3 -3 32 c-3 32 -3 32 -68 37 -61 5 -65 6 -65 30 0 23 4 25 45 28
25 1 60 5 78 8 30 5 33 8 30 37 l-3 32 -101 3 c-55 1 -103 0 -107 -4z"/>
<path d="M2024 1107 c-2 -7 -3 -87 -2 -177 l3 -165 110 0 110 0 0 30 0 30 -77
3 -78 3 0 129 c0 70 -3 135 -6 144 -7 19 -53 21 -60 3z"/>
<path d="M2284 1107 c-2 -7 -3 -87 -2 -177 l3 -165 115 0 c114 0 115 0 118 24
5 33 -12 41 -95 41 l-73 0 0 40 0 39 73 3 72 3 0 30 0 30 -72 3 -73 3 0 29 0
30 66 0 c77 0 104 12 104 44 0 32 -15 36 -131 36 -72 0 -101 -4 -105 -13z"/>
<path d="M2554 1106 c-3 -8 13 -46 35 -83 23 -38 41 -72 41 -77 0 -4 -21 -43
-46 -86 -25 -44 -43 -84 -39 -90 3 -5 19 -10 35 -10 25 0 33 7 55 49 13 27 29
52 34 56 6 3 24 -19 42 -50 26 -46 35 -55 59 -55 16 0 32 5 35 11 4 5 -14 46
-39 89 -25 44 -46 83 -46 87 0 4 18 38 41 76 44 73 45 97 4 97 -20 0 -33 -11
-57 -50 -17 -27 -32 -50 -34 -50 -1 0 -16 23 -33 50 -24 39 -37 50 -56 50 -14
0 -28 -6 -31 -14z"/>
<path d="M3044 1101 c-45 -27 -57 -73 -52 -188 4 -93 5 -96 36 -124 27 -24 41
-29 83 -29 55 0 103 20 119 49 14 27 13 224 -1 255 -24 53 -126 73 -185 37z
m130 -57 c22 -22 23 -180 0 -212 -18 -27 -84 -31 -108 -6 -20 20 -23 203 -4
222 18 18 94 15 112 -4z"/>
<path d="M3295 1107 c-3 -7 -4 -87 -3 -177 3 -152 4 -165 22 -168 27 -6 36 15
36 91 l0 67 70 0 c68 0 70 1 70 25 0 24 -2 25 -70 25 l-70 0 0 45 0 45 68 0
c75 0 96 9 90 36 -3 17 -15 19 -106 22 -78 2 -104 0 -107 -11z"/>
<path d="M3546 1105 c-8 -21 -8 -308 0 -329 3 -9 14 -16 24 -16 24 0 30 19 30
96 l0 64 70 0 c68 0 70 1 70 25 0 24 -2 25 -70 25 l-70 0 0 45 0 44 78 3 c75
3 77 4 77 28 0 25 -1 25 -101 28 -86 2 -103 0 -108 -13z"/>
<path d="M3786 1104 c-8 -21 11 -44 35 -44 18 0 19 -9 19 -124 l0 -125 -27 -3
c-20 -2 -28 -9 -28 -23 0 -18 7 -20 80 -20 73 0 80 2 80 20 0 14 -8 21 -27 23
l-28 3 0 124 0 124 28 3 c21 2 27 8 27 28 0 24 -2 25 -76 28 -64 2 -78 0 -83
-14z"/>
<path d="M4054 1110 c-12 -4 -31 -21 -43 -36 -18 -23 -21 -40 -21 -130 0 -59
5 -114 12 -129 16 -36 57 -55 117 -55 68 0 113 37 115 96 1 33 -2 39 -21 42
-18 3 -23 -1 -23 -20 0 -44 -27 -68 -74 -68 -59 0 -69 15 -73 113 -5 108 6
131 68 135 35 2 49 -2 64 -18 36 -40 70 -17 45 31 -22 41 -110 62 -166 39z"/>
<path d="M4287 1114 c-4 -4 -7 -85 -7 -181 l0 -174 113 3 c104 3 112 4 112 23
0 18 -8 20 -88 23 l-88 3 3 52 3 52 78 3 c74 3 78 4 75 25 -3 20 -9 22 -80 25
l-78 3 0 44 0 45 78 0 c85 0 106 8 100 36 -3 17 -15 19 -109 22 -58 1 -108 -1
-112 -4z"/>
<path d="M1791 578 c-13 -7 -34 -26 -45 -41 -21 -28 -21 -29 -2 -43 26 -18 50
-18 66 2 8 9 25 14 44 12 25 -2 32 -8 34 -28 3 -22 -5 -29 -62 -57 -83 -41
-98 -64 -94 -140 l3 -58 118 -3 c129 -3 142 3 119 54 -11 22 -17 24 -88 24
-94 0 -94 11 1 61 75 40 94 65 95 121 0 28 -8 46 -28 69 -24 27 -37 33 -83 36
-32 2 -64 -1 -78 -9z"/>
<path d="M2058 574 c-46 -24 -58 -61 -58 -174 0 -146 26 -180 137 -180 50 0
80 12 105 44 24 29 26 240 2 274 -34 49 -128 68 -186 36z m111 -78 c8 -9 11
-46 9 -103 l-3 -88 -45 0 -45 0 -3 88 c-3 98 4 117 48 117 15 0 33 -6 39 -14z"/>
<path d="M2318 559 c-21 -17 -38 -38 -38 -48 0 -21 34 -43 55 -35 13 5 15 -9
15 -108 0 -126 9 -152 51 -146 l24 3 0 180 0 180 -35 2 c-27 2 -44 -5 -72 -28z"/>
<path d="M2504 576 c-3 -8 -4 -25 -2 -38 3 -20 9 -23 51 -26 26 -2 47 -6 47
-9 0 -3 -11 -18 -25 -35 -14 -17 -25 -42 -25 -59 0 -29 8 -34 70 -41 17 -2 26
-10 28 -26 5 -31 -15 -52 -48 -52 -22 0 -30 6 -39 31 -9 25 -15 30 -38 27 -30
-3 -39 -23 -29 -64 13 -50 104 -79 170 -54 30 11 56 57 56 100 0 44 -26 101
-50 107 -25 7 -25 8 5 47 27 35 32 75 13 94 -18 18 -177 16 -184 -2z"/>
</g>
</svg>
