<svg width="1601" height="529" viewBox="0 0 1601 529" fill="none" xmlns="http://www.w3.org/2000/svg">
<path d="M422.5 4.93333C420.5 7.73333 418.1 10.5333 417.433 11.3333C413.033 15.7333 409.833 20 411.433 19.3333C412.5 18.9333 416.1 15.2 419.433 11.2C425.833 3.46667 429.567 2.13333 433.833 6.26667C440.767 13.2 457.967 28 458.767 28C459.3 28 455.7 24.2667 450.767 19.6C445.7 15.0667 438.9 8.8 435.567 5.73333C432.233 2.66667 428.767 -1.46031e-06 427.833 -1.46031e-06C426.9 -1.46031e-06 424.5 2.26667 422.5 4.93333Z" fill="black"/>
<path d="M915.7 9.46658C905.3 11.4666 895.167 19.9999 890.633 30.3999C887.3 37.9999 886.633 56.5333 889.3 65.5999C891.967 75.0666 898.5 83.7333 906.1 87.9999C911.433 90.9333 913.7 91.3333 925.567 91.3333C938.1 91.3333 939.433 91.0666 945.567 87.3333C952.9 82.7999 959.833 73.3333 962.367 64.9333C964.633 56.3999 964.233 41.5999 961.433 33.5999C954.5 14.5332 937.033 5.19991 915.7 9.46658ZM933.167 24.5332C945.3 29.5999 950.767 47.0666 945.3 63.0666C940.633 76.6666 925.7 81.8666 913.7 74.1333C901.833 66.2666 900.9 37.9999 912.367 27.7332C917.833 22.6666 925.967 21.4666 933.167 24.5332Z" fill="black"/>
<path d="M990.1 50.8001V90.8L1014.5 90.4C1035.57 90 1039.43 89.6 1044.1 87.3334C1056.9 80.9334 1059.57 58.4001 1048.63 48.4001C1043.57 43.7334 1038.37 42.4001 1022.5 41.7334L1007.43 40.9334V32.5334V24.0001H1028.1H1048.77V17.3334V10.6667H1019.43H990.1V50.8001ZM1035.7 58.2667C1038.9 61.4667 1039.3 70.0001 1036.37 72.9334C1033.83 75.6 1025.83 77.2 1015.83 77.3334H1007.43V65.8667V54.2667L1020.23 54.9334C1030.63 55.4667 1033.43 56.1334 1035.7 58.2667Z" fill="black"/>
<path d="M1074.1 17.3333V24H1086.1H1098.1V57.4667V90.9333L1121.17 90.4C1141.17 90 1144.63 89.6 1148.63 87.3333C1156.23 82.8 1158.63 78.4 1159.17 67.6C1159.57 59.3333 1159.3 57.3333 1156.5 53.4667C1154.9 50.9333 1151.97 47.8667 1150.1 46.5333C1145.97 43.4667 1135.17 41.3333 1123.97 41.3333H1115.43V26V10.6667H1094.77H1074.1V17.3333ZM1140.37 59.2C1148.63 68.9333 1140.1 77.2 1121.83 77.3333H1115.43V65.8667V54.2667L1126.37 54.9333C1136.1 55.4667 1137.57 56 1140.37 59.2Z" fill="black"/>
<path d="M1184.77 50.6666V90.6666H1215.43H1246.1V83.3333V76H1223.43H1200.77V66V56H1220.9H1240.9L1240.5 48.9333L1240.1 42L1220.5 41.6L1200.77 41.2V32.6666V24H1222.1H1243.43V17.3333V10.6666H1214.1H1184.77V50.6666Z" fill="black"/>
<path d="M1270.1 50.6666V90.6666H1278.77H1287.43V77.0666C1287.43 64.1333 1287.57 63.3333 1291.03 59.7333C1293.03 57.7333 1295.03 56 1295.43 56C1295.97 56 1301.7 63.7333 1308.23 73.3333L1320.1 90.5333L1330.5 90.6666C1336.1 90.6666 1340.77 90.4 1340.77 90C1340.77 89.6 1333.17 78.9333 1323.97 66.4C1307.57 44.1333 1307.3 43.6 1309.7 40.8C1310.9 39.3333 1317.97 31.8666 1325.3 24.2666L1338.77 10.6666H1328.1H1317.43L1302.77 26.4L1288.1 42.1333L1287.7 26.4L1287.3 10.6666H1278.77H1270.1V50.6666Z" fill="black"/>
<path d="M1354.1 17.3333V24H1366.1H1378.1V57.3333V90.6666H1386.77H1395.43V57.3333V24H1407.43H1419.43V17.3333V10.6666H1386.77H1354.1V17.3333Z" fill="black"/>
<path d="M1440.77 50.6666V90.6666H1449.3H1457.7L1471.83 66.2666C1479.57 52.9333 1486.9 40.8 1487.97 39.3333C1489.83 36.9333 1489.97 39.2 1490.1 63.6V90.6666H1498.1H1506.1V50.6666V10.5333L1497.17 10.9333L1488.1 11.3333L1472.77 37.7333L1457.43 64.2666L1457.03 37.4666L1456.77 10.6666H1448.77H1440.77V50.6666Z" fill="black"/>
<path d="M1534.1 50.8V90.9333L1558.5 90.4C1581.43 90 1583.03 89.8667 1588.77 86.6667C1602.9 78.8 1604.9 57.7333 1592.23 49.4667C1588.5 46.9333 1588.5 46.9333 1591.3 45.4667C1595.17 43.3333 1598.1 37.0667 1598.1 31.0667C1598.1 23.7333 1594.1 17.2 1587.43 13.7333C1582.1 10.9333 1580.1 10.6667 1557.83 10.6667H1534.1V50.8ZM1580.23 27.2C1582.9 30.9333 1582.5 35.6 1579.43 38.6667C1577.17 40.9333 1575.03 41.3333 1563.43 41.3333H1550.1V32.5333V23.7333L1564.23 24.2667C1576.37 24.6667 1578.63 25.0667 1580.23 27.2ZM1580.77 58C1583.83 60.8 1584.37 68.8 1581.7 72.5333C1579.43 75.6 1571.7 77.2 1559.83 77.3333H1550.1V65.8667V54.2667L1564.1 54.9333C1575.17 55.4667 1578.63 56.1333 1580.77 58Z" fill="black"/>
<path d="M403.3 27.6C400.1 31.2 393.7 38.5334 389.033 44C384.367 49.4667 377.433 57.3334 373.567 61.4667C354.9 81.7334 344.233 93.7334 340.5 98.2667C338.367 101.067 333.967 105.867 330.767 109.067L324.9 114.8L163.033 113.867L1.16667 112.933L0.5 118.133C-0.166667 123.333 -0.166667 137.467 0.5 158.933L0.766667 170.667H117.833C182.367 170.667 243.167 171.067 253.167 171.6C269.567 172.267 271.433 172.667 271.433 174.8C271.433 176.133 270.367 178 269.033 178.933C267.7 179.867 265.967 181.733 265.3 182.933C264.633 184.267 258.767 190.933 252.367 197.867C245.967 204.8 240.767 211.067 240.767 211.733C240.767 212.4 243.833 215.867 247.567 219.333C251.3 222.8 253.967 226 253.567 226.4C253.167 226.8 195.967 227.2 126.5 227.2L0.1 227.333V311.333V395.333L135.7 396C238.5 396.533 271.7 397.067 272.9 398.267C274.1 399.467 272.367 402.267 265.033 410.4C259.7 416.267 255.433 421.6 255.433 422.267C255.433 422.933 256.767 424.533 258.5 425.867C260.1 427.333 265.3 431.733 269.967 435.867L278.367 443.2L284.633 436.533C295.833 424.4 313.433 404.933 315.833 401.733C318.233 398.8 318.9 398.667 338.767 398.667C350.1 398.667 359.567 399.067 359.833 399.6C360.367 400.533 342.233 421.867 313.7 453.867C309.167 458.933 305.433 464.267 305.433 465.6C305.433 468.133 324.1 485.333 326.9 485.333C328.633 485.333 344.5 468 384.1 422.933L405.433 398.667L425.833 398.933C447.567 399.2 448.633 399.6 443.033 405.467C440.1 408.533 433.433 416 413.3 439.6C408.367 445.333 403.167 451.467 401.567 453.333C399.967 455.2 391.167 465.067 382.1 475.467C359.567 500.933 353.433 508.133 353.433 509.6C353.433 510.8 370.767 526.133 374.367 528.133C376.633 529.333 377.433 528.667 398.1 506C402.233 501.6 408.5 494.4 412.1 490C415.833 485.6 423.833 476.267 430.1 469.333C436.367 462.267 445.033 452.4 449.433 447.333C460.5 434.4 473.033 421.333 474.1 421.333C475.567 421.333 484.367 428.533 497.433 440.533C504.1 446.667 511.833 453.6 514.767 456.133C517.7 458.667 520.233 461.067 520.5 461.6C520.767 462 523.167 464.133 525.833 466C531.167 469.867 517.967 456.933 501.433 442C481.167 423.733 476.367 419.067 476.9 417.6C478.233 413.867 509.167 380 511.3 380C512.633 380 516.633 382.667 520.1 386C525.833 391.333 531.7 396.4 545.967 408.667C548.5 410.8 552.367 414.267 554.633 416.267C556.767 418.267 558.9 419.6 559.3 419.333C559.567 418.933 559.567 418.533 559.3 418.267C557.7 417.2 527.433 390.267 519.167 382.533C516.367 379.867 514.1 376.933 514.1 376C514.1 374.8 527.833 358.267 534.1 352C534.5 351.6 537.7 347.867 541.3 343.6C546.767 337.067 547.567 335.467 545.967 334.133C544.9 333.2 540.233 328.933 535.433 324.667C530.633 320.4 524.367 314.8 521.433 312.133C518.5 309.467 505.567 298 492.767 286.667C479.967 275.333 464.9 262 459.567 257.067L449.567 248L450.233 215.6C450.5 197.867 450.767 168.267 450.767 150V116.667L429.967 116.267C414.9 116 408.633 115.467 407.567 114.267C405.7 112 429.167 84 432.9 84C435.7 84 436.233 82 433.967 80.5334C433.033 80 430.633 81.6 428.233 84.2667C425.967 86.8 418.767 95.0667 412.233 102.533L400.5 116L366.9 115.2C348.5 114.667 332.9 113.867 332.233 113.2C331.567 112.533 333.167 109.6 336.233 106.267C345.433 96.1334 357.433 82.2667 367.433 70.6667C372.767 64.4 377.567 59.0667 378.1 58.6667C378.5 58.2667 383.7 52.6667 389.567 46C395.3 39.4667 401.033 33.0667 402.1 31.8667C404.767 29.0667 407.967 24.9334 409.3 22.9334C411.3 19.7334 409.033 21.4667 403.3 27.6ZM346.367 174.4C347.167 175.2 345.833 177.733 342.233 181.467C339.3 184.667 333.033 191.867 328.233 197.333L319.567 207.333L328.767 216C333.967 220.933 338.1 225.467 338.1 226.4C338.1 227.6 328.5 228 299.3 228H260.633L252.633 220.4C248.367 216.267 244.767 212.267 244.767 211.467C244.767 210.667 247.033 207.6 249.567 204.667C252.233 201.733 259.833 193.067 266.5 185.467L278.767 171.733L311.833 172.4C330.9 172.8 345.567 173.6 346.367 174.4ZM393.567 176.267C393.967 177.733 393.967 189.867 393.433 203.333L392.5 227.6L369.567 227.867L346.633 228.133L335.7 218.667C329.7 213.467 324.767 208.267 324.767 207.067C324.767 203.067 351.567 173.867 355.967 173.067C357.3 172.933 366.1 172.8 375.567 173.067C391.433 173.467 392.633 173.733 393.567 176.267ZM259.3 284.933L322.633 285.733L327.967 290.8C331.033 293.467 337.033 298.8 341.433 302.667C345.833 306.4 349.833 310.267 350.367 311.2C351.167 312.533 345.7 319.467 331.433 335.067L326.767 340.267L272.767 340C243.033 339.733 182.233 339.333 137.433 338.8L56.1 338L55.8333 313.333C55.7 299.733 55.9667 287.6 56.2333 286.267C56.9 284.133 61.4333 284 126.5 284C164.767 284 224.5 284.4 259.3 284.933ZM372.767 286.8C372.767 288.667 356.9 307.467 354.5 308.533C353.567 308.933 349.033 305.733 344.5 301.467C339.833 297.333 334.633 292.8 332.9 291.6C331.033 290.4 329.433 288.533 329.3 287.333C329.033 285.6 332.1 285.333 350.9 285.333C366.233 285.333 372.767 285.733 372.767 286.8ZM392.767 329.333C392.767 341.867 391.167 342.933 383.967 335.467L379.567 330.933L383.833 325.467C386.1 322.533 389.033 319.867 390.1 319.6C391.167 319.2 392.233 318.933 392.5 318.8C392.633 318.8 392.767 323.467 392.767 329.333ZM490.5 327.6C496.1 332.533 500.767 337.467 500.767 338.667C500.767 340.667 489.567 353.333 487.7 353.333C486.633 353.2 465.567 334.667 465.033 333.2C464.233 331.333 475.833 318.667 478.233 318.667C479.3 318.667 484.9 322.667 490.5 327.6ZM379.833 337.333C380.367 339.467 379.833 340 377.3 340C375.567 340 374.1 339.2 374.1 338.267C374.1 334 378.767 333.333 379.833 337.333ZM474.633 345.733C480.233 350.8 484.767 355.6 484.767 356.4C484.767 358.933 453.967 393.333 451.833 393.333C450.233 393.333 449.967 389.6 450.367 370L450.767 346.8L456.1 341.333C459.033 338.4 462.1 336.133 463.033 336.267C463.833 336.533 469.167 340.8 474.633 345.733Z" fill="black"/>
<path d="M461.567 31.3333C462.1 32.3999 463.033 33.3333 463.7 33.3333C464.5 33.3333 464.367 32.5333 463.433 31.3333C462.5 30.2666 461.567 29.3333 461.3 29.3333C461.033 29.3333 461.167 30.2666 461.567 31.3333Z" fill="black"/>
<path d="M469.433 38.6667C469.833 39.3333 470.5 40 470.9 40C471.167 40 471.433 39.3333 471.433 38.6667C471.433 37.8667 470.767 37.3333 469.967 37.3333C469.3 37.3333 469.033 37.8667 469.433 38.6667Z" fill="black"/>
<path d="M472.767 40.5334C472.767 40.8 473.833 41.8667 475.167 42.8C477.167 44.5334 477.3 44.4 475.567 42.2667C473.833 40.1334 472.767 39.4667 472.767 40.5334Z" fill="black"/>
<path d="M480.1 47.7333C481.567 49.4667 483.967 51.4667 485.433 52.2667C488.233 53.7333 487.833 53.3333 481.433 48C477.567 44.8 477.567 44.8 480.1 47.7333Z" fill="black"/>
<path d="M490.1 56.5334C490.1 56.8 491.167 57.8667 492.5 58.8C494.5 60.5334 494.633 60.4 492.9 58.2667C491.167 56.1334 490.1 55.4667 490.1 56.5334Z" fill="black"/>
<path d="M504.1 69.3333C506.9 72.5333 507.567 72.6666 506.633 70.1333C506.233 69.0666 504.9 67.8666 503.7 67.3333C501.967 66.6666 501.967 67.0666 504.1 69.3333Z" fill="black"/>
<path d="M508.767 72.8C508.767 74.1334 519.433 83.2 519.967 82.5334C520.1 82.2667 517.7 79.7334 514.5 76.8C511.3 74 508.767 72.1334 508.767 72.8Z" fill="black"/>
<path d="M436.767 85.2001C436.767 85.8667 437.833 87.3334 439.3 88.2667C442.367 90.4001 455.3 101.6 461.967 108C472.367 117.867 519.7 159.333 521.167 159.867C521.967 160.133 519.7 157.733 516.1 154.533C512.5 151.333 505.7 145.067 500.767 140.667C495.967 136.267 487.567 128.8 482.233 124C469.567 112.933 468.5 111.867 455.967 100.533C440.633 86.6667 436.767 83.6001 436.767 85.2001Z" fill="black"/>
<path d="M523.967 87.3332C525.3 88.3999 530.633 92.9332 535.833 97.5999C540.9 102.267 545.833 106.267 546.633 106.533C548.367 107.067 548.633 107.333 534.633 94.9332C528.767 89.5999 523.3 85.3332 522.633 85.3332C521.967 85.3332 522.5 86.2666 523.967 87.3332Z" fill="black"/>
<path d="M548.767 109.067C548.767 109.6 550.1 110.8 551.833 111.867C554.767 113.733 554.767 113.733 552.233 110.8C549.567 107.867 548.767 107.467 548.767 109.067Z" fill="black"/>
<path d="M561.967 120.933C565.967 124.533 571.7 129.6 574.633 132.4C585.567 142.667 602.9 158.533 609.567 164.133C613.3 167.333 625.3 178.133 636.367 188C647.3 197.867 658.233 207.733 660.633 209.733C663.033 211.867 672.633 220.533 681.833 228.933C709.967 254.667 721.033 264 723.167 264C723.967 264 725.7 262.533 727.033 260.8C728.367 259.067 734.5 252 740.633 245.2C746.767 238.267 755.167 228.8 759.3 224C763.433 219.333 773.033 208.533 780.633 200C788.233 191.6 794.9 184.133 795.433 183.6C797.167 181.733 801.433 183.733 807.033 189.067C809.833 191.733 817.7 198.8 824.5 204.533C831.3 210.4 836.767 215.733 836.767 216.4C836.767 218.133 791.7 269.867 749.433 316.667C742.1 324.8 732.767 335.333 728.767 340C724.767 344.8 720.633 349.6 719.567 350.667C715.967 354.4 669.567 406.933 659.433 418.667C653.833 425.067 645.033 435.067 639.833 440.8C634.633 446.667 628.9 453.067 627.3 455.333C625.567 457.467 619.167 465.067 612.9 472C601.033 485.333 599.033 487.733 587.7 501.067C583.7 505.6 579.567 509.333 578.367 509.333C576.1 509.333 562.5 497.6 533.3 470.8C532.767 470.4 532.633 470.667 532.9 471.467C533.167 472.133 540.9 479.6 550.1 487.867C559.3 496.133 569.3 505.2 572.5 508.133C579.033 514.133 579.967 514.267 582.5 510.667C583.567 509.2 586.367 505.733 588.9 502.933C593.433 498 620.1 467.467 625.3 461.333C629.967 455.733 665.3 415.333 666.1 414.667C666.5 414.267 673.167 406.8 680.767 398C688.5 389.333 695.7 381.2 696.767 380C697.833 378.8 700.5 375.733 702.633 373.2C710.367 364.267 746.633 323.333 747.967 322C748.767 321.2 753.033 316.533 757.433 311.333C761.833 306.267 771.7 295.067 779.433 286.667C787.167 278.133 797.033 267.067 801.433 262C805.833 257.067 810.633 251.467 812.1 249.867C822.367 238.533 831.167 228.267 833.433 225.467C834.9 223.6 837.167 221.067 838.633 219.867C842.1 217.067 840.767 215.2 823.167 200C815.167 193.067 806.1 185.067 803.033 182.267L797.433 177.333L794.1 181.2C792.233 183.333 789.033 187.067 786.767 189.6C784.633 192.133 777.7 199.867 771.433 206.8C765.167 213.867 756.1 224 751.3 229.467C722.9 261.333 723.033 261.2 720.9 260C719.167 259.067 697.3 239.6 652.1 198.8C649.167 196.133 642.233 190.133 636.767 185.333C631.3 180.533 626.233 176 625.433 175.2C623.967 173.467 589.967 143.333 576.767 132C572.1 128 565.7 122.4 562.633 119.6C559.567 116.933 556.633 114.667 555.967 114.667C555.3 114.667 558.1 117.467 561.967 120.933Z" fill="black"/>
<path d="M1079.7 150.8C1069.3 152.8 1059.17 161.333 1054.63 171.733C1051.3 179.333 1050.63 197.867 1053.3 206.933C1055.97 216.4 1062.5 225.067 1070.1 229.333C1075.43 232.267 1077.7 232.667 1089.57 232.667C1102.1 232.667 1103.43 232.4 1109.57 228.667C1116.9 224.133 1123.83 214.667 1126.37 206.267C1128.63 197.733 1128.23 182.933 1125.43 174.933C1118.5 155.867 1101.03 146.533 1079.7 150.8ZM1097.17 165.867C1109.3 170.933 1114.77 188.4 1109.3 204.4C1104.63 218 1089.7 223.2 1077.7 215.467C1065.83 207.6 1064.9 179.333 1076.37 169.067C1081.83 164 1089.97 162.8 1097.17 165.867Z" fill="black"/>
<path d="M1248.1 150.533C1237.97 153.067 1228.77 160.8 1224.23 170.667C1221.83 175.733 1221.43 179.2 1221.43 192C1221.57 205.333 1221.97 208.133 1224.63 213.733C1228.37 221.333 1237.97 230.133 1244.63 232C1251.03 233.733 1264.63 233.733 1270.23 231.867C1279.97 228.533 1288.9 218.4 1290.9 208.267L1291.83 204H1283.7C1276.23 204 1275.7 204.267 1274.1 207.867C1268.9 220.533 1252.77 223.067 1243.57 212.667C1234.23 202 1235.83 175.333 1246.23 167.867C1255.03 161.6 1267.7 163.867 1272.9 172.667C1275.57 177.2 1275.97 177.333 1283.7 177.333H1291.83L1290.9 173.067C1287.57 156.667 1267.17 146 1248.1 150.533Z" fill="black"/>
<path d="M890.1 192V232H898.767H907.433V214V196H922.767H938.1V214V232H946.767H955.433V192V152H946.767H938.1V167.333V182.667H922.767H907.433V167.333V152H898.767H890.1V192Z" fill="black"/>
<path d="M1380.77 158.667V165.333H1392.77H1404.77V198.667V232H1413.43H1422.1V198.667V165.333H1434.1H1446.1V158.667V152H1413.43H1380.77V158.667Z" fill="black"/>
<path d="M1539.43 192.133V232.133L1561.83 231.733C1580.9 231.333 1584.9 230.933 1589.43 228.667C1602.23 222.267 1604.9 199.733 1593.97 189.733C1589.03 185.2 1583.83 183.867 1569.83 183.067L1556.77 182.267V167.2V152H1548.1H1539.43V192.133ZM1581.17 199.867C1584.5 203.2 1584.9 211.067 1581.83 214.133C1579.3 216.667 1571.43 218.533 1563.17 218.667H1556.77V207.2V195.6L1567.57 196.4C1576.1 196.933 1579.03 197.733 1581.17 199.867Z" fill="black"/>
<path d="M523.433 163.2C523.433 163.467 524.9 164.667 526.767 165.867C530.5 168.4 531.167 167.867 527.967 164.8C526.1 162.8 523.433 161.867 523.433 163.2Z" fill="black"/>
<path d="M533.3 171.333C534.367 172.4 535.7 173.333 536.233 173.333C536.633 173.333 536.367 172.4 535.433 171.333C534.5 170.267 533.167 169.333 532.5 169.333C531.833 169.333 532.1 170.267 533.3 171.333Z" fill="black"/>
<path d="M538.1 175.2C538.1 175.467 539.167 176.533 540.5 177.467C542.5 179.2 542.633 179.067 540.9 176.933C539.167 174.8 538.1 174.133 538.1 175.2Z" fill="black"/>
<path d="M544.767 180.533C544.767 180.8 545.833 181.867 547.167 182.8C549.167 184.533 549.3 184.4 547.567 182.267C545.833 180.133 544.767 179.467 544.767 180.533Z" fill="black"/>
<path d="M552.367 188.133C553.3 189.067 554.367 189.467 554.767 189.067C555.167 188.667 554.5 187.867 553.167 187.467C551.3 186.667 551.167 186.8 552.367 188.133Z" fill="black"/>
<path d="M558.233 192.933C558.233 193.467 559.967 195.333 562.233 197.067C564.367 198.8 565.833 199.467 565.433 198.4C564.5 196.267 558.1 191.467 558.233 192.933Z" fill="black"/>
<path d="M570.1 204.133C571.967 205.733 577.3 210.667 582.1 215.2C586.9 219.733 596.233 228.133 602.767 234C609.433 239.867 619.3 248.8 624.767 254C630.233 259.067 645.3 272.533 658.1 283.867C670.9 295.2 681.567 305.067 681.833 305.867C681.967 306.667 681.167 308.667 679.833 310.133C678.5 311.6 672.9 317.867 667.433 324C661.967 330.267 655.567 337.467 653.3 340C640.767 354.133 628.9 367.6 625.433 371.867C619.967 378.533 605.167 395.467 598.5 402.667C595.433 406 591.3 410.8 589.167 413.333C587.167 416 584.633 418.933 583.7 420C577.033 427.867 575.3 429.333 573.433 429.333C572.367 429.333 571.433 429.867 571.433 430.667C571.433 434.267 576.233 430.933 585.7 420.533C591.433 414.133 597.3 407.733 598.767 406.133C600.233 404.533 609.433 394 619.3 382.667C629.167 371.333 639.967 358.933 643.3 355.333C646.633 351.6 655.167 342 662.1 334C669.033 325.867 677.167 316.8 680.1 313.6C683.033 310.4 685.567 307.333 685.833 306.8C685.967 306.267 680.9 301.067 674.5 295.2C668.1 289.467 662.5 284.4 662.1 284C661.7 283.6 656.9 279.467 651.433 274.667C639.833 264.533 631.833 257.467 618.9 245.2C613.7 240.267 607.3 234.533 604.767 232.533C602.233 230.4 597.7 226.533 594.767 223.867C579.033 209.6 569.3 201.333 568.1 201.333C567.433 201.467 568.233 202.667 570.1 204.133Z" fill="black"/>
<path d="M891.433 334.8V374.933L915.833 374.4C938.767 374 940.367 373.867 946.1 370.667C960.233 362.8 962.233 341.733 949.567 333.467C945.833 330.933 945.833 330.933 948.633 329.467C952.5 327.333 955.433 321.067 955.433 315.067C955.433 307.733 951.433 301.2 944.767 297.733C939.433 294.933 937.433 294.667 915.167 294.667H891.433V334.8ZM937.567 311.2C940.233 314.933 939.833 319.6 936.767 322.667C934.5 324.933 932.367 325.333 920.767 325.333H907.433V316.533V307.733L921.567 308.267C933.7 308.667 935.967 309.067 937.567 311.2ZM938.1 342C941.167 344.8 941.7 352.8 939.033 356.533C936.767 359.6 929.033 361.2 917.167 361.333H907.433V349.867V338.267L921.433 338.933C932.5 339.467 935.967 340.133 938.1 342Z" fill="black"/>
<path d="M1023.43 334.667V374.667H1032.1H1040.77V356.667V338.667H1056.1H1071.43V356.667V374.667H1080.1H1088.77V334.667V294.667H1080.1H1071.43V310V325.333H1056.1H1040.77V310V294.667H1032.1H1023.43V334.667Z" fill="black"/>
<path d="M1165.57 324C1173.17 340.267 1179.43 354.267 1179.43 355.2C1179.43 358.933 1174.37 361.733 1168.77 360.933L1163.3 360.267L1163.7 367.733L1164.1 375.333L1171.83 375.733C1178.5 376.133 1180.37 375.6 1184.23 372.667C1186.63 370.8 1190.23 366.667 1191.97 363.6C1194.9 358.667 1222.1 296.8 1222.1 295.2C1222.1 294.8 1218.1 294.667 1213.17 294.933L1204.23 295.333L1196.9 315.6C1192.77 326.8 1189.03 336 1188.63 336C1188.23 336 1184.1 326.667 1179.3 315.333L1170.77 294.667H1161.17H1151.7L1165.57 324Z" fill="black"/>
<path d="M1276.77 301.333V308H1288.77H1300.77V341.333V374.667H1309.43H1318.1V341.333V308H1330.1H1342.1V301.333V294.667H1309.43H1276.77V301.333Z" fill="black"/>
<path d="M1406.1 334.667V374.667H1414.77H1423.43V360V345.333H1435.83C1448.77 345.333 1456.37 343.067 1461.03 337.867C1469.17 328.667 1469.43 310.4 1461.57 301.467C1456.37 295.6 1451.7 294.667 1428.1 294.667H1406.1V334.667ZM1446.9 311.067C1449.7 313.6 1450.5 315.333 1450.5 319.867C1450.5 328.8 1447.17 331.2 1434.1 331.733L1423.43 332.267V320.133V308H1433.3C1441.83 308 1443.83 308.4 1446.9 311.067Z" fill="black"/>
<path d="M1532.77 334.667V374.667H1541.3H1549.7L1563.83 350.267C1571.57 336.933 1578.9 324.8 1579.97 323.333C1581.83 320.933 1581.97 323.2 1582.1 347.6V374.667H1590.1H1598.1V334.667V294.533L1589.17 294.933L1580.1 295.333L1564.77 321.733L1549.43 348.267L1549.03 321.467L1548.77 294.667H1540.77H1532.77V334.667Z" fill="black"/>
<path d="M562.9 422.933C563.3 423.867 565.167 425.867 567.167 427.2C570.767 429.733 570.767 429.733 566.9 425.6C562.633 420.933 561.833 420.533 562.9 422.933Z" fill="black"/>
<path d="M902.767 439.733C893.7 444 887.433 453.733 887.433 463.6C887.433 466.4 888.1 466.667 893.967 466.667H900.5L901.433 461.467C902.633 454.267 907.167 450.267 914.233 450.4C921.967 450.533 926.5 454.933 926.367 462.4C926.367 465.467 925.7 468.933 925.033 470.267C924.233 471.6 915.567 480.667 905.567 490.533C888.5 507.333 887.433 508.533 887.433 513.467V518.667H914.767H942.1V512.667V506.667H924.5H906.9L922.367 491.6C935.833 478.533 937.967 475.867 939.3 470.4C941.3 461.733 941.167 457.6 938.233 451.067C934.5 443.067 927.033 438.533 916.5 437.733C910.1 437.333 906.767 437.867 902.767 439.733Z" fill="black"/>
<path d="M1123.7 440.133C1117.03 443.467 1112.37 449.067 1109.3 457.467C1105.97 466.133 1105.97 490.4 1109.3 499.733C1112.23 508.133 1118.37 515.733 1124.37 518.133C1130.5 520.8 1139.97 520.4 1145.97 517.333C1157.97 511.333 1162.77 500 1162.77 478C1162.77 464.267 1162.5 462.667 1158.5 454.4C1153.3 443.467 1147.17 438.8 1136.63 437.867C1130.9 437.333 1128.23 437.733 1123.7 440.133ZM1142.77 453.867C1147.03 458.133 1148.77 465.2 1148.77 479.2C1148.77 498.667 1144.63 506.933 1134.77 506.933C1124.77 506.933 1120.5 498.267 1120.63 478C1120.63 464.533 1123.03 456 1127.83 452.667C1132.23 449.6 1139.03 450.133 1142.77 453.867Z" fill="black"/>
<path d="M1341.43 441.2C1332.37 443.333 1332.1 443.467 1331.7 447.733L1331.3 452H1340.1H1348.77L1348.5 479.6L1348.1 507.333L1339.83 507.733L1331.43 508.133V513.333V518.667H1355.43H1379.43V513.333V508.133L1371.17 507.733L1362.77 507.333L1362.37 472.933L1362.1 438.667L1356.37 438.8C1353.3 438.933 1346.63 440 1341.43 441.2Z" fill="black"/>
<path d="M1560.37 464.533C1544.1 487.6 1542.1 491.067 1542.1 495.867V501.333H1560.77H1579.43V510V518.667H1586.1H1592.77V510V501.333H1596.77C1600.63 501.333 1600.77 501.067 1600.77 495.333C1600.77 489.6 1600.63 489.333 1596.77 489.333H1592.77L1592.5 464.267L1592.1 439.333L1585.3 438.933L1578.5 438.533L1560.37 464.533ZM1579.43 474V489.333H1568.1H1556.9L1567.7 474C1573.7 465.6 1578.77 458.667 1579.03 458.667C1579.3 458.667 1579.43 465.6 1579.43 474Z" fill="black"/>
</svg>
