<?xml version="1.0" standalone="no"?>
<!DOCTYPE svg PUBLIC "-//W3C//DTD SVG 20010904//EN"
 "http://www.w3.org/TR/2001/REC-SVG-20010904/DTD/svg10.dtd">
<svg version="1.0" xmlns="http://www.w3.org/2000/svg"
 width="1130.000000pt" height="472.000000pt" viewBox="0 0 1130.000000 472.000000"
 preserveAspectRatio="xMidYMid meet">

<g transform="translate(0.000000,472.000000) scale(0.100000,-0.100000)"
fill="#000" stroke="none">
<path d="M340 4576 c0 -13 513 -1504 527 -1530 29 -58 71 -102 125 -131 49
-27 62 -30 173 -33 155 -5 211 13 282 92 56 62 35 6 280 716 107 311 219 635
249 721 30 86 54 159 54 163 0 3 -61 5 -136 4 l-137 -3 -62 -175 c-34 -96
-114 -326 -179 -510 -64 -184 -151 -434 -194 -555 l-77 -220 -57 -3 c-46 -2
-59 0 -66 15 -5 10 -88 241 -183 513 -95 272 -207 594 -249 715 l-77 220 -136
3 c-76 1 -137 1 -137 -2z"/>
<path d="M10650 4235 c0 -28 24 -67 51 -81 34 -17 138 -18 174 -2 27 12 55 54
55 83 0 11 -11 15 -41 15 -33 0 -42 -4 -46 -20 -3 -11 -16 -23 -29 -26 -35 -9
-71 3 -77 26 -4 16 -13 20 -46 20 -29 0 -41 -4 -41 -15z"/>
<path d="M3928 4106 c-89 -32 -139 -96 -157 -201 -34 -196 73 -345 248 -345
126 0 212 65 247 189 33 111 -5 257 -81 315 -70 54 -176 71 -257 42z m168
-105 c45 -27 68 -83 68 -161 0 -114 -51 -181 -140 -182 -84 -2 -136 58 -142
161 -5 86 9 131 54 171 28 24 44 30 82 30 28 0 59 -8 78 -19z"/>
<path d="M4730 4065 l0 -45 80 0 80 0 0 -225 0 -225 60 0 60 0 0 225 0 225 80
0 80 0 0 45 0 45 -220 0 -220 0 0 -45z"/>
<path d="M5650 3840 l0 -270 55 0 55 0 0 93 c0 85 2 96 23 115 13 12 26 22 30
22 3 0 40 -50 83 -111 42 -61 82 -113 89 -115 7 -3 39 -4 72 -2 l61 3 -114
155 -113 155 105 105 c57 58 104 109 104 113 0 4 -30 7 -67 7 l-68 0 -102
-107 -102 -108 -1 108 0 107 -55 0 -55 0 0 -270z"/>
<path d="M6580 3840 l0 -270 55 0 55 0 0 94 0 93 94 5 c151 8 198 48 204 171
4 88 -17 128 -81 157 -35 16 -66 20 -184 20 l-143 0 0 -270z m282 150 c24 -30
23 -85 -2 -110 -16 -16 -33 -20 -95 -20 l-75 0 0 73 c0 41 3 77 8 81 4 5 38 6
76 3 57 -4 73 -9 88 -27z"/>
<path d="M7490 3839 l0 -270 153 3 c170 3 196 11 234 67 18 26 23 48 23 94 0
115 -52 157 -207 165 l-93 5 0 103 0 104 -55 0 -55 0 0 -271z m279 -53 c28
-25 28 -77 0 -102 -17 -15 -36 -19 -93 -19 l-71 0 -3 59 c-5 87 -3 89 77 84
50 -2 75 -9 90 -22z"/>
<path d="M7980 3840 l0 -270 55 0 55 0 0 270 0 270 -55 0 -55 0 0 -270z"/>
<path d="M8550 4065 l0 -45 80 0 80 0 0 -225 0 -225 60 0 60 0 0 225 0 225 80
0 80 0 0 45 0 45 -220 0 -220 0 0 -45z"/>
<path d="M9460 3839 l0 -270 153 3 c170 3 196 11 234 67 18 26 23 48 23 94 0
115 -52 157 -207 165 l-93 5 0 103 0 104 -55 0 -55 0 0 -271z m279 -53 c28
-25 28 -77 0 -102 -17 -15 -36 -19 -93 -19 l-71 0 -3 59 c-5 87 -3 89 77 84
50 -2 75 -9 90 -22z"/>
<path d="M9950 3840 l0 -270 55 0 55 0 0 270 0 270 -55 0 -55 0 0 -270z"/>
<path d="M10560 3840 l0 -270 59 0 58 0 104 179 104 179 3 -179 2 -179 55 0
55 0 0 270 0 270 -57 0 -58 0 -105 -182 -105 -182 -3 182 -2 182 -55 0 -55 0
0 -270z"/>
<path d="M1565 3168 c-3 -7 -4 -391 -3 -853 l3 -840 127 -3 c125 -3 128 -2
133 20 3 13 4 397 3 853 l-3 830 -128 3 c-96 2 -129 -1 -132 -10z"/>
<path d="M1848 3175 c-3 -3 35 -121 83 -263 322 -947 430 -1258 453 -1296 50
-86 135 -134 250 -143 152 -12 254 36 315 148 l36 64 0 745 0 745 -132 3 -133
3 -2 -733 -3 -733 -45 0 -45 0 -32 90 c-17 50 -131 375 -252 723 -121 348
-223 638 -226 643 -6 9 -258 13 -267 4z"/>
<path d="M3010 2325 l0 -855 130 0 130 0 0 855 0 855 -130 0 -130 0 0 -855z"/>
<path d="M3290 2325 l0 -855 130 0 130 0 0 855 0 855 -130 0 -130 0 0 -855z"/>
<path d="M4688 3056 c-89 -32 -139 -96 -157 -201 -34 -196 73 -345 248 -345
126 0 212 65 247 189 33 111 -5 257 -81 315 -70 54 -176 71 -257 42z m168
-105 c45 -27 68 -83 68 -161 0 -114 -51 -181 -140 -182 -84 -2 -136 58 -142
161 -5 86 9 131 54 171 28 24 44 30 82 30 28 0 59 -8 78 -19z"/>
<path d="M8415 3046 c-97 -46 -139 -123 -139 -256 1 -178 89 -280 244 -280
104 0 179 48 217 137 20 49 17 53 -41 53 -49 0 -56 -3 -68 -27 -20 -41 -61
-66 -108 -66 -84 0 -130 64 -130 181 0 121 43 182 127 182 57 0 97 -21 113
-60 12 -28 16 -30 66 -30 63 0 66 8 34 76 -50 102 -199 145 -315 90z"/>
<path d="M3800 2790 l0 -270 55 0 55 0 0 93 c0 85 2 96 23 115 13 12 26 22 30
22 3 0 40 -50 83 -111 42 -61 82 -113 89 -115 7 -3 39 -4 72 -2 l61 3 -114
155 -113 155 105 105 c57 58 104 109 104 113 0 4 -30 7 -67 7 l-68 0 -102
-107 -102 -108 -1 108 0 107 -55 0 -55 0 0 -270z"/>
<path d="M5340 2790 l0 -270 60 0 60 0 0 120 0 120 105 0 105 0 0 -120 0 -120
55 0 55 0 0 270 0 270 -55 0 -54 0 -3 -102 -3 -103 -102 -3 -102 -3 -3 103 -3
103 -57 3 -58 3 0 -271z"/>
<path d="M6120 2790 l0 -270 55 0 55 0 0 93 c0 85 2 96 23 115 13 12 26 22 30
22 3 0 40 -50 83 -111 42 -61 82 -113 89 -115 7 -3 39 -4 72 -2 l61 3 -114
155 -113 155 105 105 c57 58 104 109 104 113 0 4 -30 7 -67 7 l-68 0 -102
-107 -102 -108 -1 108 0 107 -55 0 -55 0 0 -270z"/>
<path d="M6833 3048 c3 -7 46 -100 97 -206 89 -189 91 -194 73 -214 -13 -15
-27 -19 -56 -16 l-38 4 3 -51 3 -50 54 -3 c51 -3 55 -2 95 40 33 35 60 87 139
269 53 124 97 229 97 232 0 4 -26 7 -58 7 l-58 0 -48 -132 c-27 -73 -52 -137
-56 -141 -4 -5 -34 55 -66 132 l-59 141 -64 0 c-47 0 -62 -3 -58 -12z"/>
<path d="M7580 2790 l0 -270 55 0 55 0 0 94 0 93 94 5 c151 8 198 48 204 171
4 88 -17 128 -81 157 -35 16 -66 20 -184 20 l-143 0 0 -270z m282 150 c24 -30
23 -85 -2 -110 -16 -16 -33 -20 -95 -20 l-75 0 0 73 c0 41 3 77 8 81 4 5 38 6
76 3 57 -4 73 -9 88 -27z"/>
<path d="M9800 2790 l0 -270 60 0 60 0 0 120 0 120 105 0 105 0 0 -120 0 -120
55 0 55 0 0 270 0 270 -55 0 -54 0 -3 -102 -3 -103 -102 -3 -102 -3 -3 103 -3
103 -57 3 -58 3 0 -271z"/>
<path d="M10717 3053 c-7 -13 -187 -518 -187 -526 0 -4 26 -7 58 -7 l58 0 18
55 17 55 99 0 99 0 17 -55 18 -55 58 0 c32 0 58 3 58 8 0 4 -41 125 -92 270
l-92 262 -62 0 c-35 0 -65 -3 -67 -7z m123 -315 c0 -15 -9 -18 -58 -18 -32 0
-61 3 -64 6 -5 4 29 117 58 194 6 15 64 -150 64 -182z"/>
<path d="M10080 2145 c0 -28 24 -67 51 -81 34 -17 138 -18 174 -2 27 12 55 54
55 83 0 11 -11 15 -41 15 -33 0 -42 -4 -46 -20 -6 -23 -42 -35 -77 -26 -13 3
-26 15 -29 26 -4 16 -13 20 -46 20 -29 0 -41 -4 -41 -15z"/>
<path d="M9018 2021 c-70 -23 -128 -86 -128 -140 0 -19 6 -21 49 -21 41 0 51
4 56 20 11 36 54 60 105 60 61 0 93 -24 93 -70 0 -49 -31 -70 -104 -70 l-59 0
0 -39 0 -38 72 -5 c59 -5 75 -10 90 -28 26 -32 23 -73 -8 -104 -22 -21 -36
-26 -80 -26 -69 0 -100 13 -119 50 -14 27 -20 30 -65 30 -58 0 -61 -9 -31 -76
27 -60 99 -94 197 -94 148 0 234 63 234 172 0 49 -29 103 -63 119 l-23 11 33
33 c27 27 33 41 33 75 0 55 -30 103 -78 126 -41 20 -160 29 -204 15z"/>
<path d="M3848 1823 c-4 -225 -9 -243 -63 -243 l-35 0 0 -50 c0 -45 2 -50 26
-56 32 -8 91 1 112 18 43 36 71 179 72 361 l0 77 75 0 75 0 0 -225 0 -225 60
0 60 0 0 270 0 270 -189 0 -189 0 -4 -197z"/>
<path d="M4313 2008 c3 -7 46 -100 97 -206 89 -189 91 -194 73 -214 -13 -15
-27 -19 -56 -16 l-38 4 3 -51 3 -50 54 -3 c51 -3 55 -2 95 40 33 35 60 87 139
269 53 124 97 229 97 232 0 4 -26 7 -58 7 l-58 0 -48 -132 c-27 -73 -52 -137
-56 -141 -4 -5 -34 55 -66 132 l-59 141 -64 0 c-47 0 -62 -3 -58 -12z"/>
<path d="M4851 1892 c4 -146 15 -173 77 -199 29 -12 59 -14 135 -10 l97 6 0
-104 0 -105 55 0 55 0 0 270 0 270 -55 0 -55 0 0 -120 c0 -139 4 -134 -98
-135 -92 0 -102 15 -102 151 l0 104 -56 0 -56 0 3 -128z"/>
<path d="M5390 1751 l0 -271 305 0 305 0 -2 268 -3 267 -52 3 -53 3 0 -225 0
-226 -70 0 -70 0 -2 223 -3 222 -52 3 -53 3 0 -225 0 -226 -70 0 -70 0 -2 223
-3 222 -52 3 -53 3 0 -270z"/>
<path d="M6120 1750 l0 -270 59 0 58 0 104 179 104 179 3 -179 2 -179 55 0 55
0 0 270 0 270 -57 0 -58 0 -105 -182 -105 -182 -3 182 -2 182 -55 0 -55 0 0
-270z"/>
<path d="M6690 1750 l0 -270 205 0 205 0 0 50 0 50 -150 0 -150 0 0 65 0 65
130 0 130 0 0 50 0 50 -130 0 -130 0 0 60 0 60 145 0 145 0 0 45 0 45 -200 0
-200 0 0 -270z"/>
<path d="M7837 2013 c-4 -3 -7 -40 -7 -82 0 -98 -15 -197 -42 -288 -18 -64
-24 -73 -44 -73 -24 0 -24 -1 -24 -106 l0 -105 48 3 47 3 3 58 3 57 169 0 170
0 0 -60 0 -60 45 0 45 0 0 105 0 105 -25 0 -25 0 0 225 0 225 -178 0 c-98 0
-182 -3 -185 -7z m251 -265 l2 -178 -106 0 c-97 0 -106 2 -99 18 17 46 36 146
41 227 3 50 7 96 10 103 3 9 24 12 76 10 l73 -3 3 -177z"/>
<path d="M8340 1750 l0 -270 59 0 58 0 104 179 104 179 3 -179 2 -179 55 0 55
0 0 270 0 270 -57 0 -58 0 -105 -182 -105 -182 -3 182 -2 182 -55 0 -55 0 0
-270z"/>
<path d="M9587 2013 c-7 -13 -187 -518 -187 -526 0 -4 26 -7 58 -7 l58 0 18
55 17 55 99 0 99 0 17 -55 18 -55 58 0 c32 0 58 3 58 8 0 4 -41 125 -92 270
l-92 262 -62 0 c-35 0 -65 -3 -67 -7z m123 -315 c0 -15 -9 -18 -58 -18 -32 0
-61 3 -64 6 -5 4 29 117 58 194 6 15 64 -150 64 -182z"/>
<path d="M9990 1750 l0 -270 59 0 58 0 104 179 104 179 3 -179 2 -179 55 0 55
0 0 270 0 270 -57 0 -58 0 -105 -182 -105 -182 -3 182 -2 182 -55 0 -55 0 0
-270z"/>
<path d="M10560 1750 l0 -270 60 0 60 0 0 120 0 120 105 0 105 0 0 -120 0
-120 55 0 55 0 0 270 0 270 -55 0 -54 0 -3 -102 -3 -103 -102 -3 -102 -3 -3
103 -3 103 -57 3 -58 3 0 -271z"/>
<path d="M1072 1452 c-9 -7 -12 -40 -10 -133 l3 -124 605 0 605 0 3 124 c2 93
-1 126 -10 133 -17 10 -1179 10 -1196 0z"/>
<path d="M3435 1410 c-136 -48 -806 -277 -1098 -376 -153 -51 -306 -108 -339
-126 -111 -59 -158 -151 -158 -308 0 -184 63 -277 231 -342 33 -13 59 -26 59
-30 0 -5 192 -8 428 -8 l427 1 -200 70 c-110 39 -310 109 -445 156 -135 47
-251 90 -257 95 -17 13 -17 103 0 115 6 6 84 35 172 66 88 31 407 142 709 247
302 105 557 195 567 201 17 9 19 23 19 139 0 151 8 144 -115 100z"/>
<path d="M1538 695 l-3 -475 135 0 135 0 -3 475 -2 475 -130 0 -130 0 -2 -475z"/>
<path d="M6138 966 c-89 -32 -139 -96 -157 -201 -34 -196 73 -345 248 -345
126 0 212 65 247 189 33 111 -5 257 -81 315 -70 54 -176 71 -257 42z m168
-105 c45 -27 68 -83 68 -161 0 -114 -51 -181 -140 -182 -84 -2 -136 58 -142
161 -5 86 9 131 54 171 28 24 44 30 82 30 28 0 59 -8 78 -19z"/>
<path d="M3780 700 l0 -270 60 0 60 0 0 225 0 226 103 -3 102 -3 3 -222 2
-223 55 0 55 0 0 270 0 270 -220 0 -220 0 0 -270z"/>
<path d="M4910 700 l0 -270 55 0 55 0 0 94 0 93 94 5 c151 8 198 48 204 171 4
88 -17 128 -81 157 -35 16 -66 20 -184 20 l-143 0 0 -270z m282 150 c24 -30
23 -85 -2 -110 -16 -16 -33 -20 -95 -20 l-75 0 0 73 c0 41 3 77 8 81 4 5 38 6
76 3 57 -4 73 -9 88 -27z"/>
<path d="M7160 700 l0 -270 205 0 205 0 0 50 0 50 -150 0 -150 0 0 65 0 65
130 0 130 0 0 50 0 50 -130 0 -130 0 0 60 0 60 145 0 145 0 0 45 0 45 -200 0
-200 0 0 -270z"/>
<path d="M8250 700 l0 -270 55 0 55 0 0 93 c0 85 2 96 23 115 13 12 26 22 30
22 3 0 40 -50 83 -111 42 -61 82 -113 89 -115 7 -3 39 -4 72 -2 l61 3 -114
155 -113 155 105 105 c57 58 104 109 104 113 0 4 -30 7 -67 7 l-68 0 -102
-107 -102 -108 -1 108 0 107 -55 0 -55 0 0 -270z"/>
<path d="M9310 925 l0 -45 80 0 80 0 0 -225 0 -225 60 0 60 0 0 225 0 225 80
0 80 0 0 45 0 45 -220 0 -220 0 0 -45z"/>
<path d="M10400 699 l0 -270 153 3 c170 3 196 11 234 67 18 26 23 48 23 94 0
115 -52 157 -207 165 l-93 5 0 103 0 104 -55 0 -55 0 0 -271z m279 -53 c28
-25 28 -77 0 -102 -17 -15 -36 -19 -93 -19 l-71 0 -3 59 c-5 87 -3 89 77 84
50 -2 75 -9 90 -22z"/>
<path d="M10890 700 l0 -270 55 0 55 0 0 270 0 270 -55 0 -55 0 0 -270z"/>
<path d="M2337 723 c-4 -3 -7 -61 -7 -129 0 -102 3 -123 16 -128 24 -9 1177
-7 1192 2 9 7 12 40 10 133 l-3 124 -601 3 c-330 1 -604 -1 -607 -5z"/>
</g>
</svg>
