<svg width="1426" height="582" viewBox="0 0 1426 582" fill="none" xmlns="http://www.w3.org/2000/svg">
<path d="M0 0.346432C0 2.07977 68.4 200.88 70.2667 204.346C74.1333 212.08 79.7333 217.946 86.9333 221.813C93.4667 225.413 95.2 225.813 110 226.213C130.667 226.88 138.133 224.48 147.6 213.946C155.067 205.68 152.267 213.146 184.933 118.48C199.2 77.0131 214.133 33.8131 218.133 22.3464C222.133 10.8798 225.333 1.14643 225.333 0.613099C225.333 0.213099 217.2 -0.0535681 207.2 0.0797652L188.933 0.479765L180.667 23.8131C176.133 36.6131 165.467 67.2798 156.8 91.8131C148.267 116.346 136.667 149.68 130.933 165.813L120.667 195.146L113.067 195.546C106.933 195.813 105.2 195.546 104.267 193.546C103.6 192.213 92.5333 161.413 79.8667 125.146C67.2 88.8798 52.2667 45.9464 46.6667 29.8131L36.4 0.479765L18.2667 0.0797652C8.13333 -0.0535681 0 -0.0535681 0 0.346432Z" fill="black"/>
<path d="M1374.67 45.813C1374.67 49.5464 1377.87 54.7464 1381.47 56.613C1386 58.8797 1399.87 59.013 1404.67 56.8797C1408.27 55.2797 1412 49.6797 1412 45.813C1412 44.3464 1410.53 43.813 1406.53 43.813C1402.13 43.813 1400.93 44.3464 1400.4 46.4797C1400 47.9464 1398.27 49.5464 1396.53 49.9464C1391.87 51.1464 1387.07 49.5464 1386.27 46.4797C1385.73 44.3464 1384.53 43.813 1380.13 43.813C1376.27 43.813 1374.67 44.3464 1374.67 45.813Z" fill="black"/>
<path d="M478.4 63.0131C466.533 67.2798 459.867 75.8131 457.467 89.8131C452.933 115.946 467.2 135.813 490.533 135.813C507.333 135.813 518.8 127.146 523.467 110.613C527.867 95.8131 522.8 76.3464 512.667 68.6131C503.333 61.4131 489.2 59.1464 478.4 63.0131ZM500.8 77.0131C506.8 80.6131 509.867 88.0798 509.867 98.4798C509.867 113.68 503.067 122.613 491.2 122.746C480 123.013 473.067 115.013 472.267 101.28C471.6 89.8131 473.467 83.8131 479.467 78.4798C483.2 75.2798 485.333 74.4798 490.4 74.4798C494.133 74.4798 498.267 75.5464 500.8 77.0131Z" fill="black"/>
<path d="M585.333 68.4797V74.4797H596H606.667V104.48V134.48H614.667H622.667V104.48V74.4797H633.333H644V68.4797V62.4797H614.667H585.333V68.4797Z" fill="black"/>
<path d="M708 98.4797V134.48H715.333H722.667V122.08C722.667 110.746 722.933 109.28 725.733 106.746C727.467 105.146 729.2 103.813 729.733 103.813C730.133 103.813 735.067 110.48 740.8 118.613C746.4 126.746 751.733 133.68 752.667 133.946C753.6 134.346 757.867 134.48 762.267 134.213L770.4 133.813L755.2 113.146L740.133 92.4797L754.133 78.4797C761.733 70.7464 768 63.9464 768 63.4131C768 62.8797 764 62.4797 759.067 62.4797H750L736.4 76.7464L722.8 91.1464L722.667 76.7464V62.4797H715.333H708V98.4797Z" fill="black"/>
<path d="M832 98.4797V134.48H839.333H846.667V121.946V109.546L859.2 108.88C879.333 107.813 885.6 102.48 886.4 86.0797C886.933 74.3464 884.133 69.0131 875.6 65.1464C870.933 63.0131 866.8 62.4797 851.067 62.4797H832V98.4797ZM869.6 78.4797C872.8 82.4797 872.667 89.8131 869.333 93.1464C867.2 95.2797 864.933 95.8131 856.667 95.8131H846.667V86.0797C846.667 80.6131 847.067 75.8131 847.733 75.2797C848.267 74.6131 852.8 74.4797 857.867 74.8797C865.467 75.4131 867.6 76.0797 869.6 78.4797Z" fill="black"/>
<path d="M953.333 98.6131V134.613L973.733 134.213C996.4 133.813 999.867 132.746 1004.93 125.28C1007.33 121.813 1008 118.88 1008 112.746C1008 97.4131 1001.07 91.8131 980.4 90.7464L968 90.0798V76.3464V62.4798H960.667H953.333V98.6131ZM990.533 105.68C994.267 109.013 994.267 115.946 990.533 119.28C988.267 121.28 985.733 121.813 978.133 121.813H968.667L968.267 113.946C967.6 102.346 967.867 102.08 978.533 102.746C985.2 103.013 988.533 103.946 990.533 105.68Z" fill="black"/>
<path d="M1018.67 98.4797V134.48H1026H1033.33V98.4797V62.4797H1026H1018.67V98.4797Z" fill="black"/>
<path d="M1094.67 68.4797V74.4797H1105.33H1116V104.48V134.48H1124H1132V104.48V74.4797H1142.67H1153.33V68.4797V62.4797H1124H1094.67V68.4797Z" fill="black"/>
<path d="M1216 98.6131V134.613L1236.4 134.213C1259.07 133.813 1262.53 132.746 1267.6 125.28C1270 121.813 1270.67 118.88 1270.67 112.746C1270.67 97.4131 1263.73 91.8131 1243.07 90.7464L1230.67 90.0798V76.3464V62.4798H1223.33H1216V98.6131ZM1253.2 105.68C1256.93 109.013 1256.93 115.946 1253.2 119.28C1250.93 121.28 1248.4 121.813 1240.8 121.813H1231.33L1230.93 113.946C1230.27 102.346 1230.53 102.08 1241.2 102.746C1247.87 103.013 1251.2 103.946 1253.2 105.68Z" fill="black"/>
<path d="M1281.33 98.4797V134.48H1288.67H1296V98.4797V62.4797H1288.67H1281.33V98.4797Z" fill="black"/>
<path d="M1362.67 98.4797V134.48H1370.53H1378.27L1392.13 110.613L1406 86.7464L1406.4 110.613L1406.67 134.48H1414H1421.33V98.4797V62.4797H1413.73H1406L1392 86.7464L1378 111.013L1377.6 86.7464L1377.33 62.4797H1370H1362.67V98.4797Z" fill="black"/>
<path d="M163.333 188.08C162.933 189.013 162.8 240.213 162.933 301.813L163.333 413.813L180.267 414.213C196.933 414.613 197.333 414.48 198 411.546C198.4 409.813 198.533 358.613 198.4 297.813L198 187.146L180.933 186.746C168.133 186.48 163.733 186.88 163.333 188.08Z" fill="black"/>
<path d="M201.067 187.146C200.667 187.546 205.733 203.28 212.133 222.213C255.067 348.48 269.467 389.946 272.533 395.013C279.2 406.48 290.533 412.88 305.867 414.08C326.133 415.68 339.733 409.28 347.867 394.346L352.667 385.813V286.48V187.146L335.067 186.746L317.333 186.346L317.067 284.08L316.667 381.813H310.667H304.667L300.4 369.813C298.133 363.146 282.933 319.813 266.8 273.413C250.667 227.013 237.067 188.346 236.667 187.68C235.867 186.48 202.267 185.946 201.067 187.146Z" fill="black"/>
<path d="M356 300.48V414.48H373.333H390.667V300.48V186.48H373.333H356V300.48Z" fill="black"/>
<path d="M393.333 300.48V414.48H410.667H428V300.48V186.48H410.667H393.333V300.48Z" fill="black"/>
<path d="M579.734 203.013C567.867 207.28 561.2 215.813 558.8 229.813C554.267 255.946 568.534 275.813 591.867 275.813C608.667 275.813 620.134 267.146 624.8 250.613C629.2 235.813 624.134 216.346 614 208.613C604.667 201.413 590.534 199.146 579.734 203.013ZM602.134 217.013C608.134 220.613 611.2 228.08 611.2 238.48C611.2 253.68 604.4 262.613 592.534 262.746C581.334 263.013 574.4 255.013 573.6 241.28C572.934 229.813 574.8 223.813 580.8 218.48C584.534 215.28 586.667 214.48 591.734 214.48C595.467 214.48 599.6 215.546 602.134 217.013Z" fill="black"/>
<path d="M1076.67 204.346C1063.73 210.48 1058.13 220.746 1058.13 238.48C1058.27 262.213 1070 275.813 1090.67 275.813C1104.53 275.813 1114.53 269.413 1119.6 257.546C1122.27 251.013 1121.87 250.48 1114.13 250.48C1107.6 250.48 1106.67 250.88 1105.07 254.08C1102.4 259.546 1096.93 262.88 1090.67 262.88C1079.47 262.88 1073.33 254.346 1073.33 238.746C1073.33 222.613 1079.07 214.48 1090.27 214.48C1097.87 214.48 1103.2 217.28 1105.33 222.48C1106.93 226.213 1107.47 226.48 1114.13 226.48C1122.53 226.48 1122.93 225.413 1118.67 216.346C1112 202.746 1092.13 197.013 1076.67 204.346Z" fill="black"/>
<path d="M461.333 238.48V274.48H468.667H476V262.08C476 250.746 476.267 249.28 479.067 246.746C480.8 245.146 482.533 243.813 483.067 243.813C483.467 243.813 488.4 250.48 494.133 258.613C499.733 266.746 505.067 273.68 506 273.946C506.933 274.346 511.2 274.48 515.6 274.213L523.733 273.813L508.533 253.146L493.467 232.48L507.467 218.48C515.067 210.746 521.333 203.946 521.333 203.413C521.333 202.88 517.333 202.48 512.4 202.48H503.333L489.733 216.746L476.133 231.146L476 216.746V202.48H468.667H461.333V238.48Z" fill="black"/>
<path d="M666.667 238.48V274.48H674.667H682.667V258.48V242.48H696.667H710.667V258.48V274.48H718H725.333V238.48V202.48H718H710.8L710.4 216.08L710 229.813L696.4 230.213L682.8 230.613L682.4 216.88L682 203.146L674.4 202.746L666.667 202.346V238.48Z" fill="black"/>
<path d="M770.667 238.48V274.48H778H785.333V262.08C785.333 250.746 785.6 249.28 788.4 246.746C790.133 245.146 791.867 243.813 792.4 243.813C792.8 243.813 797.733 250.48 803.467 258.613C809.067 266.746 814.4 273.68 815.333 273.946C816.267 274.346 820.533 274.48 824.933 274.213L833.067 273.813L817.867 253.146L802.8 232.48L816.8 218.48C824.4 210.746 830.667 203.946 830.667 203.413C830.667 202.88 826.667 202.48 821.733 202.48H812.667L799.067 216.746L785.467 231.146L785.333 216.746V202.48H778H770.667V238.48Z" fill="black"/>
<path d="M865.733 204.08C866.133 205.013 871.867 217.413 878.667 231.546C890.533 256.746 890.8 257.413 888.4 260.08C886.667 262.08 884.8 262.613 880.933 262.213L875.867 261.68L876.267 268.48L876.667 275.146L883.867 275.546C890.667 275.946 891.2 275.813 896.533 270.213C900.933 265.546 904.533 258.613 915.067 234.346C922.133 217.813 928 203.813 928 203.413C928 202.88 924.533 202.48 920.267 202.48H912.533L906.133 220.08C902.533 229.813 899.2 238.346 898.667 238.88C898.133 239.546 894.133 231.546 889.867 221.28L882 202.48H873.467C867.2 202.48 865.2 202.88 865.733 204.08Z" fill="black"/>
<path d="M965.333 238.48V274.48H972.667H980V261.946V249.546L992.533 248.88C1012.67 247.813 1018.93 242.48 1019.73 226.08C1020.27 214.346 1017.47 209.013 1008.93 205.146C1004.27 203.013 1000.13 202.48 984.4 202.48H965.333V238.48ZM1002.93 218.48C1006.13 222.48 1006 229.813 1002.67 233.146C1000.53 235.28 998.267 235.813 990 235.813H980V226.08C980 220.613 980.4 215.813 981.067 215.28C981.6 214.613 986.133 214.48 991.2 214.88C998.8 215.413 1000.93 216.08 1002.93 218.48Z" fill="black"/>
<path d="M1261.33 238.48V274.48H1269.33H1277.33V258.48V242.48H1291.33H1305.33V258.48V274.48H1312.67H1320V238.48V202.48H1312.67H1305.47L1305.07 216.08L1304.67 229.813L1291.07 230.213L1277.47 230.613L1277.07 216.88L1276.67 203.146L1269.07 202.746L1261.33 202.346V238.48Z" fill="black"/>
<path d="M1383.6 203.413C1382.67 205.146 1358.67 272.48 1358.67 273.546C1358.67 274.08 1362.13 274.48 1366.4 274.48H1374.13L1376.53 267.146L1378.8 259.813H1392H1405.2L1407.47 267.146L1409.87 274.48H1417.6C1421.87 274.48 1425.33 274.08 1425.33 273.413C1425.33 272.88 1419.87 256.746 1413.07 237.413L1400.8 202.48H1392.53C1387.87 202.48 1383.87 202.88 1383.6 203.413ZM1400 245.413C1400 247.413 1398.8 247.813 1392.27 247.813C1388 247.813 1384.13 247.413 1383.73 247.013C1383.07 246.48 1387.6 231.413 1391.47 221.146C1392.27 219.146 1400 241.146 1400 245.413Z" fill="black"/>
<path d="M1298.67 324.48C1298.67 328.213 1301.87 333.413 1305.47 335.28C1310 337.546 1323.87 337.68 1328.67 335.546C1332.27 333.946 1336 328.346 1336 324.48C1336 323.013 1334.53 322.48 1330.53 322.48C1326.13 322.48 1324.93 323.013 1324.4 325.146C1323.6 328.213 1318.8 329.813 1314.13 328.613C1312.4 328.213 1310.67 326.613 1310.27 325.146C1309.73 323.013 1308.53 322.48 1304.13 322.48C1300.27 322.48 1298.67 323.013 1298.67 324.48Z" fill="black"/>
<path d="M1157.07 341.013C1147.73 344.08 1140 352.48 1140 359.68C1140 362.213 1140.8 362.48 1146.53 362.48C1152 362.48 1153.33 361.946 1154 359.813C1155.47 355.013 1161.2 351.813 1168 351.813C1176.13 351.813 1180.4 355.013 1180.4 361.146C1180.4 367.68 1176.27 370.48 1166.53 370.48H1158.67V375.68V380.746L1168.27 381.413C1176.13 382.08 1178.27 382.746 1180.27 385.146C1183.73 389.413 1183.33 394.88 1179.2 399.013C1176.27 401.813 1174.4 402.48 1168.53 402.48C1159.33 402.48 1155.2 400.746 1152.67 395.813C1150.8 392.213 1150 391.813 1144 391.813C1136.27 391.813 1135.87 393.013 1139.87 401.946C1143.47 409.946 1153.07 414.48 1166.13 414.48C1185.87 414.48 1197.33 406.08 1197.33 391.546C1197.33 385.013 1193.47 377.813 1188.93 375.68L1185.87 374.213L1190.27 369.813C1193.87 366.213 1194.67 364.346 1194.67 359.813C1194.67 352.48 1190.67 346.08 1184.27 343.013C1178.8 340.346 1162.93 339.146 1157.07 341.013Z" fill="black"/>
<path d="M467.733 367.413C467.2 397.413 466.533 399.813 459.333 399.813H454.667V406.48C454.667 412.48 454.933 413.146 458.133 413.946C462.4 415.013 470.267 413.813 473.067 411.546C478.8 406.746 482.533 387.68 482.667 363.413V353.146H492.667H502.667V383.146V413.146H510.667H518.667V377.146V341.146H493.467H468.267L467.733 367.413Z" fill="black"/>
<path d="M529.733 342.746C530.133 343.68 535.867 356.08 542.667 370.213C554.533 395.413 554.8 396.08 552.4 398.746C550.667 400.746 548.8 401.28 544.933 400.88L539.867 400.346L540.267 407.146L540.667 413.813L547.867 414.213C554.667 414.613 555.2 414.48 560.533 408.88C564.933 404.213 568.533 397.28 579.067 373.013C586.133 356.48 592 342.48 592 342.08C592 341.546 588.533 341.146 584.267 341.146H576.533L570.133 358.746C566.533 368.48 563.2 377.013 562.667 377.546C562.133 378.213 558.133 370.213 553.867 359.946L546 341.146H537.467C531.2 341.146 529.2 341.546 529.733 342.746Z" fill="black"/>
<path d="M601.467 358.213C602 377.68 603.467 381.28 611.734 384.746C615.6 386.346 619.6 386.613 629.734 386.08L642.667 385.28V399.146V413.146H650H657.334V377.146V341.146H650H642.667V357.146C642.667 375.68 643.2 375.013 629.6 375.146C617.334 375.146 616 373.146 616 355.013V341.146H608.534H601.067L601.467 358.213Z" fill="black"/>
<path d="M673.333 377.013V413.146H714H754.667L754.4 377.413L754 341.813L747.067 341.413L740 341.013V371.013V401.146H730.667H721.333L721.067 371.413L720.667 341.813L713.733 341.413L706.667 341.013V371.013V401.146H697.333H688L687.733 371.413L687.333 341.813L680.4 341.413L673.333 341.013V377.013Z" fill="black"/>
<path d="M770.667 377.146V413.146H778.533H786.267L800.133 389.28L814 365.413L814.4 389.28L814.667 413.146H822H829.333V377.146V341.146H821.733H814L800 365.413L786 389.68L785.6 365.413L785.333 341.146H778H770.667V377.146Z" fill="black"/>
<path d="M846.667 377.146V413.146H874H901.333V406.48V399.813H881.333H861.333V391.146V382.48H878.667H896V375.813V369.146H878.667H861.333V361.146V353.146H880.667H900V347.146V341.146H873.333H846.667V377.146Z" fill="black"/>
<path d="M999.6 342.08C999.067 342.48 998.667 347.413 998.667 353.013C998.667 366.08 996.667 379.28 993.067 391.413C990.667 399.946 989.867 401.146 987.2 401.146C984 401.146 984 401.28 984 415.28V429.28L990.4 428.88L996.667 428.48L997.067 420.746L997.467 413.146H1020H1042.67V421.146V429.146H1048.67H1054.67V415.146V401.146H1051.33H1048V371.146V341.146H1024.27C1011.2 341.146 1000 341.546 999.6 342.08ZM1033.07 377.413L1033.33 401.146H1019.2C1006.27 401.146 1005.07 400.88 1006 398.746C1008.27 392.613 1010.8 379.28 1011.47 368.48C1011.87 361.813 1012.4 355.68 1012.8 354.746C1013.2 353.546 1016 353.146 1022.93 353.413L1032.67 353.813L1033.07 377.413Z" fill="black"/>
<path d="M1066.67 377.146V413.146H1074.53H1082.27L1096.13 389.28L1110 365.413L1110.4 389.28L1110.67 413.146H1118H1125.33V377.146V341.146H1117.73H1110L1096 365.413L1082 389.68L1081.6 365.413L1081.33 341.146H1074H1066.67V377.146Z" fill="black"/>
<path d="M1232.93 342.08C1232 343.813 1208 411.146 1208 412.213C1208 412.746 1211.47 413.146 1215.73 413.146H1223.47L1225.87 405.813L1228.13 398.48H1241.33H1254.53L1256.8 405.813L1259.2 413.146H1266.93C1271.2 413.146 1274.67 412.746 1274.67 412.08C1274.67 411.546 1269.2 395.413 1262.4 376.08L1250.13 341.146H1241.87C1237.2 341.146 1233.2 341.546 1232.93 342.08ZM1249.33 384.08C1249.33 386.08 1248.13 386.48 1241.6 386.48C1237.33 386.48 1233.47 386.08 1233.07 385.68C1232.4 385.146 1236.93 370.08 1240.8 359.813C1241.6 357.813 1249.33 379.813 1249.33 384.08Z" fill="black"/>
<path d="M1286.67 377.146V413.146H1294.53H1302.27L1316.13 389.28L1330 365.413L1330.4 389.28L1330.67 413.146H1338H1345.33V377.146V341.146H1337.73H1330L1316 365.413L1302 389.68L1301.6 365.413L1301.33 341.146H1294H1286.67V377.146Z" fill="black"/>
<path d="M1362.67 377.146V413.146H1370.67H1378.67V397.146V381.146H1392.67H1406.67V397.146V413.146H1414H1421.33V377.146V341.146H1414H1406.8L1406.4 354.746L1406 368.48L1392.4 368.88L1378.8 369.28L1378.4 355.546L1378 341.813L1370.4 341.413L1362.67 341.013V377.146Z" fill="black"/>
<path d="M97.5998 416.88C96.3998 417.813 95.9998 422.213 96.2665 434.613L96.6665 451.146H177.333H258L258.4 434.613C258.666 422.213 258.266 417.813 257.066 416.88C254.8 415.546 99.8665 415.546 97.5998 416.88Z" fill="black"/>
<path d="M412.667 422.48C394.533 428.88 305.2 459.413 266.267 472.613C245.867 479.413 225.467 487.013 221.067 489.413C206.267 497.28 200 509.546 200 530.48C200 555.013 208.4 567.413 230.8 576.08C235.2 577.813 238.667 579.546 238.667 580.08C238.667 580.746 264.267 581.146 295.733 581.146L352.667 581.013L326 571.68C311.333 566.48 284.667 557.146 266.667 550.88C248.667 544.613 233.2 538.88 232.4 538.213C230.133 536.48 230.133 524.48 232.4 522.88C233.2 522.08 243.6 518.213 255.333 514.08C267.067 509.946 309.6 495.146 349.867 481.146C390.133 467.146 424.133 455.146 425.467 454.346C427.733 453.146 428 451.28 428 435.813C428 415.68 429.067 416.613 412.667 422.48Z" fill="black"/>
<path d="M159.733 517.813L159.333 581.146H177.333H195.333L194.933 517.813L194.667 454.48H177.333H160L159.733 517.813Z" fill="black"/>
<path d="M773.067 481.68C761.2 485.946 754.533 494.48 752.133 508.48C747.6 534.613 761.867 554.48 785.2 554.48C802 554.48 813.467 545.813 818.133 529.28C822.533 514.48 817.467 495.013 807.333 487.28C798 480.08 783.867 477.813 773.067 481.68ZM795.467 495.68C801.467 499.28 804.533 506.746 804.533 517.146C804.533 532.346 797.733 541.28 785.867 541.413C774.667 541.68 767.733 533.68 766.933 519.946C766.267 508.48 768.133 502.48 774.133 497.146C777.867 493.946 780 493.146 785.067 493.146C788.8 493.146 792.933 494.213 795.467 495.68Z" fill="black"/>
<path d="M458.667 517.146V553.146H466.667H474.667V523.146V493.013L488.4 493.413L502 493.813L502.4 523.413L502.667 553.146H510H517.333V517.146V481.146H488H458.667V517.146Z" fill="black"/>
<path d="M609.333 517.146V553.146H616.667H624V540.613V528.213L636.533 527.546C656.667 526.48 662.933 521.146 663.733 504.746C664.267 493.013 661.467 487.68 652.933 483.813C648.267 481.68 644.133 481.146 628.4 481.146H609.333V517.146ZM646.933 497.146C650.133 501.146 650 508.48 646.667 511.813C644.533 513.946 642.267 514.48 634 514.48H624V504.746C624 499.28 624.4 494.48 625.067 493.946C625.6 493.28 630.133 493.146 635.2 493.546C642.8 494.08 644.933 494.746 646.933 497.146Z" fill="black"/>
<path d="M909.333 517.146V553.146H936.667H964V546.48V539.813H944H924V531.146V522.48H941.333H958.667V515.813V509.146H941.333H924V501.146V493.146H943.333H962.667V487.146V481.146H936H909.333V517.146Z" fill="black"/>
<path d="M1054.67 517.146V553.146H1062H1069.33V540.746C1069.33 529.413 1069.6 527.946 1072.4 525.413C1074.13 523.813 1075.87 522.48 1076.4 522.48C1076.8 522.48 1081.73 529.146 1087.47 537.28C1093.07 545.413 1098.4 552.346 1099.33 552.613C1100.27 553.013 1104.53 553.146 1108.93 552.88L1117.07 552.48L1101.87 531.813L1086.8 511.146L1100.8 497.146C1108.4 489.413 1114.67 482.613 1114.67 482.08C1114.67 481.546 1110.67 481.146 1105.73 481.146H1096.67L1083.07 495.413L1069.47 509.813L1069.33 495.413V481.146H1062H1054.67V517.146Z" fill="black"/>
<path d="M1196 487.146V493.146H1206.67H1217.33V523.146V553.146H1225.33H1233.33V523.146V493.146H1244H1254.67V487.146V481.146H1225.33H1196V487.146Z" fill="black"/>
<path d="M1341.33 517.28V553.28L1361.73 552.88C1384.4 552.48 1387.87 551.413 1392.93 543.946C1395.33 540.48 1396 537.546 1396 531.413C1396 516.08 1389.07 510.48 1368.4 509.413L1356 508.746V495.013V481.146H1348.67H1341.33V517.28ZM1378.53 524.346C1382.27 527.68 1382.27 534.613 1378.53 537.946C1376.27 539.946 1373.73 540.48 1366.13 540.48H1356.67L1356.27 532.613C1355.6 521.013 1355.87 520.746 1366.53 521.413C1373.2 521.68 1376.53 522.613 1378.53 524.346Z" fill="black"/>
<path d="M1406.67 517.146V553.146H1414H1421.33V517.146V481.146H1414H1406.67V517.146Z" fill="black"/>
<path d="M266.267 514.08C265.733 514.48 265.333 522.213 265.333 531.28C265.333 544.88 265.733 547.68 267.467 548.346C270.667 549.546 424.4 549.28 426.4 548.08C427.6 547.146 428 542.746 427.734 530.346L427.334 513.813L347.2 513.413C303.2 513.28 266.667 513.546 266.267 514.08Z" fill="black"/>
</svg>
