<svg xmlns="http://www.w3.org/2000/svg"  viewBox="0 0 48 48" width="48px" height="48px"><path d="M20 23c1 0 4-1.618 4-5.618C24 11.163 18.494 10 12.292 10 11.12 10 7.547 10.002 5 10.001c-1.657-.001-3 1.343-3 3V35c0 1.657 1.343 3 3 3l11.8 0c4.419 0 8.165-3.496 8.2-7.915C25.047 24.009 20 23 20 23zM8 15h7c1.657 0 3 1.343 3 3s-1.343 3-3 3H8V15zM15.5 33H8v-7h7.5c1.933 0 3.5 1.567 3.5 3.5S17.433 33 15.5 33zM45.51 29c.829 0 1.5-.671 1.501-1.5v0c0-5.799-4.011-10.5-10-10.5-5.523 0-10 4.701-10 10.5 0 5.799 4.477 10.5 10 10.5 4.887 0 7.602-2.286 8.928-5.643.256-.647-.246-1.348-.942-1.348h-2.401c-.365 0-.688.207-.877.52C40.805 33.039 39.41 34 37.532 34c-2.812 0-4.86-2.135-5.382-5h10.722H45.51zM37.011 21c2.077 0 4.09 1.656 4.658 4h-9.273C33.149 22.651 34.931 21 37.011 21zM41.5 15h-8c-.828 0-1.5-.672-1.5-1.5v0c0-.828.672-1.5 1.5-1.5h8c.828 0 1.5.672 1.5 1.5v0C43 14.328 42.328 15 41.5 15z"/></svg>