<svg width="87" height="87" viewBox="0 0 87 87" fill="none" xmlns="http://www.w3.org/2000/svg">
<path d="M35.9635 57.347C35.9635 54.217 35.9835 51.087 35.9535 47.957C35.9435 46.667 35.5835 46.307 34.3835 46.207C33.7335 46.157 33.0835 46.147 32.4435 46.087C31.9735 46.047 31.5035 45.527 31.5035 45.007C31.4935 43.187 31.4935 41.367 31.5235 39.537C31.5335 39.017 31.9935 38.537 32.5035 38.497C33.1535 38.437 33.8035 38.437 34.4535 38.387C35.5135 38.307 35.9135 37.937 35.9635 37.007C35.9835 36.487 36.0235 35.957 35.9835 35.447C35.8635 33.467 36.2835 31.547 36.6935 29.637C37.1935 27.307 38.6435 25.657 40.7735 24.717C41.8235 24.247 43.0135 24.037 44.1635 23.837C45.0535 23.677 45.9835 23.687 46.8935 23.687C54.0735 23.687 53.0435 22.807 52.8235 30.387C52.8135 30.807 52.1935 31.377 51.7735 31.397C51.3835 31.417 50.9935 31.427 50.6035 31.437C49.9535 31.457 49.2935 31.437 48.6535 31.487C48.2735 31.517 47.8835 31.627 47.5235 31.757C46.7335 32.037 46.1335 32.547 46.1035 33.437C46.0435 34.737 46.0635 36.037 46.0735 37.337C46.0735 37.857 46.5635 38.337 47.0535 38.357C47.7035 38.387 48.3535 38.407 49.0035 38.427C49.9135 38.447 50.8235 38.457 51.7435 38.487C52.2635 38.507 52.7835 38.997 52.7635 39.467C52.6935 41.027 52.6435 42.587 52.5235 44.147C52.3835 45.847 52.0635 46.117 50.3135 46.177C49.5335 46.207 48.7435 46.177 47.9635 46.207C46.3035 46.247 46.0335 46.547 45.9935 48.357C45.9735 49.137 45.9835 49.927 45.9835 50.707C45.9835 55.667 45.9935 60.627 45.9735 65.577C45.9735 66.357 45.8735 67.137 45.7535 67.897C45.7235 68.107 45.4335 68.277 45.2335 68.437C45.1435 68.517 44.9935 68.547 44.8735 68.567C44.4835 68.617 44.1035 68.687 43.7135 68.697C37.9135 68.887 36.6735 68.847 36.4535 68.217C35.6335 65.947 36.1835 63.587 36.0735 61.267C36.0135 59.967 36.0635 58.657 36.0635 57.357C35.9935 57.347 35.9835 57.347 35.9635 57.347Z" fill="black"/>
<path d="M85.9836 43.8567C86.3236 49.5167 84.9036 55.6967 82.0836 61.5467C76.8536 72.3967 68.4936 79.8267 57.1736 83.9067C53.0936 85.3767 48.8936 86.1767 44.5336 86.1067C43.6236 86.0967 42.7136 86.0967 41.7936 86.1167C35.3836 86.2767 29.3936 84.5867 23.7436 81.7567C15.0736 77.4267 8.59364 70.8267 4.27364 62.1367C0.84364 55.2167 -0.36636 47.8567 0.0936399 40.1467C0.42364 34.6067 1.73364 29.3467 4.15364 24.3667C6.63364 19.2767 10.0036 14.8767 14.2236 11.0567C19.7736 6.03673 26.1436 2.62673 33.4136 1.08673C44.1136 -1.17327 54.4136 0.00673008 64.0536 5.42673C72.1336 9.96673 78.2436 16.4067 82.1536 24.8067C84.9736 30.8767 86.1036 35.6467 85.9836 43.8567ZM82.0536 43.3167C82.0536 22.7567 66.1736 4.79673 43.4236 4.06673C20.7936 4.30673 4.17364 21.8967 4.10364 42.9667C4.02364 64.4767 21.0736 81.8667 42.7036 82.0967C64.5236 82.3167 81.8436 64.8067 82.0536 43.3167Z" fill="black"/>
</svg>
