<svg xmlns="http://www.w3.org/2000/svg"  viewBox="0 0 48 48" width="48px" height="48px" baseProfile="basic"><linearGradient id="gzZjMlxEQMeIJ2O_r9BZVa" x1="-1.154" x2="62.754" y1="9.477" y2="46.375" gradientUnits="userSpaceOnUse"><stop offset="0" stop-color="#262626" stop-opacity="0"/><stop offset="1" stop-color="#262626" stop-opacity=".8"/></linearGradient><path fill="url(#gzZjMlxEQMeIJ2O_r9BZVa)" d="M26.04,4.101C13.392,2.849,2.849,13.392,4.101,26.041c0.927,9.36,8.498,16.931,17.858,17.858	c12.649,1.253,23.192-9.291,21.939-21.94C42.972,12.599,35.401,5.028,26.04,4.101z"/><linearGradient id="gzZjMlxEQMeIJ2O_r9BZVb" x1="4.809" x2="34.498" y1="15.309" y2="44.998" gradientUnits="userSpaceOnUse"><stop offset="0" stop-color="#262626" stop-opacity="0"/><stop offset="1" stop-color="#262626" stop-opacity=".8"/></linearGradient><path fill="#000" d="M14,19h2c1.105,0,2,0.895,2,2v13h-2c-1.105,0-2-0.895-2-2V19z"/><linearGradient id="gzZjMlxEQMeIJ2O_r9BZVc" x1="10.558" x2="40.248" y1="9.559" y2="39.249" gradientUnits="userSpaceOnUse"><stop offset="0" stop-color="#262626" stop-opacity="0"/><stop offset="1" stop-color="#262626" stop-opacity=".8"/></linearGradient><path fill="#000" d="M15.988,17h-0.022C14.772,17,14,16.11,14,14.999C14,13.864,14.796,13,16.011,13	c1.217,0,1.966,0.864,1.989,1.999C18,16.11,17.228,17,15.988,17z"/><linearGradient id="gzZjMlxEQMeIJ2O_r9BZVd" x1="10.279" x2="39.969" y1="9.838" y2="39.528" gradientUnits="userSpaceOnUse"><stop offset="0" stop-color="#262626" stop-opacity="0"/><stop offset="1" stop-color="#262626" stop-opacity=".8"/></linearGradient><path fill="#000" d="M35,24.727c0-2.914-2.168-5.491-5.074-5.71C27.89,18.862,26.07,19.821,25,21.344V21	c0-1.105-0.895-2-2-2h-2v13c0,1.105,0.895,2,2,2h2l0-7.83c0-1.625,1.217-3.08,2.839-3.165C29.569,22.914,31,24.29,31,26v6	c0,1.105,0.895,2,2,2h2L35,24.727z"/></svg>