<svg xmlns="http://www.w3.org/2000/svg"  viewBox="0 0 48 48" width="48px" height="48px" baseProfile="basic"><linearGradient id="ZsGKccRBssfYZrxFzqqy5a" x1="14.886" x2="67.43" y1="14.207" y2="66.751" gradientUnits="userSpaceOnUse"><stop offset="0" stop-color="#262626" stop-opacity="0"/><stop offset="1" stop-color="#262626" stop-opacity=".8"/></linearGradient><path fill="#000" d="M11.553,23.717c6.99-3.075,16.035-6.824,17.284-7.343c3.275-1.358,4.28-1.098,3.779,1.91	c-0.36,2.162-1.398,9.319-2.226,13.774c-0.491,2.642-1.593,2.955-3.325,1.812c-0.833-0.55-5.038-3.331-5.951-3.984	c-0.833-0.595-1.982-1.311-0.541-2.721c0.513-0.502,3.874-3.712,6.493-6.21c0.343-0.328-0.088-0.867-0.484-0.604	c-3.53,2.341-8.424,5.59-9.047,6.013c-0.941,0.639-1.845,0.932-3.467,0.466c-1.226-0.352-2.423-0.772-2.889-0.932	C9.384,25.282,9.81,24.484,11.553,23.717z"/><linearGradient id="ZsGKccRBssfYZrxFzqqy5b" x1="-5.859" x2="46.639" y1="-5.859" y2="46.639" gradientUnits="userSpaceOnUse"><stop offset="0" stop-color="#262626" stop-opacity="0"/><stop offset="1" stop-color="#262626" stop-opacity=".8"/></linearGradient><path fill="url(#ZsGKccRBssfYZrxFzqqy5b)" d="M24,4C12.955,4,4,12.955,4,24s8.955,20,20,20s20-8.955,20-20C44,12.955,35.045,4,24,4z M32.616,18.284c-0.36,2.162-1.398,9.319-2.226,13.774c-0.491,2.642-1.593,2.955-3.325,1.812c-0.833-0.55-5.038-3.331-5.951-3.984	c-0.833-0.595-1.982-1.311-0.541-2.721c0.513-0.502,3.874-3.712,6.493-6.21c0.343-0.328-0.088-0.867-0.484-0.604	c-3.53,2.341-8.424,5.59-9.047,6.013c-0.941,0.639-1.845,0.932-3.467,0.466c-1.226-0.352-2.423-0.772-2.889-0.932	c-1.795-0.616-1.369-1.414,0.374-2.181c6.99-3.075,16.035-6.824,17.284-7.343C32.112,15.016,33.117,15.276,32.616,18.284z"/></svg>