<!-- icon666.com - MILLIONS vector ICONS FREE --><svg version="1.1" id="Capa_1" xmlns="http://www.w3.org/2000/svg" xmlns:xlink="http://www.w3.org/1999/xlink" x="0px" y="0px" viewBox="0 0 477.366 477.366" style="enable-background:new 0 0 477.366 477.366;" xml:space="preserve"><g><g><path d="M19.89,452.503c-2.486,4.973,0,9.945,2.486,12.431c4.973,2.486,9.945,2.486,14.918,2.486l74.588-27.349 c37.294,24.863,82.047,37.294,126.8,37.294c131.773,0,238.683-106.91,238.683-238.683S370.456,0,238.683,0S0,106.91,0,238.683 c0,49.726,14.918,99.451,44.753,139.232L19.89,452.503z M24.863,236.197c0-119.342,96.965-213.82,213.82-213.82 s213.82,96.965,213.82,213.82s-96.965,213.82-213.82,213.82c-42.267,0-84.534-12.431-119.342-34.808 c-2.486-2.486-4.973-2.486-7.459-2.486c-2.486,0-2.486,0-4.973,0l-57.185,22.377l19.89-57.184c2.486-4.973,0-7.459-2.486-12.431 C39.781,328.189,24.863,283.436,24.863,236.197z"></path><path d="M285.923,382.888c12.431,2.486,22.377,4.973,34.808,4.973c29.835,0,52.212-12.431,67.13-34.808 c7.459-14.918,9.945-27.349,7.459-39.781c-4.973-14.918-17.404-22.377-19.89-24.863l-37.294-19.89 c-4.973-2.486-9.945-4.973-14.918-4.973c-24.863,0-39.781,27.349-39.781,27.349s-2.486,2.486-7.459,2.486 c-2.486,0-2.486,0-2.486,0c-37.294-12.431-64.643-47.239-77.075-64.643l-2.486-2.486c-9.945-7.459-12.431-7.459-2.486-17.404 c19.89-17.404,14.918-37.294,9.945-44.753l-24.863-59.671c-2.486-4.973-12.431-12.431-22.377-12.431 c-12.431,0-27.349,7.459-44.753,24.863c-42.267,42.267-9.945,106.91-9.945,106.91C146.691,348.08,280.95,380.401,285.923,382.888z M126.8,134.259c14.918-17.404,24.863-17.404,27.349-17.404l27.349,59.671c0,2.486,2.486,7.459-4.973,14.918 c-24.863,22.377-17.404,37.294-4.973,52.212l2.486,2.486c12.431,17.404,44.753,59.671,89.506,72.102c0,0,4.973,0,9.945,0 c12.431,0,22.377-4.973,29.835-14.918c2.486-7.459,14.918-19.89,24.863-14.918l37.294,17.404c0,0,4.973,2.486,7.459,7.459 c2.486,7.459-2.486,14.918-4.973,19.89c-12.431,22.377-37.294,27.349-72.102,19.89c-4.973,0-126.8-32.322-171.554-141.718 C121.828,216.307,96.965,166.581,126.8,134.259z"></path></g></g></svg>