<svg xmlns="http://www.w3.org/2000/svg"  viewBox="0 0 100 100" width="100px" height="100px" fill-rule="evenodd" clip-rule="evenodd"><path d="M15.617,95.999c-2.006,0-3.887-0.785-5.298-2.21c-1.869-1.901-2.59-4.66-1.891-7.211l4.363-15.932 c-2.837-5.894-4.327-12.412-4.323-18.977C8.478,27.59,28.074,8,52.152,8c11.68,0.004,22.653,4.553,30.901,12.808 c8.248,8.256,12.787,19.228,12.783,30.894c-0.009,24.08-19.606,43.67-43.684,43.67c-6.244-0.002-12.476-1.361-18.143-3.943 l-16.501,4.326C16.954,95.91,16.292,95.999,15.617,95.999z" opacity=".35"/><path fill="#f2f2f2" d="M13.617,93.999c-2.006,0-3.887-0.785-5.298-2.21c-1.869-1.901-2.59-4.66-1.891-7.211l4.363-15.932 c-2.837-5.894-4.327-12.412-4.323-18.977C6.478,25.59,26.074,6,50.152,6c11.68,0.004,22.653,4.553,30.901,12.808 c8.248,8.256,12.787,19.228,12.783,30.894c-0.009,24.08-19.606,43.67-43.684,43.67c-6.244-0.002-12.476-1.361-18.143-3.943 l-16.501,4.326C14.954,93.91,14.292,93.999,13.617,93.999z"/><path fill="#f2f2f2" d="M13.617,87.499c-0.252,0-0.496-0.099-0.677-0.282c-0.239-0.242-0.332-0.595-0.242-0.922 l5.036-18.388c-3.122-5.545-4.769-11.842-4.765-18.235C12.976,29.174,29.656,12.5,50.152,12.5 c9.942,0.004,19.283,3.876,26.303,10.902c7.02,7.028,10.885,16.367,10.881,26.297c-0.008,20.496-16.689,37.172-37.184,37.172 c-6.085-0.002-12.106-1.504-17.449-4.345l-18.844,4.94C13.779,87.489,13.699,87.499,13.617,87.499z"/><path fill="#40396e" d="M13.617,88.999c-0.66,0-1.28-0.258-1.744-0.727c-0.615-0.625-0.853-1.534-0.623-2.374l4.875-17.8 c-3.052-5.634-4.661-11.991-4.657-18.427C11.477,28.348,28.83,11,50.152,11c10.342,0.004,20.06,4.032,27.364,11.342 c7.304,7.311,11.324,17.027,11.32,27.357c-0.008,21.324-17.361,38.672-38.684,38.672c-6.121-0.002-12.203-1.469-17.629-4.247 L14.24,88.918C14.056,88.969,13.838,88.999,13.617,88.999z M13.477,86.017c-0.007,0.002-0.015,0.004-0.022,0.006L13.477,86.017z M50.152,14c-19.668,0-35.676,16.003-35.684,35.673c-0.003,6.129,1.578,12.18,4.572,17.499c0.194,0.344,0.244,0.751,0.14,1.132 l-4.786,17.473l17.928-4.701c0.364-0.096,0.751-0.05,1.084,0.127c5.126,2.726,10.917,4.167,16.746,4.169 c19.668,0,35.676-16.003,35.683-35.673c0.004-9.529-3.705-18.492-10.442-25.236C68.657,17.719,59.692,14.004,50.152,14z"/><path fill="#96c362" d="M71.177,28.674c-5.613-5.617-13.074-8.712-21.015-8.713c-16.395,0-29.729,13.328-29.736,29.712 c-0.002,5.615,1.569,11.081,4.545,15.815l0.708,1.124l-3.004,10.964l11.251-2.95l1.087,0.644c4.562,2.709,9.795,4.14,15.129,4.142 h0.011c16.383,0,29.717-13.33,29.723-29.715C79.877,41.758,76.79,34.291,71.177,28.674z"/><g><path fill="#f2f2f2" fill-rule="evenodd" d="M41.096,34.53c-0.677-1.507-1.391-1.538-2.038-1.565 c-0.529-0.023-1.132-0.021-1.735-0.021s-1.584,0.227-2.414,1.133c-0.83,0.906-3.17,3.095-3.17,7.549s3.244,8.759,3.696,9.362 c0.452,0.603,6.263,10.035,15.464,13.665c7.646,3.015,9.203,2.416,10.864,2.265c1.66-0.151,5.356-2.189,6.11-4.303 c0.754-2.114,0.754-3.925,0.529-4.303c-0.227-0.378-0.83-0.603-1.735-1.057c-0.904-0.454-5.356-2.643-6.186-2.944 c-0.83-0.301-1.433-0.452-2.038,0.454c-0.603,0.904-2.338,2.944-2.866,3.547c-0.529,0.605-1.057,0.681-1.962,0.227 c-0.905-0.454-3.82-1.408-7.28-4.492c-2.691-2.399-4.507-5.362-5.036-6.269c-0.529-0.904-0.057-1.395,0.397-1.847 c0.406-0.406,0.905-1.057,1.359-1.586c0.452-0.529,0.603-0.906,0.904-1.509c0.302-0.605,0.151-1.133-0.076-1.586 C43.66,40.797,41.901,36.32,41.096,34.53z" clip-rule="evenodd"/></g></svg>