<svg xmlns="http://www.w3.org/2000/svg"  viewBox="0 0 48 48" width="48px" height="48px" baseProfile="basic"><linearGradient id="DnvnxpTjh-oT-AED80qXoa" x1="11.498" x2="72.194" y1="10.883" y2="83.217" gradientUnits="userSpaceOnUse"><stop offset="0" stop-color="#262626" stop-opacity="0"/><stop offset="1" stop-color="#262626" stop-opacity=".8"/></linearGradient><path fill="#000" d="M18.625,14.944c-0.403-0.897-0.828-0.915-1.213-0.931C17.097,13.999,16.738,14,16.379,14	c-0.359,0-0.943,0.135-1.437,0.675c-0.494,0.539-1.887,1.842-1.887,4.493s1.931,5.213,2.2,5.572	c0.269,0.359,3.728,5.973,9.204,8.133c4.551,1.795,5.478,1.438,6.466,1.348c0.988-0.09,3.188-1.303,3.637-2.561	c0.449-1.258,0.449-2.336,0.315-2.561c-0.135-0.225-0.494-0.359-1.032-0.629s-3.188-1.573-3.682-1.752	c-0.494-0.179-0.853-0.269-1.213,0.27c-0.359,0.538-1.391,1.752-1.706,2.111c-0.315,0.36-0.629,0.405-1.168,0.135	s-2.274-0.838-4.333-2.674c-1.601-1.428-2.683-3.192-2.997-3.731c-0.315-0.538-0.034-0.83,0.236-1.099	c0.242-0.242,0.538-0.629,0.809-0.944c0.269-0.315,0.359-0.539,0.538-0.898c0.179-0.36,0.09-0.675-0.045-0.944	C20.151,18.674,19.104,16.009,18.625,14.944z"/><linearGradient id="DnvnxpTjh-oT-AED80qXob" x1="-8.713" x2="43.724" y1="-2.935" y2="49.503" gradientUnits="userSpaceOnUse"><stop offset="0" stop-color="#262626" stop-opacity="0"/><stop offset="1" stop-color="#262626" stop-opacity=".8"/></linearGradient><path fill="url(#DnvnxpTjh-oT-AED80qXob)" d="M38.153,9.86C34.378,6.083,29.357,4.002,24.014,4C12.998,4,4.032,12.962,4.027,23.979	c-0.001,3.367,0.849,6.685,2.461,9.622L3.903,43.04c-0.094,0.345,0.002,0.713,0.254,0.967c0.19,0.192,0.447,0.297,0.711,0.297	c0.085,0,0.17-0.011,0.254-0.033l9.687-2.54c2.828,1.468,5.998,2.243,9.197,2.244c11.024,0,19.99-8.963,19.995-19.98	C44.003,18.656,41.926,13.636,38.153,9.86z M34.563,31.66c-0.449,1.258-2.649,2.471-3.637,2.561	c-0.988,0.09-1.915,0.446-6.466-1.348c-5.477-2.16-8.935-7.774-9.204-8.133s-2.2-2.921-2.2-5.572s1.392-3.954,1.887-4.493	C15.437,14.135,16.02,14,16.379,14c0.359,0,0.718-0.001,1.032,0.013c0.385,0.016,0.81,0.034,1.213,0.931	c0.479,1.065,1.526,3.73,1.659,4c0.135,0.269,0.225,0.584,0.045,0.944c-0.179,0.359-0.269,0.584-0.538,0.898	c-0.27,0.315-0.567,0.702-0.809,0.944c-0.27,0.269-0.551,0.561-0.236,1.099c0.315,0.539,1.396,2.303,2.997,3.731	c2.059,1.835,3.795,2.403,4.333,2.674c0.538,0.27,0.853,0.225,1.168-0.135c0.315-0.359,1.347-1.573,1.706-2.111	c0.36-0.539,0.719-0.45,1.213-0.27c0.494,0.18,3.144,1.482,3.682,1.753c0.538,0.27,0.897,0.404,1.032,0.629	C35.012,29.324,35.012,30.402,34.563,31.66z"/></svg>